<?xml version="1.0" encoding="UTF-8"?>
<!DOCTYPE svg PUBLIC "-//W3C//DTD SVG 1.1//EN" "http://www.w3.org/Graphics/SVG/1.1/DTD/svg11.dtd">
<svg xmlns="http://www.w3.org/2000/svg" version="1.1" width="450px" height="523px" style="shape-rendering:geometricPrecision; text-rendering:geometricPrecision; image-rendering:optimizeQuality; fill-rule:evenodd; clip-rule:evenodd" xmlns:xlink="http://www.w3.org/1999/xlink">
<g><path style="opacity:0.95" fill="#020101" d="M 224.5,62.5 C 246.246,60.5787 264.746,67.2453 280,82.5C 292.094,99.2028 292.427,116.203 281,133.5C 278.079,137.092 274.579,139.925 270.5,142C 301.841,180.195 312.007,223.362 301,271.5C 293.982,289.852 281.482,303.019 263.5,311C 257.785,313.071 252.118,315.238 246.5,317.5C 265.267,331.694 276.933,350.36 281.5,373.5C 279.278,392.385 268.611,401.718 249.5,401.5C 248.512,416.096 246.012,430.429 242,444.5C 235.458,455.273 225.791,460.273 213,459.5C 204.468,459.99 197.134,457.324 191,451.5C 187.306,445.446 184.139,439.112 181.5,432.5C 174.197,431.503 166.863,431.169 159.5,431.5C 158.979,446.738 151.312,455.904 136.5,459C 123.749,461.942 112.916,458.775 104,449.5C 96.7514,434.422 91.0847,418.755 87,402.5C 72.762,402.272 62.762,395.606 57,382.5C 54.5291,372.486 55.5291,362.82 60,353.5C 65.4193,344.993 71.086,336.66 77,328.5C 81.2436,323.585 86.0769,319.419 91.5,316C 51.9699,303.506 32.6366,276.339 33.5,234.5C 34.9103,204.603 43.9103,177.27 60.5,152.5C 38.8943,138.337 34.061,119.67 46,96.5C 62.004,74.7363 83.1706,66.2363 109.5,71C 124.713,77.8976 133.213,89.731 135,106.5C 140.695,104.828 146.529,103.661 152.5,103C 165.852,102.285 179.185,102.452 192.5,103.5C 192.916,81.6067 203.583,67.94 224.5,62.5 Z"/></g>
<g><path style="opacity:1" fill="#785337" d="M 239.5,78.5 C 233.464,78.3599 227.464,78.6932 221.5,79.5C 224.695,77.9704 228.195,77.3037 232,77.5C 234.69,77.5029 237.19,77.8362 239.5,78.5 Z"/></g>
<g><path style="opacity:1" fill="#704e33" d="M 101.5,84.5 C 96.1383,84.4724 90.8049,84.8058 85.5,85.5C 88.356,83.9942 91.5226,83.3275 95,83.5C 97.3608,83.5039 99.5274,83.8373 101.5,84.5 Z"/></g>
<g><path style="opacity:1" fill="#b98055" d="M 101.5,84.5 C 102.167,84.8333 102.833,85.1667 103.5,85.5C 107.021,91.637 108.355,98.3036 107.5,105.5C 105.833,104.167 104.167,102.833 102.5,101.5C 89.4975,94.1303 78.9975,96.797 71,109.5C 69.3555,116.485 70.8555,122.651 75.5,128C 77.9088,129.707 80.5755,130.54 83.5,130.5C 79.8363,134.157 75.8363,137.491 71.5,140.5C 63.1279,138.128 57.7946,132.795 55.5,124.5C 55.2099,118.678 55.8766,113.012 57.5,107.5C 61.5989,100.233 67.2655,94.3998 74.5,90C 77.9712,87.9281 81.6379,86.4281 85.5,85.5C 90.8049,84.8058 96.1383,84.4724 101.5,84.5 Z"/></g>
<g><path style="opacity:1" fill="#97623c" d="M 103.5,85.5 C 112.31,88.8192 117.81,95.1525 120,104.5C 120.758,106.769 120.591,108.936 119.5,111C 115.764,112.41 112.098,113.91 108.5,115.5C 108.658,112.098 108.324,108.764 107.5,105.5C 108.355,98.3036 107.021,91.637 103.5,85.5 Z"/></g>
<g><path style="opacity:1" fill="#99643d" d="M 262.5,88.5 C 275.439,97.7524 277.939,109.419 270,123.5C 266.032,127.983 261.198,130.983 255.5,132.5C 259.437,127.544 261.937,121.877 263,115.5C 263.748,106.465 263.581,97.4653 262.5,88.5 Z"/></g>
<g><path style="opacity:1" fill="#facca2" d="M 102.5,101.5 C 102.687,107.212 102.354,112.879 101.5,118.5C 95.2509,122.074 89.2509,126.074 83.5,130.5C 80.5755,130.54 77.9088,129.707 75.5,128C 70.8555,122.651 69.3555,116.485 71,109.5C 78.9975,96.797 89.4975,94.1303 102.5,101.5 Z"/></g>
<g><path style="opacity:1" fill="#f2b47b" d="M 102.5,101.5 C 104.167,102.833 105.833,104.167 107.5,105.5C 108.324,108.764 108.658,112.098 108.5,115.5C 106.287,116.773 103.954,117.773 101.5,118.5C 102.354,112.879 102.687,107.212 102.5,101.5 Z"/></g>
<g><path style="opacity:1" fill="#68482f" d="M 57.5,107.5 C 55.8766,113.012 55.2099,118.678 55.5,124.5C 54.3547,120.689 54.1881,116.689 55,112.5C 55.3736,110.509 56.207,108.842 57.5,107.5 Z"/></g>
<g><path style="opacity:1" fill="#996a46" d="M 186.5,118.5 C 172.48,118.301 158.48,118.634 144.5,119.5C 158.422,115.904 172.422,115.571 186.5,118.5 Z"/></g>
<g><path style="opacity:1" fill="#bc8256" d="M 239.5,78.5 C 248.25,79.5214 255.917,82.8548 262.5,88.5C 263.581,97.4653 263.748,106.465 263,115.5C 261.937,121.877 259.437,127.544 255.5,132.5C 252.316,134.01 249.149,135.677 246,137.5C 244.881,145.386 248.381,149.22 256.5,149C 267.158,160.162 275.158,172.995 280.5,187.5C 288.228,224.783 278.561,256.617 251.5,283C 247.5,285.667 243.5,288.333 239.5,291C 223.165,297.726 206.499,302.893 189.5,306.5C 187.938,306.733 186.605,307.4 185.5,308.5C 177.677,307.671 169.677,307.171 161.5,307C 175.002,305.987 184.002,299.154 188.5,286.5C 189.833,280.833 189.833,275.167 188.5,269.5C 186.769,263.603 184.103,258.27 180.5,253.5C 185.992,256.921 191.992,258.254 198.5,257.5C 193.543,268.415 196.543,276.249 207.5,281C 221.577,284.541 231.41,279.707 237,266.5C 237.667,263.167 237.667,259.833 237,256.5C 234.194,253.694 231.36,250.86 228.5,248C 223.507,246.286 218.507,246.119 213.5,247.5C 213.66,245.847 214.326,244.514 215.5,243.5C 217.019,240.474 217.685,237.141 217.5,233.5C 217.685,229.859 217.019,226.526 215.5,223.5C 208.111,209.868 197.111,206.035 182.5,212C 170.561,220.703 167.561,231.87 173.5,245.5C 159.629,236.236 144.295,232.403 127.5,234C 122.005,234.773 117.005,236.606 112.5,239.5C 110.716,239.893 109.05,240.559 107.5,241.5C 107.5,240.833 107.5,240.167 107.5,239.5C 108.645,235.689 108.812,231.689 108,227.5C 107.626,225.509 106.793,223.842 105.5,222.5C 102.322,216.914 97.6557,213.248 91.5,211.5C 88.041,210.135 84.7076,210.469 81.5,212.5C 76.5796,214.419 72.913,217.752 70.5,222.5C 69.207,223.842 68.3736,225.509 68,227.5C 67.1881,231.689 67.3547,235.689 68.5,239.5C 69.871,241.936 70.871,244.603 71.5,247.5C 68.5,247.5 65.5,247.5 62.5,247.5C 62.4977,242.979 62.1644,238.479 61.5,234C 62.6951,227.55 63.5285,221.05 64,214.5C 67.1786,203.777 70.0119,193.11 72.5,182.5C 72.3367,184.857 72.5034,187.19 73,189.5C 81.2254,197.242 90.7254,199.408 101.5,196C 107.52,190.834 107.853,185.5 102.5,180C 93.8397,179.5 85.1731,179.334 76.5,179.5C 80.9071,169.023 87.0737,159.69 95,151.5C 106.778,141.209 118.945,131.542 131.5,122.5C 135.547,120.74 139.88,119.74 144.5,119.5C 158.48,118.634 172.48,118.301 186.5,118.5C 189.518,118.335 192.518,118.502 195.5,119C 198.529,125.276 203.029,126.776 209,123.5C 209.923,121.966 210.423,120.299 210.5,118.5C 206.021,107.558 206.521,96.8916 212,86.5C 214.501,83.1517 217.668,80.8184 221.5,79.5C 227.464,78.6932 233.464,78.3599 239.5,78.5 Z"/></g>
<g><path style="opacity:1" fill="#fccea4" d="M 236.5,91.5 C 246.436,90.7405 253.602,94.7405 258,103.5C 258.732,108.039 258.066,112.372 256,116.5C 252.545,119.803 248.711,122.469 244.5,124.5C 241.201,125.376 237.868,125.543 234.5,125C 232.646,122.457 231.479,119.624 231,116.5C 228.992,107.187 230.825,98.8533 236.5,91.5 Z"/></g>
<g><path style="opacity:1" fill="#f8b77d" d="M 236.5,91.5 C 230.825,98.8533 228.992,107.187 231,116.5C 231.479,119.624 232.646,122.457 234.5,125C 237.868,125.543 241.201,125.376 244.5,124.5C 237.376,127.714 230.709,126.714 224.5,121.5C 220.341,114.593 219.507,107.26 222,99.5C 225.293,94.0399 230.126,91.3732 236.5,91.5 Z"/></g>
<g><path style="opacity:1" fill="#c69572" d="M 131.5,122.5 C 118.945,131.542 106.778,141.209 95,151.5C 87.0737,159.69 80.9071,169.023 76.5,179.5C 75.1667,180.5 73.8333,181.5 72.5,182.5C 70.0119,193.11 67.1786,203.777 64,214.5C 63.5285,221.05 62.6951,227.55 61.5,234C 62.1644,238.479 62.4977,242.979 62.5,247.5C 54.6561,249.295 51.3228,253.962 52.5,261.5C 50.6536,257.132 49.4869,252.465 49,247.5C 48.0862,213.915 57.4195,183.581 77,156.5C 91.4369,139.238 109.604,127.904 131.5,122.5 Z"/></g>
<g><path style="opacity:1" fill="#2b1d14" d="M 174.5,177.5 C 184.839,177.334 195.172,177.5 205.5,178C 210.218,179.449 211.718,182.615 210,187.5C 200.163,196.399 188.996,198.899 176.5,195C 174.667,192.5 172.833,190 171,187.5C 170.333,185.5 170.333,183.5 171,181.5C 172.376,180.295 173.542,178.962 174.5,177.5 Z"/></g>
<g><path style="opacity:1" fill="#291c13" d="M 76.5,179.5 C 85.1731,179.334 93.8397,179.5 102.5,180C 107.853,185.5 107.52,190.834 101.5,196C 90.7254,199.408 81.2254,197.242 73,189.5C 72.5034,187.19 72.3367,184.857 72.5,182.5C 73.8333,181.5 75.1667,180.5 76.5,179.5 Z"/></g>
<g><path style="opacity:1" fill="#9a643d" d="M 280.5,187.5 C 284.342,195.363 287.009,203.697 288.5,212.5C 290.164,224.432 290.831,236.432 290.5,248.5C 287.224,276.615 271.891,294.448 244.5,302C 226.405,306.083 208.072,307.583 189.5,306.5C 206.499,302.893 223.165,297.726 239.5,291C 243.5,288.333 247.5,285.667 251.5,283C 278.561,256.617 288.228,224.783 280.5,187.5 Z"/></g>
<g><path style="opacity:1" fill="#030201" d="M 215.5,223.5 C 216.833,230.167 216.833,236.833 215.5,243.5C 214.326,244.514 213.66,245.847 213.5,247.5C 209.255,252.112 204.255,255.445 198.5,257.5C 191.992,258.254 185.992,256.921 180.5,253.5C 178.138,250.808 175.804,248.141 173.5,245.5C 167.561,231.87 170.561,220.703 182.5,212C 197.111,206.035 208.111,209.868 215.5,223.5 Z"/></g>
<g><path style="opacity:1" fill="#563c27" d="M 91.5,211.5 C 88.1401,211.616 84.8067,211.949 81.5,212.5C 84.7076,210.469 88.041,210.135 91.5,211.5 Z"/></g>
<g><path style="opacity:1" fill="#040201" d="M 91.5,211.5 C 97.6557,213.248 102.322,216.914 105.5,222.5C 107.123,228.012 107.79,233.678 107.5,239.5C 107.5,240.167 107.5,240.833 107.5,241.5C 104.901,246.764 101.234,251.097 96.5,254.5C 92.682,256.013 88.682,256.68 84.5,256.5C 82.0926,254.787 79.426,253.453 76.5,252.5C 75.1455,250.479 73.4788,248.812 71.5,247.5C 70.871,244.603 69.871,241.936 68.5,239.5C 68.2099,233.678 68.8766,228.012 70.5,222.5C 72.913,217.752 76.5796,214.419 81.5,212.5C 84.8067,211.949 88.1401,211.616 91.5,211.5 Z"/></g>
<g><path style="opacity:1" fill="#4c3523" d="M 215.5,223.5 C 217.019,226.526 217.685,229.859 217.5,233.5C 217.685,237.141 217.019,240.474 215.5,243.5C 216.833,236.833 216.833,230.167 215.5,223.5 Z"/></g>
<g><path style="opacity:1" fill="#553b27" d="M 70.5,222.5 C 68.8766,228.012 68.2099,233.678 68.5,239.5C 67.3547,235.689 67.1881,231.689 68,227.5C 68.3736,225.509 69.207,223.842 70.5,222.5 Z"/></g>
<g><path style="opacity:1" fill="#4e3624" d="M 105.5,222.5 C 106.793,223.842 107.626,225.509 108,227.5C 108.812,231.689 108.645,235.689 107.5,239.5C 107.79,233.678 107.123,228.012 105.5,222.5 Z"/></g>
<g><path style="opacity:1" fill="#facda4" d="M 173.5,245.5 C 175.804,248.141 178.138,250.808 180.5,253.5C 180.315,275.232 171.649,292.732 154.5,306C 147.803,306.649 141.47,307.816 135.5,309.5C 134.118,308.199 132.452,307.366 130.5,307C 121.363,306.718 112.363,305.552 103.5,303.5C 102.167,302.167 100.833,300.833 99.5,299.5C 95.5781,283.165 97.4115,267.499 105,252.5C 108.038,248.418 110.538,244.085 112.5,239.5C 117.005,236.606 122.005,234.773 127.5,234C 144.295,232.403 159.629,236.236 173.5,245.5 Z"/></g>
<g><path style="opacity:1" fill="#593a23" d="M 288.5,212.5 C 289.925,215.903 290.758,219.57 291,223.5C 291.823,232.01 291.657,240.344 290.5,248.5C 290.831,236.432 290.164,224.432 288.5,212.5 Z"/></g>
<g><path style="opacity:1" fill="#0c0907" d="M 123.5,238.5 C 129.176,238.334 134.843,238.501 140.5,239C 145.746,240.237 147.58,243.404 146,248.5C 144.305,251.695 141.805,254.028 138.5,255.5C 135.62,262.199 137.787,265.866 145,266.5C 148.977,265.859 151.811,263.692 153.5,260C 162.257,259.423 164.423,262.923 160,270.5C 151.592,278.524 142.426,279.524 132.5,273.5C 121.355,281.504 112.522,279.504 106,267.5C 105.167,261.667 107.667,259.167 113.5,260C 115.405,261.815 117.072,263.815 118.5,266C 121.14,266.839 123.473,266.339 125.5,264.5C 126.655,261.554 126.821,258.554 126,255.5C 117.284,250.578 116.451,244.911 123.5,238.5 Z"/></g>
<g><path style="opacity:1" fill="#f7d8bc" d="M 112.5,239.5 C 110.538,244.085 108.038,248.418 105,252.5C 97.4115,267.499 95.5781,283.165 99.5,299.5C 98.609,298.89 97.609,298.557 96.5,298.5C 85.9482,283.936 85.9482,269.269 96.5,254.5C 101.234,251.097 104.901,246.764 107.5,241.5C 109.05,240.559 110.716,239.893 112.5,239.5 Z"/></g>
<g><path style="opacity:1" fill="#434343" d="M 125.5,240.5 C 133.49,241.278 134.49,244.444 128.5,250C 124.819,251.314 122.486,250.147 121.5,246.5C 121.866,243.744 123.2,241.744 125.5,240.5 Z"/></g>
<g><path style="opacity:1" fill="#e28270" d="M 62.5,247.5 C 65.5,247.5 68.5,247.5 71.5,247.5C 73.4788,248.812 75.1455,250.479 76.5,252.5C 79.426,253.453 82.0926,254.787 84.5,256.5C 87.8056,263.932 86.8056,270.765 81.5,277C 79.1332,278.845 76.4665,280.011 73.5,280.5C 70.4816,280.665 67.4816,280.498 64.5,280C 63.0899,278.628 61.4233,277.795 59.5,277.5C 56.0978,272.69 53.7645,267.357 52.5,261.5C 51.3228,253.962 54.6561,249.295 62.5,247.5 Z"/></g>
<g><path style="opacity:1" fill="#e3806d" d="M 198.5,257.5 C 204.255,255.445 209.255,252.112 213.5,247.5C 218.507,246.119 223.507,246.286 228.5,248C 231.36,250.86 234.194,253.694 237,256.5C 237.667,259.833 237.667,263.167 237,266.5C 231.41,279.707 221.577,284.541 207.5,281C 196.543,276.249 193.543,268.415 198.5,257.5 Z"/></g>
<g><path style="opacity:1" fill="#bd8358" d="M 96.5,254.5 C 85.9482,269.269 85.9482,283.936 96.5,298.5C 87.059,294.721 79.3924,288.721 73.5,280.5C 76.4665,280.011 79.1332,278.845 81.5,277C 86.8056,270.765 87.8056,263.932 84.5,256.5C 88.682,256.68 92.682,256.013 96.5,254.5 Z"/></g>
<g><path style="opacity:1" fill="#fab97d" d="M 180.5,253.5 C 184.103,258.27 186.769,263.603 188.5,269.5C 189.833,275.167 189.833,280.833 188.5,286.5C 184.002,299.154 175.002,305.987 161.5,307C 169.677,307.171 177.677,307.671 185.5,308.5C 182.368,317.393 185.701,321.393 195.5,320.5C 195.5,321.167 195.833,321.5 196.5,321.5C 197.038,323.117 197.371,324.784 197.5,326.5C 172.405,328.391 147.405,327.557 122.5,324C 121.062,323.781 119.729,323.281 118.5,322.5C 118.863,321.817 119.196,321.15 119.5,320.5C 124.297,320.879 128.964,320.379 133.5,319C 136.58,316.355 137.247,313.188 135.5,309.5C 141.47,307.816 147.803,306.649 154.5,306C 171.649,292.732 180.315,275.232 180.5,253.5 Z"/></g>
<g><path style="opacity:1" fill="#c1926f" d="M 59.5,277.5 C 61.4233,277.795 63.0899,278.628 64.5,280C 67.4816,280.498 70.4816,280.665 73.5,280.5C 79.3924,288.721 87.059,294.721 96.5,298.5C 97.609,298.557 98.609,298.89 99.5,299.5C 100.833,300.833 102.167,302.167 103.5,303.5C 85.0593,300.956 70.3926,292.289 59.5,277.5 Z"/></g>
<g><path style="opacity:1" fill="#fcdec3" d="M 108.5,319.5 C 111.215,321.072 114.215,322.072 117.5,322.5C 113.735,333.561 110.902,344.894 109,356.5C 107.101,367.123 108.935,376.956 114.5,386C 114.272,386.399 113.938,386.565 113.5,386.5C 112.167,385.833 110.833,385.167 109.5,384.5C 100.676,377.395 96.6756,368.061 97.5,356.5C 98.9763,343.414 102.643,331.081 108.5,319.5 Z"/></g>
<g><path style="opacity:1" fill="#6c462b" d="M 229.5,320.5 C 218.514,321.209 207.514,321.543 196.5,321.5C 195.833,321.5 195.5,321.167 195.5,320.5C 207.012,320.07 218.345,320.07 229.5,320.5 Z"/></g>
<g><path style="opacity:1" fill="#fccfa5" d="M 108.5,319.5 C 112.154,319.942 115.821,320.276 119.5,320.5C 119.196,321.15 118.863,321.817 118.5,322.5C 119.729,323.281 121.062,323.781 122.5,324C 147.405,327.557 172.405,328.391 197.5,326.5C 207.849,380.651 185.849,402.818 131.5,393C 124.97,391.883 118.97,389.716 113.5,386.5C 113.938,386.565 114.272,386.399 114.5,386C 108.935,376.956 107.101,367.123 109,356.5C 110.902,344.894 113.735,333.561 117.5,322.5C 114.215,322.072 111.215,321.072 108.5,319.5 Z"/></g>
<g><path style="opacity:1" fill="#bb8256" d="M 229.5,320.5 C 230.794,322.907 232.461,325.074 234.5,327C 245.089,334.42 253.755,343.587 260.5,354.5C 259.672,360.653 259.172,366.987 259,373.5C 256.096,380.524 250.929,384.524 243.5,385.5C 235.878,381.045 229.711,375.045 225,367.5C 219.424,358.099 215.424,348.099 213,337.5C 209.592,332.759 205.925,332.425 202,336.5C 201.46,346.346 203.46,355.679 208,364.5C 214.188,376.844 222.688,387.177 233.5,395.5C 234.736,399.186 234.569,402.852 233,406.5C 230.394,414.986 227.394,423.319 224,431.5C 219.432,438.193 213.266,442.526 205.5,444.5C 203.629,444.141 202.129,443.141 201,441.5C 195.421,431.431 191.421,420.765 189,409.5C 184.951,404.182 180.951,404.182 177,409.5C 176.231,412.099 176.398,414.599 177.5,417C 165.045,417.979 152.712,417.479 140.5,415.5C 132.818,412.491 125.485,408.658 118.5,404C 111.978,398.81 108.978,392.31 109.5,384.5C 110.833,385.167 112.167,385.833 113.5,386.5C 118.97,389.716 124.97,391.883 131.5,393C 185.849,402.818 207.849,380.651 197.5,326.5C 197.371,324.784 197.038,323.117 196.5,321.5C 207.514,321.543 218.514,321.209 229.5,320.5 Z"/></g>
<g><path style="opacity:1" fill="#b27a51" d="M 85.5,340.5 C 86.1239,340.917 86.4573,341.584 86.5,342.5C 83.0144,356.958 81.681,371.624 82.5,386.5C 73.9858,385.654 69.6524,380.987 69.5,372.5C 72.1869,360.459 77.5203,349.793 85.5,340.5 Z"/></g>
<g><path style="opacity:1" fill="#c49471" d="M 260.5,354.5 C 266.438,362.721 267.938,371.721 265,381.5C 258.823,387.809 251.656,389.142 243.5,385.5C 250.929,384.524 256.096,380.524 259,373.5C 259.172,366.987 259.672,360.653 260.5,354.5 Z"/></g>
<g><path style="opacity:1" fill="#c79773" d="M 97.5,356.5 C 96.6756,368.061 100.676,377.395 109.5,384.5C 108.978,392.31 111.978,398.81 118.5,404C 125.485,408.658 132.818,412.491 140.5,415.5C 103.874,411.594 89.5402,391.927 97.5,356.5 Z"/></g>
<g><path style="opacity:1" fill="#9c663f" d="M 233.5,395.5 C 234.995,395.415 235.995,396.081 236.5,397.5C 235.336,406.145 234.169,414.812 233,423.5C 232.216,429.754 230.55,435.754 228,441.5C 220.905,446.564 213.405,447.564 205.5,444.5C 213.266,442.526 219.432,438.193 224,431.5C 227.394,423.319 230.394,414.986 233,406.5C 234.569,402.852 234.736,399.186 233.5,395.5 Z"/></g>
<g><path style="opacity:1" fill="#b98055" d="M 110.5,420.5 C 110.859,422.371 111.859,423.871 113.5,425C 119.755,429.378 125.922,433.878 132,438.5C 133.202,440.677 133.702,443.011 133.5,445.5C 127.233,447.301 121.399,446.301 116,442.5C 111.818,434.828 108.818,426.828 107,418.5C 108.113,419.305 109.279,419.972 110.5,420.5 Z"/></g>
<g><path style="opacity:1" fill="#9b653e" d="M 110.5,420.5 C 121.85,426.004 133.85,429.004 146.5,429.5C 146.392,438.43 142.059,443.763 133.5,445.5C 133.702,443.011 133.202,440.677 132,438.5C 125.922,433.878 119.755,429.378 113.5,425C 111.859,423.871 110.859,422.371 110.5,420.5 Z"/></g>
</svg>
