<?xml version="1.0" encoding="UTF-8"?>
<!DOCTYPE svg PUBLIC "-//W3C//DTD SVG 1.1//EN" "http://www.w3.org/Graphics/SVG/1.1/DTD/svg11.dtd">
<svg xmlns="http://www.w3.org/2000/svg" version="1.1" width="450px" height="523px" style="shape-rendering:geometricPrecision; text-rendering:geometricPrecision; image-rendering:optimizeQuality; fill-rule:evenodd; clip-rule:evenodd" xmlns:xlink="http://www.w3.org/1999/xlink">
<g><path style="opacity:0.949" fill="#030201" d="M 221.5,61.5 C 235.137,60.2814 248.47,62.1148 261.5,67C 279.173,74.8556 289.173,88.3556 291.5,107.5C 291.177,116.978 288.01,125.311 282,132.5C 279.079,136.092 275.579,138.925 271.5,141C 302.347,178.219 312.513,220.386 302,267.5C 292.058,293.254 273.558,309.421 246.5,316C 251.046,320.214 255.879,324.047 261,327.5C 266.914,335.66 272.581,343.993 278,352.5C 280.23,358.016 281.73,363.683 282.5,369.5C 281.379,389.6 270.379,399.6 249.5,399.5C 248.73,414.787 246.23,429.787 242,444.5C 235.458,455.273 225.791,460.273 213,459.5C 202.865,460.243 194.865,456.577 189,448.5C 185.808,442.748 183.308,436.748 181.5,430.5C 174.492,430.334 167.492,430.5 160.5,431C 158.385,450.449 147.552,459.949 128,459.5C 115.279,460.311 106.279,454.977 101,443.5C 94.6571,428.972 89.8238,413.972 86.5,398.5C 71.6273,399.427 61.1273,393.093 55,379.5C 55.0583,376.183 54.8917,372.683 54.5,369C 56.1967,358.917 59.6967,349.417 65,340.5C 69.3799,335.789 73.3799,330.789 77,325.5C 81.7969,320.97 86.6302,317.137 91.5,314C 54.1659,302.638 34.8326,277.305 33.5,238C 34.9827,206.038 44.316,176.705 61.5,150C 42.1459,137.94 36.3126,121.107 44,99.5C 50.2332,89.5975 58.2332,81.2642 68,74.5C 68.3333,74.8333 68.6667,75.1667 69,75.5C 85.9744,64.2713 103.141,63.7713 120.5,74C 129.505,82.1762 134.672,92.3429 136,104.5C 141.695,102.828 147.529,101.661 153.5,101C 166.852,100.285 180.185,100.452 193.5,101.5C 193.978,81.7281 203.311,68.3948 221.5,61.5 Z"/></g>
<g><path style="opacity:1" fill="#bc8256" d="M 262.5,85.5 C 264.555,95.009 265.055,104.676 264,114.5C 262.895,120.327 260.728,125.66 257.5,130.5C 253.524,131.659 250.024,133.659 247,136.5C 245.919,143.836 249.086,147.336 256.5,147C 268.981,159.808 277.981,174.641 283.5,191.5C 285.209,215.479 280.709,238.145 270,259.5C 262.002,273.831 250.502,284.331 235.5,291C 220.719,297.845 205.385,302.345 189.5,304.5C 188.167,305.167 186.833,305.833 185.5,306.5C 178.679,305.671 171.679,305.171 164.5,305C 176.974,303.356 184.974,296.523 188.5,284.5C 189.663,278.863 189.83,273.196 189,267.5C 187.354,262.215 185.187,257.215 182.5,252.5C 188.862,255.67 195.529,256.336 202.5,254.5C 201.791,255.404 200.791,255.737 199.5,255.5C 194.805,266.593 197.805,274.76 208.5,280C 220.725,281.969 230.225,277.803 237,267.5C 240.055,253.367 234.221,246.034 219.5,245.5C 217.41,245.573 215.41,245.906 213.5,246.5C 222.211,229.132 217.878,216.298 200.5,208C 186.419,205.623 176.919,211.123 172,224.5C 171.151,230.962 171.651,237.295 173.5,243.5C 159.765,233.733 144.431,229.899 127.5,232C 122.002,232.78 117.002,234.613 112.5,237.5C 110.95,238.441 109.284,239.107 107.5,239.5C 110.611,227.662 107.277,218.162 97.5,211C 85.2234,206.218 76.0567,209.718 70,221.5C 67.7936,229.354 68.2936,237.021 71.5,244.5C 68.5,244.5 65.5,244.5 62.5,244.5C 60.9316,224.008 64.2649,204.341 72.5,185.5C 78.2955,191.112 85.2955,194.445 93.5,195.5C 103.1,194.916 107.6,189.916 107,180.5C 105.926,179.382 104.76,178.382 103.5,177.5C 94.8589,176.502 86.1922,176.169 77.5,176.5C 79.1284,171.91 81.2951,167.577 84,163.5C 88.653,157.183 93.653,151.183 99,145.5C 110.928,137.298 122.094,128.965 132.5,120.5C 138.235,118.447 144.235,116.947 150.5,116C 166.282,114.918 181.949,115.751 197.5,118.5C 201.053,125.62 205.553,126.287 211,120.5C 211.823,116.262 211.156,112.262 209,108.5C 207.179,84.3227 218.346,73.8227 242.5,77C 250.054,78.0095 256.721,80.8429 262.5,85.5 Z"/></g>
<g><path style="opacity:1" fill="#ba8156" d="M 103.5,82.5 C 107.899,88.3566 109.565,95.0233 108.5,102.5C 106.833,101.167 105.167,99.8333 103.5,98.5C 92.7999,93.3861 83.2999,95.0527 75,103.5C 68.1734,115.171 71.0067,123.504 83.5,128.5C 80.5743,131.317 77.5743,134.151 74.5,137C 66.2455,136.437 60.4121,132.27 57,124.5C 54.7059,111.712 58.5392,101.212 68.5,93C 74.7742,88.0288 81.7742,84.3621 89.5,82C 94.3522,81.1849 99.0189,81.3516 103.5,82.5 Z"/></g>
<g><path style="opacity:1" fill="#98633d" d="M 103.5,82.5 C 115.859,87.0522 121.525,95.8855 120.5,109C 116.764,110.41 113.098,111.91 109.5,113.5C 109.577,109.785 109.244,106.119 108.5,102.5C 109.565,95.0233 107.899,88.3566 103.5,82.5 Z"/></g>
<g><path style="opacity:1" fill="#9c653e" d="M 262.5,85.5 C 276.15,95.2956 278.984,107.629 271,122.5C 267.187,126.323 262.687,128.99 257.5,130.5C 260.728,125.66 262.895,120.327 264,114.5C 265.055,104.676 264.555,95.009 262.5,85.5 Z"/></g>
<g><path style="opacity:1" fill="#f8b87d" d="M 243.5,90.5 C 241.473,90.3379 239.473,90.5045 237.5,91C 231.805,98.1758 229.971,106.342 232,115.5C 232.638,118.764 233.804,121.764 235.5,124.5C 223.39,121.513 218.89,113.847 222,101.5C 226.189,91.8228 233.356,88.1561 243.5,90.5 Z"/></g>
<g><path style="opacity:1" fill="#fccea4" d="M 243.5,90.5 C 245.927,90.523 248.26,91.023 250.5,92C 262.898,102.925 262.232,112.925 248.5,122C 244.368,123.9 240.034,124.733 235.5,124.5C 233.804,121.764 232.638,118.764 232,115.5C 229.971,106.342 231.805,98.1758 237.5,91C 239.473,90.5045 241.473,90.3379 243.5,90.5 Z"/></g>
<g><path style="opacity:1" fill="#facda3" d="M 103.5,98.5 C 103.697,104.545 103.363,110.545 102.5,116.5C 96.026,120.239 89.6927,124.239 83.5,128.5C 71.0067,123.504 68.1734,115.171 75,103.5C 83.2999,95.0527 92.7999,93.3861 103.5,98.5 Z"/></g>
<g><path style="opacity:1" fill="#f3b57c" d="M 103.5,98.5 C 105.167,99.8333 106.833,101.167 108.5,102.5C 109.244,106.119 109.577,109.785 109.5,113.5C 107.085,114.305 104.751,115.305 102.5,116.5C 103.363,110.545 103.697,104.545 103.5,98.5 Z"/></g>
<g><path style="opacity:1" fill="#c69672" d="M 132.5,120.5 C 122.094,128.965 110.928,137.298 99,145.5C 93.653,151.183 88.653,157.183 84,163.5C 81.2951,167.577 79.1284,171.91 77.5,176.5C 73.0835,177.869 71.4168,180.869 72.5,185.5C 64.2649,204.341 60.9316,224.008 62.5,244.5C 57.9601,246.368 54.2935,249.368 51.5,253.5C 46.364,215.768 55.5307,182.101 79,152.5C 93.7457,136.549 111.579,125.882 132.5,120.5 Z"/></g>
<g><path style="opacity:1" fill="#281b12" d="M 174.5,175.5 C 185.838,175.333 197.172,175.5 208.5,176C 212.105,179.315 212.439,182.982 209.5,187C 200.839,192.165 191.506,194.499 181.5,194C 171.829,190.213 169.495,184.046 174.5,175.5 Z"/></g>
<g><path style="opacity:1" fill="#2a1d14" d="M 77.5,176.5 C 86.1922,176.169 94.8589,176.502 103.5,177.5C 104.76,178.382 105.926,179.382 107,180.5C 107.6,189.916 103.1,194.916 93.5,195.5C 85.2955,194.445 78.2955,191.112 72.5,185.5C 71.4168,180.869 73.0835,177.869 77.5,176.5 Z"/></g>
<g><path style="opacity:1" fill="#9c663e" d="M 283.5,191.5 C 285.72,199.013 287.887,206.68 290,214.5C 299.227,267.935 277.06,297.769 223.5,304C 212.172,304.5 200.838,304.667 189.5,304.5C 205.385,302.345 220.719,297.845 235.5,291C 250.502,284.331 262.002,273.831 270,259.5C 280.709,238.145 285.209,215.479 283.5,191.5 Z"/></g>
<g><path style="opacity:1" fill="#030101" d="M 213.5,246.5 C 210.327,249.913 206.66,252.58 202.5,254.5C 195.529,256.336 188.862,255.67 182.5,252.5C 181.5,251.833 180.5,251.167 179.5,250.5C 177.471,248.142 175.471,245.808 173.5,243.5C 171.651,237.295 171.151,230.962 172,224.5C 176.919,211.123 186.419,205.623 200.5,208C 217.878,216.298 222.211,229.132 213.5,246.5 Z"/></g>
<g><path style="opacity:1" fill="#040201" d="M 107.5,239.5 C 105.453,245.294 101.787,249.628 96.5,252.5C 92.5483,253.272 88.5483,253.605 84.5,253.5C 78.8991,252.21 74.5658,249.21 71.5,244.5C 68.2936,237.021 67.7936,229.354 70,221.5C 76.0567,209.718 85.2234,206.218 97.5,211C 107.277,218.162 110.611,227.662 107.5,239.5 Z"/></g>
<g><path style="opacity:1" fill="#f9cda3" d="M 173.5,243.5 C 175.471,245.808 177.471,248.142 179.5,250.5C 181.395,265.906 177.561,279.572 168,291.5C 163.756,296.415 158.923,300.581 153.5,304C 147.151,304.692 141.151,305.858 135.5,307.5C 134.118,306.199 132.452,305.366 130.5,305C 121.357,304.566 112.357,303.399 103.5,301.5C 101.833,299.833 100.167,298.167 98.5,296.5C 98.1807,286.374 98.6807,276.041 100,265.5C 103.162,255.684 107.662,246.517 113.5,238C 113.272,237.601 112.938,237.435 112.5,237.5C 117.002,234.613 122.002,232.78 127.5,232C 144.431,229.899 159.765,233.733 173.5,243.5 Z"/></g>
<g><path style="opacity:1" fill="#fadbbf" d="M 112.5,237.5 C 112.938,237.435 113.272,237.601 113.5,238C 107.662,246.517 103.162,255.684 100,265.5C 98.6807,276.041 98.1807,286.374 98.5,296.5C 97.5,295.833 96.5,295.167 95.5,294.5C 90.0559,285.568 88.5559,275.902 91,265.5C 92.312,260.884 94.1453,256.551 96.5,252.5C 101.787,249.628 105.453,245.294 107.5,239.5C 109.284,239.107 110.95,238.441 112.5,237.5 Z"/></g>
<g><path style="opacity:1" fill="#0c0a08" d="M 123.5,236.5 C 130.257,236.123 136.924,236.623 143.5,238C 148.172,244.887 146.505,250.053 138.5,253.5C 135.62,260.199 137.787,263.866 145,264.5C 148.977,263.859 151.811,261.692 153.5,258C 161.246,257.077 163.746,260.243 161,267.5C 152.69,276.551 143.19,277.884 132.5,271.5C 121.955,279.358 113.455,277.691 107,266.5C 104.832,260.021 106.999,257.188 113.5,258C 115.597,259.646 117.264,261.646 118.5,264C 121.257,264.782 123.757,264.282 126,262.5C 126.667,259.5 126.667,256.5 126,253.5C 120.882,250.514 118.549,246.18 119,240.5C 120.397,238.93 121.897,237.596 123.5,236.5 Z"/></g>
<g><path style="opacity:1" fill="#434343" d="M 125.5,238.5 C 132.425,237.572 134.259,240.239 131,246.5C 128.5,248.536 125.833,248.87 123,247.5C 121.927,243.9 122.76,240.9 125.5,238.5 Z"/></g>
<g><path style="opacity:1" fill="#e48271" d="M 62.5,244.5 C 65.5,244.5 68.5,244.5 71.5,244.5C 74.5658,249.21 78.8991,252.21 84.5,253.5C 89.3741,270.65 82.7074,278.65 64.5,277.5C 63.4863,276.326 62.153,275.66 60.5,275.5C 56.3347,268.677 53.3347,261.344 51.5,253.5C 54.2935,249.368 57.9601,246.368 62.5,244.5 Z"/></g>
<g><path style="opacity:1" fill="#e3806d" d="M 202.5,254.5 C 206.66,252.58 210.327,249.913 213.5,246.5C 215.41,245.906 217.41,245.573 219.5,245.5C 234.221,246.034 240.055,253.367 237,267.5C 230.225,277.803 220.725,281.969 208.5,280C 197.805,274.76 194.805,266.593 199.5,255.5C 200.791,255.737 201.791,255.404 202.5,254.5 Z"/></g>
<g><path style="opacity:1" fill="#bf855b" d="M 96.5,252.5 C 94.1453,256.551 92.312,260.884 91,265.5C 88.5559,275.902 90.0559,285.568 95.5,294.5C 95.2648,295.097 94.7648,295.43 94,295.5C 86.5812,291.081 80.0812,285.581 74.5,279C 70.9748,278.821 67.6414,278.321 64.5,277.5C 82.7074,278.65 89.3741,270.65 84.5,253.5C 88.5483,253.605 92.5483,253.272 96.5,252.5 Z"/></g>
<g><path style="opacity:1" fill="#fab97d" d="M 179.5,250.5 C 180.5,251.167 181.5,251.833 182.5,252.5C 185.187,257.215 187.354,262.215 189,267.5C 189.83,273.196 189.663,278.863 188.5,284.5C 184.974,296.523 176.974,303.356 164.5,305C 171.679,305.171 178.679,305.671 185.5,306.5C 182.656,310.441 182.989,314.107 186.5,317.5C 186.918,318.222 187.584,318.722 188.5,319C 191.146,319.497 193.813,319.664 196.5,319.5C 197.038,321.117 197.371,322.784 197.5,324.5C 172.405,326.391 147.405,325.557 122.5,322C 121.062,321.781 119.729,321.281 118.5,320.5C 118.863,319.817 119.196,319.15 119.5,318.5C 121.167,318.5 122.833,318.5 124.5,318.5C 133.38,319.622 137.047,315.955 135.5,307.5C 141.151,305.858 147.151,304.692 153.5,304C 158.923,300.581 163.756,296.415 168,291.5C 177.561,279.572 181.395,265.906 179.5,250.5 Z"/></g>
<g><path style="opacity:1" fill="#bd8e6d" d="M 60.5,275.5 C 62.153,275.66 63.4863,276.326 64.5,277.5C 67.6414,278.321 70.9748,278.821 74.5,279C 80.0812,285.581 86.5812,291.081 94,295.5C 94.7648,295.43 95.2648,295.097 95.5,294.5C 96.5,295.167 97.5,295.833 98.5,296.5C 100.167,298.167 101.833,299.833 103.5,301.5C 85.1951,299.19 70.8618,290.523 60.5,275.5 Z"/></g>
<g><path style="opacity:1" fill="#3e3126" d="M 108.5,317.5 C 113.874,316.503 119.208,316.836 124.5,318.5C 122.833,318.5 121.167,318.5 119.5,318.5C 115.821,318.276 112.154,317.942 108.5,317.5 Z"/></g>
<g><path style="opacity:1" fill="#fcdec3" d="M 108.5,317.5 C 111.215,319.072 114.215,320.072 117.5,320.5C 113.735,331.561 110.902,342.894 109,354.5C 107.101,365.123 108.935,374.956 114.5,384C 114.272,384.399 113.938,384.565 113.5,384.5C 111.668,383.752 110.001,382.752 108.5,381.5C 100.375,374.489 96.7084,365.489 97.5,354.5C 98.9763,341.414 102.643,329.081 108.5,317.5 Z"/></g>
<g><path style="opacity:1" fill="#442e1d" d="M 186.5,317.5 C 196.802,318.4 207.135,318.733 217.5,318.5C 210.687,319.491 203.687,319.825 196.5,319.5C 193.813,319.664 191.146,319.497 188.5,319C 187.584,318.722 186.918,318.222 186.5,317.5 Z"/></g>
<g><path style="opacity:1" fill="#fccfa5" d="M 108.5,317.5 C 112.154,317.942 115.821,318.276 119.5,318.5C 119.196,319.15 118.863,319.817 118.5,320.5C 119.729,321.281 121.062,321.781 122.5,322C 147.405,325.557 172.405,326.391 197.5,324.5C 207.901,378.6 185.901,400.767 131.5,391C 124.97,389.883 118.97,387.716 113.5,384.5C 113.938,384.565 114.272,384.399 114.5,384C 108.935,374.956 107.101,365.123 109,354.5C 110.902,342.894 113.735,331.561 117.5,320.5C 114.215,320.072 111.215,319.072 108.5,317.5 Z"/></g>
<g><path style="opacity:1" fill="#925f3a" d="M 84.5,350.5 C 81.8333,349.167 79.1667,349.167 76.5,350.5C 79.3741,345.446 82.8741,340.78 87,336.5C 85.9926,341.046 85.1593,345.713 84.5,350.5 Z"/></g>
<g><path style="opacity:1" fill="#bb8256" d="M 217.5,318.5 C 221.514,318.334 225.514,318.501 229.5,319C 233.341,323.927 238.008,327.927 243.5,331C 250.864,337.182 256.864,344.349 261.5,352.5C 260.671,359.321 260.171,366.321 260,373.5C 256.005,378.5 250.838,381.334 244.5,382C 246.32,382.2 247.653,383.034 248.5,384.5C 245.484,384.159 242.818,382.993 240.5,381C 226.388,369.27 217.554,354.437 214,336.5C 210.261,331.723 206.261,331.39 202,335.5C 201.292,343.669 202.959,351.336 207,358.5C 213.608,372.724 223.274,384.39 236,393.5C 236.334,395.847 236.167,398.181 235.5,400.5C 232.072,409.278 228.905,418.278 226,427.5C 221.992,436.683 215.159,442.35 205.5,444.5C 203.629,444.141 202.129,443.141 201,441.5C 195.421,431.431 191.421,420.765 189,409.5C 184.951,404.182 180.951,404.182 177,409.5C 176.503,411.81 176.337,414.143 176.5,416.5C 164.374,416.973 152.374,416.306 140.5,414.5C 130.55,411.104 121.717,405.771 114,398.5C 109.971,393.258 108.138,387.591 108.5,381.5C 110.001,382.752 111.668,383.752 113.5,384.5C 118.97,387.716 124.97,389.883 131.5,391C 185.901,400.767 207.901,378.6 197.5,324.5C 197.371,322.784 197.038,321.117 196.5,319.5C 203.687,319.825 210.687,319.491 217.5,318.5 Z"/></g>
<g><path style="opacity:1" fill="#b67e53" d="M 84.5,350.5 C 82.7432,361.737 82.0766,373.071 82.5,384.5C 70.6421,382.442 66.1421,375.442 69,363.5C 71.0217,358.777 73.5217,354.443 76.5,350.5C 79.1667,349.167 81.8333,349.167 84.5,350.5 Z"/></g>
<g><path style="opacity:1" fill="#c1926f" d="M 261.5,352.5 C 268.76,360.514 270.26,369.514 266,379.5C 261.085,384.038 255.251,385.705 248.5,384.5C 247.653,383.034 246.32,382.2 244.5,382C 250.838,381.334 256.005,378.5 260,373.5C 260.171,366.321 260.671,359.321 261.5,352.5 Z"/></g>
<g><path style="opacity:1" fill="#c79773" d="M 97.5,354.5 C 96.7084,365.489 100.375,374.489 108.5,381.5C 108.138,387.591 109.971,393.258 114,398.5C 121.717,405.771 130.55,411.104 140.5,414.5C 103.383,410.429 89.0497,390.429 97.5,354.5 Z"/></g>
<g><path style="opacity:1" fill="#9c663e" d="M 235.5,400.5 C 235.086,414.571 232.586,428.237 228,441.5C 220.905,446.564 213.405,447.564 205.5,444.5C 215.159,442.35 221.992,436.683 226,427.5C 228.905,418.278 232.072,409.278 235.5,400.5 Z"/></g>
<g><path style="opacity:1" fill="#9c663e" d="M 133.5,445.5 C 133.858,441.05 132.192,437.55 128.5,435C 121.633,431.066 115.3,426.399 109.5,421C 108.563,420.308 107.897,420.475 107.5,421.5C 106.751,420.469 106.085,419.302 105.5,418C 118.177,423.674 131.51,427.507 145.5,429.5C 146.397,438.336 142.397,443.669 133.5,445.5 Z"/></g>
<g><path style="opacity:1" fill="#b98055" d="M 133.5,445.5 C 127.522,447.186 121.855,446.352 116.5,443C 112.617,436.18 109.617,429.013 107.5,421.5C 107.897,420.475 108.563,420.308 109.5,421C 115.3,426.399 121.633,431.066 128.5,435C 132.192,437.55 133.858,441.05 133.5,445.5 Z"/></g>
</svg>
