<?xml version="1.0" encoding="UTF-8"?>
<!DOCTYPE svg PUBLIC "-//W3C//DTD SVG 1.1//EN" "http://www.w3.org/Graphics/SVG/1.1/DTD/svg11.dtd">
<svg xmlns="http://www.w3.org/2000/svg" version="1.1" width="450px" height="523px" style="shape-rendering:geometricPrecision; text-rendering:geometricPrecision; image-rendering:optimizeQuality; fill-rule:evenodd; clip-rule:evenodd" xmlns:xlink="http://www.w3.org/1999/xlink">
<g><path style="opacity:0.949" fill="#030201" d="M 225.5,61.5 C 244.648,60.0309 261.648,65.1975 276.5,77C 292.276,94.1458 294.109,112.646 282,132.5C 279.079,136.092 275.579,138.925 271.5,141C 298.878,174.464 310.045,212.631 305,255.5C 298.321,288.513 278.488,308.679 245.5,316C 250.956,319.787 256.123,323.954 261,328.5C 265.423,335.011 270.089,341.345 275,347.5C 281.004,357.848 283.004,368.848 281,380.5C 278.42,385.577 275.253,390.244 271.5,394.5C 265.02,398.204 258.02,400.204 250.5,400.5C 248.636,415.351 245.803,430.018 242,444.5C 238.611,451.554 233.111,456.054 225.5,458C 201.417,463.796 186.75,454.629 181.5,430.5C 174.492,430.334 167.492,430.5 160.5,431C 158.385,450.449 147.552,459.949 128,459.5C 115.279,460.311 106.279,454.977 101,443.5C 94.8623,429.254 90.029,414.587 86.5,399.5C 63.9269,398.758 53.4269,387.092 55,364.5C 57.288,356.808 60.4547,349.474 64.5,342.5C 68.8268,337.334 72.9935,332.001 77,326.5C 80.9123,321.917 85.4123,318.083 90.5,315C 59.197,305.03 40.697,283.863 35,251.5C 32.409,214.865 41.2423,181.199 61.5,150.5C 42.0623,138.69 36.229,122.024 44,100.5C 55.561,80.1238 73.061,68.7904 96.5,66.5C 119.238,69.1339 132.405,81.8006 136,104.5C 154.644,99.9561 173.477,99.2895 192.5,102.5C 193.8,80.846 204.8,67.1793 225.5,61.5 Z"/></g>
<g><path style="opacity:1" fill="#b88055" d="M 104.5,83.5 C 105.179,86.7068 106.346,89.7068 108,92.5C 108.499,96.8206 108.666,101.154 108.5,105.5C 107.867,102.866 106.2,101.2 103.5,100.5C 99.2246,96.8432 94.2246,95.6765 88.5,97C 75.3026,98.8631 69.8026,106.363 72,119.5C 74.1018,125.443 78.2685,128.443 84.5,128.5C 80.8,132.361 76.6333,135.695 72,138.5C 57.657,132.812 52.657,122.479 57,107.5C 67.6941,89.2364 83.5275,81.2364 104.5,83.5 Z"/></g>
<g><path style="opacity:1" fill="#9a643d" d="M 104.5,83.5 C 112.258,86.2579 117.258,91.5912 119.5,99.5C 119.833,102.833 120.167,106.167 120.5,109.5C 119.209,109.263 118.209,109.596 117.5,110.5C 114.673,111.108 112.007,112.108 109.5,113.5C 109.806,110.615 109.473,107.948 108.5,105.5C 108.666,101.154 108.499,96.8206 108,92.5C 106.346,89.7068 105.179,86.7068 104.5,83.5 Z"/></g>
<g><path style="opacity:1" fill="#9a643d" d="M 263.5,87.5 C 276.256,96.9425 278.756,108.609 271,122.5C 266.988,126.918 262.155,129.918 256.5,131.5C 261.059,126.065 263.559,119.732 264,112.5C 264.74,104.132 264.574,95.7982 263.5,87.5 Z"/></g>
<g><path style="opacity:1" fill="#fbcea4" d="M 103.5,100.5 C 103.687,106.309 103.02,111.975 101.5,117.5C 95.5641,120.773 89.8975,124.439 84.5,128.5C 78.2685,128.443 74.1018,125.443 72,119.5C 69.8026,106.363 75.3026,98.8631 88.5,97C 94.2246,95.6765 99.2246,96.8432 103.5,100.5 Z"/></g>
<g><path style="opacity:1" fill="#f4b57d" d="M 103.5,100.5 C 106.2,101.2 107.867,102.866 108.5,105.5C 109.473,107.948 109.806,110.615 109.5,113.5C 106.833,114.833 104.167,116.167 101.5,117.5C 103.02,111.975 103.687,106.309 103.5,100.5 Z"/></g>
<g><path style="opacity:1" fill="#402a1a" d="M 119.5,99.5 C 121.082,102.876 121.749,106.542 121.5,110.5C 120.167,110.5 118.833,110.5 117.5,110.5C 118.209,109.596 119.209,109.263 120.5,109.5C 120.167,106.167 119.833,102.833 119.5,99.5 Z"/></g>
<g><path style="opacity:1" fill="#bc8256" d="M 263.5,87.5 C 264.574,95.7982 264.74,104.132 264,112.5C 263.559,119.732 261.059,126.065 256.5,131.5C 254.438,132.776 252.104,133.61 249.5,134C 245.577,138.261 245.577,142.594 249.5,147C 251.833,147.333 254.167,147.667 256.5,148C 270.006,160.839 279.006,176.339 283.5,194.5C 284.913,218.179 280.246,240.513 269.5,261.5C 261.927,273.573 251.927,283.073 239.5,290C 231.291,292.438 223.291,295.438 215.5,299C 206.871,301.824 198.204,303.991 189.5,305.5C 187.938,305.733 186.605,306.4 185.5,307.5C 178.679,306.671 171.679,306.171 164.5,306C 176.741,304.057 184.741,297.224 188.5,285.5C 191.199,273.842 189.199,263.176 182.5,253.5C 187.822,256.11 193.489,257.11 199.5,256.5C 194.89,274.4 201.89,282.233 220.5,280C 234.519,276.32 239.686,267.486 236,253.5C 230.094,246.031 222.594,243.698 213.5,246.5C 222.451,226.068 216.117,213.068 194.5,207.5C 179.953,209.045 172.286,217.045 171.5,231.5C 171.267,236.457 172.267,241.124 174.5,245.5C 156.954,232.692 137.62,229.192 116.5,235C 114.416,235.697 112.749,236.864 111.5,238.5C 110.167,238.833 108.833,239.167 107.5,239.5C 110.982,226.766 106.982,217.266 95.5,211C 79.2249,208.097 70.2249,214.93 68.5,231.5C 68.5583,236.396 69.5583,241.063 71.5,245.5C 68.5,245.5 65.5,245.5 62.5,245.5C 60.9336,224.999 64.2669,205.333 72.5,186.5C 78.4931,191.661 85.4931,194.994 93.5,196.5C 102.475,195.365 106.975,190.365 107,181.5C 105.833,180.333 104.667,179.167 103.5,178C 94.5062,177.5 85.5062,177.334 76.5,177.5C 79.1355,171.565 82.3022,165.898 86,160.5C 97.9669,146.537 111.8,134.703 127.5,125C 130.332,123.092 129.999,122.259 126.5,122.5C 135.053,120.172 143.72,118.006 152.5,116C 166.895,115.249 181.228,115.916 195.5,118C 197.711,119.721 199.711,121.721 201.5,124C 207.387,125.565 210.72,123.398 211.5,117.5C 207.021,106.558 207.521,95.8916 213,85.5C 220.672,76.946 230.172,74.1127 241.5,77C 249.765,78.6916 257.098,82.1916 263.5,87.5 Z"/></g>
<g><path style="opacity:1" fill="#fccea4" d="M 237.5,90.5 C 247.159,90.2416 254.326,94.2416 259,102.5C 259.732,107.039 259.066,111.372 257,115.5C 252.564,119.452 247.731,122.452 242.5,124.5C 240.143,124.663 237.81,124.497 235.5,124C 234.206,121.913 233.039,119.746 232,117.5C 229.928,107.542 231.761,98.5422 237.5,90.5 Z"/></g>
<g><path style="opacity:1" fill="#f8b87e" d="M 237.5,90.5 C 231.761,98.5422 229.928,107.542 232,117.5C 233.039,119.746 234.206,121.913 235.5,124C 237.81,124.497 240.143,124.663 242.5,124.5C 226.15,125.958 219.317,118.291 222,101.5C 224.625,94.2694 229.792,90.6027 237.5,90.5 Z"/></g>
<g><path style="opacity:1" fill="#c69672" d="M 126.5,122.5 C 129.999,122.259 130.332,123.092 127.5,125C 111.8,134.703 97.9669,146.537 86,160.5C 82.3022,165.898 79.1355,171.565 76.5,177.5C 72.9924,179.425 71.659,182.425 72.5,186.5C 64.2669,205.333 60.9336,224.999 62.5,245.5C 58.3188,247.332 54.6521,249.998 51.5,253.5C 46.7648,218.44 54.5982,186.44 75,157.5C 88.6974,140.734 105.864,129.068 126.5,122.5 Z"/></g>
<g><path style="opacity:1" fill="#2a1c13" d="M 176.5,175.5 C 186.506,175.334 196.506,175.5 206.5,176C 212.735,179.772 213.068,184.106 207.5,189C 199.366,193.493 190.699,195.493 181.5,195C 174.354,192.199 171.187,187.032 172,179.5C 173.397,177.93 174.897,176.596 176.5,175.5 Z"/></g>
<g><path style="opacity:1" fill="#291c13" d="M 76.5,177.5 C 85.5062,177.334 94.5062,177.5 103.5,178C 104.667,179.167 105.833,180.333 107,181.5C 106.975,190.365 102.475,195.365 93.5,196.5C 85.4931,194.994 78.4931,191.661 72.5,186.5C 71.659,182.425 72.9924,179.425 76.5,177.5 Z"/></g>
<g><path style="opacity:1" fill="#9a653d" d="M 283.5,194.5 C 293.128,218.751 293.961,243.418 286,268.5C 273.727,289.738 255.227,301.572 230.5,304C 216.851,305.027 203.185,305.527 189.5,305.5C 198.204,303.991 206.871,301.824 215.5,299C 223.291,295.438 231.291,292.438 239.5,290C 251.927,283.073 261.927,273.573 269.5,261.5C 280.246,240.513 284.913,218.179 283.5,194.5 Z"/></g>
<g><path style="opacity:1" fill="#040201" d="M 213.5,246.5 C 209.671,250.994 205.004,254.328 199.5,256.5C 193.489,257.11 187.822,256.11 182.5,253.5C 181.833,253.167 181.167,252.833 180.5,252.5C 178.471,250.142 176.471,247.808 174.5,245.5C 172.267,241.124 171.267,236.457 171.5,231.5C 172.286,217.045 179.953,209.045 194.5,207.5C 216.117,213.068 222.451,226.068 213.5,246.5 Z"/></g>
<g><path style="opacity:1" fill="#030201" d="M 107.5,239.5 C 105.311,245.691 101.311,250.358 95.5,253.5C 91.9009,254.344 88.2343,254.677 84.5,254.5C 81.7378,253.62 79.0711,252.454 76.5,251C 75.3365,248.672 73.6698,246.838 71.5,245.5C 69.5583,241.063 68.5583,236.396 68.5,231.5C 70.2249,214.93 79.2249,208.097 95.5,211C 106.982,217.266 110.982,226.766 107.5,239.5 Z"/></g>
<g><path style="opacity:1" fill="#f9cca3" d="M 174.5,245.5 C 176.471,247.808 178.471,250.142 180.5,252.5C 180.13,267.444 175.63,281.111 167,293.5C 163.088,298.083 158.588,301.917 153.5,305C 147.593,306.361 141.593,306.861 135.5,306.5C 130.697,304.758 125.697,304.091 120.5,304.5C 114.58,304.726 108.913,303.726 103.5,301.5C 102.167,300.167 100.833,298.833 99.5,297.5C 95.1834,275.754 99.8501,256.254 113.5,239C 112.906,238.536 112.239,238.369 111.5,238.5C 112.749,236.864 114.416,235.697 116.5,235C 137.62,229.192 156.954,232.692 174.5,245.5 Z"/></g>
<g><path style="opacity:1" fill="#0c0a08" d="M 123.5,237.5 C 130.257,237.123 136.924,237.623 143.5,239C 146.29,241.21 147.123,244.044 146,247.5C 143.977,250.52 141.31,252.854 138,254.5C 137.333,257.167 137.333,259.833 138,262.5C 145.148,267.337 150.648,265.837 154.5,258C 162.861,258.257 164.695,262.09 160,269.5C 151.667,277.607 142.5,278.607 132.5,272.5C 122.257,279.046 113.757,277.379 107,267.5C 104.995,260.51 107.495,257.676 114.5,259C 116.081,260.828 117.415,262.828 118.5,265C 125.819,265.315 128.319,261.815 126,254.5C 122.279,251.793 119.779,248.293 118.5,244C 119.242,241.095 120.909,238.928 123.5,237.5 Z"/></g>
<g><path style="opacity:1" fill="#f9d9bd" d="M 111.5,238.5 C 112.239,238.369 112.906,238.536 113.5,239C 99.8501,256.254 95.1834,275.754 99.5,297.5C 97.9382,297.267 96.6049,296.6 95.5,295.5C 89.1545,286.771 87.3212,277.104 90,266.5C 92.5577,262.452 94.391,258.119 95.5,253.5C 101.311,250.358 105.311,245.691 107.5,239.5C 108.833,239.167 110.167,238.833 111.5,238.5 Z"/></g>
<g><path style="opacity:1" fill="#424242" d="M 124.5,239.5 C 133.489,239.221 134.822,242.388 128.5,249C 123.008,249.486 121.175,246.986 123,241.5C 123.717,240.956 124.217,240.289 124.5,239.5 Z"/></g>
<g><path style="opacity:1" fill="#e38271" d="M 62.5,245.5 C 65.5,245.5 68.5,245.5 71.5,245.5C 73.6698,246.838 75.3365,248.672 76.5,251C 79.0711,252.454 81.7378,253.62 84.5,254.5C 89.8914,266.749 86.2247,274.749 73.5,278.5C 69.4517,278.605 65.4517,278.272 61.5,277.5C 59.2245,273.385 56.7245,269.385 54,265.5C 53.47,261.417 52.6367,257.417 51.5,253.5C 54.6521,249.998 58.3188,247.332 62.5,245.5 Z"/></g>
<g><path style="opacity:1" fill="#e3806e" d="M 199.5,256.5 C 205.004,254.328 209.671,250.994 213.5,246.5C 222.594,243.698 230.094,246.031 236,253.5C 239.686,267.486 234.519,276.32 220.5,280C 201.89,282.233 194.89,274.4 199.5,256.5 Z"/></g>
<g><path style="opacity:1" fill="#bd8358" d="M 95.5,253.5 C 94.391,258.119 92.5577,262.452 90,266.5C 87.3212,277.104 89.1545,286.771 95.5,295.5C 95.1034,296.525 94.4368,296.692 93.5,296C 85.7005,291.361 79.0339,285.528 73.5,278.5C 86.2247,274.749 89.8914,266.749 84.5,254.5C 88.2343,254.677 91.9009,254.344 95.5,253.5 Z"/></g>
<g><path style="opacity:1" fill="#fab97e" d="M 180.5,252.5 C 181.167,252.833 181.833,253.167 182.5,253.5C 189.199,263.176 191.199,273.842 188.5,285.5C 184.741,297.224 176.741,304.057 164.5,306C 171.679,306.171 178.679,306.671 185.5,307.5C 185.167,308.167 184.833,308.833 184.5,309.5C 183.848,310.449 183.514,311.615 183.5,313C 183.307,315.008 183.974,316.508 185.5,317.5C 188.92,319.222 192.586,319.889 196.5,319.5C 196.833,320.833 197.167,322.167 197.5,323.5C 197.5,323.833 197.5,324.167 197.5,324.5C 172.405,326.391 147.405,325.557 122.5,322C 120.563,321.878 119.23,321.045 118.5,319.5C 123.511,319.666 128.511,319.499 133.5,319C 134.056,318.617 134.389,318.117 134.5,317.5C 136.499,314.551 136.832,311.551 135.5,308.5C 135.5,307.833 135.5,307.167 135.5,306.5C 141.593,306.861 147.593,306.361 153.5,305C 158.588,301.917 163.088,298.083 167,293.5C 175.63,281.111 180.13,267.444 180.5,252.5 Z"/></g>
<g><path style="opacity:1" fill="#c49471" d="M 61.5,277.5 C 65.4517,278.272 69.4517,278.605 73.5,278.5C 79.0339,285.528 85.7005,291.361 93.5,296C 94.4368,296.692 95.1034,296.525 95.5,295.5C 96.6049,296.6 97.9382,297.267 99.5,297.5C 100.833,298.833 102.167,300.167 103.5,301.5C 91.3594,299.762 80.3594,295.262 70.5,288C 66.8926,284.902 63.8926,281.402 61.5,277.5 Z"/></g>
<g><path style="opacity:1" fill="#856a52" d="M 120.5,304.5 C 125.697,304.091 130.697,304.758 135.5,306.5C 135.5,307.167 135.5,307.833 135.5,308.5C 134.118,307.199 132.452,306.366 130.5,306C 126.975,305.821 123.641,305.321 120.5,304.5 Z"/></g>
<g><path style="opacity:1" fill="#936d49" d="M 184.5,309.5 C 184.401,312.237 184.735,314.904 185.5,317.5C 183.974,316.508 183.307,315.008 183.5,313C 183.514,311.615 183.848,310.449 184.5,309.5 Z"/></g>
<g><path style="opacity:1" fill="#fbddc2" d="M 113.5,318.5 C 113.5,319.167 113.833,319.5 114.5,319.5C 115.209,320.404 116.209,320.737 117.5,320.5C 114.354,331.752 111.52,343.085 109,354.5C 107.101,365.123 108.935,374.956 114.5,384C 114.272,384.399 113.938,384.565 113.5,384.5C 111.668,383.752 110.001,382.752 108.5,381.5C 100.375,374.489 96.7084,365.489 97.5,354.5C 98.9988,342.002 102.332,330.002 107.5,318.5C 109.636,317.207 111.636,317.207 113.5,318.5 Z"/></g>
<g><path style="opacity:1" fill="#906d4d" d="M 134.5,317.5 C 134.389,318.117 134.056,318.617 133.5,319C 128.511,319.499 123.511,319.666 118.5,319.5C 117.167,319.5 115.833,319.5 114.5,319.5C 113.833,319.5 113.5,319.167 113.5,318.5C 120.557,318.76 127.557,318.427 134.5,317.5 Z"/></g>
<g><path style="opacity:1" fill="#93603b" d="M 226.5,318.5 C 217.101,320.901 207.434,322.567 197.5,323.5C 197.167,322.167 196.833,320.833 196.5,319.5C 206.514,319.499 216.514,319.166 226.5,318.5 Z"/></g>
<g><path style="opacity:1" fill="#fccfa5" d="M 114.5,319.5 C 115.833,319.5 117.167,319.5 118.5,319.5C 119.23,321.045 120.563,321.878 122.5,322C 147.405,325.557 172.405,326.391 197.5,324.5C 207.901,378.6 185.901,400.767 131.5,391C 124.97,389.883 118.97,387.716 113.5,384.5C 113.938,384.565 114.272,384.399 114.5,384C 108.935,374.956 107.101,365.123 109,354.5C 111.52,343.085 114.354,331.752 117.5,320.5C 116.209,320.737 115.209,320.404 114.5,319.5 Z"/></g>
<g><path style="opacity:1" fill="#97633d" d="M 83.5,352.5 C 80.0991,350.904 77.0991,351.571 74.5,354.5C 77.5788,348.696 81.4122,343.363 86,338.5C 85.7313,343.336 84.898,348.003 83.5,352.5 Z"/></g>
<g><path style="opacity:1" fill="#bb8256" d="M 226.5,318.5 C 227.552,318.351 228.552,318.517 229.5,319C 230.676,321.686 232.343,324.019 234.5,326C 246.727,333.727 256.393,343.893 263.5,356.5C 262.542,356.047 261.708,355.381 261,354.5C 260.667,360.5 260.333,366.5 260,372.5C 256.63,378.763 251.463,382.429 244.5,383.5C 235.904,379.405 229.404,373.071 225,364.5C 218.928,356.123 215.094,346.79 213.5,336.5C 209.901,333.008 206.068,332.675 202,335.5C 201.215,341.654 201.882,347.654 204,353.5C 210.648,370.132 221.148,383.799 235.5,394.5C 236.519,396.46 236.519,398.46 235.5,400.5C 232.072,409.278 228.905,418.278 226,427.5C 221.992,436.683 215.159,442.35 205.5,444.5C 203.629,444.141 202.129,443.141 201,441.5C 195.421,431.431 191.421,420.765 189,409.5C 184.951,404.182 180.951,404.182 177,409.5C 176.503,411.81 176.337,414.143 176.5,416.5C 164.374,416.973 152.374,416.306 140.5,414.5C 130.55,411.104 121.717,405.771 114,398.5C 109.971,393.258 108.138,387.591 108.5,381.5C 110.001,382.752 111.668,383.752 113.5,384.5C 118.97,387.716 124.97,389.883 131.5,391C 185.901,400.767 207.901,378.6 197.5,324.5C 197.5,324.167 197.5,323.833 197.5,323.5C 207.434,322.567 217.101,320.901 226.5,318.5 Z"/></g>
<g><path style="opacity:1" fill="#b77e54" d="M 83.5,352.5 C 82.6875,363.146 82.3542,373.813 82.5,384.5C 71.9022,383.731 67.4022,378.064 69,367.5C 70.1762,362.78 72.0096,358.446 74.5,354.5C 77.0991,351.571 80.0991,350.904 83.5,352.5 Z"/></g>
<g><path style="opacity:1" fill="#c39471" d="M 263.5,356.5 C 267.685,363.686 268.518,371.353 266,379.5C 261.116,385.22 254.95,387.053 247.5,385C 246.263,384.768 245.263,384.268 244.5,383.5C 251.463,382.429 256.63,378.763 260,372.5C 260.333,366.5 260.667,360.5 261,354.5C 261.708,355.381 262.542,356.047 263.5,356.5 Z"/></g>
<g><path style="opacity:1" fill="#c79773" d="M 97.5,354.5 C 96.7084,365.489 100.375,374.489 108.5,381.5C 108.138,387.591 109.971,393.258 114,398.5C 121.717,405.771 130.55,411.104 140.5,414.5C 103.383,410.429 89.0497,390.429 97.5,354.5 Z"/></g>
<g><path style="opacity:1" fill="#9c663e" d="M 235.5,400.5 C 235.086,414.571 232.586,428.237 228,441.5C 220.905,446.564 213.405,447.564 205.5,444.5C 215.159,442.35 221.992,436.683 226,427.5C 228.905,418.278 232.072,409.278 235.5,400.5 Z"/></g>
<g><path style="opacity:1" fill="#9c663e" d="M 133.5,445.5 C 133.858,441.05 132.192,437.55 128.5,435C 121.633,431.066 115.3,426.399 109.5,421C 108.563,420.308 107.897,420.475 107.5,421.5C 106.751,420.469 106.085,419.302 105.5,418C 118.177,423.674 131.51,427.507 145.5,429.5C 146.397,438.336 142.397,443.669 133.5,445.5 Z"/></g>
<g><path style="opacity:1" fill="#b98055" d="M 133.5,445.5 C 127.522,447.186 121.855,446.352 116.5,443C 112.617,436.18 109.617,429.013 107.5,421.5C 107.897,420.475 108.563,420.308 109.5,421C 115.3,426.399 121.633,431.066 128.5,435C 132.192,437.55 133.858,441.05 133.5,445.5 Z"/></g>
</svg>
