<?xml version="1.0" encoding="UTF-8"?>
<!DOCTYPE svg PUBLIC "-//W3C//DTD SVG 1.1//EN" "http://www.w3.org/Graphics/SVG/1.1/DTD/svg11.dtd">
<svg xmlns="http://www.w3.org/2000/svg" version="1.1" width="450px" height="523px" style="shape-rendering:geometricPrecision; text-rendering:geometricPrecision; image-rendering:optimizeQuality; fill-rule:evenodd; clip-rule:evenodd" xmlns:xlink="http://www.w3.org/1999/xlink">
<g><path style="opacity:0.949" fill="#030201" d="M 226.5,60.5 C 249.15,58.3227 267.983,65.656 283,82.5C 294.327,99.1892 294.327,115.856 283,132.5C 280.06,135.967 276.56,138.634 272.5,140.5C 286.946,158.828 297.113,179.495 303,202.5C 310.093,227.401 308.76,251.735 299,275.5C 291.712,291.454 279.878,302.621 263.5,309C 257.909,311.197 252.242,313.197 246.5,315C 250.5,318 254.5,321 258.5,324C 262.892,329.301 267.392,334.467 272,339.5C 274.936,344.373 277.603,349.373 280,354.5C 286.868,371.588 283.035,385.088 268.5,395C 262.31,396.956 255.977,398.122 249.5,398.5C 248.839,414.132 246.339,429.465 242,444.5C 235.458,455.273 225.791,460.273 213,459.5C 202.865,460.243 194.865,456.577 189,448.5C 185.808,442.748 183.308,436.748 181.5,430.5C 174.492,430.334 167.492,430.5 160.5,431C 158.385,450.449 147.552,459.949 128,459.5C 115.279,460.311 106.279,454.977 101,443.5C 94.4506,428.686 89.6173,413.353 86.5,397.5C 59.7794,396.268 49.6127,382.601 56,356.5C 63.6999,338.585 75.5332,324.085 91.5,313C 61.0339,304.867 42.5339,285.367 36,254.5C 31.2253,215.931 40.0586,180.931 62.5,149.5C 55.9274,145.765 50.4274,140.765 46,134.5C 37.3037,111.916 42.4704,93.0822 61.5,78C 74.0929,69.0408 88.4263,65.0408 104.5,66C 123.386,70.9278 134.053,83.0944 136.5,102.5C 155.401,99.3852 174.401,98.7185 193.5,100.5C 195.096,79.2642 206.096,65.9308 226.5,60.5 Z"/></g>
<g><path style="opacity:1" fill="#b98155" d="M 104.5,81.5 C 106.514,84.1943 108.014,87.1943 109,90.5C 109.424,96.5147 109.924,102.515 110.5,108.5C 109.822,103.83 107.489,100.164 103.5,97.5C 90.5997,91.3722 80.4331,94.3722 73,106.5C 70.1791,116.859 73.6791,123.859 83.5,127.5C 80.7223,131.613 77.0557,134.613 72.5,136.5C 57.5725,129.903 53.0725,118.903 59,103.5C 70.1155,87.3563 85.2822,80.0229 104.5,81.5 Z"/></g>
<g><path style="opacity:1" fill="#98633c" d="M 104.5,81.5 C 112.591,84.5901 117.924,90.2568 120.5,98.5C 121.487,101.768 121.82,105.102 121.5,108.5C 117.534,109.044 113.867,110.377 110.5,112.5C 110.5,111.167 110.5,109.833 110.5,108.5C 109.924,102.515 109.424,96.5147 109,90.5C 108.014,87.1943 106.514,84.1943 104.5,81.5 Z"/></g>
<g><path style="opacity:1" fill="#99643d" d="M 263.5,85.5 C 276.96,95.0365 279.793,107.037 272,121.5C 268.033,125.9 263.2,128.9 257.5,130.5C 258.547,127.569 260.214,125.069 262.5,123C 263.536,120.226 264.369,117.393 265,114.5C 266.055,104.676 265.555,95.009 263.5,85.5 Z"/></g>
<g><path style="opacity:1" fill="#facda3" d="M 103.5,97.5 C 103.64,103.536 103.307,109.536 102.5,115.5C 96.0027,119.248 89.6694,123.248 83.5,127.5C 73.6791,123.859 70.1791,116.859 73,106.5C 80.4331,94.3722 90.5997,91.3722 103.5,97.5 Z"/></g>
<g><path style="opacity:1" fill="#f5b77e" d="M 103.5,97.5 C 107.489,100.164 109.822,103.83 110.5,108.5C 110.5,109.833 110.5,111.167 110.5,112.5C 107.833,113.5 105.167,114.5 102.5,115.5C 103.307,109.536 103.64,103.536 103.5,97.5 Z"/></g>
<g><path style="opacity:1" fill="#bc8256" d="M 263.5,85.5 C 265.555,95.009 266.055,104.676 265,114.5C 264.369,117.393 263.536,120.226 262.5,123C 260.214,125.069 258.547,127.569 257.5,130.5C 255.438,131.776 253.104,132.61 250.5,133C 249.29,134.039 248.29,135.206 247.5,136.5C 245.487,143.754 248.487,147.087 256.5,146.5C 269.646,159.775 278.979,175.442 284.5,193.5C 284.879,218.234 279.379,241.567 268,263.5C 260.601,274.904 250.768,283.404 238.5,289C 222.585,295.918 206.252,301.085 189.5,304.5C 187.938,304.733 186.605,305.4 185.5,306.5C 180.933,304.715 175.933,303.882 170.5,304C 185.536,296.093 191.703,283.593 189,266.5C 187.541,260.915 185.041,255.915 181.5,251.5C 183.284,251.893 184.95,252.559 186.5,253.5C 186.918,254.222 187.584,254.722 188.5,255C 192.152,255.499 195.818,255.665 199.5,255.5C 194.878,273.388 201.878,281.222 220.5,279C 232.725,276.353 238.559,268.853 238,256.5C 232.586,246.61 224.42,242.944 213.5,245.5C 221.341,230.5 218.341,218.334 204.5,209C 191.866,204.53 181.699,207.696 174,218.5C 170.557,226.939 170.723,235.272 174.5,243.5C 170.388,241.272 166.388,238.772 162.5,236C 151.354,230.988 139.687,229.322 127.5,231C 122.103,232.087 117.103,233.92 112.5,236.5C 110.95,237.441 109.284,238.107 107.5,238.5C 111.584,221.311 105.084,210.977 88,207.5C 75.4275,209.739 68.9275,217.239 68.5,230C 68.3719,234.775 69.3719,239.275 71.5,243.5C 68.5,243.5 65.5,243.5 62.5,243.5C 61.3308,235.162 61.4975,226.829 63,218.5C 66.9586,205.174 70.4586,191.841 73.5,178.5C 73.2475,181.32 73.7475,183.986 75,186.5C 83.6406,193.786 93.1406,195.286 103.5,191C 107.732,186.715 108.398,182.048 105.5,177C 96.2736,175.555 86.9402,175.055 77.5,175.5C 85.7317,159.432 97.065,145.932 111.5,135C 118.007,130.914 124.34,126.58 130.5,122C 129.207,121.51 127.873,121.343 126.5,121.5C 139.057,116.44 152.224,114.107 166,114.5C 176.226,114.599 186.392,115.432 196.5,117C 198.711,118.721 200.711,120.721 202.5,123C 208.311,124.101 211.644,121.768 212.5,116C 208.043,105.236 208.543,94.7358 214,84.5C 222.045,75.7394 231.878,73.0727 243.5,76.5C 250.919,77.967 257.585,80.967 263.5,85.5 Z"/></g>
<g><path style="opacity:1" fill="#fbcea4" d="M 238.5,89.5 C 250.581,89.2679 257.915,94.9346 260.5,106.5C 260.314,110.705 258.648,114.205 255.5,117C 251.562,120.78 246.895,122.947 241.5,123.5C 235.953,123.788 233.12,121.121 233,115.5C 230.889,105.83 232.723,97.1631 238.5,89.5 Z"/></g>
<g><path style="opacity:1" fill="#f9b87e" d="M 238.5,89.5 C 232.723,97.1631 230.889,105.83 233,115.5C 233.12,121.121 235.953,123.788 241.5,123.5C 228.719,125.06 222.385,119.227 222.5,106C 222.62,95.3811 227.953,89.8811 238.5,89.5 Z"/></g>
<g><path style="opacity:1" fill="#c69673" d="M 126.5,121.5 C 127.873,121.343 129.207,121.51 130.5,122C 124.34,126.58 118.007,130.914 111.5,135C 97.065,145.932 85.7317,159.432 77.5,175.5C 75.8595,176.147 74.5261,177.147 73.5,178.5C 70.4586,191.841 66.9586,205.174 63,218.5C 61.4975,226.829 61.3308,235.162 62.5,243.5C 57.5588,245.442 53.8922,248.775 51.5,253.5C 49.1229,240.2 48.9562,226.866 51,213.5C 56.0134,189.776 66.0134,168.442 81,149.5C 93.7504,136.252 108.917,126.918 126.5,121.5 Z"/></g>
<g><path style="opacity:1" fill="#4c3523" d="M 247.5,136.5 C 247.338,138.527 247.505,140.527 248,142.5C 250.564,144.624 253.397,145.958 256.5,146.5C 248.487,147.087 245.487,143.754 247.5,136.5 Z"/></g>
<g><path style="opacity:1" fill="#281c12" d="M 77.5,175.5 C 86.9402,175.055 96.2736,175.555 105.5,177C 108.398,182.048 107.732,186.715 103.5,191C 93.1406,195.286 83.6406,193.786 75,186.5C 73.7475,183.986 73.2475,181.32 73.5,178.5C 74.5261,177.147 75.8595,176.147 77.5,175.5 Z"/></g>
<g><path style="opacity:1" fill="#281b12" d="M 175.5,174.5 C 186.172,174.333 196.839,174.5 207.5,175C 211.292,177.053 212.458,180.219 211,184.5C 200.741,192.198 189.574,194.365 177.5,191C 171.863,186.027 171.196,180.527 175.5,174.5 Z"/></g>
<g><path style="opacity:1" fill="#9b653e" d="M 284.5,193.5 C 286.435,197.895 287.769,202.562 288.5,207.5C 289.058,212.709 290.058,217.709 291.5,222.5C 293.388,239.556 290.888,255.889 284,271.5C 274.03,287.1 259.863,296.934 241.5,301C 224.266,303.557 206.932,304.723 189.5,304.5C 206.252,301.085 222.585,295.918 238.5,289C 250.768,283.404 260.601,274.904 268,263.5C 279.379,241.567 284.879,218.234 284.5,193.5 Z"/></g>
<g><path style="opacity:1" fill="#040201" d="M 213.5,245.5 C 209.864,250.142 205.197,253.142 199.5,254.5C 195.131,254.533 190.798,254.2 186.5,253.5C 184.95,252.559 183.284,251.893 181.5,251.5C 179.167,248.833 176.833,246.167 174.5,243.5C 170.723,235.272 170.557,226.939 174,218.5C 181.699,207.696 191.866,204.53 204.5,209C 218.341,218.334 221.341,230.5 213.5,245.5 Z"/></g>
<g><path style="opacity:1" fill="#050302" d="M 107.5,238.5 C 105.591,244.402 101.924,248.736 96.5,251.5C 92.2147,252.295 87.8814,252.628 83.5,252.5C 78.707,250.449 74.707,247.449 71.5,243.5C 69.3719,239.275 68.3719,234.775 68.5,230C 68.9275,217.239 75.4275,209.739 88,207.5C 105.084,210.977 111.584,221.311 107.5,238.5 Z"/></g>
<g><path style="opacity:1" fill="#5b3b24" d="M 288.5,207.5 C 290.579,212.169 291.579,217.169 291.5,222.5C 290.058,217.709 289.058,212.709 288.5,207.5 Z"/></g>
<g><path style="opacity:1" fill="#f9cca3" d="M 174.5,243.5 C 176.833,246.167 179.167,248.833 181.5,251.5C 180.654,261.947 178.154,272.281 174,282.5C 168.516,289.982 162.349,296.815 155.5,303C 148.46,303.607 141.793,304.774 135.5,306.5C 134.118,305.199 132.452,304.366 130.5,304C 121.319,303.871 112.319,302.704 103.5,300.5C 101.5,298.5 99.5,296.5 97.5,294.5C 95.815,273.579 101.148,254.579 113.5,237.5C 113.376,236.893 113.043,236.56 112.5,236.5C 117.103,233.92 122.103,232.087 127.5,231C 139.687,229.322 151.354,230.988 162.5,236C 166.388,238.772 170.388,241.272 174.5,243.5 Z"/></g>
<g><path style="opacity:1" fill="#0c0a08" d="M 124.5,235.5 C 130.176,235.334 135.843,235.501 141.5,236C 146.143,238.072 147.643,241.572 146,246.5C 143.933,249.07 141.433,251.07 138.5,252.5C 136.339,260.955 139.672,264.455 148.5,263C 150.711,261.279 152.711,259.279 154.5,257C 158.963,255.797 161.63,257.464 162.5,262C 159.875,270.105 154.208,274.272 145.5,274.5C 140.802,274.379 136.469,273.045 132.5,270.5C 122.509,278.133 114.009,276.8 107,266.5C 105.996,263.007 106.496,259.841 108.5,257C 113.28,256.396 116.614,258.396 118.5,263C 121.257,263.782 123.757,263.282 126,261.5C 126.667,258.5 126.667,255.5 126,252.5C 122.555,250.081 120.388,246.914 119.5,243C 119.426,239.256 121.092,236.756 124.5,235.5 Z"/></g>
<g><path style="opacity:1" fill="#fadbbf" d="M 112.5,236.5 C 113.043,236.56 113.376,236.893 113.5,237.5C 101.148,254.579 95.815,273.579 97.5,294.5C 96.8333,294.167 96.1667,293.833 95.5,293.5C 91.353,287.425 89.353,280.592 89.5,273C 90.7353,265.461 93.0686,258.294 96.5,251.5C 101.924,248.736 105.591,244.402 107.5,238.5C 109.284,238.107 110.95,237.441 112.5,236.5 Z"/></g>
<g><path style="opacity:1" fill="#434343" d="M 125.5,237.5 C 132.676,236.985 134.342,239.818 130.5,246C 126.277,248.643 123.61,247.643 122.5,243C 122.863,240.808 123.863,238.974 125.5,237.5 Z"/></g>
<g><path style="opacity:1" fill="#e48371" d="M 62.5,243.5 C 65.5,243.5 68.5,243.5 71.5,243.5C 74.707,247.449 78.707,250.449 83.5,252.5C 89.0096,259.494 88.6763,266.327 82.5,273C 80.1825,274.993 77.5158,276.159 74.5,276.5C 70.1018,276.706 65.7685,276.373 61.5,275.5C 56.8231,268.813 53.4898,261.48 51.5,253.5C 53.8922,248.775 57.5588,245.442 62.5,243.5 Z"/></g>
<g><path style="opacity:1" fill="#e3806e" d="M 199.5,255.5 C 199.5,255.167 199.5,254.833 199.5,254.5C 205.197,253.142 209.864,250.142 213.5,245.5C 224.42,242.944 232.586,246.61 238,256.5C 238.559,268.853 232.725,276.353 220.5,279C 201.878,281.222 194.878,273.388 199.5,255.5 Z"/></g>
<g><path style="opacity:1" fill="#f9b87d" d="M 181.5,251.5 C 185.041,255.915 187.541,260.915 189,266.5C 191.703,283.593 185.536,296.093 170.5,304C 175.933,303.882 180.933,304.715 185.5,306.5C 182.38,311.226 183.38,315.059 188.5,318C 191.146,318.497 193.813,318.664 196.5,318.5C 196.833,319.833 197.167,321.167 197.5,322.5C 197.5,322.833 197.5,323.167 197.5,323.5C 172.405,325.391 147.405,324.557 122.5,321C 121.062,320.781 119.729,320.281 118.5,319.5C 118.863,318.817 119.196,318.15 119.5,317.5C 124.297,317.879 128.964,317.379 133.5,316C 136.58,313.355 137.247,310.188 135.5,306.5C 141.793,304.774 148.46,303.607 155.5,303C 162.349,296.815 168.516,289.982 174,282.5C 178.154,272.281 180.654,261.947 181.5,251.5 Z"/></g>
<g><path style="opacity:1" fill="#bd855a" d="M 96.5,251.5 C 93.0686,258.294 90.7353,265.461 89.5,273C 89.353,280.592 91.353,287.425 95.5,293.5C 94.7494,294.573 93.7494,294.74 92.5,294C 89.0105,291.089 85.3438,288.422 81.5,286C 78.9245,282.937 76.5912,279.771 74.5,276.5C 77.5158,276.159 80.1825,274.993 82.5,273C 88.6763,266.327 89.0096,259.494 83.5,252.5C 87.8814,252.628 92.2147,252.295 96.5,251.5 Z"/></g>
<g><path style="opacity:1" fill="#563b27" d="M 186.5,253.5 C 190.798,254.2 195.131,254.533 199.5,254.5C 199.5,254.833 199.5,255.167 199.5,255.5C 195.818,255.665 192.152,255.499 188.5,255C 187.584,254.722 186.918,254.222 186.5,253.5 Z"/></g>
<g><path style="opacity:1" fill="#be8f6d" d="M 61.5,275.5 C 65.7685,276.373 70.1018,276.706 74.5,276.5C 76.5912,279.771 78.9245,282.937 81.5,286C 85.3438,288.422 89.0105,291.089 92.5,294C 93.7494,294.74 94.7494,294.573 95.5,293.5C 96.1667,293.833 96.8333,294.167 97.5,294.5C 99.5,296.5 101.5,298.5 103.5,300.5C 85.7159,298.284 71.7159,289.951 61.5,275.5 Z"/></g>
<g><path style="opacity:1" fill="#fcdec3" d="M 108.5,316.5 C 111.215,318.072 114.215,319.072 117.5,319.5C 113.735,330.561 110.902,341.894 109,353.5C 107.101,364.123 108.935,373.956 114.5,383C 114.272,383.399 113.938,383.565 113.5,383.5C 111.668,382.752 110.001,381.752 108.5,380.5C 100.375,373.489 96.7084,364.489 97.5,353.5C 98.9763,340.414 102.643,328.081 108.5,316.5 Z"/></g>
<g><path style="opacity:1" fill="#97633d" d="M 225.5,317.5 C 216.454,320.009 207.12,321.676 197.5,322.5C 197.167,321.167 196.833,319.833 196.5,318.5C 206.18,318.482 215.847,318.148 225.5,317.5 Z"/></g>
<g><path style="opacity:1" fill="#fccfa5" d="M 108.5,316.5 C 112.154,316.942 115.821,317.276 119.5,317.5C 119.196,318.15 118.863,318.817 118.5,319.5C 119.729,320.281 121.062,320.781 122.5,321C 147.405,324.557 172.405,325.391 197.5,323.5C 207.901,377.6 185.901,399.767 131.5,390C 124.97,388.883 118.97,386.716 113.5,383.5C 113.938,383.565 114.272,383.399 114.5,383C 108.935,373.956 107.101,364.123 109,353.5C 110.902,341.894 113.735,330.561 117.5,319.5C 114.215,319.072 111.215,318.072 108.5,316.5 Z"/></g>
<g><path style="opacity:1" fill="#925f3a" d="M 84.5,348.5 C 81.8333,348.5 79.1667,348.5 76.5,348.5C 79.5119,343.831 83.0119,339.498 87,335.5C 86.12,339.737 85.2867,344.07 84.5,348.5 Z"/></g>
<g><path style="opacity:1" fill="#bc8256" d="M 225.5,317.5 C 240.222,325.874 252.555,337.207 262.5,351.5C 260.923,358.53 259.756,365.863 259,373.5C 255.676,377.916 251.176,380.416 245.5,381C 246.056,381.383 246.389,381.883 246.5,382.5C 243.726,381.277 241.059,379.777 238.5,378C 225.831,366.83 217.665,352.997 214,336.5C 210.626,330.887 206.626,330.221 202,334.5C 201.982,342.942 203.815,351.109 207.5,359C 212.477,367.79 218.31,375.957 225,383.5C 228.23,386.531 231.73,389.197 235.5,391.5C 236.509,394.473 236.509,397.473 235.5,400.5C 232.072,409.278 228.905,418.278 226,427.5C 221.992,436.683 215.159,442.35 205.5,444.5C 203.629,444.141 202.129,443.141 201,441.5C 195.421,431.431 191.421,420.765 189,409.5C 184.951,404.182 180.951,404.182 177,409.5C 176.503,411.81 176.337,414.143 176.5,416.5C 164.374,416.973 152.374,416.306 140.5,414.5C 130.55,411.104 121.717,405.771 114,398.5C 109.757,392.961 107.924,386.961 108.5,380.5C 110.001,381.752 111.668,382.752 113.5,383.5C 118.97,386.716 124.97,388.883 131.5,390C 185.901,399.767 207.901,377.6 197.5,323.5C 197.5,323.167 197.5,322.833 197.5,322.5C 207.12,321.676 216.454,320.009 225.5,317.5 Z"/></g>
<g><path style="opacity:1" fill="#b77f54" d="M 76.5,348.5 C 79.1667,348.5 81.8333,348.5 84.5,348.5C 82.7696,360.085 82.1029,371.752 82.5,383.5C 70.1258,381.901 65.6258,374.901 69,362.5C 71.2554,357.653 73.7554,352.987 76.5,348.5 Z"/></g>
<g><path style="opacity:1" fill="#c49470" d="M 262.5,351.5 C 268.491,359.342 269.991,368.009 267,377.5C 261.38,383.529 254.547,385.196 246.5,382.5C 246.389,381.883 246.056,381.383 245.5,381C 251.176,380.416 255.676,377.916 259,373.5C 259.756,365.863 260.923,358.53 262.5,351.5 Z"/></g>
<g><path style="opacity:1" fill="#c79773" d="M 97.5,353.5 C 96.7084,364.489 100.375,373.489 108.5,380.5C 107.924,386.961 109.757,392.961 114,398.5C 121.717,405.771 130.55,411.104 140.5,414.5C 102.891,410.262 88.5578,389.929 97.5,353.5 Z"/></g>
<g><path style="opacity:1" fill="#9c663e" d="M 235.5,400.5 C 235.086,414.571 232.586,428.237 228,441.5C 220.905,446.564 213.405,447.564 205.5,444.5C 215.159,442.35 221.992,436.683 226,427.5C 228.905,418.278 232.072,409.278 235.5,400.5 Z"/></g>
<g><path style="opacity:1" fill="#9c663e" d="M 133.5,445.5 C 133.858,441.05 132.192,437.55 128.5,435C 121.633,431.066 115.3,426.399 109.5,421C 108.563,420.308 107.897,420.475 107.5,421.5C 106.751,420.469 106.085,419.302 105.5,418C 118.177,423.674 131.51,427.507 145.5,429.5C 146.397,438.336 142.397,443.669 133.5,445.5 Z"/></g>
<g><path style="opacity:1" fill="#b98055" d="M 133.5,445.5 C 127.522,447.186 121.855,446.352 116.5,443C 112.617,436.18 109.617,429.013 107.5,421.5C 107.897,420.475 108.563,420.308 109.5,421C 115.3,426.399 121.633,431.066 128.5,435C 132.192,437.55 133.858,441.05 133.5,445.5 Z"/></g>
</svg>
