<?xml version="1.0" encoding="UTF-8"?>
<!DOCTYPE svg PUBLIC "-//W3C//DTD SVG 1.1//EN" "http://www.w3.org/Graphics/SVG/1.1/DTD/svg11.dtd">
<svg xmlns="http://www.w3.org/2000/svg" version="1.1" width="450px" height="523px" style="shape-rendering:geometricPrecision; text-rendering:geometricPrecision; image-rendering:optimizeQuality; fill-rule:evenodd; clip-rule:evenodd" xmlns:xlink="http://www.w3.org/1999/xlink">
<g><path style="opacity:0.949" fill="#030201" d="M 227.5,59.5 C 250.434,57.3064 269.434,64.8064 284.5,82C 284.167,82.3333 283.833,82.6667 283.5,83C 295.323,98.9699 295.49,115.137 284,131.5C 280.958,134.933 277.458,137.766 273.5,140C 301.214,175.11 311.714,214.61 305,258.5C 299.919,277.894 289.085,293.06 272.5,304C 264.279,307.61 255.946,310.943 247.5,314C 263.842,325.25 275.676,340.083 283,358.5C 287.282,376.091 280.782,388.258 263.5,395C 260.318,395.407 257.151,395.907 254,396.5C 252.893,396.415 251.893,396.081 251,395.5C 249.191,412.019 246.191,428.353 242,444.5C 238.611,451.554 233.111,456.054 225.5,458C 212.731,461.737 201.231,459.57 191,451.5C 186.828,444.655 183.328,437.489 180.5,430C 173.808,429.169 167.142,429.336 160.5,430.5C 156.702,453.757 143.035,463.257 119.5,459C 113.325,457.494 108.158,454.327 104,449.5C 95.5996,432.299 89.5996,414.299 86,395.5C 67.0168,396.874 55.8502,388.041 52.5,369C 52.8374,360.162 55.3374,351.995 60,344.5C 65.315,336.857 70.9817,329.524 77,322.5C 81.5677,318.258 86.401,314.425 91.5,311C 58.5291,302.054 40.0291,280.888 36,247.5C 33.5658,211.24 42.3991,177.907 62.5,147.5C 36.9544,128.644 34.6211,107.144 55.5,83C 66.0212,73.2388 78.3546,66.9055 92.5,64C 99.7399,62.9282 106.74,63.7615 113.5,66.5C 127.682,73.8648 135.849,85.5315 138,101.5C 141.891,100.183 145.891,99.1825 150,98.5C 164.773,98.1938 179.606,98.5271 194.5,99.5C 196.11,78.2173 207.11,64.884 227.5,59.5 Z"/></g>
<g><path style="opacity:1" fill="#ba8155" d="M 106.5,80.5 C 109.888,88.7391 111.555,97.4058 111.5,106.5C 110.614,102.217 108.28,98.8835 104.5,96.5C 103.118,95.1995 101.452,94.3661 99.5,94C 84.981,90.9107 75.981,96.4107 72.5,110.5C 72.9759,118.969 77.3092,123.969 85.5,125.5C 82.3581,128.469 79.0247,131.302 75.5,134C 66.0598,133.243 60.2264,128.076 58,118.5C 56.4861,109.375 58.8194,101.375 65,94.5C 71.61,87.7738 79.4433,82.9404 88.5,80C 94.5508,79.254 100.551,79.4207 106.5,80.5 Z"/></g>
<g><path style="opacity:1" fill="#9a643d" d="M 106.5,80.5 C 117.896,85.2686 123.229,93.9352 122.5,106.5C 118.765,107.301 115.099,108.301 111.5,109.5C 111.5,108.5 111.5,107.5 111.5,106.5C 111.555,97.4058 109.888,88.7391 106.5,80.5 Z"/></g>
<g><path style="opacity:1" fill="#99643d" d="M 264.5,84.5 C 280.982,97.6444 281.648,111.478 266.5,126C 263.929,127.454 261.262,128.62 258.5,129.5C 261.107,124.158 263.607,118.825 266,113.5C 267.055,103.676 266.555,94.009 264.5,84.5 Z"/></g>
<g><path style="opacity:1" fill="#facda3" d="M 104.5,96.5 C 104.625,102.203 104.292,107.87 103.5,113.5C 97.5368,117.487 91.5368,121.487 85.5,125.5C 77.3092,123.969 72.9759,118.969 72.5,110.5C 75.981,96.4107 84.981,90.9107 99.5,94C 101.452,94.3661 103.118,95.1995 104.5,96.5 Z"/></g>
<g><path style="opacity:1" fill="#f9ba81" d="M 104.5,96.5 C 108.28,98.8835 110.614,102.217 111.5,106.5C 111.5,107.5 111.5,108.5 111.5,109.5C 109.151,111.341 106.485,112.674 103.5,113.5C 104.292,107.87 104.625,102.203 104.5,96.5 Z"/></g>
<g><path style="opacity:1" fill="#bb8256" d="M 264.5,84.5 C 266.555,94.009 267.055,103.676 266,113.5C 263.607,118.825 261.107,124.158 258.5,129.5C 254.601,130.648 251.101,132.648 248,135.5C 247.221,142.394 250.388,145.894 257.5,146C 271.284,159.063 280.284,174.896 284.5,193.5C 285.546,221.35 278.379,246.683 263,269.5C 255.85,277.818 247.35,284.318 237.5,289C 228.059,291.926 218.726,295.259 209.5,299C 202.79,300.714 196.124,301.88 189.5,302.5C 188.508,302.328 187.842,302.662 187.5,303.5C 187.167,304.5 186.5,305.167 185.5,305.5C 177.896,303.693 169.896,302.86 161.5,303C 175.34,302.339 184.506,295.506 189,282.5C 189.667,276.833 189.667,271.167 189,265.5C 187.354,260.215 185.187,255.215 182.5,250.5C 187.822,253.11 193.489,254.11 199.5,253.5C 194.812,264.606 197.812,272.773 208.5,278C 221.057,280.466 230.557,276.299 237,265.5C 239.431,252.411 233.931,245.078 220.5,243.5C 218.117,243.637 215.783,243.971 213.5,244.5C 223.308,226.297 218.641,213.464 199.5,206C 187.785,204.276 179.285,208.776 174,219.5C 170.209,227.885 170.709,235.885 175.5,243.5C 160.647,231.701 143.647,227.201 124.5,230C 119.791,231.173 115.458,233.007 111.5,235.5C 110.391,235.557 109.391,235.89 108.5,236.5C 111.574,216.083 102.908,206.25 82.5,207C 70.7575,213.862 66.5909,224.029 70,237.5C 70.8466,239.193 71.6799,240.86 72.5,242.5C 69.1667,242.5 65.8333,242.5 62.5,242.5C 62.0765,221.815 65.7432,201.815 73.5,182.5C 79.5276,187.679 86.5276,191.012 94.5,192.5C 104.336,191.201 108.503,185.868 107,176.5C 106.097,175.299 104.931,174.465 103.5,174C 94.8397,173.5 86.1731,173.334 77.5,173.5C 91.225,149.943 110.225,131.776 134.5,119C 133.552,118.517 132.552,118.351 131.5,118.5C 143.145,115.226 155.145,113.226 167.5,112.5C 177.821,113.636 188.155,114.802 198.5,116C 201.619,123.02 206.119,124.187 212,119.5C 212.817,116.036 212.483,112.702 211,109.5C 207.692,83.8089 218.859,72.3089 244.5,75C 251.777,76.9234 258.444,80.0901 264.5,84.5 Z"/></g>
<g><path style="opacity:1" fill="#fbcea3" d="M 239.5,88.5 C 251.606,88.2972 258.939,93.9639 261.5,105.5C 261.625,109.295 260.292,112.462 257.5,115C 254.833,117 252.167,119 249.5,121C 247.655,122.128 245.655,122.628 243.5,122.5C 238.921,123.303 235.754,121.637 234,117.5C 233.333,111.167 233.333,104.833 234,98.5C 235.227,94.7885 237.06,91.4552 239.5,88.5 Z"/></g>
<g><path style="opacity:1" fill="#f8b87e" d="M 239.5,88.5 C 237.06,91.4552 235.227,94.7885 234,98.5C 233.333,104.833 233.333,111.167 234,117.5C 235.754,121.637 238.921,123.303 243.5,122.5C 242.207,123.158 240.707,123.492 239,123.5C 234.985,122.432 231.152,120.932 227.5,119C 222.675,111.19 222.175,103.023 226,94.5C 229.477,90.1776 233.977,88.1776 239.5,88.5 Z"/></g>
<g><path style="opacity:1" fill="#c49471" d="M 131.5,118.5 C 132.552,118.351 133.552,118.517 134.5,119C 110.225,131.776 91.225,149.943 77.5,173.5C 73.9924,175.425 72.659,178.425 73.5,182.5C 65.7432,201.815 62.0765,221.815 62.5,242.5C 56.8333,243.5 53.5,246.833 52.5,252.5C 51.0749,249.097 50.2415,245.43 50,241.5C 48.9919,208.519 58.3252,178.852 78,152.5C 92.3472,135.648 110.181,124.314 131.5,118.5 Z"/></g>
<g><path style="opacity:1" fill="#291c13" d="M 77.5,173.5 C 86.1731,173.334 94.8397,173.5 103.5,174C 104.931,174.465 106.097,175.299 107,176.5C 108.503,185.868 104.336,191.201 94.5,192.5C 86.5276,191.012 79.5276,187.679 73.5,182.5C 72.659,178.425 73.9924,175.425 77.5,173.5 Z"/></g>
<g><path style="opacity:1" fill="#291c13" d="M 175.5,172.5 C 186.172,172.333 196.839,172.5 207.5,173C 213.83,176.769 214.164,181.103 208.5,186C 199.675,190.471 190.341,192.138 180.5,191C 177.628,188.463 175.128,185.63 173,182.5C 172.024,178.673 172.857,175.34 175.5,172.5 Z"/></g>
<g><path style="opacity:1" fill="#9b653e" d="M 284.5,193.5 C 294.119,216.723 294.953,240.39 287,264.5C 278.356,282.636 264.189,293.969 244.5,298.5C 239.651,299.216 234.985,300.216 230.5,301.5C 216.853,302.362 203.186,302.695 189.5,302.5C 196.124,301.88 202.79,300.714 209.5,299C 218.726,295.259 228.059,291.926 237.5,289C 247.35,284.318 255.85,277.818 263,269.5C 278.379,246.683 285.546,221.35 284.5,193.5 Z"/></g>
<g><path style="opacity:1" fill="#050302" d="M 213.5,244.5 C 209.812,249.011 205.145,252.011 199.5,253.5C 193.489,254.11 187.822,253.11 182.5,250.5C 181.5,249.833 180.5,249.167 179.5,248.5C 178.167,246.833 176.833,245.167 175.5,243.5C 170.709,235.885 170.209,227.885 174,219.5C 179.285,208.776 187.785,204.276 199.5,206C 218.641,213.464 223.308,226.297 213.5,244.5 Z"/></g>
<g><path style="opacity:1" fill="#050302" d="M 108.5,236.5 C 105.89,242.405 101.89,247.072 96.5,250.5C 92.5662,251.36 88.5662,251.693 84.5,251.5C 79.7859,249.474 75.7859,246.474 72.5,242.5C 71.6799,240.86 70.8466,239.193 70,237.5C 66.5909,224.029 70.7575,213.862 82.5,207C 102.908,206.25 111.574,216.083 108.5,236.5 Z"/></g>
<g><path style="opacity:1" fill="#f8cca3" d="M 175.5,243.5 C 176.833,245.167 178.167,246.833 179.5,248.5C 180.499,259.233 178.999,269.566 175,279.5C 169.558,288.275 162.724,295.775 154.5,302C 147.803,302.649 141.47,303.816 135.5,305.5C 134.317,304.496 132.984,303.662 131.5,303C 121.973,301.822 112.64,300.322 103.5,298.5C 101.64,297.061 99.973,295.395 98.5,293.5C 95.4973,272.634 100.497,253.634 113.5,236.5C 113.043,235.702 112.376,235.369 111.5,235.5C 115.458,233.007 119.791,231.173 124.5,230C 143.647,227.201 160.647,231.701 175.5,243.5 Z"/></g>
<g><path style="opacity:1" fill="#0c0907" d="M 129.5,234.5 C 133.514,234.334 137.514,234.501 141.5,235C 146.746,236.237 148.58,239.404 147,244.5C 144.629,247.206 141.963,249.539 139,251.5C 136.924,259.757 140.091,263.257 148.5,262C 151.167,260.667 153.167,258.667 154.5,256C 162.393,254.977 164.56,258.143 161,265.5C 152.852,274.518 143.518,275.851 133,269.5C 124.406,275.373 116.406,274.707 109,267.5C 105.98,263.726 105.813,259.893 108.5,256C 110.5,255.333 112.5,255.333 114.5,256C 116.058,259.06 118.391,261.226 121.5,262.5C 127.19,260.973 129.024,257.306 127,251.5C 121.472,248.336 119.139,243.67 120,237.5C 120.383,236.944 120.883,236.611 121.5,236.5C 123.137,235.782 124.803,235.616 126.5,236C 121.047,240.085 121.214,243.585 127,246.5C 134.483,243.586 135.317,239.586 129.5,234.5 Z"/></g>
<g><path style="opacity:1" fill="#fadbbf" d="M 111.5,235.5 C 112.376,235.369 113.043,235.702 113.5,236.5C 100.497,253.634 95.4973,272.634 98.5,293.5C 97.5,292.833 96.5,292.167 95.5,291.5C 87.3622,277.779 87.6956,264.113 96.5,250.5C 101.89,247.072 105.89,242.405 108.5,236.5C 109.391,235.89 110.391,235.557 111.5,235.5 Z"/></g>
<g><path style="opacity:1" fill="#3f3e3d" d="M 129.5,234.5 C 135.317,239.586 134.483,243.586 127,246.5C 121.214,243.585 121.047,240.085 126.5,236C 124.803,235.616 123.137,235.782 121.5,236.5C 121.611,235.883 121.944,235.383 122.5,235C 124.81,234.503 127.143,234.337 129.5,234.5 Z"/></g>
<g><path style="opacity:1" fill="#e38271" d="M 62.5,242.5 C 65.8333,242.5 69.1667,242.5 72.5,242.5C 75.7859,246.474 79.7859,249.474 84.5,251.5C 90.0309,263.112 86.6975,271.112 74.5,275.5C 71.1016,275.82 67.7683,275.487 64.5,274.5C 63.4231,273.295 62.0898,272.628 60.5,272.5C 56.4657,266.401 53.799,259.734 52.5,252.5C 53.5,246.833 56.8333,243.5 62.5,242.5 Z"/></g>
<g><path style="opacity:1" fill="#e3806e" d="M 199.5,253.5 C 205.145,252.011 209.812,249.011 213.5,244.5C 215.783,243.971 218.117,243.637 220.5,243.5C 233.931,245.078 239.431,252.411 237,265.5C 230.557,276.299 221.057,280.466 208.5,278C 197.812,272.773 194.812,264.606 199.5,253.5 Z"/></g>
<g><path style="opacity:1" fill="#be8459" d="M 96.5,250.5 C 87.6956,264.113 87.3622,277.779 95.5,291.5C 94.7494,292.573 93.7494,292.74 92.5,292C 85.0525,288.051 79.0525,282.551 74.5,275.5C 86.6975,271.112 90.0309,263.112 84.5,251.5C 88.5662,251.693 92.5662,251.36 96.5,250.5 Z"/></g>
<g><path style="opacity:1" fill="#fab97e" d="M 179.5,248.5 C 180.5,249.167 181.5,249.833 182.5,250.5C 185.187,255.215 187.354,260.215 189,265.5C 189.667,271.167 189.667,276.833 189,282.5C 184.506,295.506 175.34,302.339 161.5,303C 169.896,302.86 177.896,303.693 185.5,305.5C 184.007,306.312 183.34,307.645 183.5,309.5C 185.029,316.441 189.362,319.108 196.5,317.5C 196.833,318.833 197.167,320.167 197.5,321.5C 197.5,321.833 197.5,322.167 197.5,322.5C 172.405,324.391 147.405,323.557 122.5,320C 121.062,319.781 119.729,319.281 118.5,318.5C 118.863,317.817 119.196,317.15 119.5,316.5C 123.846,316.666 128.179,316.499 132.5,316C 136.419,313.311 137.419,309.811 135.5,305.5C 141.47,303.816 147.803,302.649 154.5,302C 162.724,295.775 169.558,288.275 175,279.5C 178.999,269.566 180.499,259.233 179.5,248.5 Z"/></g>
<g><path style="opacity:1" fill="#c39370" d="M 60.5,272.5 C 62.0898,272.628 63.4231,273.295 64.5,274.5C 67.7683,275.487 71.1016,275.82 74.5,275.5C 79.0525,282.551 85.0525,288.051 92.5,292C 93.7494,292.74 94.7494,292.573 95.5,291.5C 96.5,292.167 97.5,292.833 98.5,293.5C 99.973,295.395 101.64,297.061 103.5,298.5C 85.1951,296.19 70.8618,287.523 60.5,272.5 Z"/></g>
<g><path style="opacity:1" fill="#513520" d="M 244.5,298.5 C 240.213,300.735 235.546,301.735 230.5,301.5C 234.985,300.216 239.651,299.216 244.5,298.5 Z"/></g>
<g><path style="opacity:1" fill="#382618" d="M 230.5,301.5 C 229.737,302.268 228.737,302.768 227.5,303C 214.171,303.5 200.837,303.667 187.5,303.5C 187.842,302.662 188.508,302.328 189.5,302.5C 203.186,302.695 216.853,302.362 230.5,301.5 Z"/></g>
<g><path style="opacity:1" fill="#fcdec3" d="M 108.5,315.5 C 111.215,317.072 114.215,318.072 117.5,318.5C 113.735,329.561 110.902,340.894 109,352.5C 107.101,363.123 108.935,372.956 114.5,382C 114.272,382.399 113.938,382.565 113.5,382.5C 111.668,381.752 110.001,380.752 108.5,379.5C 100.375,372.489 96.7084,363.489 97.5,352.5C 98.9763,339.414 102.643,327.081 108.5,315.5 Z"/></g>
<g><path style="opacity:1" fill="#9a653e" d="M 229.5,317.5 C 218.812,318.615 208.145,319.948 197.5,321.5C 197.167,320.167 196.833,318.833 196.5,317.5C 207.678,317.049 218.678,317.049 229.5,317.5 Z"/></g>
<g><path style="opacity:1" fill="#fccfa5" d="M 119.5,316.5 C 119.196,317.15 118.863,317.817 118.5,318.5C 119.729,319.281 121.062,319.781 122.5,320C 147.405,323.557 172.405,324.391 197.5,322.5C 207.901,376.6 185.901,398.767 131.5,389C 124.97,387.883 118.97,385.716 113.5,382.5C 113.938,382.565 114.272,382.399 114.5,382C 108.935,372.956 107.101,363.123 109,352.5C 110.902,340.894 113.735,329.561 117.5,318.5C 114.215,318.072 111.215,317.072 108.5,315.5C 112.24,314.397 115.906,314.73 119.5,316.5 Z"/></g>
<g><path style="opacity:1" fill="#97633c" d="M 84.5,347.5 C 81.7628,347.599 79.0961,347.265 76.5,346.5C 79.0281,341.463 82.5281,337.129 87,333.5C 86.2481,338.101 85.4148,342.768 84.5,347.5 Z"/></g>
<g><path style="opacity:1" fill="#bb8256" d="M 229.5,317.5 C 230.596,319.103 231.93,320.603 233.5,322C 244.947,328.614 254.28,337.447 261.5,348.5C 261.666,355.508 261.5,362.508 261,369.5C 260.208,371.587 259.041,373.421 257.5,375C 253.845,376.652 250.511,378.486 247.5,380.5C 244.06,378.945 240.727,377.112 237.5,375C 225.851,363.198 217.684,349.365 213,333.5C 204.811,328.334 201.144,330.667 202,340.5C 207.77,361.274 219.436,377.94 237,390.5C 236.712,393.791 236.212,397.125 235.5,400.5C 232.072,409.278 228.905,418.278 226,427.5C 221.992,436.683 215.159,442.35 205.5,444.5C 203.629,444.141 202.129,443.141 201,441.5C 195.421,431.431 191.421,420.765 189,409.5C 184.951,404.182 180.951,404.182 177,409.5C 176.505,411.473 176.338,413.473 176.5,415.5C 164.374,415.973 152.374,415.306 140.5,413.5C 130.55,410.104 121.717,404.771 114,397.5C 109.757,391.961 107.924,385.961 108.5,379.5C 110.001,380.752 111.668,381.752 113.5,382.5C 118.97,385.716 124.97,387.883 131.5,389C 185.901,398.767 207.901,376.6 197.5,322.5C 197.5,322.167 197.5,321.833 197.5,321.5C 208.145,319.948 218.812,318.615 229.5,317.5 Z"/></g>
<g><path style="opacity:1" fill="#b77f54" d="M 76.5,346.5 C 79.0961,347.265 81.7628,347.599 84.5,347.5C 82.7809,358.751 82.1142,370.084 82.5,381.5C 69.4463,380.567 64.6129,373.567 68,360.5C 69.9844,356.531 71.9844,352.531 74,348.5C 74.7083,347.619 75.5416,346.953 76.5,346.5 Z"/></g>
<g><path style="opacity:1" fill="#c39370" d="M 261.5,348.5 C 269.389,356.032 271.556,365.032 268,375.5C 262.139,381.367 255.305,383.034 247.5,380.5C 250.511,378.486 253.845,376.652 257.5,375C 259.041,373.421 260.208,371.587 261,369.5C 261.5,362.508 261.666,355.508 261.5,348.5 Z"/></g>
<g><path style="opacity:1" fill="#c79773" d="M 97.5,352.5 C 96.7084,363.489 100.375,372.489 108.5,379.5C 107.924,385.961 109.757,391.961 114,397.5C 121.717,404.771 130.55,410.104 140.5,413.5C 102.891,409.262 88.5578,388.929 97.5,352.5 Z"/></g>
<g><path style="opacity:1" fill="#9c663e" d="M 235.5,400.5 C 235.086,414.571 232.586,428.237 228,441.5C 220.905,446.564 213.405,447.564 205.5,444.5C 215.159,442.35 221.992,436.683 226,427.5C 228.905,418.278 232.072,409.278 235.5,400.5 Z"/></g>
<g><path style="opacity:1" fill="#9c663e" d="M 133.5,445.5 C 133.702,443.011 133.202,440.677 132,438.5C 123.198,432.187 114.698,425.52 106.5,418.5C 105.227,417.923 105.227,417.257 106.5,416.5C 118.785,422.821 131.785,426.821 145.5,428.5C 146.69,437.776 142.69,443.443 133.5,445.5 Z"/></g>
<g><path style="opacity:1" fill="#b98055" d="M 106.5,418.5 C 114.698,425.52 123.198,432.187 132,438.5C 133.202,440.677 133.702,443.011 133.5,445.5C 127.522,447.186 121.855,446.352 116.5,443C 112.189,435.214 108.856,427.048 106.5,418.5 Z"/></g>
</svg>
