<?xml version="1.0" encoding="UTF-8"?>
<!DOCTYPE svg PUBLIC "-//W3C//DTD SVG 1.1//EN" "http://www.w3.org/Graphics/SVG/1.1/DTD/svg11.dtd">
<svg xmlns="http://www.w3.org/2000/svg" version="1.1" width="450px" height="523px" style="shape-rendering:geometricPrecision; text-rendering:geometricPrecision; image-rendering:optimizeQuality; fill-rule:evenodd; clip-rule:evenodd" xmlns:xlink="http://www.w3.org/1999/xlink">
<g><path style="opacity:0.976" fill="#020101" d="M 223.5,63.5 C 245.449,61.7558 263.949,68.7558 279,84.5C 291.179,100.58 291.512,116.913 280,133.5C 276.942,137.062 273.442,140.062 269.5,142.5C 297.779,176.944 308.945,216.277 303,260.5C 297.613,283.883 284.113,300.716 262.5,311C 256.036,313.898 249.37,316.231 242.5,318C 256.262,328.355 267.095,341.189 275,356.5C 280.846,368.248 280.846,379.915 275,391.5C 268.608,399.946 260.108,403.946 249.5,403.5C 248.294,417.4 245.794,431.066 242,444.5C 235.458,455.273 225.791,460.273 213,459.5C 204.468,459.99 197.134,457.324 191,451.5C 187.306,445.446 184.139,439.112 181.5,432.5C 174.197,431.503 166.863,431.169 159.5,431.5C 158.979,446.738 151.312,455.904 136.5,459C 123.749,461.942 112.916,458.775 104,449.5C 96.6067,434.486 91.1067,418.819 87.5,402.5C 68.909,402.24 58.5757,392.907 56.5,374.5C 60.7664,350.969 72.4331,331.969 91.5,317.5C 59.4724,308.307 40.639,287.307 35,254.5C 31.6031,218.087 40.1031,184.754 60.5,154.5C 37.9883,138.777 33.8216,119.11 48,95.5C 60.3103,80.845 75.977,72.5117 95,70.5C 117.696,72.5279 130.696,84.8612 134,107.5C 139.695,105.828 145.529,104.661 151.5,104C 164.849,103.309 178.183,103.475 191.5,104.5C 191.916,82.6067 202.583,68.94 223.5,63.5 Z"/></g>
<g><path style="opacity:1" fill="#bc8256" d="M 260.5,87.5 C 264.56,103.279 262.893,118.279 255.5,132.5C 251.524,133.659 248.024,135.659 245,138.5C 244.221,145.394 247.388,148.894 254.5,149C 267.798,162.092 277.131,177.592 282.5,195.5C 284.258,220.386 279.092,243.719 267,265.5C 259.021,277.475 248.521,286.641 235.5,293C 220.458,299.183 205.125,304.016 189.5,307.5C 187.938,307.733 186.605,308.4 185.5,309.5C 177.677,308.671 169.677,308.171 161.5,308C 182.958,304.62 191.792,292.12 188,270.5C 187.489,268.122 186.822,265.788 186,263.5C 184.144,260.444 182.311,257.444 180.5,254.5C 185.992,257.921 191.992,259.254 198.5,258.5C 193.908,269.224 196.908,277.057 207.5,282C 217.951,284.016 226.784,281.182 234,273.5C 240.162,263.002 237.996,254.835 227.5,249C 222.539,247.236 217.539,247.07 212.5,248.5C 220.843,232.031 216.843,219.531 200.5,211C 182.643,208.532 172.643,216.199 170.5,234C 170.483,238.297 171.149,242.463 172.5,246.5C 153.194,233.016 132.86,231.016 111.5,240.5C 109.95,241.441 108.284,242.107 106.5,242.5C 109.982,229.766 105.982,220.266 94.5,214C 78.2249,211.097 69.2249,217.93 67.5,234.5C 67.5583,239.396 68.5583,244.063 70.5,248.5C 67.5,248.5 64.5,248.5 61.5,248.5C 59.8276,228.208 63.161,208.874 71.5,190.5C 77.4287,195.718 84.4287,199.051 92.5,200.5C 101.475,199.365 105.975,194.365 106,185.5C 104.786,183.951 103.286,182.785 101.5,182C 92.8397,181.5 84.1731,181.334 75.5,181.5C 79.7956,170.691 85.9623,161.025 94,152.5C 105.778,142.209 117.945,132.542 130.5,123.5C 151.374,116.796 172.708,115.629 194.5,120C 195.928,122.185 197.595,124.185 199.5,126C 205.69,127.581 209.024,125.248 209.5,119C 205.791,109.565 205.624,100.065 209,90.5C 216.354,79.5996 226.52,75.7662 239.5,79C 247.4,79.7956 254.4,82.6289 260.5,87.5 Z"/></g>
<g><path style="opacity:1" fill="#bb8256" d="M 102.5,86.5 C 106.021,92.637 107.355,99.3036 106.5,106.5C 104.833,105.167 103.167,103.833 101.5,102.5C 87.5639,96.5335 77.0639,100.2 70,113.5C 68.5389,123.616 72.7056,129.616 82.5,131.5C 78.8099,135.189 74.8099,138.522 70.5,141.5C 56.8692,135.903 52.0358,125.903 56,111.5C 62.8704,98.6402 73.3704,90.1402 87.5,86C 92.5842,85.2223 97.5842,85.3889 102.5,86.5 Z"/></g>
<g><path style="opacity:1" fill="#9c663e" d="M 102.5,86.5 C 113.818,91.3134 119.152,99.8134 118.5,112C 115.252,113.46 111.919,114.626 108.5,115.5C 107.99,112.461 107.323,109.461 106.5,106.5C 107.355,99.3036 106.021,92.637 102.5,86.5 Z"/></g>
<g><path style="opacity:1" fill="#9d663f" d="M 260.5,87.5 C 276.611,100.318 277.611,114.151 263.5,129C 260.929,130.454 258.262,131.62 255.5,132.5C 262.893,118.279 264.56,103.279 260.5,87.5 Z"/></g>
<g><path style="opacity:1" fill="#fab97e" d="M 235.5,91.5 C 234.52,94.1161 233.02,96.4494 231,98.5C 228.573,108.204 229.406,117.537 233.5,126.5C 223.713,124.758 219.046,118.925 219.5,109C 219.755,98.5762 225.089,92.7428 235.5,91.5 Z"/></g>
<g><path style="opacity:1" fill="#fccfa5" d="M 235.5,91.5 C 247.324,91.1722 254.658,96.6722 257.5,108C 254.696,120.599 246.696,126.766 233.5,126.5C 229.406,117.537 228.573,108.204 231,98.5C 233.02,96.4494 234.52,94.1161 235.5,91.5 Z"/></g>
<g><path style="opacity:1" fill="#fbcea4" d="M 101.5,102.5 C 101.74,108.227 101.407,113.894 100.5,119.5C 94.2509,123.074 88.2509,127.074 82.5,131.5C 72.7056,129.616 68.5389,123.616 70,113.5C 77.0639,100.2 87.5639,96.5335 101.5,102.5 Z"/></g>
<g><path style="opacity:1" fill="#f5b67e" d="M 101.5,102.5 C 103.167,103.833 104.833,105.167 106.5,106.5C 107.323,109.461 107.99,112.461 108.5,115.5C 106.151,117.341 103.485,118.674 100.5,119.5C 101.407,113.894 101.74,108.227 101.5,102.5 Z"/></g>
<g><path style="opacity:1" fill="#c99874" d="M 130.5,123.5 C 117.945,132.542 105.778,142.209 94,152.5C 85.9623,161.025 79.7956,170.691 75.5,181.5C 71.9924,183.425 70.659,186.425 71.5,190.5C 63.161,208.874 59.8276,228.208 61.5,248.5C 56.0915,250.243 52.7582,253.91 51.5,259.5C 45.0545,221.614 53.5545,187.28 77,156.5C 91.6002,140.282 109.434,129.282 130.5,123.5 Z"/></g>
<g><path style="opacity:1" fill="#291c13" d="M 175.5,178.5 C 185.506,178.334 195.506,178.5 205.5,179C 210.861,181.797 211.861,185.797 208.5,191C 199.903,196.424 190.57,198.757 180.5,198C 173.099,195.294 169.932,190.128 171,182.5C 172.397,180.93 173.897,179.596 175.5,178.5 Z"/></g>
<g><path style="opacity:1" fill="#281b12" d="M 75.5,181.5 C 84.1731,181.334 92.8397,181.5 101.5,182C 103.286,182.785 104.786,183.951 106,185.5C 105.975,194.365 101.475,199.365 92.5,200.5C 84.4287,199.051 77.4287,195.718 71.5,190.5C 70.659,186.425 71.9924,183.425 75.5,181.5 Z"/></g>
<g><path style="opacity:1" fill="#9c663e" d="M 282.5,195.5 C 289.972,213.019 292.472,231.352 290,250.5C 286.185,277.651 271.018,294.818 244.5,302C 226.433,306.385 208.1,308.218 189.5,307.5C 205.125,304.016 220.458,299.183 235.5,293C 248.521,286.641 259.021,277.475 267,265.5C 279.092,243.719 284.258,220.386 282.5,195.5 Z"/></g>
<g><path style="opacity:1" fill="#010100" d="M 212.5,248.5 C 208.855,253.317 204.188,256.651 198.5,258.5C 191.992,259.254 185.992,257.921 180.5,254.5C 179.833,254.167 179.167,253.833 178.5,253.5C 176.471,251.142 174.471,248.808 172.5,246.5C 171.149,242.463 170.483,238.297 170.5,234C 172.643,216.199 182.643,208.532 200.5,211C 216.843,219.531 220.843,232.031 212.5,248.5 Z"/></g>
<g><path style="opacity:1" fill="#030101" d="M 106.5,242.5 C 104.725,248.747 101.059,253.413 95.5,256.5C 91.5483,257.272 87.5483,257.605 83.5,257.5C 78.2487,255.717 73.9154,252.717 70.5,248.5C 68.5583,244.063 67.5583,239.396 67.5,234.5C 69.2249,217.93 78.2249,211.097 94.5,214C 105.982,220.266 109.982,229.766 106.5,242.5 Z"/></g>
<g><path style="opacity:1" fill="#facea4" d="M 172.5,246.5 C 174.471,248.808 176.471,251.142 178.5,253.5C 180.425,275.927 172.425,293.761 154.5,307C 147.574,308.339 140.574,308.839 133.5,308.5C 123.272,307.925 113.272,306.592 103.5,304.5C 102.167,303.167 100.833,301.833 99.5,300.5C 95.1514,278.927 99.4847,259.26 112.5,241.5C 112.376,240.893 112.043,240.56 111.5,240.5C 132.86,231.016 153.194,233.016 172.5,246.5 Z"/></g>
<g><path style="opacity:1" fill="#fcddc1" d="M 111.5,240.5 C 112.043,240.56 112.376,240.893 112.5,241.5C 99.4847,259.26 95.1514,278.927 99.5,300.5C 98.609,299.89 97.609,299.557 96.5,299.5C 86.3091,285.543 85.9757,271.21 95.5,256.5C 101.059,253.413 104.725,248.747 106.5,242.5C 108.284,242.107 109.95,241.441 111.5,240.5 Z"/></g>
<g><path style="opacity:1" fill="#080705" d="M 123.5,240.5 C 129.176,240.334 134.843,240.501 140.5,241C 145.746,242.237 147.58,245.404 146,250.5C 144.305,253.695 141.805,256.028 138.5,257.5C 135.62,264.199 137.787,267.866 145,268.5C 148.977,267.859 151.811,265.692 153.5,262C 162.299,261.224 164.466,264.724 160,272.5C 151.736,280.644 142.57,281.644 132.5,275.5C 122.509,283.133 114.009,281.8 107,271.5C 105.996,268.007 106.496,264.841 108.5,262C 110.167,261.333 111.833,261.333 113.5,262C 115.405,263.815 117.072,265.815 118.5,268C 121.257,268.782 123.757,268.282 126,266.5C 126.667,263.5 126.667,260.5 126,257.5C 120.735,254.632 118.402,250.298 119,244.5C 120.397,242.93 121.897,241.596 123.5,240.5 Z"/></g>
<g><path style="opacity:1" fill="#434343" d="M 125.5,242.5 C 132.225,242.204 133.891,244.871 130.5,250.5C 126.501,253.636 123.501,252.969 121.5,248.5C 121.866,245.744 123.2,243.744 125.5,242.5 Z"/></g>
<g><path style="opacity:1" fill="#e58371" d="M 61.5,248.5 C 64.5,248.5 67.5,248.5 70.5,248.5C 73.9154,252.717 78.2487,255.717 83.5,257.5C 87.9556,264.815 87.289,271.648 81.5,278C 79.1332,279.845 76.4665,281.011 73.5,281.5C 68.9691,281.85 64.6358,281.183 60.5,279.5C 55.5874,273.789 52.5874,267.122 51.5,259.5C 52.7582,253.91 56.0915,250.243 61.5,248.5 Z"/></g>
<g><path style="opacity:1" fill="#e4806e" d="M 198.5,258.5 C 204.188,256.651 208.855,253.317 212.5,248.5C 217.539,247.07 222.539,247.236 227.5,249C 237.996,254.835 240.162,263.002 234,273.5C 226.784,281.182 217.951,284.016 207.5,282C 196.908,277.057 193.908,269.224 198.5,258.5 Z"/></g>
<g><path style="opacity:1" fill="#fab97e" d="M 178.5,253.5 C 179.167,253.833 179.833,254.167 180.5,254.5C 182.311,257.444 184.144,260.444 186,263.5C 186.822,265.788 187.489,268.122 188,270.5C 191.792,292.12 182.958,304.62 161.5,308C 169.677,308.171 177.677,308.671 185.5,309.5C 182.268,318.303 185.601,322.303 195.5,321.5C 196.441,323.05 197.107,324.716 197.5,326.5C 197.5,326.833 197.5,327.167 197.5,327.5C 172.405,329.391 147.405,328.557 122.5,325C 121.062,324.781 119.729,324.281 118.5,323.5C 118.863,322.817 119.196,322.15 119.5,321.5C 124.297,321.879 128.964,321.379 133.5,320C 137.445,316.169 137.445,312.336 133.5,308.5C 140.574,308.839 147.574,308.339 154.5,307C 172.425,293.761 180.425,275.927 178.5,253.5 Z"/></g>
<g><path style="opacity:1" fill="#bc8357" d="M 95.5,256.5 C 85.9757,271.21 86.3091,285.543 96.5,299.5C 87.059,295.721 79.3924,289.721 73.5,281.5C 76.4665,281.011 79.1332,279.845 81.5,278C 87.289,271.648 87.9556,264.815 83.5,257.5C 87.5483,257.605 91.5483,257.272 95.5,256.5 Z"/></g>
<g><path style="opacity:1" fill="#c89774" d="M 60.5,279.5 C 64.6358,281.183 68.9691,281.85 73.5,281.5C 79.3924,289.721 87.059,295.721 96.5,299.5C 97.609,299.557 98.609,299.89 99.5,300.5C 100.833,301.833 102.167,303.167 103.5,304.5C 91.3594,302.762 80.3594,298.262 70.5,291C 66.5615,287.571 63.2281,283.737 60.5,279.5 Z"/></g>
<g><path style="opacity:1" fill="#9b663e" d="M 229.5,321.5 C 218.914,323.597 208.248,325.264 197.5,326.5C 197.107,324.716 196.441,323.05 195.5,321.5C 207.01,321.016 218.343,321.016 229.5,321.5 Z"/></g>
<g><path style="opacity:1" fill="#fcdec3" d="M 108.5,320.5 C 111.215,322.072 114.215,323.072 117.5,323.5C 113.735,334.561 110.902,345.894 109,357.5C 107.101,368.123 108.935,377.956 114.5,387C 114.272,387.399 113.938,387.565 113.5,387.5C 112.167,386.833 110.833,386.167 109.5,385.5C 100.676,378.395 96.6756,369.061 97.5,357.5C 98.9763,344.414 102.643,332.081 108.5,320.5 Z"/></g>
<g><path style="opacity:1" fill="#fccfa5" d="M 108.5,320.5 C 112.154,320.942 115.821,321.276 119.5,321.5C 119.196,322.15 118.863,322.817 118.5,323.5C 119.729,324.281 121.062,324.781 122.5,325C 147.405,328.557 172.405,329.391 197.5,327.5C 207.849,381.651 185.849,403.818 131.5,394C 124.97,392.883 118.97,390.716 113.5,387.5C 113.938,387.565 114.272,387.399 114.5,387C 108.935,377.956 107.101,368.123 109,357.5C 110.902,345.894 113.735,334.561 117.5,323.5C 114.215,323.072 111.215,322.072 108.5,320.5 Z"/></g>
<g><path style="opacity:1" fill="#bc8257" d="M 229.5,321.5 C 230.32,323.14 231.153,324.807 232,326.5C 243.471,334.468 252.638,344.468 259.5,356.5C 258.892,363.732 258.059,371.065 257,378.5C 252.882,383.481 247.716,386.481 241.5,387.5C 225.297,374.784 215.463,358.118 212,337.5C 208.899,335.28 205.565,334.947 202,336.5C 200.48,340.375 200.146,344.375 201,348.5C 206.125,369.415 217.291,386.082 234.5,398.5C 232.111,409.835 228.611,420.835 224,431.5C 219.432,438.193 213.266,442.526 205.5,444.5C 203.629,444.141 202.129,443.141 201,441.5C 195.421,431.431 191.421,420.765 189,409.5C 184.951,404.182 180.951,404.182 177,409.5C 176.231,412.099 176.398,414.599 177.5,417C 165.045,417.979 152.712,417.479 140.5,415.5C 132.818,412.491 125.485,408.658 118.5,404C 112.279,399.068 109.279,392.901 109.5,385.5C 110.833,386.167 112.167,386.833 113.5,387.5C 118.97,390.716 124.97,392.883 131.5,394C 185.849,403.818 207.849,381.651 197.5,327.5C 197.5,327.167 197.5,326.833 197.5,326.5C 208.248,325.264 218.914,323.597 229.5,321.5 Z"/></g>
<g><path style="opacity:1" fill="#b57c52" d="M 85.5,341.5 C 86.1239,341.917 86.4573,342.584 86.5,343.5C 82.6384,358.324 81.6384,373.324 83.5,388.5C 74.9858,387.654 70.6524,382.987 70.5,374.5C 70.3977,370.307 71.231,366.307 73,362.5C 76.6745,355.142 80.8412,348.142 85.5,341.5 Z"/></g>
<g><path style="opacity:1" fill="#c89874" d="M 259.5,356.5 C 265.329,364.821 266.829,373.821 264,383.5C 257.466,389.872 249.966,391.205 241.5,387.5C 247.716,386.481 252.882,383.481 257,378.5C 258.059,371.065 258.892,363.732 259.5,356.5 Z"/></g>
<g><path style="opacity:1" fill="#c79773" d="M 97.5,357.5 C 96.6756,369.061 100.676,378.395 109.5,385.5C 109.279,392.901 112.279,399.068 118.5,404C 125.485,408.658 132.818,412.491 140.5,415.5C 124.815,414.226 111.648,407.892 101,396.5C 97.709,390.383 95.5423,383.883 94.5,377C 95.4,370.349 96.4,363.849 97.5,357.5 Z"/></g>
<g><path style="opacity:1" fill="#9c663e" d="M 234.5,398.5 C 235.294,413.102 233.127,427.435 228,441.5C 220.905,446.564 213.405,447.564 205.5,444.5C 213.266,442.526 219.432,438.193 224,431.5C 228.611,420.835 232.111,409.835 234.5,398.5 Z"/></g>
<g><path style="opacity:1" fill="#b98055" d="M 110.5,420.5 C 110.859,422.371 111.859,423.871 113.5,425C 119.755,429.378 125.922,433.878 132,438.5C 133.202,440.677 133.702,443.011 133.5,445.5C 127.233,447.301 121.399,446.301 116,442.5C 111.818,434.828 108.818,426.828 107,418.5C 108.113,419.305 109.279,419.972 110.5,420.5 Z"/></g>
<g><path style="opacity:1" fill="#9b653e" d="M 110.5,420.5 C 121.85,426.004 133.85,429.004 146.5,429.5C 146.392,438.43 142.059,443.763 133.5,445.5C 133.702,443.011 133.202,440.677 132,438.5C 125.922,433.878 119.755,429.378 113.5,425C 111.859,423.871 110.859,422.371 110.5,420.5 Z"/></g>
</svg>
