<?xml version="1.0" encoding="UTF-8"?>
<!DOCTYPE svg PUBLIC "-//W3C//DTD SVG 1.1//EN" "http://www.w3.org/Graphics/SVG/1.1/DTD/svg11.dtd">
<svg xmlns="http://www.w3.org/2000/svg" version="1.1" width="450px" height="523px" style="shape-rendering:geometricPrecision; text-rendering:geometricPrecision; image-rendering:optimizeQuality; fill-rule:evenodd; clip-rule:evenodd" xmlns:xlink="http://www.w3.org/1999/xlink">
<g><path style="opacity:0.949" fill="#020101" d="M 220.5,66.5 C 232.438,65.8541 244.105,67.3541 255.5,71C 286.215,86.1419 293.382,108.642 277,138.5C 274.257,140.788 271.423,142.955 268.5,145C 296.717,179.712 308.217,219.212 303,263.5C 299.125,282.021 289.625,296.854 274.5,308C 264.71,313.23 254.71,317.896 244.5,322C 260.207,335.233 271.04,351.733 277,371.5C 280.146,389.88 272.979,402.213 255.5,408.5C 253.345,408.162 251.011,408.162 248.5,408.5C 247.737,420.747 245.57,432.747 242,444.5C 235.458,455.273 225.791,460.273 213,459.5C 204.468,459.99 197.134,457.324 191,451.5C 187.639,446.112 184.806,440.446 182.5,434.5C 174.833,433.167 167.167,433.167 159.5,434.5C 157.829,448.336 150.163,456.503 136.5,459C 123.749,461.942 112.916,458.775 104,449.5C 97.6211,436.698 92.6211,423.365 89,409.5C 79.3603,408.18 71.027,404.18 64,397.5C 58.1259,387.523 57.2926,377.19 61.5,366.5C 61.2907,365.914 60.9574,365.414 60.5,365C 66.0071,352.151 73.1737,340.318 82,329.5C 84.8588,326.971 87.6921,324.471 90.5,322C 51.3523,310.24 32.019,283.407 32.5,241.5C 32.9635,211.448 41.6301,184.114 58.5,159.5C 34.9654,144.353 30.4654,124.687 45,100.5C 60.2173,79.6539 80.384,71.8206 105.5,77C 120.211,83.5106 128.878,94.6772 131.5,110.5C 150.385,107.215 169.385,106.215 188.5,107.5C 189.399,85.9691 200.065,72.3025 220.5,66.5 Z"/></g>
<g><path style="opacity:1" fill="#724f34" d="M 98.5,90.5 C 92.8044,90.447 87.1377,90.7803 81.5,91.5C 84.7178,90.0458 88.2178,89.3791 92,89.5C 94.3608,89.5039 96.5274,89.8373 98.5,90.5 Z"/></g>
<g><path style="opacity:1" fill="#b98156" d="M 98.5,90.5 C 103.518,96.9039 105.518,104.237 104.5,112.5C 102.861,110.194 100.861,108.194 98.5,106.5C 91.5808,104.011 84.5808,103.844 77.5,106C 65.1346,113.64 63.4679,122.974 72.5,134C 74.9088,135.707 77.5755,136.54 80.5,136.5C 77.0622,139.435 73.7289,142.601 70.5,146C 62.42,145.192 56.5867,141.025 53,133.5C 49.961,123.943 51.6276,115.277 58,107.5C 64.8526,100.508 72.6859,95.1749 81.5,91.5C 87.1377,90.7803 92.8044,90.447 98.5,90.5 Z"/></g>
<g><path style="opacity:1" fill="#98633c" d="M 98.5,90.5 C 106.719,92.884 112.219,98.2174 115,106.5C 116.108,110.086 116.608,113.753 116.5,117.5C 112.502,117.809 108.835,119.143 105.5,121.5C 105.81,118.287 105.477,115.287 104.5,112.5C 105.518,104.237 103.518,96.9039 98.5,90.5 Z"/></g>
<g><path style="opacity:1" fill="#98633d" d="M 259.5,91.5 C 272.256,100.942 274.756,112.609 267,126.5C 263.422,130.367 259.255,133.367 254.5,135.5C 260.471,121.443 262.137,106.777 259.5,91.5 Z"/></g>
<g><path style="opacity:1" fill="#facda3" d="M 98.5,106.5 C 98.593,112.863 98.2597,119.196 97.5,125.5C 91.5641,128.773 85.8975,132.439 80.5,136.5C 77.5755,136.54 74.9088,135.707 72.5,134C 63.4679,122.974 65.1346,113.64 77.5,106C 84.5808,103.844 91.5808,104.011 98.5,106.5 Z"/></g>
<g><path style="opacity:1" fill="#64452e" d="M 206.5,94.5 C 204.978,100.045 204.312,105.712 204.5,111.5C 202.886,105.601 203.552,99.9345 206.5,94.5 Z"/></g>
<g><path style="opacity:1" fill="#f3b57d" d="M 98.5,106.5 C 100.861,108.194 102.861,110.194 104.5,112.5C 105.477,115.287 105.81,118.287 105.5,121.5C 102.592,122.287 99.9256,123.62 97.5,125.5C 98.2597,119.196 98.593,112.863 98.5,106.5 Z"/></g>
<g><path style="opacity:1" fill="#bc8256" d="M 259.5,91.5 C 262.137,106.777 260.471,121.443 254.5,135.5C 250.113,136.461 246.279,138.461 243,141.5C 242.374,148.875 245.874,152.375 253.5,152C 266.768,165.02 276.101,180.52 281.5,198.5C 282.376,222.315 277.876,244.981 268,266.5C 260.013,279.488 249.18,289.321 235.5,296C 225.308,299.617 215.308,303.617 205.5,308C 200.231,309.106 194.897,309.773 189.5,310C 188.584,310.278 187.918,310.778 187.5,311.5C 187.027,312.906 186.027,313.573 184.5,313.5C 177.011,312.671 169.344,312.171 161.5,312C 173.772,311.462 182.272,305.629 187,294.5C 190.385,281.896 188.551,270.23 181.5,259.5C 188.514,262.103 195.514,262.103 202.5,259.5C 201.378,260.947 199.878,261.947 198,262.5C 194.665,271.047 196.498,278.214 203.5,284C 213.14,286.86 222.14,285.527 230.5,280C 240.91,268.867 239.576,259.533 226.5,252C 221.331,249.95 216.331,250.117 211.5,252.5C 212.263,250.632 213.263,248.965 214.5,247.5C 215.973,244.983 216.64,242.15 216.5,239C 216.494,236.967 216.161,235.134 215.5,233.5C 211.623,217.721 201.623,211.221 185.5,214C 169.244,222.661 165.244,235.161 173.5,251.5C 157.934,240.111 140.601,236.278 121.5,240C 117.387,241.188 113.72,243.021 110.5,245.5C 108.716,245.893 107.05,246.559 105.5,247.5C 109.637,230.67 103.304,220.67 86.5,217.5C 77.6533,218.028 71.6533,222.361 68.5,230.5C 66.9942,233.356 66.3275,236.523 66.5,240C 66.5039,242.361 66.8373,244.527 67.5,246.5C 68.4767,248.821 69.4767,251.154 70.5,253.5C 67.5,253.5 64.5,253.5 61.5,253.5C 60.5344,244.852 60.3677,236.186 61,227.5C 63.7412,215.254 66.9078,203.254 70.5,191.5C 69.8748,194.97 70.8748,197.804 73.5,200C 79.0491,202.96 84.8825,205.127 91,206.5C 100.94,205.571 105.274,200.238 104,190.5C 103.097,189.299 101.931,188.465 100.5,188C 91.5062,187.5 82.5062,187.334 73.5,187.5C 75.8755,183.413 77.7089,179.08 79,174.5C 92.242,156.259 108.409,141.093 127.5,129C 126.906,128.536 126.239,128.369 125.5,128.5C 147.641,120.751 170.308,119.418 193.5,124.5C 195.653,129.259 199.32,130.759 204.5,129C 206.444,127.278 207.444,125.111 207.5,122.5C 206.296,118.889 205.296,115.222 204.5,111.5C 204.312,105.712 204.978,100.045 206.5,94.5C 210.897,84.9606 218.397,80.6273 229,81.5C 240.407,81.386 250.574,84.7193 259.5,91.5 Z"/></g>
<g><path style="opacity:1" fill="#fccea4" d="M 238.5,95.5 C 251.897,97.7167 257.064,105.383 254,118.5C 248.296,125.768 240.796,129.435 231.5,129.5C 230.088,127.002 228.921,124.336 228,121.5C 227.333,115.833 227.333,110.167 228,104.5C 229.033,98.3019 232.533,95.3019 238.5,95.5 Z"/></g>
<g><path style="opacity:1" fill="#f9b97e" d="M 238.5,95.5 C 232.533,95.3019 229.033,98.3019 228,104.5C 227.333,110.167 227.333,115.833 228,121.5C 228.921,124.336 230.088,127.002 231.5,129.5C 219.989,127.167 215.489,120.167 218,108.5C 220.84,97.6715 227.673,93.3381 238.5,95.5 Z"/></g>
<g><path style="opacity:1" fill="#c49471" d="M 125.5,128.5 C 126.239,128.369 126.906,128.536 127.5,129C 108.409,141.093 92.242,156.259 79,174.5C 77.7089,179.08 75.8755,183.413 73.5,187.5C 72.2112,188.637 71.2112,189.97 70.5,191.5C 66.9078,203.254 63.7412,215.254 61,227.5C 60.3677,236.186 60.5344,244.852 61.5,253.5C 56.1096,255.557 52.443,259.224 50.5,264.5C 45.5095,242.878 47.0095,221.545 55,200.5C 66.1882,164.478 89.6882,140.478 125.5,128.5 Z"/></g>
<g><path style="opacity:1" fill="#2a1d13" d="M 174.5,183.5 C 184.172,183.334 193.839,183.5 203.5,184C 208.218,185.449 209.718,188.615 208,193.5C 199.914,200.571 190.414,203.738 179.5,203C 173.63,201.296 169.963,197.463 168.5,191.5C 168.685,187.333 170.685,184.666 174.5,183.5 Z"/></g>
<g><path style="opacity:1" fill="#291c13" d="M 73.5,187.5 C 82.5062,187.334 91.5062,187.5 100.5,188C 101.931,188.465 103.097,189.299 104,190.5C 105.274,200.238 100.94,205.571 91,206.5C 84.8825,205.127 79.0491,202.96 73.5,200C 70.8748,197.804 69.8748,194.97 70.5,191.5C 71.2112,189.97 72.2112,188.637 73.5,187.5 Z"/></g>
<g><path style="opacity:1" fill="#9c653e" d="M 281.5,198.5 C 285.079,207.086 287.579,216.086 289,225.5C 295.762,275.824 273.928,303.657 223.5,309C 211.504,310.008 199.504,310.841 187.5,311.5C 187.918,310.778 188.584,310.278 189.5,310C 194.897,309.773 200.231,309.106 205.5,308C 215.308,303.617 225.308,299.617 235.5,296C 249.18,289.321 260.013,279.488 268,266.5C 277.876,244.981 282.376,222.315 281.5,198.5 Z"/></g>
<g><path style="opacity:1" fill="#040201" d="M 215.5,233.5 C 215.563,238.203 215.229,242.87 214.5,247.5C 213.263,248.965 212.263,250.632 211.5,252.5C 208.786,255.215 205.786,257.549 202.5,259.5C 195.514,262.103 188.514,262.103 181.5,259.5C 180.833,259.167 180.167,258.833 179.5,258.5C 177.5,256.167 175.5,253.833 173.5,251.5C 165.244,235.161 169.244,222.661 185.5,214C 201.623,211.221 211.623,217.721 215.5,233.5 Z"/></g>
<g><path style="opacity:1" fill="#020101" d="M 105.5,247.5 C 103.664,253 100.331,257.334 95.5,260.5C 94.209,260.263 93.209,260.596 92.5,261.5C 87.7971,261.563 83.1304,261.229 78.5,260.5C 75.1898,258.854 72.5232,256.52 70.5,253.5C 69.4767,251.154 68.4767,248.821 67.5,246.5C 67.3921,241.13 67.7255,235.797 68.5,230.5C 71.6533,222.361 77.6533,218.028 86.5,217.5C 103.304,220.67 109.637,230.67 105.5,247.5 Z"/></g>
<g><path style="opacity:1" fill="#3d2a1c" d="M 68.5,230.5 C 67.7255,235.797 67.3921,241.13 67.5,246.5C 66.8373,244.527 66.5039,242.361 66.5,240C 66.3275,236.523 66.9942,233.356 68.5,230.5 Z"/></g>
<g><path style="opacity:1" fill="#f9cca3" d="M 173.5,251.5 C 175.5,253.833 177.5,256.167 179.5,258.5C 180.028,280.23 171.694,297.73 154.5,311C 146.905,312.356 139.238,312.856 131.5,312.5C 124.683,311.435 117.683,310.768 110.5,310.5C 107.941,310.802 105.607,310.468 103.5,309.5C 102.167,308.167 100.833,306.833 99.5,305.5C 95.2432,284.013 99.2432,264.346 111.5,246.5C 111.376,245.893 111.043,245.56 110.5,245.5C 113.72,243.021 117.387,241.188 121.5,240C 140.601,236.278 157.934,240.111 173.5,251.5 Z"/></g>
<g><path style="opacity:1" fill="#734f35" d="M 215.5,233.5 C 216.161,235.134 216.494,236.967 216.5,239C 216.64,242.15 215.973,244.983 214.5,247.5C 215.229,242.87 215.563,238.203 215.5,233.5 Z"/></g>
<g><path style="opacity:1" fill="#0c0907" d="M 139.5,244.5 C 145.194,246.412 146.694,250.079 144,255.5C 142.104,257.53 139.937,259.197 137.5,260.5C 134.959,268.587 137.959,272.087 146.5,271C 149.167,269.667 151.167,267.667 152.5,265C 161.299,264.224 163.466,267.724 159,275.5C 150.697,283.648 141.53,284.648 131.5,278.5C 126.285,282.874 120.285,284.374 113.5,283C 106.285,278.947 104.285,273.28 107.5,266C 112.784,264.6 116.118,266.6 117.5,272C 125.306,271.92 127.64,268.086 124.5,260.5C 119.106,257.711 116.939,253.378 118,247.5C 118.816,246.177 119.983,245.511 121.5,245.5C 122.552,245.351 123.552,245.517 124.5,246C 121.42,247.711 120.254,250.211 121,253.5C 126.208,256.816 129.708,255.483 131.5,249.5C 131.069,247.234 129.736,245.734 127.5,245C 131.486,244.501 135.486,244.334 139.5,244.5 Z"/></g>
<g><path style="opacity:1" fill="#484542" d="M 139.5,244.5 C 135.486,244.334 131.486,244.501 127.5,245C 129.736,245.734 131.069,247.234 131.5,249.5C 129.708,255.483 126.208,256.816 121,253.5C 120.254,250.211 121.42,247.711 124.5,246C 123.552,245.517 122.552,245.351 121.5,245.5C 121.611,244.883 121.944,244.383 122.5,244C 128.349,243.182 134.015,243.348 139.5,244.5 Z"/></g>
<g><path style="opacity:1" fill="#f9dabe" d="M 110.5,245.5 C 111.043,245.56 111.376,245.893 111.5,246.5C 99.2432,264.346 95.2432,284.013 99.5,305.5C 98.609,304.89 97.609,304.557 96.5,304.5C 88.307,294.283 86.4737,282.949 91,270.5C 92.7887,267.259 94.2887,263.926 95.5,260.5C 100.331,257.334 103.664,253 105.5,247.5C 107.05,246.559 108.716,245.893 110.5,245.5 Z"/></g>
<g><path style="opacity:1" fill="#e3806e" d="M 202.5,259.5 C 205.786,257.549 208.786,255.215 211.5,252.5C 216.331,250.117 221.331,249.95 226.5,252C 239.576,259.533 240.91,268.867 230.5,280C 222.14,285.527 213.14,286.86 203.5,284C 196.498,278.214 194.665,271.047 198,262.5C 199.878,261.947 201.378,260.947 202.5,259.5 Z"/></g>
<g><path style="opacity:1" fill="#e48371" d="M 61.5,253.5 C 64.5,253.5 67.5,253.5 70.5,253.5C 72.5232,256.52 75.1898,258.854 78.5,260.5C 79.9303,261.537 81.597,262.204 83.5,262.5C 88.8798,274.294 85.5464,282.294 73.5,286.5C 69.1186,286.628 64.7853,286.295 60.5,285.5C 56.006,279 52.6726,272 50.5,264.5C 52.443,259.224 56.1096,255.557 61.5,253.5 Z"/></g>
<g><path style="opacity:1" fill="#fab97e" d="M 179.5,258.5 C 180.167,258.833 180.833,259.167 181.5,259.5C 188.551,270.23 190.385,281.896 187,294.5C 182.272,305.629 173.772,311.462 161.5,312C 169.344,312.171 177.011,312.671 184.5,313.5C 182.38,318.505 183.713,322.172 188.5,324.5C 191.028,325.166 193.694,325.832 196.5,326.5C 197.127,327.417 197.461,328.417 197.5,329.5C 197.5,329.833 197.5,330.167 197.5,330.5C 181.178,331.495 164.845,331.662 148.5,331C 138.232,330.302 128.232,328.802 118.5,326.5C 123.511,326.666 128.511,326.499 133.5,326C 134.056,325.617 134.389,325.117 134.5,324.5C 137.951,319.116 136.951,315.116 131.5,312.5C 139.238,312.856 146.905,312.356 154.5,311C 171.694,297.73 180.028,280.23 179.5,258.5 Z"/></g>
<g><path style="opacity:1" fill="#452e20" d="M 78.5,260.5 C 83.1304,261.229 87.7971,261.563 92.5,261.5C 89.7131,262.477 86.7131,262.81 83.5,262.5C 81.597,262.204 79.9303,261.537 78.5,260.5 Z"/></g>
<g><path style="opacity:1" fill="#be845a" d="M 95.5,260.5 C 94.2887,263.926 92.7887,267.259 91,270.5C 86.4737,282.949 88.307,294.283 96.5,304.5C 87.059,300.721 79.3924,294.721 73.5,286.5C 85.5464,282.294 88.8798,274.294 83.5,262.5C 86.7131,262.81 89.7131,262.477 92.5,261.5C 93.209,260.596 94.209,260.263 95.5,260.5 Z"/></g>
<g><path style="opacity:1" fill="#c59572" d="M 60.5,285.5 C 64.7853,286.295 69.1186,286.628 73.5,286.5C 79.3924,294.721 87.059,300.721 96.5,304.5C 97.609,304.557 98.609,304.89 99.5,305.5C 100.833,306.833 102.167,308.167 103.5,309.5C 86.0279,306.935 71.6946,298.935 60.5,285.5 Z"/></g>
<g><path style="opacity:1" fill="#6e5a47" d="M 110.5,310.5 C 117.683,310.768 124.683,311.435 131.5,312.5C 124.253,312.888 117.253,312.221 110.5,310.5 Z"/></g>
<g><path style="opacity:1" fill="#fcdec3" d="M 107.5,325.5 C 110.881,325.46 114.214,325.793 117.5,326.5C 113.735,337.561 110.902,348.894 109,360.5C 107.101,371.123 108.935,380.956 114.5,390C 114.272,390.399 113.938,390.565 113.5,390.5C 112.167,389.833 110.833,389.167 109.5,388.5C 100.676,381.395 96.6756,372.061 97.5,360.5C 98.8391,348.162 102.172,336.496 107.5,325.5 Z"/></g>
<g><path style="opacity:1" fill="#846549" d="M 107.5,325.5 C 116.367,325.454 125.367,325.121 134.5,324.5C 134.389,325.117 134.056,325.617 133.5,326C 128.511,326.499 123.511,326.666 118.5,326.5C 118.167,326.5 117.833,326.5 117.5,326.5C 114.214,325.793 110.881,325.46 107.5,325.5 Z"/></g>
<g><path style="opacity:1" fill="#93603b" d="M 229.5,324.5 C 218.914,326.597 208.248,328.264 197.5,329.5C 197.461,328.417 197.127,327.417 196.5,326.5C 193.694,325.832 191.028,325.166 188.5,324.5C 202.351,324.273 216.017,324.273 229.5,324.5 Z"/></g>
<g><path style="opacity:1" fill="#fccfa5" d="M 117.5,326.5 C 117.833,326.5 118.167,326.5 118.5,326.5C 128.232,328.802 138.232,330.302 148.5,331C 164.845,331.662 181.178,331.495 197.5,330.5C 207.849,384.651 185.849,406.818 131.5,397C 124.97,395.883 118.97,393.716 113.5,390.5C 113.938,390.565 114.272,390.399 114.5,390C 108.935,380.956 107.101,371.123 109,360.5C 110.902,348.894 113.735,337.561 117.5,326.5 Z"/></g>
<g><path style="opacity:1" fill="#bb8256" d="M 229.5,324.5 C 233.744,331.581 239.244,337.581 246,342.5C 250.939,348.718 255.106,355.385 258.5,362.5C 257.778,362.918 257.278,363.584 257,364.5C 256.871,370.914 256.204,377.247 255,383.5C 250.225,387.806 244.725,390.472 238.5,391.5C 235.586,390.094 233.086,388.094 231,385.5C 220.592,371.925 214.092,356.591 211.5,339.5C 207.965,336.872 204.465,336.872 201,339.5C 200.333,344.167 200.333,348.833 201,353.5C 205.831,374.533 216.664,391.533 233.5,404.5C 230.743,414.94 226.91,424.94 222,434.5C 217.6,439.751 212.1,443.084 205.5,444.5C 203.629,444.141 202.129,443.141 201,441.5C 195.421,431.431 191.421,420.765 189,409.5C 184.951,404.182 180.951,404.182 177,409.5C 176.457,412.868 176.624,416.201 177.5,419.5C 165.041,419.98 152.708,419.313 140.5,417.5C 132.818,414.491 125.485,410.658 118.5,406C 112.578,401.318 109.578,395.485 109.5,388.5C 110.833,389.167 112.167,389.833 113.5,390.5C 118.97,393.716 124.97,395.883 131.5,397C 185.849,406.818 207.849,384.651 197.5,330.5C 197.5,330.167 197.5,329.833 197.5,329.5C 208.248,328.264 218.914,326.597 229.5,324.5 Z"/></g>
<g><path style="opacity:1" fill="#ae784f" d="M 84.5,349.5 C 85.1386,350.097 85.472,350.93 85.5,352C 82.1652,365.661 81.8319,379.328 84.5,393C 76.0747,391.905 72.408,386.905 73.5,378C 74.794,367.58 78.4606,358.08 84.5,349.5 Z"/></g>
<g><path style="opacity:1" fill="#c19270" d="M 258.5,362.5 C 262.944,369.879 264.277,377.879 262.5,386.5C 255.903,395.067 247.903,396.733 238.5,391.5C 244.725,390.472 250.225,387.806 255,383.5C 256.204,377.247 256.871,370.914 257,364.5C 257.278,363.584 257.778,362.918 258.5,362.5 Z"/></g>
<g><path style="opacity:1" fill="#c79773" d="M 97.5,360.5 C 96.6756,372.061 100.676,381.395 109.5,388.5C 109.578,395.485 112.578,401.318 118.5,406C 125.485,410.658 132.818,414.491 140.5,417.5C 124.815,416.226 111.648,409.892 101,398.5C 97.839,392.684 95.6723,386.517 94.5,380C 95.4,373.349 96.4,366.849 97.5,360.5 Z"/></g>
<g><path style="opacity:1" fill="#9c663e" d="M 233.5,404.5 C 234.586,404.62 235.253,405.287 235.5,406.5C 234.467,418.502 231.967,430.169 228,441.5C 220.905,446.564 213.405,447.564 205.5,444.5C 212.1,443.084 217.6,439.751 222,434.5C 226.91,424.94 230.743,414.94 233.5,404.5 Z"/></g>
<g><path style="opacity:1" fill="#b98054" d="M 115.5,425.5 C 120.84,429.934 126.34,434.268 132,438.5C 133.202,440.677 133.702,443.011 133.5,445.5C 127.233,447.301 121.399,446.301 116,442.5C 112.14,435.738 109.64,428.738 108.5,421.5C 111.059,422.608 113.392,423.941 115.5,425.5 Z"/></g>
<g><path style="opacity:1" fill="#9c663e" d="M 115.5,425.5 C 125.244,428.769 135.244,430.769 145.5,431.5C 145.418,439.579 141.418,444.245 133.5,445.5C 133.702,443.011 133.202,440.677 132,438.5C 126.34,434.268 120.84,429.934 115.5,425.5 Z"/></g>
</svg>
