<?xml version="1.0" encoding="UTF-8"?>
<!DOCTYPE svg PUBLIC "-//W3C//DTD SVG 1.1//EN" "http://www.w3.org/Graphics/SVG/1.1/DTD/svg11.dtd">
<svg xmlns="http://www.w3.org/2000/svg" version="1.1" width="450px" height="523px" style="shape-rendering:geometricPrecision; text-rendering:geometricPrecision; image-rendering:optimizeQuality; fill-rule:evenodd; clip-rule:evenodd" xmlns:xlink="http://www.w3.org/1999/xlink">
<g><path style="opacity:0.948" fill="#030201" d="M 230.5,65.5 C 254.829,66.2357 272.662,77.2357 284,98.5C 288.544,111.994 286.877,124.661 279,136.5C 276.079,140.092 272.579,142.925 268.5,145C 290.856,172.72 303.189,204.387 305.5,240C 305.453,283.02 284.787,310.02 243.5,321C 256.543,330.892 266.377,343.392 273,358.5C 275.24,364.552 277.073,370.719 278.5,377C 277.575,396.092 267.575,406.592 248.5,408.5C 247.737,420.747 245.57,432.747 242,444.5C 235.458,455.273 225.791,460.273 213,459.5C 204.468,459.99 197.134,457.324 191,451.5C 187.639,446.112 184.806,440.446 182.5,434.5C 174.833,433.167 167.167,433.167 159.5,434.5C 158.006,446.355 151.673,454.188 140.5,458C 133.567,459.506 126.567,459.839 119.5,459C 110.604,457.105 104.437,451.938 101,443.5C 96.1403,432.088 91.9737,420.421 88.5,408.5C 71.2697,407.28 61.2697,397.946 58.5,380.5C 59.0086,374.789 59.842,369.123 61,363.5C 63.9452,357.944 66.6119,352.277 69,346.5C 73.7206,340.779 78.054,334.779 82,328.5C 84.7433,326.212 87.5767,324.045 90.5,322C 47.529,307.271 28.3623,277.104 33,231.5C 35.2557,204.896 43.7557,180.563 58.5,158.5C 42.4724,150.449 35.3058,137.449 37,119.5C 39.3548,106.469 45.8548,95.9695 56.5,88C 70.0716,77.4404 85.4049,73.107 102.5,75C 119.434,80.7819 129.434,92.6153 132.5,110.5C 138.039,108.759 143.705,107.592 149.5,107C 162.519,106.289 175.519,106.455 188.5,107.5C 190.249,81.0838 204.249,67.0838 230.5,65.5 Z"/></g>
<g><path style="opacity:1" fill="#bc8256" d="M 258.5,90.5 C 262.489,106.161 260.822,121.161 253.5,135.5C 251.438,136.776 249.104,137.61 246.5,138C 242.577,142.261 242.577,146.594 246.5,151C 248.833,151.333 251.167,151.667 253.5,152C 267.168,164.847 276.502,180.347 281.5,198.5C 281.761,218.437 278.928,237.77 273,256.5C 265.319,274.183 252.819,287.349 235.5,296C 220.21,302.735 204.377,307.568 188,310.5C 186.97,310.836 186.47,311.503 186.5,312.5C 186.167,312.5 185.833,312.5 185.5,312.5C 180.015,311.673 174.348,311.173 168.5,311C 184.87,303.764 191.37,291.264 188,273.5C 186.354,268.215 184.187,263.215 181.5,258.5C 187.212,261.538 193.212,262.205 199.5,260.5C 193.409,271.627 196.076,279.793 207.5,285C 221.552,287.56 231.385,282.393 237,269.5C 237.65,259.788 233.15,253.621 223.5,251C 219.198,249.994 215.198,250.494 211.5,252.5C 217.713,240.633 216.713,229.467 208.5,219C 191.254,208.441 178.421,212.274 170,230.5C 169.018,237.121 169.851,243.454 172.5,249.5C 166.224,246.01 159.557,243.177 152.5,241C 139.743,237.561 127.076,237.895 114.5,242C 112.767,243.189 111.1,244.356 109.5,245.5C 108.609,246.11 107.609,246.443 106.5,246.5C 108.979,233.73 104.645,224.23 93.5,218C 80.4872,214.984 71.6539,219.817 67,232.5C 66.1725,236.871 66.3391,241.205 67.5,245.5C 68.8446,248.549 70.1779,251.549 71.5,254.5C 68.272,253.586 64.9387,253.253 61.5,253.5C 60.4969,243.504 60.6636,233.504 62,223.5C 64.3709,212.249 67.2043,201.249 70.5,190.5C 69.6409,195.28 71.3075,198.78 75.5,201C 81.616,205.071 88.2827,206.405 95.5,205C 103.331,202.369 105.997,197.203 103.5,189.5C 102.482,188.807 101.482,188.141 100.5,187.5C 92.0161,186.507 83.3494,186.174 74.5,186.5C 78.0014,175.483 83.8348,165.816 92,157.5C 95.527,153.973 99.027,150.473 102.5,147C 111.951,140.603 120.618,134.103 128.5,127.5C 135.238,125.215 142.238,123.548 149.5,122.5C 163.849,122.344 178.183,122.677 192.5,123.5C 194.033,125.355 195.7,127.188 197.5,129C 203.69,130.581 207.024,128.248 207.5,122C 203.349,111.743 203.516,101.576 208,91.5C 215.664,81.93 225.498,78.7633 237.5,82C 245.251,83.1896 252.251,86.0229 258.5,90.5 Z"/></g>
<g><path style="opacity:1" fill="#b98155" d="M 100.5,90.5 C 104.206,97.6637 105.872,105.33 105.5,113.5C 104.533,110.532 102.533,108.532 99.5,107.5C 87.8108,100.671 77.6441,102.671 69,113.5C 66.2714,120.742 67.438,127.242 72.5,133C 75.2065,134.908 78.2065,135.741 81.5,135.5C 78.0622,138.435 74.7289,141.601 71.5,145C 64.9016,145.618 59.735,143.118 56,137.5C 54.7874,135.075 53.6207,132.741 52.5,130.5C 52.2099,124.678 52.8766,119.012 54.5,113.5C 61.4282,101.349 71.7615,93.5159 85.5,90C 90.5523,89.2742 95.5523,89.4409 100.5,90.5 Z"/></g>
<g><path style="opacity:1" fill="#98633c" d="M 100.5,90.5 C 111.847,95.3838 117.181,103.884 116.5,116C 112.764,117.41 109.098,118.91 105.5,120.5C 105.5,118.167 105.5,115.833 105.5,113.5C 105.872,105.33 104.206,97.6637 100.5,90.5 Z"/></g>
<g><path style="opacity:1" fill="#9a643d" d="M 258.5,90.5 C 272.309,99.7835 275.142,111.783 267,126.5C 263.216,130.637 258.716,133.637 253.5,135.5C 260.822,121.161 262.489,106.161 258.5,90.5 Z"/></g>
<g><path style="opacity:1" fill="#fab97e" d="M 233.5,94.5 C 226.171,105.697 225.504,117.363 231.5,129.5C 221.713,127.758 217.046,121.925 217.5,112C 217.755,101.576 223.089,95.7428 233.5,94.5 Z"/></g>
<g><path style="opacity:1" fill="#fccea4" d="M 233.5,94.5 C 245.178,94.2124 252.511,99.5457 255.5,110.5C 252.894,123.422 244.894,129.756 231.5,129.5C 225.504,117.363 226.171,105.697 233.5,94.5 Z"/></g>
<g><path style="opacity:1" fill="#facda3" d="M 99.5,107.5 C 99.6757,112.88 99.3424,118.213 98.5,123.5C 92.8566,127.468 87.19,131.468 81.5,135.5C 78.2065,135.741 75.2065,134.908 72.5,133C 67.438,127.242 66.2714,120.742 69,113.5C 77.6441,102.671 87.8108,100.671 99.5,107.5 Z"/></g>
<g><path style="opacity:1" fill="#f5b67d" d="M 99.5,107.5 C 102.533,108.532 104.533,110.532 105.5,113.5C 105.5,115.833 105.5,118.167 105.5,120.5C 103.287,121.773 100.954,122.773 98.5,123.5C 99.3424,118.213 99.6757,112.88 99.5,107.5 Z"/></g>
<g><path style="opacity:1" fill="#80593a" d="M 149.5,122.5 C 155.324,121.834 161.324,121.5 167.5,121.5C 176.059,121.294 184.392,121.961 192.5,123.5C 178.183,122.677 163.849,122.344 149.5,122.5 Z"/></g>
<g><path style="opacity:1" fill="#543a26" d="M 54.5,113.5 C 52.8766,119.012 52.2099,124.678 52.5,130.5C 51.3547,126.689 51.1881,122.689 52,118.5C 52.3736,116.509 53.207,114.842 54.5,113.5 Z"/></g>
<g><path style="opacity:1" fill="#c59572" d="M 128.5,127.5 C 120.618,134.103 111.951,140.603 102.5,147C 99.027,150.473 95.527,153.973 92,157.5C 83.8348,165.816 78.0014,175.483 74.5,186.5C 73.5,186.833 72.8333,187.5 72.5,188.5C 71.5,188.833 70.8333,189.5 70.5,190.5C 67.2043,201.249 64.3709,212.249 62,223.5C 60.6636,233.504 60.4969,243.504 61.5,253.5C 56.6861,254.655 53.0195,257.322 50.5,261.5C 44.8068,224.936 52.9734,191.603 75,161.5C 89.2274,144.471 107.061,133.138 128.5,127.5 Z"/></g>
<g><path style="opacity:1" fill="#291c13" d="M 172.5,183.5 C 183.505,183.333 194.505,183.5 205.5,184C 209.738,186.172 210.572,189.338 208,193.5C 198.26,200.974 187.427,203.474 175.5,201C 172.96,198.795 170.793,196.295 169,193.5C 168.333,191.5 168.333,189.5 169,187.5C 170.376,186.295 171.542,184.962 172.5,183.5 Z"/></g>
<g><path style="opacity:1" fill="#694930" d="M 74.5,186.5 C 83.3494,186.174 92.0161,186.507 100.5,187.5C 91.1136,187.22 81.7803,187.553 72.5,188.5C 72.8333,187.5 73.5,186.833 74.5,186.5 Z"/></g>
<g><path style="opacity:1" fill="#291c13" d="M 100.5,187.5 C 101.482,188.141 102.482,188.807 103.5,189.5C 105.997,197.203 103.331,202.369 95.5,205C 88.2827,206.405 81.616,205.071 75.5,201C 71.3075,198.78 69.6409,195.28 70.5,190.5C 70.8333,189.5 71.5,188.833 72.5,188.5C 81.7803,187.553 91.1136,187.22 100.5,187.5 Z"/></g>
<g><path style="opacity:1" fill="#9b653e" d="M 281.5,198.5 C 285.377,206.994 287.877,215.994 289,225.5C 295.481,275.674 273.648,303.507 223.5,309C 212.525,310.042 201.525,310.709 190.5,311C 189.099,311.41 187.766,311.91 186.5,312.5C 186.47,311.503 186.97,310.836 188,310.5C 204.377,307.568 220.21,302.735 235.5,296C 252.819,287.349 265.319,274.183 273,256.5C 278.928,237.77 281.761,218.437 281.5,198.5 Z"/></g>
<g><path style="opacity:1" fill="#030201" d="M 211.5,252.5 C 208.154,256.171 204.154,258.838 199.5,260.5C 193.212,262.205 187.212,261.538 181.5,258.5C 180.167,257.5 178.833,256.5 177.5,255.5C 175.804,253.475 174.137,251.475 172.5,249.5C 169.851,243.454 169.018,237.121 170,230.5C 178.421,212.274 191.254,208.441 208.5,219C 216.713,229.467 217.713,240.633 211.5,252.5 Z"/></g>
<g><path style="opacity:1" fill="#040302" d="M 106.5,246.5 C 104.314,252.689 100.314,257.355 94.5,260.5C 90.5662,261.36 86.5662,261.693 82.5,261.5C 78.0509,260.382 74.3842,258.049 71.5,254.5C 70.1779,251.549 68.8446,248.549 67.5,245.5C 66.3391,241.205 66.1725,236.871 67,232.5C 71.6539,219.817 80.4872,214.984 93.5,218C 104.645,224.23 108.979,233.73 106.5,246.5 Z"/></g>
<g><path style="opacity:1" fill="#facda3" d="M 172.5,249.5 C 174.137,251.475 175.804,253.475 177.5,255.5C 180.552,277.891 173.219,296.058 155.5,310C 148.617,311.59 141.951,313.09 135.5,314.5C 134.118,313.199 132.452,312.366 130.5,312C 121.35,311.595 112.35,310.429 103.5,308.5C 101.833,307.167 100.167,305.833 98.5,304.5C 99.0967,304.265 99.4301,303.765 99.5,303C 97.1221,292.873 96.9555,282.707 99,272.5C 102.381,263.406 106.548,254.739 111.5,246.5C 111.043,245.702 110.376,245.369 109.5,245.5C 111.1,244.356 112.767,243.189 114.5,242C 127.076,237.895 139.743,237.561 152.5,241C 159.557,243.177 166.224,246.01 172.5,249.5 Z"/></g>
<g><path style="opacity:1" fill="#0c0907" d="M 122.5,243.5 C 128.176,243.334 133.843,243.501 139.5,244C 144.746,245.237 146.58,248.404 145,253.5C 143.305,256.695 140.805,259.028 137.5,260.5C 134.959,268.587 137.959,272.087 146.5,271C 149.272,269.14 151.605,266.806 153.5,264C 161.861,264.257 163.695,268.09 159,275.5C 150.814,283.619 141.814,284.619 132,278.5C 121.831,286.196 113.164,284.863 106,274.5C 105.071,271.225 105.571,268.225 107.5,265.5C 109.074,264.369 110.741,264.202 112.5,265C 114.405,266.815 116.072,268.815 117.5,271C 120.257,271.782 122.757,271.282 125,269.5C 125.667,266.5 125.667,263.5 125,260.5C 116.284,255.578 115.451,249.911 122.5,243.5 Z"/></g>
<g><path style="opacity:1" fill="#434343" d="M 124.5,245.5 C 131.225,245.204 132.891,247.871 129.5,253.5C 125.501,256.636 122.501,255.969 120.5,251.5C 120.866,248.744 122.2,246.744 124.5,245.5 Z"/></g>
<g><path style="opacity:1" fill="#f9dabe" d="M 109.5,245.5 C 110.376,245.369 111.043,245.702 111.5,246.5C 106.548,254.739 102.381,263.406 99,272.5C 96.9555,282.707 97.1221,292.873 99.5,303C 99.4301,303.765 99.0967,304.265 98.5,304.5C 97.5,303.833 96.5,303.167 95.5,302.5C 90.6983,296.597 88.3649,289.763 88.5,282C 89.6462,274.58 91.6462,267.414 94.5,260.5C 100.314,257.355 104.314,252.689 106.5,246.5C 107.609,246.443 108.609,246.11 109.5,245.5 Z"/></g>
<g><path style="opacity:1" fill="#e3806e" d="M 199.5,260.5 C 204.154,258.838 208.154,256.171 211.5,252.5C 215.198,250.494 219.198,249.994 223.5,251C 233.15,253.621 237.65,259.788 237,269.5C 231.385,282.393 221.552,287.56 207.5,285C 196.076,279.793 193.409,271.627 199.5,260.5 Z"/></g>
<g><path style="opacity:1" fill="#e48371" d="M 61.5,253.5 C 64.9387,253.253 68.272,253.586 71.5,254.5C 74.3842,258.049 78.0509,260.382 82.5,261.5C 88.8031,270.971 87.1364,278.971 77.5,285.5C 76.2638,286.246 74.9305,286.579 73.5,286.5C 68.8986,286.945 64.5653,286.278 60.5,284.5C 55.2913,277.74 51.958,270.073 50.5,261.5C 53.0195,257.322 56.6861,254.655 61.5,253.5 Z"/></g>
<g><path style="opacity:1" fill="#f9b87d" d="M 177.5,255.5 C 178.833,256.5 180.167,257.5 181.5,258.5C 184.187,263.215 186.354,268.215 188,273.5C 191.37,291.264 184.87,303.764 168.5,311C 174.348,311.173 180.015,311.673 185.5,312.5C 182.368,321.393 185.701,325.393 195.5,324.5C 196.441,326.05 197.107,327.716 197.5,329.5C 197.5,329.833 197.5,330.167 197.5,330.5C 172.405,332.391 147.405,331.557 122.5,328C 120.563,327.878 119.23,327.045 118.5,325.5C 123.628,325.888 128.628,325.388 133.5,324C 136.58,321.355 137.247,318.188 135.5,314.5C 141.951,313.09 148.617,311.59 155.5,310C 173.219,296.058 180.552,277.891 177.5,255.5 Z"/></g>
<g><path style="opacity:1" fill="#bd8459" d="M 94.5,260.5 C 91.6462,267.414 89.6462,274.58 88.5,282C 88.3649,289.763 90.6983,296.597 95.5,302.5C 86.4393,300.186 79.106,294.852 73.5,286.5C 74.9305,286.579 76.2638,286.246 77.5,285.5C 87.1364,278.971 88.8031,270.971 82.5,261.5C 86.5662,261.693 90.5662,261.36 94.5,260.5 Z"/></g>
<g><path style="opacity:1" fill="#c29370" d="M 60.5,284.5 C 64.5653,286.278 68.8986,286.945 73.5,286.5C 79.106,294.852 86.4393,300.186 95.5,302.5C 96.5,303.167 97.5,303.833 98.5,304.5C 100.167,305.833 101.833,307.167 103.5,308.5C 91.5826,306.61 80.5826,302.443 70.5,296C 66.5842,292.59 63.2508,288.757 60.5,284.5 Z"/></g>
<g><path style="opacity:1" fill="#fcdec3" d="M 114.5,325.5 C 115.209,326.404 116.209,326.737 117.5,326.5C 113.735,337.561 110.902,348.894 109,360.5C 107.101,371.123 108.935,380.956 114.5,390C 114.272,390.399 113.938,390.565 113.5,390.5C 112.167,389.833 110.833,389.167 109.5,388.5C 100.676,381.395 96.6756,372.061 97.5,360.5C 98.9067,348.114 102.24,336.281 107.5,325C 109.929,324.297 112.262,324.463 114.5,325.5 Z"/></g>
<g><path style="opacity:1" fill="#9a643e" d="M 229.5,324.5 C 218.917,326.597 208.25,328.264 197.5,329.5C 197.107,327.716 196.441,326.05 195.5,324.5C 206.266,324.941 216.932,324.274 227.5,322.5C 228.522,322.855 229.189,323.522 229.5,324.5 Z"/></g>
<g><path style="opacity:1" fill="#fccfa5" d="M 114.5,325.5 C 115.833,325.5 117.167,325.5 118.5,325.5C 119.23,327.045 120.563,327.878 122.5,328C 147.405,331.557 172.405,332.391 197.5,330.5C 207.849,384.651 185.849,406.818 131.5,397C 124.97,395.883 118.97,393.716 113.5,390.5C 113.938,390.565 114.272,390.399 114.5,390C 108.935,380.956 107.101,371.123 109,360.5C 110.902,348.894 113.735,337.561 117.5,326.5C 116.209,326.737 115.209,326.404 114.5,325.5 Z"/></g>
<g><path style="opacity:1" fill="#bb8256" d="M 229.5,324.5 C 230.09,325.766 230.59,327.099 231,328.5C 242.678,336.993 251.511,347.66 257.5,360.5C 256.953,367.156 256.453,373.823 256,380.5C 255.333,381.833 254.667,383.167 254,384.5C 249.768,387.531 245.268,389.865 240.5,391.5C 237.357,390.866 234.857,389.2 233,386.5C 223.914,376.435 217.747,364.768 214.5,351.5C 214.451,347.922 213.785,344.589 212.5,341.5C 209.568,335.881 205.734,335.214 201,339.5C 201.767,361.537 209.601,380.704 224.5,397C 227.529,399.176 230.529,401.343 233.5,403.5C 230.945,414.333 227.112,424.666 222,434.5C 217.6,439.751 212.1,443.084 205.5,444.5C 203.629,444.141 202.129,443.141 201,441.5C 195.421,431.431 191.421,420.765 189,409.5C 184.951,404.182 180.951,404.182 177,409.5C 176.457,412.868 176.624,416.201 177.5,419.5C 165.041,419.98 152.708,419.313 140.5,417.5C 132.818,414.491 125.485,410.658 118.5,406C 112.578,401.318 109.578,395.485 109.5,388.5C 110.833,389.167 112.167,389.833 113.5,390.5C 118.97,393.716 124.97,395.883 131.5,397C 185.849,406.818 207.849,384.651 197.5,330.5C 197.5,330.167 197.5,329.833 197.5,329.5C 208.25,328.264 218.917,326.597 229.5,324.5 Z"/></g>
<g><path style="opacity:1" fill="#593d28" d="M 212.5,341.5 C 213.785,344.589 214.451,347.922 214.5,351.5C 212.989,348.456 212.322,345.122 212.5,341.5 Z"/></g>
<g><path style="opacity:1" fill="#af784f" d="M 85.5,346.5 C 86.0967,346.735 86.4301,347.235 86.5,348C 82.6596,362.641 81.6596,377.474 83.5,392.5C 76.1601,390.817 72.4935,386.15 72.5,378.5C 72.6084,374.673 73.4417,371.007 75,367.5C 77.9993,360.168 81.4993,353.168 85.5,346.5 Z"/></g>
<g><path style="opacity:1" fill="#c49471" d="M 257.5,360.5 C 258.804,361.987 259.97,363.654 261,365.5C 261.346,368.576 262.012,371.576 263,374.5C 264.48,389.682 257.647,395.848 242.5,393C 241.584,392.722 240.918,392.222 240.5,391.5C 245.268,389.865 249.768,387.531 254,384.5C 254.667,383.167 255.333,381.833 256,380.5C 256.453,373.823 256.953,367.156 257.5,360.5 Z"/></g>
<g><path style="opacity:1" fill="#c79773" d="M 97.5,360.5 C 96.6756,372.061 100.676,381.395 109.5,388.5C 109.578,395.485 112.578,401.318 118.5,406C 125.485,410.658 132.818,414.491 140.5,417.5C 124.815,416.226 111.648,409.892 101,398.5C 97.839,392.684 95.6723,386.517 94.5,380C 95.4,373.349 96.4,366.849 97.5,360.5 Z"/></g>
<g><path style="opacity:1" fill="#9c653e" d="M 233.5,403.5 C 234.649,403.791 235.316,404.624 235.5,406C 234.531,418.181 232.031,430.014 228,441.5C 220.905,446.564 213.405,447.564 205.5,444.5C 212.1,443.084 217.6,439.751 222,434.5C 227.112,424.666 230.945,414.333 233.5,403.5 Z"/></g>
<g><path style="opacity:1" fill="#b98054" d="M 115.5,425.5 C 120.84,429.934 126.34,434.268 132,438.5C 133.202,440.677 133.702,443.011 133.5,445.5C 127.233,447.301 121.399,446.301 116,442.5C 112.14,435.738 109.64,428.738 108.5,421.5C 111.059,422.608 113.392,423.941 115.5,425.5 Z"/></g>
<g><path style="opacity:1" fill="#9c663e" d="M 115.5,425.5 C 125.244,428.769 135.244,430.769 145.5,431.5C 145.418,439.579 141.418,444.245 133.5,445.5C 133.702,443.011 133.202,440.677 132,438.5C 126.34,434.268 120.84,429.934 115.5,425.5 Z"/></g>
</svg>
