<?xml version="1.0" encoding="UTF-8"?>
<!DOCTYPE svg PUBLIC "-//W3C//DTD SVG 1.1//EN" "http://www.w3.org/Graphics/SVG/1.1/DTD/svg11.dtd">
<svg xmlns="http://www.w3.org/2000/svg" version="1.1" width="450px" height="523px" style="shape-rendering:geometricPrecision; text-rendering:geometricPrecision; image-rendering:optimizeQuality; fill-rule:evenodd; clip-rule:evenodd" xmlns:xlink="http://www.w3.org/1999/xlink">
<g><path style="opacity:0.947" fill="#030201" d="M 224.5,62.5 C 246.449,60.7558 264.949,67.7558 280,83.5C 292.203,99.9257 292.537,116.592 281,133.5C 278.079,137.092 274.579,139.925 270.5,142C 298.704,176.62 309.87,216.12 304,260.5C 300.123,279.36 290.29,294.194 274.5,305C 265.567,310.034 256.234,314.201 246.5,317.5C 257.303,326.782 266.47,337.448 274,349.5C 278.293,358.173 280.793,367.339 281.5,377C 277.485,393.842 266.818,402.342 249.5,402.5C 248.403,416.749 245.903,430.749 242,444.5C 235.458,455.273 225.791,460.273 213,459.5C 204.468,459.99 197.134,457.324 191,451.5C 187.306,445.446 184.139,439.112 181.5,432.5C 174.197,431.503 166.863,431.169 159.5,431.5C 158.979,446.738 151.312,455.904 136.5,459C 123.749,461.942 112.916,458.775 104,449.5C 96.7514,434.422 91.0847,418.755 87,402.5C 64.7902,400.629 54.4568,388.629 56,366.5C 62.4192,346.754 73.5859,330.254 89.5,317C 66.0137,309.855 49.5137,295.022 40,272.5C 32.7348,251.462 31.7348,230.128 37,208.5C 41.1647,188.35 48.998,169.85 60.5,153C 38.948,138.602 34.1147,119.768 46,96.5C 61.154,76.002 81.3207,67.1686 106.5,70C 123.465,76.3024 132.965,88.4691 135,106.5C 140.36,104.855 145.86,103.688 151.5,103C 164.852,102.285 178.185,102.452 191.5,103.5C 191.457,89.0869 197.124,77.5869 208.5,69C 213.607,65.9354 218.94,63.7688 224.5,62.5 Z"/></g>
<g><path style="opacity:1" fill="#b98055" d="M 103.5,85.5 C 103.918,88.7649 105.085,91.7649 107,94.5C 107.499,98.8206 107.666,103.154 107.5,107.5C 106.867,104.866 105.2,103.2 102.5,102.5C 98.2246,98.8432 93.2246,97.6765 87.5,99C 74.2655,100.894 68.7655,108.394 71,121.5C 73.0808,126.416 76.5808,129.75 81.5,131.5C 79.0381,134.464 76.3714,137.297 73.5,140C 64.109,138.961 57.9423,133.795 55,124.5C 53.1299,115.784 55.1299,108.117 61,101.5C 72.3233,88.4146 86.49,83.0812 103.5,85.5 Z"/></g>
<g><path style="opacity:1" fill="#9a643d" d="M 103.5,85.5 C 114.896,90.2686 120.229,98.9352 119.5,111.5C 115.687,112.438 112.021,113.771 108.5,115.5C 108.806,112.615 108.473,109.948 107.5,107.5C 107.666,103.154 107.499,98.8206 107,94.5C 105.085,91.7649 103.918,88.7649 103.5,85.5 Z"/></g>
<g><path style="opacity:1" fill="#99633d" d="M 261.5,87.5 C 274.951,97.0149 277.784,109.015 270,123.5C 266.032,127.983 261.198,130.983 255.5,132.5C 259.235,127.821 261.735,122.487 263,116.5C 264.055,106.676 263.555,97.009 261.5,87.5 Z"/></g>
<g><path style="opacity:1" fill="#fbcea4" d="M 102.5,102.5 C 102.687,108.309 102.02,113.975 100.5,119.5C 93.9979,123.25 87.6645,127.25 81.5,131.5C 76.5808,129.75 73.0808,126.416 71,121.5C 68.7655,108.394 74.2655,100.894 87.5,99C 93.2246,97.6765 98.2246,98.8432 102.5,102.5 Z"/></g>
<g><path style="opacity:1" fill="#f3b57c" d="M 102.5,102.5 C 105.2,103.2 106.867,104.866 107.5,107.5C 108.473,109.948 108.806,112.615 108.5,115.5C 105.833,116.833 103.167,118.167 100.5,119.5C 102.02,113.975 102.687,108.309 102.5,102.5 Z"/></g>
<g><path style="opacity:1" fill="#bc8256" d="M 261.5,87.5 C 263.555,97.009 264.055,106.676 263,116.5C 261.735,122.487 259.235,127.821 255.5,132.5C 252.162,133.681 248.995,135.347 246,137.5C 244.594,145.211 247.761,149.044 255.5,149C 267.983,161.321 276.983,175.821 282.5,192.5C 284.123,213.166 281.29,233.166 274,252.5C 265.271,272.14 251.105,286.307 231.5,295C 217.584,299.59 203.584,303.423 189.5,306.5C 187.938,306.733 186.605,307.4 185.5,308.5C 179.986,307.833 174.319,307.167 168.5,306.5C 185.446,299.91 191.946,287.577 188,269.5C 187.08,266.899 186.413,264.232 186,261.5C 183.9,258.949 182.067,256.283 180.5,253.5C 185.992,256.921 191.992,258.254 198.5,257.5C 196.618,261.981 196.118,266.647 197,271.5C 203.727,282.871 213.227,285.705 225.5,280C 230.284,277.55 234.117,274.05 237,269.5C 240.034,258.192 235.868,251.025 224.5,248C 220.446,247.306 216.446,247.473 212.5,248.5C 221.9,231.426 217.9,218.593 200.5,210C 188.588,207.35 179.588,211.183 173.5,221.5C 172.207,222.842 171.374,224.509 171,226.5C 170.186,231.02 170.353,235.354 171.5,239.5C 172.363,241.421 173.029,243.421 173.5,245.5C 168.321,242.993 163.154,240.326 158,237.5C 144.237,232.436 130.404,232.269 116.5,237C 114.273,237.941 112.273,239.108 110.5,240.5C 109.391,240.557 108.391,240.89 107.5,241.5C 109.97,228.691 105.636,219.191 94.5,213C 81.4397,209.884 72.7731,214.717 68.5,227.5C 67.3401,231.459 67.1735,235.459 68,239.5C 69.4538,242.071 70.6205,244.738 71.5,247.5C 68.1667,247.5 64.8333,247.5 61.5,247.5C 61.2374,227.156 64.5708,207.489 71.5,188.5C 78.5955,196.699 87.5955,199.866 98.5,198C 104.574,194.947 107.074,190.113 106,183.5C 104.729,182.117 103.229,181.117 101.5,180.5C 93.3501,179.507 85.0168,179.174 76.5,179.5C 80.9071,169.023 87.0737,159.69 95,151.5C 105.689,141.577 117.189,132.743 129.5,125C 127.203,124.982 124.869,125.149 122.5,125.5C 136.955,119.445 152.122,116.778 168,117.5C 176.868,117.478 185.701,117.978 194.5,119C 196.874,121.039 198.874,123.372 200.5,126C 206.538,127.131 209.871,124.631 210.5,118.5C 206.369,108.397 206.535,98.3974 211,88.5C 215.547,81.5502 222.047,77.8835 230.5,77.5C 241.824,78.0534 252.158,81.3868 261.5,87.5 Z"/></g>
<g><path style="opacity:1" fill="#fbcea4" d="M 236.5,91.5 C 248.353,91.2066 255.686,96.7066 258.5,108C 256.672,117.498 251.005,123.498 241.5,126C 239.19,126.497 236.857,126.663 234.5,126.5C 230.406,117.537 229.573,108.204 232,98.5C 233.511,96.1384 235.011,93.8051 236.5,91.5 Z"/></g>
<g><path style="opacity:1" fill="#fab97e" d="M 236.5,91.5 C 235.011,93.8051 233.511,96.1384 232,98.5C 229.573,108.204 230.406,117.537 234.5,126.5C 224.594,124.725 219.927,118.725 220.5,108.5C 220.955,98.3755 226.288,92.7088 236.5,91.5 Z"/></g>
<g><path style="opacity:1" fill="#c69672" d="M 76.5,179.5 C 75.5,179.833 74.8333,180.5 74.5,181.5C 71.9078,183.036 70.9078,185.369 71.5,188.5C 64.5708,207.489 61.2374,227.156 61.5,247.5C 58.4704,249.109 55.6371,251.109 53,253.5C 51.9914,255.025 51.4914,256.692 51.5,258.5C 50.5489,257.081 50.2155,255.415 50.5,253.5C 49.7039,243.521 49.3705,233.521 49.5,223.5C 49.5,223.167 49.5,222.833 49.5,222.5C 50.913,219.781 51.5797,216.781 51.5,213.5C 57.7166,177.254 76.7166,149.754 108.5,131C 113.072,128.866 117.739,127.033 122.5,125.5C 124.869,125.149 127.203,124.982 129.5,125C 117.189,132.743 105.689,141.577 95,151.5C 87.0737,159.69 80.9071,169.023 76.5,179.5 Z"/></g>
<g><path style="opacity:1" fill="#2a1d13" d="M 175.5,177.5 C 185.506,177.334 195.506,177.5 205.5,178C 210.989,180.653 211.989,184.653 208.5,190C 199.903,195.424 190.57,197.757 180.5,197C 173.354,194.199 170.187,189.032 171,181.5C 172.397,179.93 173.897,178.596 175.5,177.5 Z"/></g>
<g><path style="opacity:1" fill="#775337" d="M 76.5,179.5 C 85.0168,179.174 93.3501,179.507 101.5,180.5C 92.4465,180.222 83.4465,180.556 74.5,181.5C 74.8333,180.5 75.5,179.833 76.5,179.5 Z"/></g>
<g><path style="opacity:1" fill="#2a1d13" d="M 101.5,180.5 C 103.229,181.117 104.729,182.117 106,183.5C 107.074,190.113 104.574,194.947 98.5,198C 87.5955,199.866 78.5955,196.699 71.5,188.5C 70.9078,185.369 71.9078,183.036 74.5,181.5C 83.4465,180.556 92.4465,180.222 101.5,180.5 Z"/></g>
<g><path style="opacity:1" fill="#9b653e" d="M 282.5,192.5 C 285.412,198.799 287.412,205.465 288.5,212.5C 290.121,224.437 290.787,236.437 290.5,248.5C 287.188,276.647 271.855,294.48 244.5,302C 234.693,304.809 224.693,306.309 214.5,306.5C 206.167,306.5 197.833,306.5 189.5,306.5C 203.584,303.423 217.584,299.59 231.5,295C 251.105,286.307 265.271,272.14 274,252.5C 281.29,233.166 284.123,213.166 282.5,192.5 Z"/></g>
<g><path style="opacity:1" fill="#040201" d="M 212.5,248.5 C 208.409,252.536 203.743,255.536 198.5,257.5C 191.992,258.254 185.992,256.921 180.5,253.5C 179.833,253.167 179.167,252.833 178.5,252.5C 176.384,250.4 174.717,248.067 173.5,245.5C 173.029,243.421 172.363,241.421 171.5,239.5C 171.178,233.346 171.845,227.346 173.5,221.5C 179.588,211.183 188.588,207.35 200.5,210C 217.9,218.593 221.9,231.426 212.5,248.5 Z"/></g>
<g><path style="opacity:1" fill="#040302" d="M 107.5,241.5 C 104.89,247.405 100.89,252.072 95.5,255.5C 91.8815,256.244 88.2148,256.577 84.5,256.5C 78.8051,255.473 74.4718,252.473 71.5,247.5C 70.6205,244.738 69.4538,242.071 68,239.5C 67.1735,235.459 67.3401,231.459 68.5,227.5C 72.7731,214.717 81.4397,209.884 94.5,213C 105.636,219.191 109.97,228.691 107.5,241.5 Z"/></g>
<g><path style="opacity:1" fill="#634b39" d="M 51.5,213.5 C 51.5797,216.781 50.913,219.781 49.5,222.5C 49.4203,219.219 50.087,216.219 51.5,213.5 Z"/></g>
<g><path style="opacity:1" fill="#3f2c1d" d="M 173.5,221.5 C 171.845,227.346 171.178,233.346 171.5,239.5C 170.353,235.354 170.186,231.02 171,226.5C 171.374,224.509 172.207,222.842 173.5,221.5 Z"/></g>
<g><path style="opacity:1" fill="#4f331f" d="M 288.5,212.5 C 289.925,215.903 290.758,219.57 291,223.5C 291.823,232.01 291.657,240.344 290.5,248.5C 290.787,236.437 290.121,224.437 288.5,212.5 Z"/></g>
<g><path style="opacity:1" fill="#f9cca3" d="M 173.5,245.5 C 174.717,248.067 176.384,250.4 178.5,252.5C 180.336,273.979 173.002,291.479 156.5,305C 154.5,305.667 152.5,306.333 150.5,307C 144.984,307.173 139.651,307.673 134.5,308.5C 124.055,307.07 113.721,305.403 103.5,303.5C 101.5,301.833 99.5,300.167 97.5,298.5C 94.8831,277.472 99.8831,258.305 112.5,241C 111.906,240.536 111.239,240.369 110.5,240.5C 112.273,239.108 114.273,237.941 116.5,237C 130.404,232.269 144.237,232.436 158,237.5C 163.154,240.326 168.321,242.993 173.5,245.5 Z"/></g>
<g><path style="opacity:1" fill="#775a45" d="M 49.5,223.5 C 49.3705,233.521 49.7039,243.521 50.5,253.5C 48.9999,247.74 48.3332,241.74 48.5,235.5C 48.5011,231.319 48.8344,227.319 49.5,223.5 Z"/></g>
<g><path style="opacity:1" fill="#0f0c0a" d="M 123.5,238.5 C 129.176,238.334 134.843,238.501 140.5,239C 148.71,245.192 148.043,250.692 138.5,255.5C 135.974,263.805 138.974,267.305 147.5,266C 150.167,264.667 152.167,262.667 153.5,260C 162.257,259.423 164.423,262.923 160,270.5C 154.567,276.866 147.734,279.032 139.5,277C 136.629,276.869 134.295,275.703 132.5,273.5C 122.509,281.133 114.009,279.8 107,269.5C 105.996,266.007 106.496,262.841 108.5,260C 110.167,259.333 111.833,259.333 113.5,260C 115.405,261.815 117.072,263.815 118.5,266C 121.257,266.782 123.757,266.282 126,264.5C 126.821,261.446 126.655,258.446 125.5,255.5C 117.234,250.315 116.567,244.648 123.5,238.5 Z"/></g>
<g><path style="opacity:1" fill="#f8d8bd" d="M 110.5,240.5 C 111.239,240.369 111.906,240.536 112.5,241C 99.8831,258.305 94.8831,277.472 97.5,298.5C 96.8333,298.167 96.1667,297.833 95.5,297.5C 88.4781,287.691 86.9781,277.025 91,265.5C 92.2545,261.996 93.7545,258.663 95.5,255.5C 100.89,252.072 104.89,247.405 107.5,241.5C 108.391,240.89 109.391,240.557 110.5,240.5 Z"/></g>
<g><path style="opacity:1" fill="#414141" d="M 125.5,240.5 C 132.444,240.272 134.11,243.106 130.5,249C 126.339,251.611 123.339,250.778 121.5,246.5C 122.432,244.235 123.765,242.235 125.5,240.5 Z"/></g>
<g><path style="opacity:1" fill="#e2806d" d="M 198.5,257.5 C 203.743,255.536 208.409,252.536 212.5,248.5C 216.446,247.473 220.446,247.306 224.5,248C 235.868,251.025 240.034,258.192 237,269.5C 234.117,274.05 230.284,277.55 225.5,280C 213.227,285.705 203.727,282.871 197,271.5C 196.118,266.647 196.618,261.981 198.5,257.5 Z"/></g>
<g><path style="opacity:1" fill="#e38271" d="M 61.5,247.5 C 64.8333,247.5 68.1667,247.5 71.5,247.5C 74.4718,252.473 78.8051,255.473 84.5,256.5C 88.0436,264.545 86.7102,271.711 80.5,278C 78.257,279.136 75.9237,279.97 73.5,280.5C 68.9691,280.85 64.6358,280.183 60.5,278.5C 55.5889,272.796 52.5889,266.129 51.5,258.5C 51.4914,256.692 51.9914,255.025 53,253.5C 55.6371,251.109 58.4704,249.109 61.5,247.5 Z"/></g>
<g><path style="opacity:1" fill="#bd8358" d="M 95.5,255.5 C 93.7545,258.663 92.2545,261.996 91,265.5C 86.9781,277.025 88.4781,287.691 95.5,297.5C 86.6602,294.392 79.3269,288.726 73.5,280.5C 75.9237,279.97 78.257,279.136 80.5,278C 86.7102,271.711 88.0436,264.545 84.5,256.5C 88.2148,256.577 91.8815,256.244 95.5,255.5 Z"/></g>
<g><path style="opacity:1" fill="#fab97e" d="M 178.5,252.5 C 179.167,252.833 179.833,253.167 180.5,253.5C 182.067,256.283 183.9,258.949 186,261.5C 186.413,264.232 187.08,266.899 188,269.5C 191.946,287.577 185.446,299.91 168.5,306.5C 174.319,307.167 179.986,307.833 185.5,308.5C 185.5,308.833 185.5,309.167 185.5,309.5C 184.883,309.611 184.383,309.944 184,310.5C 183.832,318.823 187.999,322.49 196.5,321.5C 197.038,323.117 197.371,324.784 197.5,326.5C 172.405,328.391 147.405,327.557 122.5,324C 121.062,323.781 119.729,323.281 118.5,322.5C 118.863,321.817 119.196,321.15 119.5,320.5C 124.233,320.777 128.9,320.443 133.5,319.5C 137.018,316.074 137.352,312.407 134.5,308.5C 139.651,307.673 144.984,307.173 150.5,307C 152.5,306.333 154.5,305.667 156.5,305C 173.002,291.479 180.336,273.979 178.5,252.5 Z"/></g>
<g><path style="opacity:1" fill="#c59572" d="M 60.5,278.5 C 64.6358,280.183 68.9691,280.85 73.5,280.5C 79.3269,288.726 86.6602,294.392 95.5,297.5C 96.1667,297.833 96.8333,298.167 97.5,298.5C 99.5,300.167 101.5,301.833 103.5,303.5C 85.5898,301.054 71.2565,292.72 60.5,278.5 Z"/></g>
<g><path style="opacity:1" fill="#392517" d="M 189.5,306.5 C 197.833,306.5 206.167,306.5 214.5,306.5C 206.01,307.33 197.343,307.83 188.5,308C 187.756,309.039 186.756,309.539 185.5,309.5C 185.5,309.167 185.5,308.833 185.5,308.5C 186.605,307.4 187.938,306.733 189.5,306.5 Z"/></g>
<g><path style="opacity:1" fill="#fcdec3" d="M 107.5,320.5 C 110.877,320.959 114.211,321.626 117.5,322.5C 113.735,333.561 110.902,344.894 109,356.5C 107.101,367.123 108.935,376.956 114.5,386C 114.272,386.399 113.938,386.565 113.5,386.5C 112.167,385.833 110.833,385.167 109.5,384.5C 100.676,377.395 96.6756,368.061 97.5,356.5C 99.0097,343.974 102.343,331.974 107.5,320.5 Z"/></g>
<g><path style="opacity:1" fill="#fccfa5" d="M 107.5,320.5 C 111.321,319.774 115.321,319.774 119.5,320.5C 119.196,321.15 118.863,321.817 118.5,322.5C 119.729,323.281 121.062,323.781 122.5,324C 147.405,327.557 172.405,328.391 197.5,326.5C 207.849,380.651 185.849,402.818 131.5,393C 124.97,391.883 118.97,389.716 113.5,386.5C 113.938,386.565 114.272,386.399 114.5,386C 108.935,376.956 107.101,367.123 109,356.5C 110.902,344.894 113.735,333.561 117.5,322.5C 114.211,321.626 110.877,320.959 107.5,320.5 Z"/></g>
<g><path style="opacity:1" fill="#bb8256" d="M 260.5,355.5 C 259.887,362.398 259.053,369.398 258,376.5C 256.954,378.09 255.787,379.59 254.5,381C 250.601,383.019 246.601,384.519 242.5,385.5C 235.567,381.735 230.067,376.402 226,369.5C 219.897,359.516 215.563,348.85 213,337.5C 209,332.167 205,332.167 201,337.5C 203.44,362.11 214.607,381.777 234.5,396.5C 235.429,397.689 235.762,399.022 235.5,400.5C 232.072,409.278 228.905,418.278 226,427.5C 221.992,436.683 215.159,442.35 205.5,444.5C 203.629,444.141 202.129,443.141 201,441.5C 195.421,431.431 191.421,420.765 189,409.5C 184.951,404.182 180.951,404.182 177,409.5C 176.231,412.099 176.398,414.599 177.5,417C 165.045,417.979 152.712,417.479 140.5,415.5C 132.818,412.491 125.485,408.658 118.5,404C 111.978,398.81 108.978,392.31 109.5,384.5C 110.833,385.167 112.167,385.833 113.5,386.5C 118.97,389.716 124.97,391.883 131.5,393C 185.849,402.818 207.849,380.651 197.5,326.5C 197.371,324.784 197.038,323.117 196.5,321.5C 206.903,321.797 217.236,321.13 227.5,319.5C 229.928,322.432 232.594,325.265 235.5,328C 246.194,335.186 254.527,344.352 260.5,355.5 Z"/></g>
<g><path style="opacity:1" fill="#b37b51" d="M 85.5,340.5 C 86.1239,340.917 86.4573,341.584 86.5,342.5C 82.6742,357.002 81.6742,371.669 83.5,386.5C 81.1022,387.724 78.7689,387.558 76.5,386C 70.8298,380.72 68.9965,374.22 71,366.5C 74.5496,357.063 79.3829,348.396 85.5,340.5 Z"/></g>
<g><path style="opacity:1" fill="#c79673" d="M 260.5,355.5 C 266.381,363.365 267.881,372.032 265,381.5C 258.471,387.872 250.971,389.205 242.5,385.5C 246.601,384.519 250.601,383.019 254.5,381C 255.787,379.59 256.954,378.09 258,376.5C 259.053,369.398 259.887,362.398 260.5,355.5 Z"/></g>
<g><path style="opacity:1" fill="#c79773" d="M 97.5,356.5 C 96.6756,368.061 100.676,377.395 109.5,384.5C 108.978,392.31 111.978,398.81 118.5,404C 125.485,408.658 132.818,412.491 140.5,415.5C 103.874,411.594 89.5402,391.927 97.5,356.5 Z"/></g>
<g><path style="opacity:1" fill="#9c663e" d="M 235.5,400.5 C 235.086,414.571 232.586,428.237 228,441.5C 220.905,446.564 213.405,447.564 205.5,444.5C 215.159,442.35 221.992,436.683 226,427.5C 228.905,418.278 232.072,409.278 235.5,400.5 Z"/></g>
<g><path style="opacity:1" fill="#b98055" d="M 110.5,420.5 C 110.859,422.371 111.859,423.871 113.5,425C 119.755,429.378 125.922,433.878 132,438.5C 133.202,440.677 133.702,443.011 133.5,445.5C 127.233,447.301 121.399,446.301 116,442.5C 111.818,434.828 108.818,426.828 107,418.5C 108.113,419.305 109.279,419.972 110.5,420.5 Z"/></g>
<g><path style="opacity:1" fill="#9b653e" d="M 110.5,420.5 C 121.85,426.004 133.85,429.004 146.5,429.5C 146.392,438.43 142.059,443.763 133.5,445.5C 133.702,443.011 133.202,440.677 132,438.5C 125.922,433.878 119.755,429.378 113.5,425C 111.859,423.871 110.859,422.371 110.5,420.5 Z"/></g>
</svg>
