<?xml version="1.0" encoding="UTF-8"?>
<!DOCTYPE svg PUBLIC "-//W3C//DTD SVG 1.1//EN" "http://www.w3.org/Graphics/SVG/1.1/DTD/svg11.dtd">
<svg xmlns="http://www.w3.org/2000/svg" version="1.1" width="450px" height="523px" style="shape-rendering:geometricPrecision; text-rendering:geometricPrecision; image-rendering:optimizeQuality; fill-rule:evenodd; clip-rule:evenodd" xmlns:xlink="http://www.w3.org/1999/xlink">
<g><path style="opacity:0.949" fill="#030201" d="M 219.5,67.5 C 240.168,66.2228 258.335,72.2228 274,85.5C 287.937,102.07 288.937,119.403 277,137.5C 274.455,141.046 271.288,143.879 267.5,146C 295.278,178.673 307.445,216.506 304,259.5C 297.213,293.29 277.046,314.456 243.5,323C 260.048,337.315 271.048,354.815 276.5,375.5C 277.207,383.406 275.874,391.072 272.5,398.5C 268.648,402.186 264.648,405.686 260.5,409C 256.728,409.406 253.061,410.239 249.5,411.5C 247.493,423.37 244.659,435.037 241,446.5C 236.416,453.548 229.916,457.715 221.5,459C 201.126,462.484 188.126,454.317 182.5,434.5C 174.833,433.167 167.167,433.167 159.5,434.5C 156.21,451.747 145.71,460.08 128,459.5C 118.253,460.291 110.253,456.958 104,449.5C 97.6816,437.044 92.8482,424.044 89.5,410.5C 80.3935,410.711 72.5602,407.377 66,400.5C 59.2062,389.015 58.2062,377.015 63,364.5C 67.8264,353.549 73.8264,342.882 81,332.5C 83.894,329.639 87.0607,327.139 90.5,325C 50.6186,311.818 30.9519,283.984 31.5,241.5C 33.67,216.15 40.5034,192.15 52,169.5C 53.8333,167 55.6667,164.5 57.5,162C 34.9072,147.755 29.7405,128.589 42,104.5C 54.3777,88.5624 70.5443,79.2291 90.5,76.5C 112.286,78.4075 125.619,90.0741 130.5,111.5C 131.333,111.833 132.167,112.167 133,112.5C 150.944,108.391 169.111,107.391 187.5,109.5C 188.178,87.5305 198.845,73.5305 219.5,67.5 Z"/></g>
<g><path style="opacity:1" fill="#bc8256" d="M 256.5,91.5 C 257.045,93.5932 257.878,95.5932 259,97.5C 259.667,105.5 259.667,113.5 259,121.5C 257.908,127.013 255.741,132.013 252.5,136.5C 249.087,137.694 245.92,139.36 243,141.5C 242.034,145.118 242.534,148.451 244.5,151.5C 248.126,151.984 251.46,153.151 254.5,155C 266.362,167.551 275.028,182.051 280.5,198.5C 283.775,228.41 276.608,255.41 259,279.5C 248.172,290.83 235.339,298.997 220.5,304C 210.23,307.598 199.897,310.431 189.5,312.5C 187.938,312.733 186.605,313.4 185.5,314.5C 180.015,313.673 174.348,313.173 168.5,313C 184.831,305.845 191.331,293.345 188,275.5C 185.935,269.7 183.101,264.367 179.5,259.5C 184.992,262.921 190.992,264.254 197.5,263.5C 193.889,281.729 201.556,289.562 220.5,287C 231.589,282.971 236.756,275.137 236,263.5C 230.523,253.836 222.356,250.502 211.5,253.5C 219.64,238.074 216.306,225.907 201.5,217C 185.935,212.2 175.435,217.367 170,232.5C 168.88,239.472 169.713,246.138 172.5,252.5C 157.031,241.919 140.031,238.419 121.5,242C 117.493,243.337 113.827,245.17 110.5,247.5C 108.95,248.441 107.284,249.107 105.5,249.5C 109.027,230.2 101.027,220.366 81.5,220C 69.1457,225.54 64.3123,235.04 67,248.5C 67.9862,251.806 69.4862,254.806 71.5,257.5C 67.8815,256.756 64.2148,256.423 60.5,256.5C 58.9058,235.065 61.9058,214.398 69.5,194.5C 69.0548,197.365 69.7215,199.865 71.5,202C 78.9861,207.495 87.3194,209.495 96.5,208C 102.023,205.117 104.523,200.617 104,194.5C 102.786,192.951 101.286,191.785 99.5,191C 90.5062,190.5 81.5062,190.334 72.5,190.5C 79.7037,171.938 91.3704,156.771 107.5,145C 114.011,140.577 120.345,135.911 126.5,131C 125.906,130.536 125.239,130.369 124.5,130.5C 133.388,126.948 142.722,124.948 152.5,124.5C 165.516,124.367 178.516,124.701 191.5,125.5C 195.553,132.484 200.386,133.151 206,127.5C 206.167,126.333 206.333,125.167 206.5,124C 206.158,120.864 205.158,118.031 203.5,115.5C 203.201,108.711 203.868,102.044 205.5,95.5C 210.345,87.0733 217.678,82.74 227.5,82.5C 238.18,82.506 247.847,85.506 256.5,91.5 Z"/></g>
<g><path style="opacity:1" fill="#bb8256" d="M 96.5,92.5 C 102.056,99.0268 104.389,106.693 103.5,115.5C 102.199,112.199 99.8654,109.865 96.5,108.5C 85.0831,104.645 75.5831,107.312 68,116.5C 66.4453,121.382 66.112,126.382 67,131.5C 69.94,135.037 73.44,137.703 77.5,139.5C 75.0381,142.464 72.3714,145.297 69.5,148C 60.109,146.961 53.9423,141.795 51,132.5C 49.4861,123.375 51.8194,115.375 58,108.5C 68.3826,97.2241 81.2159,91.8908 96.5,92.5 Z"/></g>
<g><path style="opacity:1" fill="#98633d" d="M 256.5,91.5 C 264.082,96.8448 268.748,104.011 270.5,113C 269.967,125.032 263.967,132.865 252.5,136.5C 255.741,132.013 257.908,127.013 259,121.5C 259.667,113.5 259.667,105.5 259,97.5C 257.878,95.5932 257.045,93.5932 256.5,91.5 Z"/></g>
<g><path style="opacity:1" fill="#98633c" d="M 96.5,92.5 C 109.267,96.6496 115.6,105.65 115.5,119.5C 111.5,120.054 107.834,121.387 104.5,123.5C 104.599,120.763 104.265,118.096 103.5,115.5C 104.389,106.693 102.056,99.0268 96.5,92.5 Z"/></g>
<g><path style="opacity:1" fill="#f9b97e" d="M 231.5,96.5 C 230.223,98.95 228.723,101.283 227,103.5C 226.333,110.167 226.333,116.833 227,123.5C 228.039,125.746 229.206,127.913 230.5,130C 232.473,130.495 234.473,130.662 236.5,130.5C 230.435,132.214 224.935,130.881 220,126.5C 216.26,119.143 215.593,111.476 218,103.5C 221.606,99.4469 226.106,97.1135 231.5,96.5 Z"/></g>
<g><path style="opacity:1" fill="#fccea4" d="M 231.5,96.5 C 236.449,95.9589 241.116,96.7922 245.5,99C 255.668,107.555 256.001,116.555 246.5,126C 243.259,127.789 239.926,129.289 236.5,130.5C 234.473,130.662 232.473,130.495 230.5,130C 229.206,127.913 228.039,125.746 227,123.5C 226.333,116.833 226.333,110.167 227,103.5C 228.723,101.283 230.223,98.95 231.5,96.5 Z"/></g>
<g><path style="opacity:1" fill="#fbcea4" d="M 96.5,108.5 C 97.6369,114.777 97.6369,121.11 96.5,127.5C 89.9697,131.261 83.6364,135.261 77.5,139.5C 73.44,137.703 69.94,135.037 67,131.5C 66.112,126.382 66.4453,121.382 68,116.5C 75.5831,107.312 85.0831,104.645 96.5,108.5 Z"/></g>
<g><path style="opacity:1" fill="#795437" d="M 205.5,95.5 C 203.868,102.044 203.201,108.711 203.5,115.5C 202.352,111.019 202.185,106.352 203,101.5C 203.566,99.2774 204.4,97.2774 205.5,95.5 Z"/></g>
<g><path style="opacity:1" fill="#f2b57d" d="M 96.5,108.5 C 99.8654,109.865 102.199,112.199 103.5,115.5C 104.265,118.096 104.599,120.763 104.5,123.5C 101.605,124.399 98.9384,125.733 96.5,127.5C 97.6369,121.11 97.6369,114.777 96.5,108.5 Z"/></g>
<g><path style="opacity:1" fill="#855c3c" d="M 152.5,124.5 C 157.489,123.834 162.656,123.501 168,123.5C 176.056,123.338 183.889,124.005 191.5,125.5C 178.516,124.701 165.516,124.367 152.5,124.5 Z"/></g>
<g><path style="opacity:1" fill="#c69672" d="M 124.5,130.5 C 125.239,130.369 125.906,130.536 126.5,131C 120.345,135.911 114.011,140.577 107.5,145C 91.3704,156.771 79.7037,171.938 72.5,190.5C 71.5,191.833 70.5,193.167 69.5,194.5C 61.9058,214.398 58.9058,235.065 60.5,256.5C 55.4972,258.169 52.1639,261.503 50.5,266.5C 43.5935,229.778 51.0935,196.111 73,165.5C 86.7691,148.709 103.936,137.042 124.5,130.5 Z"/></g>
<g><path style="opacity:1" fill="#2a1d13" d="M 173.5,185.5 C 183.172,185.334 192.839,185.5 202.5,186C 209.202,188.503 210.202,192.503 205.5,198C 195.922,204.315 185.589,206.315 174.5,204C 169.709,200.258 167.876,195.424 169,189.5C 170.397,187.93 171.897,186.596 173.5,185.5 Z"/></g>
<g><path style="opacity:1" fill="#281c12" d="M 72.5,190.5 C 81.5062,190.334 90.5062,190.5 99.5,191C 101.286,191.785 102.786,192.951 104,194.5C 104.523,200.617 102.023,205.117 96.5,208C 87.3194,209.495 78.9861,207.495 71.5,202C 69.7215,199.865 69.0548,197.365 69.5,194.5C 70.5,193.167 71.5,191.833 72.5,190.5 Z"/></g>
<g><path style="opacity:1" fill="#9b653e" d="M 280.5,198.5 C 291.157,223.198 292.323,248.531 284,274.5C 277.736,288.094 267.57,297.594 253.5,303C 232.888,310.588 211.554,313.754 189.5,312.5C 199.897,310.431 210.23,307.598 220.5,304C 235.339,298.997 248.172,290.83 259,279.5C 276.608,255.41 283.775,228.41 280.5,198.5 Z"/></g>
<g><path style="opacity:1" fill="#030201" d="M 211.5,253.5 C 207.649,258.024 202.982,261.357 197.5,263.5C 190.992,264.254 184.992,262.921 179.5,259.5C 178.833,259.167 178.167,258.833 177.5,258.5C 175.804,256.475 174.137,254.475 172.5,252.5C 169.713,246.138 168.88,239.472 170,232.5C 175.435,217.367 185.935,212.2 201.5,217C 216.306,225.907 219.64,238.074 211.5,253.5 Z"/></g>
<g><path style="opacity:1" fill="#040201" d="M 105.5,249.5 C 103.297,255.364 99.6301,260.031 94.5,263.5C 90.5341,264.162 86.5341,264.495 82.5,264.5C 78.0243,263.343 74.3577,261.01 71.5,257.5C 69.4862,254.806 67.9862,251.806 67,248.5C 64.3123,235.04 69.1457,225.54 81.5,220C 101.027,220.366 109.027,230.2 105.5,249.5 Z"/></g>
<g><path style="opacity:1" fill="#f9cca3" d="M 172.5,252.5 C 174.137,254.475 175.804,256.475 177.5,258.5C 180.394,281.707 172.394,299.874 153.5,313C 147.065,314.039 140.731,314.873 134.5,315.5C 133.244,315.539 132.244,315.039 131.5,314C 121.944,313.94 112.61,313.107 103.5,311.5C 102.167,310.167 100.833,308.833 99.5,307.5C 95.0358,285.891 99.0358,266.058 111.5,248C 111.272,247.601 110.938,247.435 110.5,247.5C 113.827,245.17 117.493,243.337 121.5,242C 140.031,238.419 157.031,241.919 172.5,252.5 Z"/></g>
<g><path style="opacity:1" fill="#705d4a" d="M 138.5,246.5 C 132.441,246.254 126.441,246.587 120.5,247.5C 120.611,246.883 120.944,246.383 121.5,246C 127.349,245.182 133.015,245.348 138.5,246.5 Z"/></g>
<g><path style="opacity:1" fill="#0c0a08" d="M 138.5,246.5 C 144.354,248.049 146.021,251.716 143.5,257.5C 141.817,259.514 139.817,261.18 137.5,262.5C 134.959,270.587 137.959,274.087 146.5,273C 149.167,271.667 151.167,269.667 152.5,267C 161.299,266.224 163.466,269.724 159,277.5C 150.667,285.607 141.5,286.607 131.5,280.5C 122.925,287.435 114.758,287.102 107,279.5C 102.305,272.09 104.139,268.257 112.5,268C 114.871,269.406 116.538,271.406 117.5,274C 125.306,273.92 127.64,270.086 124.5,262.5C 118.977,259.818 116.81,255.485 118,249.5C 118.708,248.619 119.542,247.953 120.5,247.5C 126.441,246.587 132.441,246.254 138.5,246.5 Z"/></g>
<g><path style="opacity:1" fill="#f9dabe" d="M 110.5,247.5 C 110.938,247.435 111.272,247.601 111.5,248C 99.0358,266.058 95.0358,285.891 99.5,307.5C 98.609,306.89 97.609,306.557 96.5,306.5C 86.6819,292.687 86.0153,278.354 94.5,263.5C 99.6301,260.031 103.297,255.364 105.5,249.5C 107.284,249.107 108.95,248.441 110.5,247.5 Z"/></g>
<g><path style="opacity:1" fill="#424242" d="M 124.5,247.5 C 129.575,247.18 131.408,249.514 130,254.5C 127.79,257.29 124.956,258.123 121.5,257C 119.603,252.828 120.603,249.662 124.5,247.5 Z"/></g>
<g><path style="opacity:1" fill="#e3806e" d="M 197.5,263.5 C 202.982,261.357 207.649,258.024 211.5,253.5C 222.356,250.502 230.523,253.836 236,263.5C 236.756,275.137 231.589,282.971 220.5,287C 201.556,289.562 193.889,281.729 197.5,263.5 Z"/></g>
<g><path style="opacity:1" fill="#e48271" d="M 60.5,256.5 C 64.2148,256.423 67.8815,256.756 71.5,257.5C 74.3577,261.01 78.0243,263.343 82.5,264.5C 88.4833,275.867 85.4833,283.867 73.5,288.5C 69.1186,288.628 64.7853,288.295 60.5,287.5C 54.7829,281.729 51.4496,274.729 50.5,266.5C 52.1639,261.503 55.4972,258.169 60.5,256.5 Z"/></g>
<g><path style="opacity:1" fill="#f9b87d" d="M 177.5,258.5 C 178.167,258.833 178.833,259.167 179.5,259.5C 183.101,264.367 185.935,269.7 188,275.5C 191.331,293.345 184.831,305.845 168.5,313C 174.348,313.173 180.015,313.673 185.5,314.5C 185.167,315.167 184.833,315.833 184.5,316.5C 183.848,317.449 183.514,318.615 183.5,320C 183.307,322.008 183.974,323.508 185.5,324.5C 186.71,324.932 187.71,325.599 188.5,326.5C 191.028,327.166 193.694,327.832 196.5,328.5C 197.127,329.417 197.461,330.417 197.5,331.5C 197.5,331.833 197.5,332.167 197.5,332.5C 181.178,333.495 164.845,333.662 148.5,333C 138.005,332.246 127.672,330.746 117.5,328.5C 116.209,328.737 115.209,328.404 114.5,327.5C 120.893,327.793 127.227,327.46 133.5,326.5C 137.018,323.074 137.352,319.407 134.5,315.5C 140.731,314.873 147.065,314.039 153.5,313C 172.394,299.874 180.394,281.707 177.5,258.5 Z"/></g>
<g><path style="opacity:1" fill="#bd8359" d="M 94.5,263.5 C 86.0153,278.354 86.6819,292.687 96.5,306.5C 87.0149,302.666 79.3483,296.666 73.5,288.5C 85.4833,283.867 88.4833,275.867 82.5,264.5C 86.5341,264.495 90.5341,264.162 94.5,263.5 Z"/></g>
<g><path style="opacity:1" fill="#c59471" d="M 60.5,287.5 C 64.7853,288.295 69.1186,288.628 73.5,288.5C 79.3483,296.666 87.0149,302.666 96.5,306.5C 97.609,306.557 98.609,306.89 99.5,307.5C 100.833,308.833 102.167,310.167 103.5,311.5C 91.1831,309.509 79.8498,305.009 69.5,298C 65.9155,294.922 62.9155,291.422 60.5,287.5 Z"/></g>
<g><path style="opacity:1" fill="#906a48" d="M 184.5,316.5 C 184.401,319.237 184.735,321.904 185.5,324.5C 183.974,323.508 183.307,322.008 183.5,320C 183.514,318.615 183.848,317.449 184.5,316.5 Z"/></g>
<g><path style="opacity:1" fill="#9d6840" d="M 229.5,326.5 C 218.903,328.6 208.236,330.266 197.5,331.5C 197.461,330.417 197.127,329.417 196.5,328.5C 193.694,327.832 191.028,327.166 188.5,326.5C 202.345,326.141 216.012,326.141 229.5,326.5 Z"/></g>
<g><path style="opacity:1" fill="#ba8156" d="M 229.5,326.5 C 234.437,333.938 240.271,340.605 247,346.5C 250,351.167 253,355.833 256,360.5C 256.483,361.448 256.649,362.448 256.5,363.5C 256.139,371.727 254.639,379.727 252,387.5C 247.69,391.081 242.857,393.081 237.5,393.5C 232.877,390.711 229.044,387.045 226,382.5C 218.197,369.897 213.531,356.23 212,341.5C 207.361,337.286 203.195,337.619 199.5,342.5C 199.841,338.84 199.175,335.507 197.5,332.5C 197.5,332.167 197.5,331.833 197.5,331.5C 208.236,330.266 218.903,328.6 229.5,326.5 Z"/></g>
<g><path style="opacity:1" fill="#fcdec3" d="M 114.5,327.5 C 115.209,328.404 116.209,328.737 117.5,328.5C 113.735,339.561 110.902,350.894 109,362.5C 107.101,373.123 108.935,382.956 114.5,392C 114.272,392.399 113.938,392.565 113.5,392.5C 111.668,391.752 110.001,390.752 108.5,389.5C 100.375,382.489 96.7084,373.489 97.5,362.5C 98.92,351.154 101.753,340.154 106,329.5C 108.456,327.679 111.289,327.012 114.5,327.5 Z"/></g>
<g><path style="opacity:1" fill="#fccfa5" d="M 117.5,328.5 C 127.672,330.746 138.005,332.246 148.5,333C 164.845,333.662 181.178,333.495 197.5,332.5C 199.175,335.507 199.841,338.84 199.5,342.5C 199.5,345.167 199.5,347.833 199.5,350.5C 200.569,389.585 181.569,406.418 142.5,401C 132.176,399.842 122.509,397.009 113.5,392.5C 113.938,392.565 114.272,392.399 114.5,392C 108.935,382.956 107.101,373.123 109,362.5C 110.902,350.894 113.735,339.561 117.5,328.5 Z"/></g>
<g><path style="opacity:1" fill="#bc8256" d="M 199.5,350.5 C 202.754,367.349 209.588,382.682 220,396.5C 224.041,400.047 228.208,403.38 232.5,406.5C 230.278,416.335 226.778,425.669 222,434.5C 217.6,439.751 212.1,443.084 205.5,444.5C 203.629,444.141 202.129,443.141 201,441.5C 195.421,431.431 191.421,420.765 189,409.5C 184.951,404.182 180.951,404.182 177,409.5C 176.457,412.868 176.624,416.201 177.5,419.5C 165.041,419.98 152.708,419.313 140.5,417.5C 132.818,414.491 125.485,410.658 118.5,406C 113.282,401.621 109.948,396.121 108.5,389.5C 110.001,390.752 111.668,391.752 113.5,392.5C 122.509,397.009 132.176,399.842 142.5,401C 181.569,406.418 200.569,389.585 199.5,350.5 Z"/></g>
<g><path style="opacity:1" fill="#af7950" d="M 84.5,351.5 C 85.1239,351.917 85.4573,352.584 85.5,353.5C 82.1333,366.953 81.8,380.453 84.5,394C 84.1667,394.5 83.8333,395 83.5,395.5C 76.7284,392.735 73.7284,387.735 74.5,380.5C 74.4817,377.076 74.9817,373.743 76,370.5C 78.8228,364.186 81.6561,357.852 84.5,351.5 Z"/></g>
<g><path style="opacity:1" fill="#c79673" d="M 97.5,362.5 C 96.7084,373.489 100.375,382.489 108.5,389.5C 109.948,396.121 113.282,401.621 118.5,406C 125.485,410.658 132.818,414.491 140.5,417.5C 124.815,416.226 111.648,409.892 101,398.5C 98.2287,393.176 96.062,387.676 94.5,382C 95.4,375.349 96.4,368.849 97.5,362.5 Z"/></g>
<g><path style="opacity:1" fill="#c1916f" d="M 256.5,363.5 C 262.45,372.201 263.616,381.534 260,391.5C 254.459,396.361 247.959,397.861 240.5,396C 239.058,395.623 238.058,394.79 237.5,393.5C 242.857,393.081 247.69,391.081 252,387.5C 254.639,379.727 256.139,371.727 256.5,363.5 Z"/></g>
<g><path style="opacity:1" fill="#9c653e" d="M 232.5,406.5 C 233.643,406.908 234.643,407.575 235.5,408.5C 234.211,419.781 231.711,430.781 228,441.5C 220.905,446.564 213.405,447.564 205.5,444.5C 212.1,443.084 217.6,439.751 222,434.5C 226.778,425.669 230.278,416.335 232.5,406.5 Z"/></g>
<g><path style="opacity:1" fill="#b98054" d="M 115.5,425.5 C 120.84,429.934 126.34,434.268 132,438.5C 133.202,440.677 133.702,443.011 133.5,445.5C 127.233,447.301 121.399,446.301 116,442.5C 112.14,435.738 109.64,428.738 108.5,421.5C 111.059,422.608 113.392,423.941 115.5,425.5 Z"/></g>
<g><path style="opacity:1" fill="#9c663e" d="M 115.5,425.5 C 125.244,428.769 135.244,430.769 145.5,431.5C 145.418,439.579 141.418,444.245 133.5,445.5C 133.702,443.011 133.202,440.677 132,438.5C 126.34,434.268 120.84,429.934 115.5,425.5 Z"/></g>
</svg>
