<?xml version="1.0" encoding="UTF-8"?>
<!DOCTYPE svg PUBLIC "-//W3C//DTD SVG 1.1//EN" "http://www.w3.org/Graphics/SVG/1.1/DTD/svg11.dtd">
<svg xmlns="http://www.w3.org/2000/svg" version="1.1" width="450px" height="523px" style="shape-rendering:geometricPrecision; text-rendering:geometricPrecision; image-rendering:optimizeQuality; fill-rule:evenodd; clip-rule:evenodd" xmlns:xlink="http://www.w3.org/1999/xlink">
<g><path style="opacity:0.95" fill="#020101" d="M 222.5,64.5 C 244.811,62.5435 263.644,69.5435 279,85.5C 291.287,101.905 291.62,118.571 280,135.5C 277.079,139.092 273.579,141.925 269.5,144C 298.29,179.501 309.623,219.834 303.5,265C 294.39,293.94 275.057,312.107 245.5,319.5C 261.185,332.261 272.019,347.928 278,366.5C 282.755,389.92 273.255,403.254 249.5,406.5C 247.97,419.345 245.47,432.011 242,444.5C 238.611,451.554 233.111,456.054 225.5,458C 212.731,461.737 201.231,459.57 191,451.5C 187.435,445.537 184.268,439.37 181.5,433C 174.174,432.5 166.841,432.334 159.5,432.5C 158.676,447.336 151.009,456.17 136.5,459C 123.749,461.942 112.916,458.775 104,449.5C 97.2194,435.326 91.7194,420.659 87.5,405.5C 59.7508,400.356 50.9174,384.356 61,357.5C 67.0787,344.506 75.2454,333.006 85.5,323C 87.5,321.667 89.5,320.333 91.5,319C 64.6711,312.169 46.8378,295.669 38,269.5C 28.7428,228.608 35.9095,190.608 59.5,155.5C 45.1043,147.217 37.7709,134.717 37.5,118C 42.6218,97.1998 55.2885,82.8665 75.5,75C 100.024,66.5243 118.191,73.691 130,96.5C 131.313,100.42 132.313,104.42 133,108.5C 138.695,106.828 144.529,105.661 150.5,105C 163.852,104.285 177.185,104.452 190.5,105.5C 191.399,83.9691 202.065,70.3025 222.5,64.5 Z"/></g>
<g><path style="opacity:1" fill="#724f34" d="M 100.5,87.5 C 94.7969,87.3748 89.1302,87.7081 83.5,88.5C 86.5256,86.9814 89.8589,86.3148 93.5,86.5C 96.0254,86.5034 98.3587,86.8367 100.5,87.5 Z"/></g>
<g><path style="opacity:1" fill="#b98055" d="M 100.5,87.5 C 104.896,93.4084 106.563,100.075 105.5,107.5C 103.427,105.42 101.093,103.754 98.5,102.5C 87.2152,98.0668 78.0486,100.733 71,110.5C 66.7732,118.841 68.2732,126.007 75.5,132C 77.3453,133.128 79.3453,133.628 81.5,133.5C 78.3395,136.265 75.3395,139.265 72.5,142.5C 70.9255,143.631 69.2588,143.798 67.5,143C 52.2067,133.423 49.3734,120.923 59,105.5C 65.2546,96.9656 73.4213,91.2989 83.5,88.5C 89.1302,87.7081 94.7969,87.3748 100.5,87.5 Z"/></g>
<g><path style="opacity:1" fill="#98633d" d="M 100.5,87.5 C 112.683,92.1568 118.683,101.157 118.5,114.5C 114.765,115.301 111.099,116.301 107.5,117.5C 107.041,114.123 106.374,110.789 105.5,107.5C 106.563,100.075 104.896,93.4084 100.5,87.5 Z"/></g>
<g><path style="opacity:1" fill="#99643d" d="M 259.5,88.5 C 264.543,92.3767 268.71,97.0433 272,102.5C 274.653,112.926 272.153,121.759 264.5,129C 261.757,131.038 258.757,132.538 255.5,133.5C 257.366,128.413 259.533,123.413 262,118.5C 262.667,110.167 262.667,101.833 262,93.5C 260.628,92.0899 259.795,90.4233 259.5,88.5 Z"/></g>
<g><path style="opacity:1" fill="#f9cca2" d="M 98.5,102.5 C 100.055,105.019 100.722,107.852 100.5,111C 100.293,114.523 99.96,118.023 99.5,121.5C 93.5368,125.487 87.5368,129.487 81.5,133.5C 79.3453,133.628 77.3453,133.128 75.5,132C 68.2732,126.007 66.7732,118.841 71,110.5C 78.0486,100.733 87.2152,98.0668 98.5,102.5 Z"/></g>
<g><path style="opacity:1" fill="#f1b37b" d="M 98.5,102.5 C 101.093,103.754 103.427,105.42 105.5,107.5C 106.374,110.789 107.041,114.123 107.5,117.5C 105.151,119.341 102.485,120.674 99.5,121.5C 99.96,118.023 100.293,114.523 100.5,111C 100.722,107.852 100.055,105.019 98.5,102.5 Z"/></g>
<g><path style="opacity:1" fill="#bb8256" d="M 259.5,88.5 C 259.795,90.4233 260.628,92.0899 262,93.5C 262.667,101.833 262.667,110.167 262,118.5C 259.533,123.413 257.366,128.413 255.5,133.5C 251.776,134.407 248.443,136.073 245.5,138.5C 242.947,146.462 245.947,150.295 254.5,150C 267.779,163.048 277.113,178.548 282.5,196.5C 283.952,221.353 278.785,244.687 267,266.5C 259.271,278.79 248.771,287.957 235.5,294C 220.705,300.917 205.372,305.751 189.5,308.5C 187.938,308.733 186.605,309.4 185.5,310.5C 179.986,309.833 174.319,309.167 168.5,308.5C 184.929,301.651 191.429,289.318 188,271.5C 186.275,265.721 183.775,260.388 180.5,255.5C 186.306,259.45 192.639,260.45 199.5,258.5C 193.415,269.655 196.082,277.822 207.5,283C 218.066,285.462 226.899,282.629 234,274.5C 240.277,262.544 237.11,254.044 224.5,249C 220.446,248.306 216.446,248.473 212.5,249.5C 219.432,236.436 217.432,224.936 206.5,215C 191.532,207.469 180.032,210.969 172,225.5C 169.503,234.227 170.337,242.561 174.5,250.5C 156.641,235.89 136.641,232.39 114.5,240C 113.429,240.852 112.429,241.685 111.5,242.5C 109.95,243.441 108.284,244.107 106.5,244.5C 110.046,229.585 104.713,219.585 90.5,214.5C 87.041,213.135 83.7076,213.469 80.5,215.5C 66.7807,224.268 63.7807,235.935 71.5,250.5C 68.1667,250.5 64.8333,250.5 61.5,250.5C 60.4845,238.086 61.3179,225.752 64,213.5C 66.5983,203.889 69.4317,194.555 72.5,185.5C 71.5651,188.113 71.3985,190.779 72,193.5C 80.701,201.707 90.5344,203.54 101.5,199C 105.858,194.796 106.525,190.13 103.5,185C 94.2736,183.555 84.9402,183.055 75.5,183.5C 76.7364,179.014 78.5697,174.681 81,170.5C 85,165.167 89,159.833 93,154.5C 104.829,143.822 117.329,134.155 130.5,125.5C 132.803,123.745 135.47,122.578 138.5,122C 156.783,119.075 175.117,118.742 193.5,121C 195.405,122.815 197.072,124.815 198.5,127C 204.675,128.972 208.008,126.805 208.5,120.5C 205.705,113.138 204.872,105.471 206,97.5C 211.81,81.842 222.976,76.0087 239.5,80C 247.019,81.0009 253.686,83.8342 259.5,88.5 Z"/></g>
<g><path style="opacity:1" fill="#fccea4" d="M 239.5,93.5 C 246.953,94.1016 252.453,97.7683 256,104.5C 257.742,113.074 254.908,119.574 247.5,124C 243.113,126.245 238.446,127.411 233.5,127.5C 232.164,125.99 230.997,124.323 230,122.5C 228.645,116.215 228.311,109.882 229,103.5C 230.002,99.8359 231.836,96.6692 234.5,94C 236.134,93.5065 237.801,93.3398 239.5,93.5 Z"/></g>
<g><path style="opacity:1" fill="#f7b67c" d="M 239.5,93.5 C 237.801,93.3398 236.134,93.5065 234.5,94C 231.836,96.6692 230.002,99.8359 229,103.5C 228.311,109.882 228.645,116.215 230,122.5C 230.997,124.323 232.164,125.99 233.5,127.5C 225.482,127.313 220.649,123.313 219,115.5C 217.082,99.5443 223.915,92.211 239.5,93.5 Z"/></g>
<g><path style="opacity:1" fill="#c69672" d="M 130.5,125.5 C 117.329,134.155 104.829,143.822 93,154.5C 89,159.833 85,165.167 81,170.5C 78.5697,174.681 76.7364,179.014 75.5,183.5C 74.5,184.167 73.5,184.833 72.5,185.5C 69.4317,194.555 66.5983,203.889 64,213.5C 61.3179,225.752 60.4845,238.086 61.5,250.5C 56.0496,252.282 52.7163,255.949 51.5,261.5C 46.7044,240.983 47.8711,220.65 55,200.5C 66.1515,161.181 91.3181,136.181 130.5,125.5 Z"/></g>
<g><path style="opacity:1" fill="#2a1d13" d="M 174.5,180.5 C 184.506,180.334 194.506,180.5 204.5,181C 209.218,182.449 210.718,185.615 209,190.5C 200.865,197.656 191.365,200.823 180.5,200C 175.427,198.594 171.927,195.428 170,190.5C 168.571,185.783 170.071,182.45 174.5,180.5 Z"/></g>
<g><path style="opacity:1" fill="#291c12" d="M 75.5,183.5 C 84.9402,183.055 94.2736,183.555 103.5,185C 106.525,190.13 105.858,194.796 101.5,199C 90.5344,203.54 80.701,201.707 72,193.5C 71.3985,190.779 71.5651,188.113 72.5,185.5C 73.5,184.833 74.5,184.167 75.5,183.5 Z"/></g>
<g><path style="opacity:1" fill="#9c663e" d="M 282.5,196.5 C 290.482,216.075 292.649,236.409 289,257.5C 284.812,278.024 272.978,292.191 253.5,300C 240.506,304.443 227.173,307.277 213.5,308.5C 205.5,308.5 197.5,308.5 189.5,308.5C 205.372,305.751 220.705,300.917 235.5,294C 248.771,287.957 259.271,278.79 267,266.5C 278.785,244.687 283.952,221.353 282.5,196.5 Z"/></g>
<g><path style="opacity:1" fill="#020101" d="M 212.5,249.5 C 209.396,254.223 205.062,257.223 199.5,258.5C 192.639,260.45 186.306,259.45 180.5,255.5C 179.833,255.167 179.167,254.833 178.5,254.5C 177.5,252.833 176.167,251.5 174.5,250.5C 170.337,242.561 169.503,234.227 172,225.5C 180.032,210.969 191.532,207.469 206.5,215C 217.432,224.936 219.432,236.436 212.5,249.5 Z"/></g>
<g><path style="opacity:1" fill="#563b27" d="M 90.5,214.5 C 87.1401,214.616 83.8067,214.949 80.5,215.5C 83.7076,213.469 87.041,213.135 90.5,214.5 Z"/></g>
<g><path style="opacity:1" fill="#040201" d="M 90.5,214.5 C 104.713,219.585 110.046,229.585 106.5,244.5C 104.464,250.253 100.798,254.587 95.5,257.5C 91.7727,259.252 87.7727,259.919 83.5,259.5C 78.3635,258.032 74.3635,255.032 71.5,250.5C 63.7807,235.935 66.7807,224.268 80.5,215.5C 83.8067,214.949 87.1401,214.616 90.5,214.5 Z"/></g>
<g><path style="opacity:1" fill="#f9cda3" d="M 174.5,250.5 C 176.167,251.5 177.5,252.833 178.5,254.5C 180.23,276.524 172.564,294.357 155.5,308C 148.485,309.169 141.818,310.669 135.5,312.5C 134.128,311.488 132.795,310.488 131.5,309.5C 122.343,308.191 113.009,307.191 103.5,306.5C 102.167,305.167 100.833,303.833 99.5,302.5C 94.8279,280.693 99.1613,260.86 112.5,243C 112.272,242.601 111.938,242.435 111.5,242.5C 112.429,241.685 113.429,240.852 114.5,240C 136.641,232.39 156.641,235.89 174.5,250.5 Z"/></g>
<g><path style="opacity:1" fill="#fadbc0" d="M 111.5,242.5 C 111.938,242.435 112.272,242.601 112.5,243C 99.1613,260.86 94.8279,280.693 99.5,302.5C 98.609,301.89 97.609,301.557 96.5,301.5C 88.6736,291.226 86.8403,279.893 91,267.5C 92.7862,264.264 94.2862,260.93 95.5,257.5C 100.798,254.587 104.464,250.253 106.5,244.5C 108.284,244.107 109.95,243.441 111.5,242.5 Z"/></g>
<g><path style="opacity:1" fill="#0d0a08" d="M 152.5,278.5 C 146.399,279.89 140.399,279.556 134.5,277.5C 131.254,276.804 128.254,277.638 125.5,280C 114.576,282.567 107.909,278.4 105.5,267.5C 106.193,262.849 108.859,261.349 113.5,263C 115.405,264.815 117.072,266.815 118.5,269C 121.614,270.087 123.947,269.254 125.5,266.5C 126.158,265.207 126.492,263.707 126.5,262C 126.431,260.014 125.765,258.514 124.5,257.5C 122.833,256.167 121.167,254.833 119.5,253.5C 118.735,250.904 118.401,248.237 118.5,245.5C 119.29,244.206 120.29,243.039 121.5,242C 128.167,241.333 134.833,241.333 141.5,242C 144.939,244.275 146.106,247.441 145,251.5C 143.333,254.5 141,256.833 138,258.5C 135.924,266.757 139.091,270.257 147.5,269C 149.5,266.667 151.5,264.333 153.5,262C 160.663,261.315 162.996,264.482 160.5,271.5C 158.431,274.573 155.764,276.906 152.5,278.5 Z"/></g>
<g><path style="opacity:1" fill="#434343" d="M 124.5,243.5 C 130.113,242.079 132.28,244.079 131,249.5C 128.6,253.687 125.6,254.354 122,251.5C 121.018,248.225 121.851,245.559 124.5,243.5 Z"/></g>
<g><path style="opacity:1" fill="#e3806e" d="M 199.5,258.5 C 205.062,257.223 209.396,254.223 212.5,249.5C 216.446,248.473 220.446,248.306 224.5,249C 237.11,254.044 240.277,262.544 234,274.5C 226.899,282.629 218.066,285.462 207.5,283C 196.082,277.822 193.415,269.655 199.5,258.5 Z"/></g>
<g><path style="opacity:1" fill="#e48371" d="M 61.5,250.5 C 64.8333,250.5 68.1667,250.5 71.5,250.5C 74.3635,255.032 78.3635,258.032 83.5,259.5C 88.9948,271.177 85.6615,279.177 73.5,283.5C 68.8986,283.945 64.5653,283.278 60.5,281.5C 55.8945,275.617 52.8945,268.951 51.5,261.5C 52.7163,255.949 56.0496,252.282 61.5,250.5 Z"/></g>
<g><path style="opacity:1" fill="#967c62" d="M 118.5,245.5 C 118.401,248.237 118.735,250.904 119.5,253.5C 117.974,252.508 117.307,251.008 117.5,249C 117.514,247.615 117.848,246.449 118.5,245.5 Z"/></g>
<g><path style="opacity:1" fill="#fab97e" d="M 178.5,254.5 C 179.167,254.833 179.833,255.167 180.5,255.5C 183.775,260.388 186.275,265.721 188,271.5C 191.429,289.318 184.929,301.651 168.5,308.5C 174.319,309.167 179.986,309.833 185.5,310.5C 185.5,310.833 185.5,311.167 185.5,311.5C 182.331,316.083 183.331,319.75 188.5,322.5C 191.028,323.166 193.694,323.832 196.5,324.5C 197.127,325.417 197.461,326.417 197.5,327.5C 197.5,327.833 197.5,328.167 197.5,328.5C 172.405,330.391 147.405,329.557 122.5,326C 120.563,325.878 119.23,325.045 118.5,323.5C 123.032,323.818 127.366,323.485 131.5,322.5C 136.347,320.569 137.68,317.236 135.5,312.5C 141.818,310.669 148.485,309.169 155.5,308C 172.564,294.357 180.23,276.524 178.5,254.5 Z"/></g>
<g><path style="opacity:1" fill="#bd8358" d="M 95.5,257.5 C 94.2862,260.93 92.7862,264.264 91,267.5C 86.8403,279.893 88.6736,291.226 96.5,301.5C 87.059,297.721 79.3924,291.721 73.5,283.5C 85.6615,279.177 88.9948,271.177 83.5,259.5C 87.7727,259.919 91.7727,259.252 95.5,257.5 Z"/></g>
<g><path style="opacity:1" fill="#7e6752" d="M 124.5,257.5 C 125.765,258.514 126.431,260.014 126.5,262C 126.492,263.707 126.158,265.207 125.5,266.5C 125.736,263.391 125.403,260.391 124.5,257.5 Z"/></g>
<g><path style="opacity:1" fill="#645342" d="M 134.5,277.5 C 140.399,279.556 146.399,279.89 152.5,278.5C 152.389,279.117 152.056,279.617 151.5,280C 147.5,280.667 143.5,280.667 139.5,280C 137.509,279.626 135.842,278.793 134.5,277.5 Z"/></g>
<g><path style="opacity:1" fill="#c29370" d="M 60.5,281.5 C 64.5653,283.278 68.8986,283.945 73.5,283.5C 79.3924,291.721 87.059,297.721 96.5,301.5C 97.609,301.557 98.609,301.89 99.5,302.5C 100.833,303.833 102.167,305.167 103.5,306.5C 85.5787,304.049 71.2453,295.716 60.5,281.5 Z"/></g>
<g><path style="opacity:1" fill="#b19173" d="M 103.5,306.5 C 113.009,307.191 122.343,308.191 131.5,309.5C 121.89,309.789 112.557,308.789 103.5,306.5 Z"/></g>
<g><path style="opacity:1" fill="#2e1f14" d="M 189.5,308.5 C 197.5,308.5 205.5,308.5 213.5,308.5C 205.343,309.329 197.01,309.829 188.5,310C 187.756,311.039 186.756,311.539 185.5,311.5C 185.5,311.167 185.5,310.833 185.5,310.5C 186.605,309.4 187.938,308.733 189.5,308.5 Z"/></g>
<g><path style="opacity:1" fill="#fcdec3" d="M 107.5,322.5 C 110.059,322.198 112.393,322.532 114.5,323.5C 115.209,324.404 116.209,324.737 117.5,324.5C 114.354,335.752 111.52,347.085 109,358.5C 107.101,369.123 108.935,378.956 114.5,388C 114.272,388.399 113.938,388.565 113.5,388.5C 112.167,387.833 110.833,387.167 109.5,386.5C 100.676,379.395 96.6756,370.061 97.5,358.5C 99.0097,345.974 102.343,333.974 107.5,322.5 Z"/></g>
<g><path style="opacity:1" fill="#5a4633" d="M 107.5,322.5 C 115.316,322.075 123.316,322.075 131.5,322.5C 127.366,323.485 123.032,323.818 118.5,323.5C 117.167,323.5 115.833,323.5 114.5,323.5C 112.393,322.532 110.059,322.198 107.5,322.5 Z"/></g>
<g><path style="opacity:1" fill="#8e5d3a" d="M 229.5,322.5 C 218.903,324.6 208.236,326.266 197.5,327.5C 197.461,326.417 197.127,325.417 196.5,324.5C 193.694,323.832 191.028,323.166 188.5,322.5C 202.346,322.178 216.013,322.178 229.5,322.5 Z"/></g>
<g><path style="opacity:1" fill="#fccfa5" d="M 114.5,323.5 C 115.833,323.5 117.167,323.5 118.5,323.5C 119.23,325.045 120.563,325.878 122.5,326C 147.405,329.557 172.405,330.391 197.5,328.5C 207.849,382.651 185.849,404.818 131.5,395C 124.97,393.883 118.97,391.716 113.5,388.5C 113.938,388.565 114.272,388.399 114.5,388C 108.935,378.956 107.101,369.123 109,358.5C 111.52,347.085 114.354,335.752 117.5,324.5C 116.209,324.737 115.209,324.404 114.5,323.5 Z"/></g>
<g><path style="opacity:1" fill="#bb8256" d="M 229.5,322.5 C 230.777,324.95 232.277,327.283 234,329.5C 245.652,337.503 254.486,347.836 260.5,360.5C 259.603,359.402 258.77,359.402 258,360.5C 257.667,366.167 257.333,371.833 257,377.5C 253.66,384.259 248.16,387.592 240.5,387.5C 236.328,385.842 232.828,383.175 230,379.5C 221.049,367.594 215.383,354.261 213,339.5C 209.306,334.658 205.306,334.325 201,338.5C 200.276,344.313 200.942,349.98 203,355.5C 208.798,374.077 219.298,389.077 234.5,400.5C 231.703,411.059 228.203,421.392 224,431.5C 219.432,438.193 213.266,442.526 205.5,444.5C 203.629,444.141 202.129,443.141 201,441.5C 195.421,431.431 191.421,420.765 189,409.5C 184.951,404.182 180.951,404.182 177,409.5C 176.272,412.23 176.438,414.897 177.5,417.5C 165.059,418.979 152.726,418.645 140.5,416.5C 132.818,413.491 125.485,409.658 118.5,405C 112.279,400.068 109.279,393.901 109.5,386.5C 110.833,387.167 112.167,387.833 113.5,388.5C 118.97,391.716 124.97,393.883 131.5,395C 185.849,404.818 207.849,382.651 197.5,328.5C 197.5,328.167 197.5,327.833 197.5,327.5C 208.236,326.266 218.903,324.6 229.5,322.5 Z"/></g>
<g><path style="opacity:1" fill="#b17a50" d="M 85.5,343.5 C 86.0967,343.735 86.4301,344.235 86.5,345C 82.5952,359.977 81.5952,375.143 83.5,390.5C 75.5209,389.191 71.5209,384.524 71.5,376.5C 71.5652,371.239 72.7319,366.239 75,361.5C 78.2593,355.308 81.7593,349.308 85.5,343.5 Z"/></g>
<g><path style="opacity:1" fill="#c69572" d="M 260.5,360.5 C 261.674,361.514 262.34,362.847 262.5,364.5C 264.065,370.378 264.732,376.378 264.5,382.5C 262.939,386.549 259.939,389.049 255.5,390C 251.833,390.667 248.167,390.667 244.5,390C 242.68,389.8 241.347,388.966 240.5,387.5C 248.16,387.592 253.66,384.259 257,377.5C 257.333,371.833 257.667,366.167 258,360.5C 258.77,359.402 259.603,359.402 260.5,360.5 Z"/></g>
<g><path style="opacity:1" fill="#c79773" d="M 97.5,358.5 C 96.6756,370.061 100.676,379.395 109.5,386.5C 109.279,393.901 112.279,400.068 118.5,405C 125.485,409.658 132.818,413.491 140.5,416.5C 124.815,415.226 111.648,408.892 101,397.5C 97.709,391.383 95.5423,384.883 94.5,378C 95.4,371.349 96.4,364.849 97.5,358.5 Z"/></g>
<g><path style="opacity:1" fill="#7e5f49" d="M 262.5,364.5 C 265.48,370.272 266.147,376.272 264.5,382.5C 264.732,376.378 264.065,370.378 262.5,364.5 Z"/></g>
<g><path style="opacity:1" fill="#9c663e" d="M 234.5,400.5 C 235.104,414.42 232.937,428.086 228,441.5C 220.905,446.564 213.405,447.564 205.5,444.5C 213.266,442.526 219.432,438.193 224,431.5C 228.203,421.392 231.703,411.059 234.5,400.5 Z"/></g>
<g><path style="opacity:1" fill="#b98055" d="M 110.5,421.5 C 117.149,427.629 124.316,433.296 132,438.5C 133.202,440.677 133.702,443.011 133.5,445.5C 127.233,447.301 121.399,446.301 116,442.5C 112.1,435.058 109.1,427.391 107,419.5C 108.113,420.305 109.279,420.972 110.5,421.5 Z"/></g>
<g><path style="opacity:1" fill="#9d663e" d="M 110.5,421.5 C 121.523,426.464 133.023,429.798 145,431.5C 145.409,439.596 141.575,444.262 133.5,445.5C 133.702,443.011 133.202,440.677 132,438.5C 124.316,433.296 117.149,427.629 110.5,421.5 Z"/></g>
</svg>
