<?xml version="1.0" encoding="UTF-8"?>
<!DOCTYPE svg PUBLIC "-//W3C//DTD SVG 1.1//EN" "http://www.w3.org/Graphics/SVG/1.1/DTD/svg11.dtd">
<svg xmlns="http://www.w3.org/2000/svg" version="1.1" width="450px" height="523px" style="shape-rendering:geometricPrecision; text-rendering:geometricPrecision; image-rendering:optimizeQuality; fill-rule:evenodd; clip-rule:evenodd" xmlns:xlink="http://www.w3.org/1999/xlink">
<g><path style="opacity:0.95" fill="#020101" d="M 222.5,64.5 C 244.449,62.7558 262.949,69.7558 278,85.5C 290.3,102.268 290.634,119.268 279,136.5C 276.106,139.361 272.939,141.861 269.5,144C 301.098,182.127 311.265,225.293 300,273.5C 294.756,289.319 284.59,301.486 269.5,310C 261.147,314.118 252.48,317.452 243.5,320C 257.078,329.326 267.245,341.493 274,356.5C 280.996,369.175 280.996,381.842 274,394.5C 267.596,402.536 259.262,406.869 249,407.5C 247.851,420.062 245.517,432.396 242,444.5C 238.611,451.554 233.111,456.054 225.5,458C 212.731,461.737 201.231,459.57 191,451.5C 187.435,445.537 184.268,439.37 181.5,433C 174.174,432.5 166.841,432.334 159.5,432.5C 158.676,447.336 151.009,456.17 136.5,459C 123.749,461.942 112.916,458.775 104,449.5C 97.2872,435.696 91.9538,421.363 88,406.5C 83.2112,405.636 78.5446,404.302 74,402.5C 73.6667,402.833 73.3333,403.167 73,403.5C 61.1027,395.971 56.1027,385.304 58,371.5C 63.4071,350.84 74.2404,333.674 90.5,320C 52.0727,306.854 32.7393,279.854 32.5,239C 33.9707,209.09 42.9707,181.757 59.5,157C 37.0396,143.071 31.8729,124.238 44,100.5C 58.0921,81.5371 76.9254,72.3704 100.5,73C 119.266,77.9928 130.1,90.1595 133,109.5C 138.695,107.828 144.529,106.661 150.5,106C 163.519,105.289 176.519,105.455 189.5,106.5C 190.507,84.4222 201.507,70.4222 222.5,64.5 Z"/></g>
<g><path style="opacity:1" fill="#bc8256" d="M 259.5,89.5 C 263.447,105.145 261.78,120.145 254.5,134.5C 250.366,135.406 246.866,137.406 244,140.5C 243.422,147.923 246.922,151.423 254.5,151C 265.73,161.963 274.064,174.797 279.5,189.5C 285.636,220.868 279.469,249.534 261,275.5C 253.85,283.818 245.35,290.318 235.5,295C 220.458,301.183 205.125,306.016 189.5,309.5C 187.938,309.733 186.605,310.4 185.5,311.5C 178.679,310.671 171.679,310.171 164.5,310C 183.792,304.953 191.625,292.453 188,272.5C 186.893,266.961 184.726,261.961 181.5,257.5C 186.822,260.11 192.489,261.11 198.5,260.5C 193.916,271.25 196.916,279.083 207.5,284C 221.575,286.549 231.408,281.382 237,268.5C 237.555,255.886 231.389,249.552 218.5,249.5C 216.41,249.573 214.41,249.906 212.5,250.5C 221.344,233.366 217.01,220.866 199.5,213C 185.069,210.286 175.402,215.786 170.5,229.5C 169.352,233.981 169.185,238.648 170,243.5C 170.383,244.056 170.883,244.389 171.5,244.5C 172.234,245.708 172.567,247.041 172.5,248.5C 154.938,236.718 135.938,233.885 115.5,240C 113.416,240.697 111.749,241.864 110.5,243.5C 108.938,243.733 107.605,244.4 106.5,245.5C 106.5,244.833 106.5,244.167 106.5,243.5C 107.163,241.527 107.496,239.361 107.5,237C 107.672,233.523 107.006,230.356 105.5,227.5C 95.5778,211.962 84.0778,210.629 71,223.5C 66.2375,233.31 66.4042,242.976 71.5,252.5C 68.272,251.586 64.9387,251.253 61.5,251.5C 60.3797,232.379 62.8797,213.713 69,195.5C 69.3826,194.944 69.8826,194.611 70.5,194.5C 70.9731,195.906 71.9731,196.573 73.5,196.5C 79.0066,200.065 85.1732,202.399 92,203.5C 99.7188,202.78 104.219,198.614 105.5,191C 105.01,188.497 103.677,186.497 101.5,185C 92.8397,184.5 84.1731,184.334 75.5,184.5C 75.1667,184.5 74.8333,184.5 74.5,184.5C 78.7956,173.691 84.9623,164.025 93,155.5C 104.387,144.903 116.553,135.403 129.5,127C 125.895,127.784 122.228,128.617 118.5,129.5C 127.62,125.243 137.287,122.577 147.5,121.5C 157.482,120.743 167.482,120.41 177.5,120.5C 182.874,120.523 188.207,121.023 193.5,122C 194.928,124.185 196.595,126.185 198.5,128C 204.69,129.581 208.024,127.248 208.5,121C 204.351,110.755 204.518,100.588 209,90.5C 212.315,86.1818 216.481,83.0152 221.5,81C 235.369,78.9382 248.036,81.7715 259.5,89.5 Z"/></g>
<g><path style="opacity:1" fill="#b88055" d="M 101.5,88.5 C 102.101,91.705 103.268,94.705 105,97.5C 105.499,101.821 105.666,106.154 105.5,110.5C 104.194,108.527 102.527,106.861 100.5,105.5C 88.8108,98.6712 78.6441,100.671 70,111.5C 67.2283,119.027 68.395,125.86 73.5,132C 76.1019,133.14 78.7686,133.973 81.5,134.5C 77.8099,138.189 73.8099,141.522 69.5,144.5C 61.1194,142.12 55.7861,136.786 53.5,128.5C 53.2099,122.678 53.8766,117.012 55.5,111.5C 62.4162,99.353 72.7495,91.5197 86.5,88C 91.5523,87.2742 96.5523,87.4409 101.5,88.5 Z"/></g>
<g><path style="opacity:1" fill="#96623c" d="M 101.5,88.5 C 113.263,93.6931 118.596,102.693 117.5,115.5C 113.438,116.632 109.438,117.965 105.5,119.5C 106.775,116.396 106.775,113.396 105.5,110.5C 105.666,106.154 105.499,101.821 105,97.5C 103.268,94.705 102.101,91.705 101.5,88.5 Z"/></g>
<g><path style="opacity:1" fill="#9a643d" d="M 259.5,89.5 C 275.257,101.571 276.59,115.071 263.5,130C 260.757,132.038 257.757,133.538 254.5,134.5C 261.78,120.145 263.447,105.145 259.5,89.5 Z"/></g>
<g><path style="opacity:1" fill="#fab97e" d="M 234.5,93.5 C 227.171,104.697 226.504,116.363 232.5,128.5C 222.713,126.758 218.046,120.925 218.5,111C 218.755,100.576 224.089,94.7428 234.5,93.5 Z"/></g>
<g><path style="opacity:1" fill="#fccea4" d="M 234.5,93.5 C 246.365,93.2215 253.698,98.7215 256.5,110C 253.64,122.618 245.64,128.785 232.5,128.5C 226.504,116.363 227.171,104.697 234.5,93.5 Z"/></g>
<g><path style="opacity:1" fill="#f9cca2" d="M 100.5,105.5 C 100.625,111.203 100.292,116.87 99.5,122.5C 93.2509,126.074 87.2509,130.074 81.5,134.5C 78.7686,133.973 76.1019,133.14 73.5,132C 68.395,125.86 67.2283,119.027 70,111.5C 78.6441,100.671 88.8108,98.6712 100.5,105.5 Z"/></g>
<g><path style="opacity:1" fill="#f0b27a" d="M 100.5,105.5 C 102.527,106.861 104.194,108.527 105.5,110.5C 106.775,113.396 106.775,116.396 105.5,119.5C 103.544,120.478 101.544,121.478 99.5,122.5C 100.292,116.87 100.625,111.203 100.5,105.5 Z"/></g>
<g><path style="opacity:1" fill="#63442d" d="M 55.5,111.5 C 53.8766,117.012 53.2099,122.678 53.5,128.5C 52.3547,124.689 52.1881,120.689 53,116.5C 53.3736,114.509 54.207,112.842 55.5,111.5 Z"/></g>
<g><path style="opacity:1" fill="#65462e" d="M 177.5,120.5 C 167.482,120.41 157.482,120.743 147.5,121.5C 153.434,120.037 159.601,119.37 166,119.5C 170.015,119.501 173.849,119.835 177.5,120.5 Z"/></g>
<g><path style="opacity:1" fill="#c69572" d="M 74.5,184.5 C 70.9088,186.782 69.5755,190.116 70.5,194.5C 69.8826,194.611 69.3826,194.944 69,195.5C 62.8797,213.713 60.3797,232.379 61.5,251.5C 56.5076,253.497 52.8409,256.831 50.5,261.5C 49.2885,255.229 48.6218,248.896 48.5,242.5C 48.5015,235.48 48.8348,228.48 49.5,221.5C 54.3228,187.174 70.6562,159.674 98.5,139C 104.774,135.03 111.441,131.863 118.5,129.5C 122.228,128.617 125.895,127.784 129.5,127C 116.553,135.403 104.387,144.903 93,155.5C 84.9623,164.025 78.7956,173.691 74.5,184.5 Z"/></g>
<g><path style="opacity:1" fill="#291c13" d="M 174.5,181.5 C 185.172,181.333 195.839,181.5 206.5,182C 209.349,184.559 210.183,187.726 209,191.5C 199.593,198.414 189.093,201.247 177.5,200C 171.675,196.849 169.175,192.015 170,185.5C 171.397,183.93 172.897,182.596 174.5,181.5 Z"/></g>
<g><path style="opacity:1" fill="#6d4f38" d="M 74.5,184.5 C 74.8333,184.5 75.1667,184.5 75.5,184.5C 71.1492,187.938 70.4825,191.938 73.5,196.5C 71.9731,196.573 70.9731,195.906 70.5,194.5C 69.5755,190.116 70.9088,186.782 74.5,184.5 Z"/></g>
<g><path style="opacity:1" fill="#291c13" d="M 75.5,184.5 C 84.1731,184.334 92.8397,184.5 101.5,185C 103.677,186.497 105.01,188.497 105.5,191C 104.219,198.614 99.7188,202.78 92,203.5C 85.1732,202.399 79.0066,200.065 73.5,196.5C 70.4825,191.938 71.1492,187.938 75.5,184.5 Z"/></g>
<g><path style="opacity:1" fill="#9a643d" d="M 279.5,189.5 C 291.533,214.922 293.7,241.255 286,268.5C 278.151,287.195 264.318,299.029 244.5,304C 226.42,308.265 208.087,310.098 189.5,309.5C 205.125,306.016 220.458,301.183 235.5,295C 245.35,290.318 253.85,283.818 261,275.5C 279.469,249.534 285.636,220.868 279.5,189.5 Z"/></g>
<g><path style="opacity:1" fill="#040201" d="M 212.5,250.5 C 208.465,254.839 203.798,258.172 198.5,260.5C 192.489,261.11 186.822,260.11 181.5,257.5C 180.5,256.833 179.5,256.167 178.5,255.5C 176.471,253.142 174.471,250.808 172.5,248.5C 172.567,247.041 172.234,245.708 171.5,244.5C 170.608,239.562 170.274,234.562 170.5,229.5C 175.402,215.786 185.069,210.286 199.5,213C 217.01,220.866 221.344,233.366 212.5,250.5 Z"/></g>
<g><path style="opacity:1" fill="#040202" d="M 105.5,227.5 C 106.275,232.797 106.608,238.13 106.5,243.5C 106.5,244.167 106.5,244.833 106.5,245.5C 104.453,251.294 100.787,255.628 95.5,258.5C 90.8809,259.314 86.2142,259.647 81.5,259.5C 77.6873,258.048 74.354,255.714 71.5,252.5C 66.4042,242.976 66.2375,233.31 71,223.5C 84.0778,210.629 95.5778,211.962 105.5,227.5 Z"/></g>
<g><path style="opacity:1" fill="#6e4c32" d="M 170.5,229.5 C 170.274,234.562 170.608,239.562 171.5,244.5C 170.883,244.389 170.383,244.056 170,243.5C 169.185,238.648 169.352,233.981 170.5,229.5 Z"/></g>
<g><path style="opacity:1" fill="#463528" d="M 49.5,221.5 C 48.8348,228.48 48.5015,235.48 48.5,242.5C 47.1039,235.436 47.4373,228.436 49.5,221.5 Z"/></g>
<g><path style="opacity:1" fill="#f8cca2" d="M 172.5,248.5 C 174.471,250.808 176.471,253.142 178.5,255.5C 180.604,278.41 172.271,296.243 153.5,309C 146.254,310.391 138.921,310.891 131.5,310.5C 124.354,309.384 117.02,308.717 109.5,308.5C 107.379,308.675 105.379,308.341 103.5,307.5C 101.527,306.194 99.8606,304.527 98.5,302.5C 94.6996,281.193 99.3662,261.693 112.5,244C 111.906,243.536 111.239,243.369 110.5,243.5C 111.749,241.864 113.416,240.697 115.5,240C 135.938,233.885 154.938,236.718 172.5,248.5 Z"/></g>
<g><path style="opacity:1" fill="#3d2a1c" d="M 105.5,227.5 C 107.006,230.356 107.672,233.523 107.5,237C 107.496,239.361 107.163,241.527 106.5,243.5C 106.608,238.13 106.275,232.797 105.5,227.5 Z"/></g>
<g><path style="opacity:1" fill="#866e58" d="M 139.5,242.5 C 133.441,242.254 127.441,242.587 121.5,243.5C 121.611,242.883 121.944,242.383 122.5,242C 128.349,241.182 134.015,241.348 139.5,242.5 Z"/></g>
<g><path style="opacity:1" fill="#0c0907" d="M 139.5,242.5 C 145.194,244.412 146.694,248.079 144,253.5C 141.961,255.874 139.628,257.874 137,259.5C 136.333,261.833 136.333,264.167 137,266.5C 137.708,267.381 138.542,268.047 139.5,268.5C 142.04,270.413 144.707,270.746 147.5,269.5C 149.591,267.543 151.591,265.377 153.5,263C 157.755,261.766 160.422,263.266 161.5,267.5C 158.066,278.061 150.733,282.228 139.5,280C 137,279.167 134.5,278.333 132,277.5C 125.749,281.032 119.249,281.865 112.5,280C 107.412,276.335 105.245,271.502 106,265.5C 111.368,262.045 115.202,263.378 117.5,269.5C 120.567,271.052 123.067,270.385 125,267.5C 125.821,264.446 125.655,261.446 124.5,258.5C 119.437,255.966 117.27,251.966 118,246.5C 119.039,245.29 120.206,244.29 121.5,243.5C 127.441,242.587 133.441,242.254 139.5,242.5 Z"/></g>
<g><path style="opacity:1" fill="#fadcc0" d="M 110.5,243.5 C 111.239,243.369 111.906,243.536 112.5,244C 99.3662,261.693 94.6996,281.193 98.5,302.5C 96.9699,301.789 95.6366,300.789 94.5,299.5C 88.3333,289.818 87.1667,279.484 91,268.5C 92.7887,265.259 94.2887,261.926 95.5,258.5C 100.787,255.628 104.453,251.294 106.5,245.5C 107.605,244.4 108.938,243.733 110.5,243.5 Z"/></g>
<g><path style="opacity:1" fill="#424242" d="M 125.5,243.5 C 129.099,242.938 131.099,244.438 131.5,248C 130.458,253.023 127.458,254.69 122.5,253C 120.603,248.828 121.603,245.662 125.5,243.5 Z"/></g>
<g><path style="opacity:1" fill="#e3806e" d="M 198.5,260.5 C 203.798,258.172 208.465,254.839 212.5,250.5C 214.41,249.906 216.41,249.573 218.5,249.5C 231.389,249.552 237.555,255.886 237,268.5C 231.408,281.382 221.575,286.549 207.5,284C 196.916,279.083 193.916,271.25 198.5,260.5 Z"/></g>
<g><path style="opacity:1" fill="#e48371" d="M 61.5,251.5 C 64.9387,251.253 68.272,251.586 71.5,252.5C 74.354,255.714 77.6873,258.048 81.5,259.5C 88.644,268.027 87.644,275.861 78.5,283C 76.9751,284.009 75.3084,284.509 73.5,284.5C 68.8986,284.945 64.5653,284.278 60.5,282.5C 55.8529,276.203 52.5196,269.203 50.5,261.5C 52.8409,256.831 56.5076,253.497 61.5,251.5 Z"/></g>
<g><path style="opacity:1" fill="#fab97e" d="M 178.5,255.5 C 179.5,256.167 180.5,256.833 181.5,257.5C 184.726,261.961 186.893,266.961 188,272.5C 191.625,292.453 183.792,304.953 164.5,310C 171.679,310.171 178.679,310.671 185.5,311.5C 182.359,316.272 183.359,320.106 188.5,323C 190.81,323.497 193.143,323.663 195.5,323.5C 196.73,325.297 197.396,327.297 197.5,329.5C 172.405,331.391 147.405,330.557 122.5,327C 120.563,326.878 119.23,326.045 118.5,324.5C 123.511,324.666 128.511,324.499 133.5,324C 134.056,323.617 134.389,323.117 134.5,322.5C 137.772,317.33 136.772,313.33 131.5,310.5C 138.921,310.891 146.254,310.391 153.5,309C 172.271,296.243 180.604,278.41 178.5,255.5 Z"/></g>
<g><path style="opacity:1" fill="#bb8257" d="M 95.5,258.5 C 94.2887,261.926 92.7887,265.259 91,268.5C 87.1667,279.484 88.3333,289.818 94.5,299.5C 94.6309,300.376 94.2975,301.043 93.5,301.5C 85.5631,297.222 78.8964,291.555 73.5,284.5C 75.3084,284.509 76.9751,284.009 78.5,283C 87.644,275.861 88.644,268.027 81.5,259.5C 86.2142,259.647 90.8809,259.314 95.5,258.5 Z"/></g>
<g><path style="opacity:1" fill="#6d5a48" d="M 139.5,268.5 C 142.167,268.833 144.833,269.167 147.5,269.5C 144.707,270.746 142.04,270.413 139.5,268.5 Z"/></g>
<g><path style="opacity:1" fill="#bf906e" d="M 60.5,282.5 C 64.5653,284.278 68.8986,284.945 73.5,284.5C 78.8964,291.555 85.5631,297.222 93.5,301.5C 94.2975,301.043 94.6309,300.376 94.5,299.5C 95.6366,300.789 96.9699,301.789 98.5,302.5C 99.8606,304.527 101.527,306.194 103.5,307.5C 85.5787,305.049 71.2453,296.716 60.5,282.5 Z"/></g>
<g><path style="opacity:1" fill="#745e4a" d="M 109.5,308.5 C 117.02,308.717 124.354,309.384 131.5,310.5C 123.937,310.772 116.603,310.105 109.5,308.5 Z"/></g>
<g><path style="opacity:1" fill="#fcdec3" d="M 107.5,323.5 C 110.059,323.198 112.393,323.532 114.5,324.5C 115.209,325.404 116.209,325.737 117.5,325.5C 114.354,336.752 111.52,348.085 109,359.5C 107.101,370.123 108.935,379.956 114.5,389C 114.272,389.399 113.938,389.565 113.5,389.5C 112.167,388.833 110.833,388.167 109.5,387.5C 100.676,380.395 96.6756,371.061 97.5,359.5C 99.0097,346.974 102.343,334.974 107.5,323.5 Z"/></g>
<g><path style="opacity:1" fill="#7f6146" d="M 107.5,323.5 C 116.369,323.38 125.369,323.047 134.5,322.5C 134.389,323.117 134.056,323.617 133.5,324C 128.511,324.499 123.511,324.666 118.5,324.5C 117.167,324.5 115.833,324.5 114.5,324.5C 112.393,323.532 110.059,323.198 107.5,323.5 Z"/></g>
<g><path style="opacity:1" fill="#fccfa5" d="M 114.5,324.5 C 115.833,324.5 117.167,324.5 118.5,324.5C 119.23,326.045 120.563,326.878 122.5,327C 147.405,330.557 172.405,331.391 197.5,329.5C 207.849,383.651 185.849,405.818 131.5,396C 124.97,394.883 118.97,392.716 113.5,389.5C 113.938,389.565 114.272,389.399 114.5,389C 108.935,379.956 107.101,370.123 109,359.5C 111.52,348.085 114.354,336.752 117.5,325.5C 116.209,325.737 115.209,325.404 114.5,324.5 Z"/></g>
<g><path style="opacity:1" fill="#bb8256" d="M 258.5,358.5 C 257.892,365.732 257.059,373.065 256,380.5C 251.814,385.676 246.314,388.342 239.5,388.5C 232.471,383.968 226.971,377.968 223,370.5C 217.804,360.393 214.137,349.726 212,338.5C 208.254,334.607 204.588,334.607 201,338.5C 201.046,349.644 203.379,360.311 208,370.5C 212.506,378.18 217.506,385.513 223,392.5C 226.41,396.112 230.244,399.112 234.5,401.5C 231.415,412.922 227.249,423.922 222,434.5C 217.6,439.751 212.1,443.084 205.5,444.5C 203.629,444.141 202.129,443.141 201,441.5C 195.421,431.431 191.421,420.765 189,409.5C 184.951,404.182 180.951,404.182 177,409.5C 176.272,412.23 176.438,414.897 177.5,417.5C 165.059,418.979 152.726,418.645 140.5,416.5C 132.818,413.491 125.485,409.658 118.5,405C 112.578,400.318 109.578,394.485 109.5,387.5C 110.833,388.167 112.167,388.833 113.5,389.5C 118.97,392.716 124.97,394.883 131.5,396C 185.849,405.818 207.849,383.651 197.5,329.5C 197.396,327.297 196.73,325.297 195.5,323.5C 206.871,323.178 218.204,323.178 229.5,323.5C 231.297,325.131 232.464,327.131 233,329.5C 244.222,336.881 252.722,346.548 258.5,358.5 Z"/></g>
<g><path style="opacity:1" fill="#af784f" d="M 85.5,344.5 C 86.0967,344.735 86.4301,345.235 86.5,346C 84.7764,352.73 83.6097,359.564 83,366.5C 82.6761,374.91 82.5094,383.244 82.5,391.5C 71.0893,385.898 68.2559,377.232 74,365.5C 77.8579,358.446 81.6913,351.446 85.5,344.5 Z"/></g>
<g><path style="opacity:1" fill="#c59571" d="M 258.5,358.5 C 263.488,366.004 265.321,374.337 264,383.5C 262.668,385.66 261.168,387.66 259.5,389.5C 255.326,391.064 250.993,391.731 246.5,391.5C 243.759,391.293 241.426,390.293 239.5,388.5C 246.314,388.342 251.814,385.676 256,380.5C 257.059,373.065 257.892,365.732 258.5,358.5 Z"/></g>
<g><path style="opacity:1" fill="#c79773" d="M 97.5,359.5 C 96.6756,371.061 100.676,380.395 109.5,387.5C 109.578,394.485 112.578,400.318 118.5,405C 125.485,409.658 132.818,413.491 140.5,416.5C 124.815,415.226 111.648,408.892 101,397.5C 97.839,391.684 95.6723,385.517 94.5,379C 95.4,372.349 96.4,365.849 97.5,359.5 Z"/></g>
<g><path style="opacity:1" fill="#413125" d="M 259.5,389.5 C 258.653,390.966 257.32,391.8 255.5,392C 252.304,392.805 249.304,392.638 246.5,391.5C 250.993,391.731 255.326,391.064 259.5,389.5 Z"/></g>
<g><path style="opacity:1" fill="#9c663e" d="M 234.5,401.5 C 235.009,415.078 232.843,428.411 228,441.5C 220.905,446.564 213.405,447.564 205.5,444.5C 212.1,443.084 217.6,439.751 222,434.5C 227.249,423.922 231.415,412.922 234.5,401.5 Z"/></g>
<g><path style="opacity:1" fill="#b98055" d="M 110.5,421.5 C 117.149,427.629 124.316,433.296 132,438.5C 133.202,440.677 133.702,443.011 133.5,445.5C 127.233,447.301 121.399,446.301 116,442.5C 112.1,435.058 109.1,427.391 107,419.5C 108.113,420.305 109.279,420.972 110.5,421.5 Z"/></g>
<g><path style="opacity:1" fill="#9d663e" d="M 110.5,421.5 C 121.523,426.464 133.023,429.798 145,431.5C 145.409,439.596 141.575,444.262 133.5,445.5C 133.702,443.011 133.202,440.677 132,438.5C 124.316,433.296 117.149,427.629 110.5,421.5 Z"/></g>
</svg>
