<?xml version="1.0" encoding="UTF-8"?>
<!DOCTYPE svg PUBLIC "-//W3C//DTD SVG 1.1//EN" "http://www.w3.org/Graphics/SVG/1.1/DTD/svg11.dtd">
<svg xmlns="http://www.w3.org/2000/svg" version="1.1" width="450px" height="523px" style="shape-rendering:geometricPrecision; text-rendering:geometricPrecision; image-rendering:optimizeQuality; fill-rule:evenodd; clip-rule:evenodd" xmlns:xlink="http://www.w3.org/1999/xlink">
<g><path style="opacity:0.943" fill="#030201" d="M 201.5,59.5 C 222.573,59.002 239.74,66.6687 253,82.5C 261.935,99.1551 261.269,114.822 251,129.5C 248.515,130.987 246.348,132.821 244.5,135C 272.82,161.598 289.153,194.265 293.5,233C 293.267,241.784 292.433,250.617 291,259.5C 290.14,264.388 288.307,268.888 285.5,273C 285.242,276.122 283.575,278.789 280.5,281C 280.833,281.333 281.167,281.667 281.5,282C 271.22,295.347 258.22,305.18 242.5,311.5C 255.451,317.255 267.285,324.922 278,334.5C 286.016,342.648 290.516,352.148 291.5,363C 288.529,379.136 278.862,388.303 262.5,390.5C 260.169,390.55 258.003,390.217 256,389.5C 249.823,399.697 245.823,410.697 244,422.5C 240.641,432.905 236.308,442.905 231,452.5C 228.54,453.958 226.373,455.791 224.5,458C 220.468,459.571 216.634,460.737 213,461.5C 205.922,460.891 198.756,459.724 191.5,458C 181.351,452.144 176.017,443.644 175.5,432.5C 168.492,432.334 161.492,432.5 154.5,433C 147.151,457.504 131.484,465.837 107.5,458C 101.081,455.25 96.248,450.75 93,444.5C 88.9726,430.331 86.4726,415.998 85.5,401.5C 64.6074,405.476 50.9408,397.309 44.5,377C 45.8177,363.195 51.651,351.361 62,341.5C 67.1935,337.304 72.0268,332.804 76.5,328C 51.4704,320.303 34.637,304.136 26,279.5C 22.7357,269.207 20.569,258.707 19.5,248C 21.1461,242.311 21.4794,236.477 20.5,230.5C 21.1667,228.5 21.8333,226.5 22.5,224.5C 22.4336,221.3 22.4336,218.133 22.5,215C 23.3468,212.282 24.3468,209.616 25.5,207C 25.0426,206.586 24.7093,206.086 24.5,205.5C 26.1812,203.008 26.8479,200.508 26.5,198C 30.2134,188.796 33.8801,179.963 37.5,171.5C 18.4204,163.152 10.0871,148.819 12.5,128.5C 20.0171,104.482 36.0171,89.6485 60.5,84C 84.398,82.5797 99.2313,93.413 105,116.5C 108.389,114.776 111.889,113.276 115.5,112C 130.63,108.525 145.963,106.692 161.5,106.5C 161.756,104.208 161.423,102.041 160.5,100C 161.227,97.876 161.894,95.7094 162.5,93.5C 161.938,90.5681 162.604,87.7347 164.5,85C 164.167,84.6667 163.833,84.3333 163.5,84C 166.306,80.8862 168.473,77.3862 170,73.5C 179.001,65.3012 189.501,60.6346 201.5,59.5 Z"/></g>
<g><path style="opacity:1" fill="#3c2a1c" d="M 208.5,75.5 C 203.797,75.4372 199.13,75.7705 194.5,76.5C 196.807,74.9532 199.473,74.2865 202.5,74.5C 204.696,74.5046 206.696,74.838 208.5,75.5 Z"/></g>
<g><path style="opacity:1" fill="#bb8256" d="M 208.5,75.5 C 215.751,75.696 222.418,77.696 228.5,81.5C 233.248,91.5886 234.748,102.255 233,113.5C 231.893,117.88 230.726,122.213 229.5,126.5C 226.277,128.364 223.11,130.364 220,132.5C 218.702,140.537 222.202,144.037 230.5,143C 245.451,154.771 256.784,169.271 264.5,186.5C 265.979,202.184 265.812,217.851 264,233.5C 260.276,255.123 249.776,272.623 232.5,286C 218.343,294.352 203.677,301.518 188.5,307.5C 184.981,307.259 182.315,308.593 180.5,311.5C 180.209,310.351 179.376,309.684 178,309.5C 173.188,310.57 168.355,311.07 163.5,311C 180.801,301.228 185.634,287.062 178,268.5C 175.44,263.364 171.94,259.031 167.5,255.5C 153.712,243.752 137.712,239.585 119.5,243C 111.906,243.972 105.239,246.805 99.5,251.5C 97.5201,252.484 95.8534,253.817 94.5,255.5C 96.6149,250.162 95.6149,245.662 91.5,242C 83.81,237.488 75.81,233.488 67.5,230C 61.8984,227.225 57.065,228.058 53,232.5C 52.245,235.303 52.5783,237.97 54,240.5C 59.7605,244.633 65.9272,248.133 72.5,251C 68.2877,253.711 64.9544,257.211 62.5,261.5C 61.5655,262.568 61.2322,263.901 61.5,265.5C 57.8663,264.242 54.1996,264.242 50.5,265.5C 47.6571,248.09 47.9904,230.757 51.5,213.5C 60.4344,216.516 69.101,215.683 77.5,211C 82.2114,206.86 83.7114,201.694 82,195.5C 80.2568,193.129 77.9234,191.795 75,191.5C 68.0448,194.959 61.2115,198.626 54.5,202.5C 59.0435,184.515 67.5435,168.848 80,155.5C 87.8703,147.961 96.0369,140.794 104.5,134C 103.181,133.805 101.847,133.972 100.5,134.5C 110.71,128.917 121.71,125.25 133.5,123.5C 140.374,123.479 147.041,122.813 153.5,121.5C 158.544,121.173 163.544,121.506 168.5,122.5C 171.944,127.017 176.111,127.684 181,124.5C 181.667,121.5 181.667,118.5 181,115.5C 175.792,106.583 175.125,97.2496 179,87.5C 182.757,81.7167 187.923,78.0501 194.5,76.5C 199.13,75.7705 203.797,75.4372 208.5,75.5 Z"/></g>
<g><path style="opacity:1" fill="#99633d" d="M 228.5,81.5 C 243.527,89.4202 247.694,101.087 241,116.5C 238.212,121.127 234.378,124.461 229.5,126.5C 230.726,122.213 231.893,117.88 233,113.5C 234.748,102.255 233.248,91.5886 228.5,81.5 Z"/></g>
<g><path style="opacity:1" fill="#fccea4" d="M 204.5,88.5 C 216.466,86.9757 224.466,91.809 228.5,103C 226.197,115.134 218.863,121.967 206.5,123.5C 200.954,115.017 199.12,105.683 201,95.5C 202.18,93.1401 203.347,90.8068 204.5,88.5 Z"/></g>
<g><path style="opacity:1" fill="#f9b97e" d="M 204.5,88.5 C 203.347,90.8068 202.18,93.1401 201,95.5C 199.12,105.683 200.954,115.017 206.5,123.5C 195.511,122.41 190.178,116.244 190.5,105C 190.652,95.6809 195.318,90.1809 204.5,88.5 Z"/></g>
<g><path style="opacity:1" fill="#b98055" d="M 71.5,99.5 C 76.0098,105.696 78.3431,112.696 78.5,120.5C 77.135,118.14 75.135,116.473 72.5,115.5C 59.9683,110.675 50.1349,114.009 43,125.5C 40.6635,137.178 45.1635,144.511 56.5,147.5C 53.3886,151.406 50.0553,155.073 46.5,158.5C 31.7582,154.357 25.5916,144.691 28,129.5C 34.9697,112.198 47.6363,101.865 66,98.5C 67.9238,98.5811 69.7571,98.9144 71.5,99.5 Z"/></g>
<g><path style="opacity:1" fill="#98633d" d="M 71.5,99.5 C 80.6361,101.798 86.8027,107.464 90,116.5C 90.8141,118.902 90.6474,121.235 89.5,123.5C 86.6339,125.432 83.6339,127.099 80.5,128.5C 80.4403,125.659 79.7736,122.993 78.5,120.5C 78.3431,112.696 76.0098,105.696 71.5,99.5 Z"/></g>
<g><path style="opacity:1" fill="#facda3" d="M 72.5,115.5 C 73.6696,121.512 73.6696,127.512 72.5,133.5C 66.8959,137.765 61.5626,142.432 56.5,147.5C 45.1635,144.511 40.6635,137.178 43,125.5C 50.1349,114.009 59.9683,110.675 72.5,115.5 Z"/></g>
<g><path style="opacity:1" fill="#f5b67e" d="M 72.5,115.5 C 75.135,116.473 77.135,118.14 78.5,120.5C 79.7736,122.993 80.4403,125.659 80.5,128.5C 77.8333,130.167 75.1667,131.833 72.5,133.5C 73.6696,127.512 73.6696,121.512 72.5,115.5 Z"/></g>
<g><path style="opacity:1" fill="#745035" d="M 153.5,121.5 C 147.041,122.813 140.374,123.479 133.5,123.5C 139.928,121.874 146.595,121.207 153.5,121.5 Z"/></g>
<g><path style="opacity:1" fill="#c59572" d="M 54.5,202.5 C 50.6025,205.301 49.6025,208.967 51.5,213.5C 47.9904,230.757 47.6571,248.09 50.5,265.5C 49.1516,266.601 47.6516,267.601 46,268.5C 45.0467,270.455 43.7134,272.122 42,273.5C 41.5172,274.448 41.3505,275.448 41.5,276.5C 31.7001,241.861 35.2001,208.528 52,176.5C 63.7466,157.244 79.9132,143.244 100.5,134.5C 101.847,133.972 103.181,133.805 104.5,134C 96.0369,140.794 87.8703,147.961 80,155.5C 67.5435,168.848 59.0435,184.515 54.5,202.5 Z"/></g>
<g><path style="opacity:1" fill="#2a1d13" d="M 159.5,179.5 C 170.14,180.244 180.473,182.41 190.5,186C 196.839,189.735 197.172,194.069 191.5,199C 182.875,200.419 174.208,200.752 165.5,200C 158.577,196.653 155.41,191.153 156,183.5C 156.69,181.65 157.856,180.316 159.5,179.5 Z"/></g>
<g><path style="opacity:1" fill="#9b653e" d="M 264.5,186.5 C 277.156,210.933 280.323,236.6 274,263.5C 266.968,279.053 255.468,289.886 239.5,296C 223.074,302.185 206.074,306.018 188.5,307.5C 203.677,301.518 218.343,294.352 232.5,286C 249.776,272.623 260.276,255.123 264,233.5C 265.812,217.851 265.979,202.184 264.5,186.5 Z"/></g>
<g><path style="opacity:1" fill="#291c13" d="M 51.5,213.5 C 49.6025,208.967 50.6025,205.301 54.5,202.5C 61.2115,198.626 68.0448,194.959 75,191.5C 77.9234,191.795 80.2568,193.129 82,195.5C 83.7114,201.694 82.2114,206.86 77.5,211C 69.101,215.683 60.4344,216.516 51.5,213.5 Z"/></g>
<g><path style="opacity:1" fill="#060402" d="M 197.5,252.5 C 196.833,253.833 196.167,255.167 195.5,256.5C 191.888,257.511 188.221,257.678 184.5,257C 177.055,254.639 169.721,251.972 162.5,249C 156.703,246.24 154.537,241.74 156,235.5C 158.651,232.57 161.484,229.736 164.5,227C 172.5,221.333 180.5,215.667 188.5,210C 197.166,208.336 201,211.836 200,220.5C 193.552,225.963 187.052,231.297 180.5,236.5C 184.554,239.194 188.888,241.361 193.5,243C 196.962,245.239 198.295,248.406 197.5,252.5 Z"/></g>
<g><path style="opacity:1" fill="#070403" d="M 94.5,255.5 C 87.1426,261.198 79.8093,266.864 72.5,272.5C 68.896,272.951 65.896,271.951 63.5,269.5C 62.7347,266.904 62.4013,264.237 62.5,261.5C 64.9544,257.211 68.2877,253.711 72.5,251C 65.9272,248.133 59.7605,244.633 54,240.5C 52.5783,237.97 52.245,235.303 53,232.5C 57.065,228.058 61.8984,227.225 67.5,230C 75.81,233.488 83.81,237.488 91.5,242C 95.6149,245.662 96.6149,250.162 94.5,255.5 Z"/></g>
<g><path style="opacity:1" fill="#f9cca3" d="M 167.5,255.5 C 172.39,277.059 167.057,295.559 151.5,311C 143.956,314.448 135.956,315.948 127.5,315.5C 118.528,316.347 109.528,316.68 100.5,316.5C 98.5,315.167 96.5,313.833 94.5,312.5C 93.8051,308.055 92.6384,303.722 91,299.5C 89.3014,282.66 92.4681,266.826 100.5,252C 100.272,251.601 99.9382,251.435 99.5,251.5C 105.239,246.805 111.906,243.972 119.5,243C 137.712,239.585 153.712,243.752 167.5,255.5 Z"/></g>
<g><path style="opacity:1" fill="#e3806e" d="M 195.5,256.5 C 196.167,255.167 196.833,253.833 197.5,252.5C 198.163,250.958 198.83,249.291 199.5,247.5C 209.852,242.784 218.685,244.784 226,253.5C 228.428,259.562 227.761,265.228 224,270.5C 215.395,280.757 204.895,283.257 192.5,278C 186.746,272.566 185.079,266.066 187.5,258.5C 189.857,258.663 192.19,258.497 194.5,258C 195.056,257.617 195.389,257.117 195.5,256.5 Z"/></g>
<g><path style="opacity:1" fill="#0b0807" d="M 120.5,247.5 C 123.85,247.335 127.183,247.502 130.5,248C 135.3,251.518 135.8,255.685 132,260.5C 128.805,261.851 126.972,264.185 126.5,267.5C 131.17,268.221 135.837,269.054 140.5,270C 142.587,270.792 144.421,271.959 146,273.5C 145.865,280.808 145.531,288.141 145,295.5C 136.908,308.1 126.075,310.933 112.5,304C 108.255,299.948 105.921,294.948 105.5,289C 98.8633,280.989 100.53,275.489 110.5,272.5C 117.15,269.106 117.15,265.94 110.5,263C 104.938,257.837 105.271,253.171 111.5,249C 114.695,248.819 117.695,248.319 120.5,247.5 Z"/></g>
<g><path style="opacity:1" fill="#434343" d="M 113.5,250.5 C 121.49,251.278 122.49,254.444 116.5,260C 112.798,261.393 110.798,260.226 110.5,256.5C 110.467,253.898 111.467,251.898 113.5,250.5 Z"/></g>
<g><path style="opacity:1" fill="#fcddc1" d="M 99.5,251.5 C 99.9382,251.435 100.272,251.601 100.5,252C 92.4681,266.826 89.3014,282.66 91,299.5C 92.6384,303.722 93.8051,308.055 94.5,312.5C 93.1667,311.833 91.8333,311.167 90.5,310.5C 82.3858,301.385 79.5524,290.718 82,278.5C 83.7949,272.912 86.1282,267.579 89,262.5C 91.4536,260.559 93.287,258.225 94.5,255.5C 95.8534,253.817 97.5201,252.484 99.5,251.5 Z"/></g>
<g><path style="opacity:1" fill="#f9b87d" d="M 167.5,255.5 C 171.94,259.031 175.44,263.364 178,268.5C 185.634,287.062 180.801,301.228 163.5,311C 168.355,311.07 173.188,310.57 178,309.5C 179.376,309.684 180.209,310.351 180.5,311.5C 179.84,320.162 183.84,323.496 192.5,321.5C 193.441,323.05 194.107,324.716 194.5,326.5C 194.833,327.167 195.167,327.833 195.5,328.5C 179.683,329.57 163.85,330.57 148,331.5C 138.841,330.912 129.674,330.579 120.5,330.5C 122.969,329.683 125.635,329.183 128.5,329C 132.557,327.053 134.057,323.886 133,319.5C 130.985,318.303 129.151,316.97 127.5,315.5C 135.956,315.948 143.956,314.448 151.5,311C 167.057,295.559 172.39,277.059 167.5,255.5 Z"/></g>
<g><path style="opacity:1" fill="#bd8459" d="M 94.5,255.5 C 93.287,258.225 91.4536,260.559 89,262.5C 86.1282,267.579 83.7949,272.912 82,278.5C 79.5524,290.718 82.3858,301.385 90.5,310.5C 90.2648,311.097 89.7648,311.43 89,311.5C 80.2193,308.184 72.7193,303.184 66.5,296.5C 76.4522,292.251 79.6188,284.917 76,274.5C 75.1841,273.177 74.0174,272.511 72.5,272.5C 79.8093,266.864 87.1426,261.198 94.5,255.5 Z"/></g>
<g><path style="opacity:1" fill="#e48371" d="M 61.5,265.5 C 61.2291,267.38 61.8958,268.713 63.5,269.5C 65.896,271.951 68.896,272.951 72.5,272.5C 74.0174,272.511 75.1841,273.177 76,274.5C 79.6188,284.917 76.4522,292.251 66.5,296.5C 62.1516,297.754 57.8183,297.754 53.5,296.5C 47.9848,290.813 43.9848,284.146 41.5,276.5C 41.3505,275.448 41.5172,274.448 42,273.5C 43.7134,272.122 45.0467,270.455 46,268.5C 47.6516,267.601 49.1516,266.601 50.5,265.5C 54.1996,264.242 57.8663,264.242 61.5,265.5 Z"/></g>
<g><path style="opacity:1" fill="#6c3f33" d="M 62.5,261.5 C 62.4013,264.237 62.7347,266.904 63.5,269.5C 61.8958,268.713 61.2291,267.38 61.5,265.5C 61.2322,263.901 61.5655,262.568 62.5,261.5 Z"/></g>
<g><path style="opacity:1" fill="#e95b4f" d="M 127.5,278.5 C 126.258,280.25 124.758,281.917 123,283.5C 122.161,287.637 121.327,291.637 120.5,295.5C 116.467,291.84 115.467,287.34 117.5,282C 120.007,278.238 123.34,277.071 127.5,278.5 Z"/></g>
<g><path style="opacity:1" fill="#ef7776" d="M 127.5,278.5 C 129.582,278.472 131.416,279.139 133,280.5C 137.011,292.545 132.845,297.545 120.5,295.5C 121.327,291.637 122.161,287.637 123,283.5C 124.758,281.917 126.258,280.25 127.5,278.5 Z"/></g>
<g><path style="opacity:1" fill="#c1926f" d="M 53.5,296.5 C 57.8183,297.754 62.1516,297.754 66.5,296.5C 72.7193,303.184 80.2193,308.184 89,311.5C 89.7648,311.43 90.2648,311.097 90.5,310.5C 91.8333,311.167 93.1667,311.833 94.5,312.5C 96.5,313.833 98.5,315.167 100.5,316.5C 87.5864,315.083 75.253,311.583 63.5,306C 59.9008,303.048 56.5675,299.882 53.5,296.5 Z"/></g>
<g><path style="opacity:1" fill="#95613b" d="M 224.5,320.5 C 214.416,322.117 204.416,324.117 194.5,326.5C 194.107,324.716 193.441,323.05 192.5,321.5C 202.905,320.316 213.238,318.649 223.5,316.5C 223.433,317.959 223.766,319.292 224.5,320.5 Z"/></g>
<g><path style="opacity:1" fill="#bb8256" d="M 224.5,320.5 C 225.627,321.122 226.627,321.955 227.5,323C 241.31,325.865 253.31,332.032 263.5,341.5C 262.957,341.56 262.624,341.893 262.5,342.5C 266.298,349.047 268.131,356.047 268,363.5C 266.92,365.996 265.586,368.33 264,370.5C 261.648,372.03 259.481,373.697 257.5,375.5C 254.729,375.579 252.063,375.079 249.5,374C 233.659,366.492 221.325,355.159 212.5,340C 205.253,336.615 201.753,338.782 202,346.5C 207.835,357.685 215.669,367.185 225.5,375C 230.863,378.677 236.197,382.344 241.5,386C 240.332,390.168 238.499,394.002 236,397.5C 234.857,400.777 234.023,404.11 233.5,407.5C 227.716,414.362 222.883,422.029 219,430.5C 214.529,436.493 208.696,440.66 201.5,443C 198.562,443.712 195.896,443.212 193.5,441.5C 188.652,429.76 186.152,417.427 186,404.5C 182.299,400.895 178.299,400.562 174,403.5C 173.501,408.489 173.334,413.489 173.5,418.5C 165.16,418.666 156.827,418.5 148.5,418C 143.924,417.728 139.591,416.895 135.5,415.5C 136.873,415.657 138.207,415.49 139.5,415C 129.73,411.862 121.23,406.695 114,399.5C 111.94,396.714 110.44,393.714 109.5,390.5C 110.605,391.6 111.938,392.267 113.5,392.5C 121.268,396.359 129.601,398.525 138.5,399C 151.903,400.573 164.903,399.239 177.5,395C 187.937,389.956 194.437,381.79 197,370.5C 198.874,357.49 198.874,344.49 197,331.5C 196.768,330.263 196.268,329.263 195.5,328.5C 195.167,327.833 194.833,327.167 194.5,326.5C 204.416,324.117 214.416,322.117 224.5,320.5 Z"/></g>
<g><path style="opacity:1" fill="#fccfa5" d="M 195.5,328.5 C 196.268,329.263 196.768,330.263 197,331.5C 198.874,344.49 198.874,357.49 197,370.5C 194.437,381.79 187.937,389.956 177.5,395C 164.903,399.239 151.903,400.573 138.5,399C 129.601,398.525 121.268,396.359 113.5,392.5C 114.239,392.631 114.906,392.464 115.5,392C 112.404,388.818 110.571,384.984 110,380.5C 108.138,370.189 108.138,359.856 110,349.5C 111.82,343.555 113.32,337.555 114.5,331.5C 115.791,331.737 116.791,331.404 117.5,330.5C 118.5,330.5 119.5,330.5 120.5,330.5C 129.674,330.579 138.841,330.912 148,331.5C 163.85,330.57 179.683,329.57 195.5,328.5 Z"/></g>
<g><path style="opacity:1" fill="#fadcc1" d="M 117.5,330.5 C 116.791,331.404 115.791,331.737 114.5,331.5C 113.32,337.555 111.82,343.555 110,349.5C 108.138,359.856 108.138,370.189 110,380.5C 110.571,384.984 112.404,388.818 115.5,392C 114.906,392.464 114.239,392.631 113.5,392.5C 111.938,392.267 110.605,391.6 109.5,390.5C 99.6458,382.629 95.6458,372.295 97.5,359.5C 97.5,357.833 97.5,356.167 97.5,354.5C 98.913,351.781 99.5797,348.781 99.5,345.5C 100.464,340.533 101.797,335.7 103.5,331C 108.155,330.501 112.821,330.334 117.5,330.5 Z"/></g>
<g><path style="opacity:1" fill="#925f3a" d="M 83.5,358.5 C 83.0629,356.926 82.0629,355.759 80.5,355C 77.4535,354.261 74.4535,353.428 71.5,352.5C 75.851,347.149 80.851,342.483 86.5,338.5C 86.8333,339 87.1667,339.5 87.5,340C 86.0403,346.264 84.707,352.431 83.5,358.5 Z"/></g>
<g><path style="opacity:1" fill="#c59572" d="M 263.5,341.5 C 272.674,346.847 276.841,354.847 276,365.5C 272.293,373.038 266.126,376.371 257.5,375.5C 259.481,373.697 261.648,372.03 264,370.5C 265.586,368.33 266.92,365.996 268,363.5C 268.131,356.047 266.298,349.047 262.5,342.5C 262.624,341.893 262.957,341.56 263.5,341.5 Z"/></g>
<g><path style="opacity:1" fill="#6f6256" d="M 99.5,345.5 C 99.5797,348.781 98.913,351.781 97.5,354.5C 97.4203,351.219 98.087,348.219 99.5,345.5 Z"/></g>
<g><path style="opacity:1" fill="#b87f54" d="M 71.5,352.5 C 74.4535,353.428 77.4535,354.261 80.5,355C 82.0629,355.759 83.0629,356.926 83.5,358.5C 82.9338,367.825 82.4338,377.158 82,386.5C 74.5958,389.286 67.9292,387.953 62,382.5C 58.677,375.716 59.0104,369.049 63,362.5C 65.6142,358.91 68.4475,355.576 71.5,352.5 Z"/></g>
<g><path style="opacity:1" fill="#c59673" d="M 97.5,359.5 C 95.6458,372.295 99.6458,382.629 109.5,390.5C 110.44,393.714 111.94,396.714 114,399.5C 121.23,406.695 129.73,411.862 139.5,415C 138.207,415.49 136.873,415.657 135.5,415.5C 128.91,413.471 122.243,411.304 115.5,409C 96.9265,397.116 90.9265,380.616 97.5,359.5 Z"/></g>
<g><path style="opacity:1" fill="#9a643e" d="M 233.5,407.5 C 230.636,416.903 227.47,426.237 224,435.5C 222.204,438.927 220.037,442.094 217.5,445C 211.585,446.527 205.585,446.861 199.5,446C 196.986,445.119 194.986,443.619 193.5,441.5C 195.896,443.212 198.562,443.712 201.5,443C 208.696,440.66 214.529,436.493 219,430.5C 222.883,422.029 227.716,414.362 233.5,407.5 Z"/></g>
<g><path style="opacity:1" fill="#b77e53" d="M 104.5,417.5 C 109.057,424.895 114.89,431.229 122,436.5C 123.289,439.351 123.789,442.351 123.5,445.5C 120.833,445.5 118.167,445.5 115.5,445.5C 110.516,444.254 107.016,441.254 105,436.5C 103.232,429.564 102.232,422.564 102,415.5C 102.708,416.381 103.542,417.047 104.5,417.5 Z"/></g>
<g><path style="opacity:1" fill="#97623c" d="M 104.5,417.5 C 114.662,423.573 125.662,427.407 137.5,429C 138.516,429.519 139.182,430.353 139.5,431.5C 137.745,434.679 136.245,438.013 135,441.5C 133.442,443.359 131.609,444.859 129.5,446C 124.648,446.815 119.981,446.648 115.5,445.5C 118.167,445.5 120.833,445.5 123.5,445.5C 123.789,442.351 123.289,439.351 122,436.5C 114.89,431.229 109.057,424.895 104.5,417.5 Z"/></g>
</svg>
