<?xml version="1.0" encoding="UTF-8"?>
<!DOCTYPE svg PUBLIC "-//W3C//DTD SVG 1.1//EN" "http://www.w3.org/Graphics/SVG/1.1/DTD/svg11.dtd">
<svg xmlns="http://www.w3.org/2000/svg" version="1.1" width="450px" height="523px" style="shape-rendering:geometricPrecision; text-rendering:geometricPrecision; image-rendering:optimizeQuality; fill-rule:evenodd; clip-rule:evenodd" xmlns:xlink="http://www.w3.org/1999/xlink">
<g><path style="opacity:0.949" fill="#030201" d="M 202.5,60.5 C 215.466,59.8727 227.799,61.706 239.5,66C 243.261,68.7646 247.261,71.0979 251.5,73C 269.447,89.8345 272.28,108.668 260,129.5C 257.617,132.273 254.783,134.439 251.5,136C 280.951,165.74 295.951,201.574 296.5,243.5C 295.351,255.41 292.518,266.743 288,277.5C 284.26,281.311 281.26,285.644 279,290.5C 275.15,293.354 271.65,296.521 268.5,300C 259.544,305.644 250.21,310.478 240.5,314.5C 249.431,320.929 257.598,328.262 265,336.5C 268.085,341.672 271.419,346.672 275,351.5C 279.471,361.161 280.804,371.161 279,381.5C 273.46,394.519 263.627,400.852 249.5,400.5C 248.621,415.442 246.121,430.108 242,444.5C 235.458,455.273 225.791,460.273 213,459.5C 204.468,459.99 197.134,457.324 191,451.5C 187.306,445.446 184.139,439.112 181.5,432.5C 174.197,431.503 166.863,431.169 159.5,431.5C 158.979,446.738 151.312,455.904 136.5,459C 123.749,461.942 112.916,458.775 104,449.5C 97.6211,436.698 92.6211,423.365 89,409.5C 73.5483,409.775 62.8816,402.775 57,388.5C 56.1443,379.379 57.1443,370.713 60,362.5C 65.8187,348.695 73.9854,336.528 84.5,326C 71.6461,322.24 59.6461,316.24 48.5,308C 32.2751,289.486 23.9418,267.819 23.5,243C 23.6638,234.515 24.6638,226.182 26.5,218C 28.1938,199.927 33.8605,182.76 43.5,166.5C 23.2169,156.187 15.7169,139.854 21,117.5C 31.7007,94.4755 49.7007,81.4755 75,78.5C 95.8107,80.8324 108.477,92.1657 113,112.5C 131.354,106.844 150.187,104.511 169.5,105.5C 168.494,81.8901 179.494,66.8901 202.5,60.5 Z"/></g>
<g><path style="opacity:1" fill="#bb8256" d="M 237.5,82.5 C 238.072,84.2554 238.906,85.9221 240,87.5C 243.119,101.341 241.953,114.675 236.5,127.5C 233.405,129.59 230.239,131.59 227,133.5C 226.04,141.874 229.873,145.707 238.5,145C 252.25,157.221 262.583,171.721 269.5,188.5C 273.326,215.039 269.159,240.039 257,263.5C 251.921,271.914 245.421,279.081 237.5,285C 230.455,289.523 223.122,293.523 215.5,297C 207.744,300.219 200.078,303.386 192.5,306.5C 188.395,306.771 184.728,308.105 181.5,310.5C 175.661,309.726 169.661,309.559 163.5,310C 172.571,306.583 178.738,300.416 182,291.5C 185.326,276.758 181.493,264.424 170.5,254.5C 157.535,242.6 142.202,237.766 124.5,240C 120.853,240.774 117.186,241.441 113.5,242C 109.077,243.518 105.077,245.685 101.5,248.5C 100.167,249.5 98.8333,250.5 97.5,251.5C 99.2881,248.772 99.7881,245.772 99,242.5C 97.1667,240.667 95.3333,238.833 93.5,237C 85.0784,232.262 76.4117,227.929 67.5,224C 58.6667,222.167 55.1667,225.667 57,234.5C 57.956,235.579 58.7894,236.745 59.5,238C 64.9603,240.564 70.2936,243.397 75.5,246.5C 72.1334,249.608 68.6334,252.608 65,255.5C 64.5065,257.134 64.3398,258.801 64.5,260.5C 60.9359,259.577 57.2693,259.244 53.5,259.5C 51.61,249.255 51.11,238.921 52,228.5C 53.3326,221.177 54.666,213.843 56,206.5C 56.1216,204.563 56.955,203.23 58.5,202.5C 58.1768,207.033 60.1768,209.866 64.5,211C 70.8595,211.831 77.1928,211.664 83.5,210.5C 90.7745,206.953 93.4412,201.286 91.5,193.5C 89.6512,191.826 87.4845,190.826 85,190.5C 77.3658,192.6 69.8658,195.1 62.5,198C 61.051,199.102 59.7177,200.269 58.5,201.5C 60.3148,191.558 63.8148,182.225 69,173.5C 80.1251,157.375 93.6251,143.541 109.5,132C 107.803,131.616 106.137,131.782 104.5,132.5C 115.171,127.154 126.505,123.32 138.5,121C 150.833,120.333 163.167,120.333 175.5,121C 178.605,127.221 182.772,128.054 188,123.5C 188.923,121.966 189.423,120.299 189.5,118.5C 183.506,108.182 183.006,97.5158 188,86.5C 196.862,76.1517 208.028,72.6517 221.5,76C 227.177,77.4989 232.51,79.6656 237.5,82.5 Z"/></g>
<g><path style="opacity:1" fill="#9a643d" d="M 237.5,82.5 C 255.287,94.0887 257.287,107.922 243.5,124C 241.423,125.705 239.09,126.872 236.5,127.5C 241.953,114.675 243.119,101.341 240,87.5C 238.906,85.9221 238.072,84.2554 237.5,82.5 Z"/></g>
<g><path style="opacity:1" fill="#fccea4" d="M 225.5,90.5 C 238.468,97.8195 239.802,106.986 229.5,118C 224.98,121.118 219.98,122.951 214.5,123.5C 208.761,115.458 206.928,106.458 209,96.5C 209.914,94.3359 211.081,92.3359 212.5,90.5C 216.818,89.4596 221.151,89.4596 225.5,90.5 Z"/></g>
<g><path style="opacity:1" fill="#f8b87e" d="M 225.5,90.5 C 221.151,89.4596 216.818,89.4596 212.5,90.5C 211.081,92.3359 209.914,94.3359 209,96.5C 206.928,106.458 208.761,115.458 214.5,123.5C 206.744,123.38 201.577,119.713 199,112.5C 196.78,94.7199 204.613,86.8866 222.5,89C 223.737,89.2321 224.737,89.7321 225.5,90.5 Z"/></g>
<g><path style="opacity:1" fill="#ba8156" d="M 78.5,94.5 C 83.9131,101.067 86.5797,108.733 86.5,117.5C 85.4879,114.633 83.4879,112.633 80.5,111.5C 67.0599,105.743 56.8932,109.41 50,122.5C 48.114,129.549 49.9473,135.382 55.5,140C 58.1909,140.156 60.5242,140.989 62.5,142.5C 55.2503,155.038 47.0837,155.372 38,143.5C 32.6126,132.607 33.6126,122.273 41,112.5C 50.5985,100.451 63.0985,94.4507 78.5,94.5 Z"/></g>
<g><path style="opacity:1" fill="#99643d" d="M 78.5,94.5 C 91.0684,98.0722 97.735,106.406 98.5,119.5C 94.6401,120.681 90.9734,122.348 87.5,124.5C 87.552,122.097 87.2186,119.764 86.5,117.5C 86.5797,108.733 83.9131,101.067 78.5,94.5 Z"/></g>
<g><path style="opacity:1" fill="#facda3" d="M 80.5,111.5 C 80.5,117.167 80.5,122.833 80.5,128.5C 74.8344,133.487 68.8344,138.154 62.5,142.5C 60.5242,140.989 58.1909,140.156 55.5,140C 49.9473,135.382 48.114,129.549 50,122.5C 56.8932,109.41 67.0599,105.743 80.5,111.5 Z"/></g>
<g><path style="opacity:1" fill="#f6b77f" d="M 80.5,111.5 C 83.4879,112.633 85.4879,114.633 86.5,117.5C 87.2186,119.764 87.552,122.097 87.5,124.5C 85.1667,125.833 82.8333,127.167 80.5,128.5C 80.5,122.833 80.5,117.167 80.5,111.5 Z"/></g>
<g><path style="opacity:1" fill="#c69673" d="M 58.5,201.5 C 58.5,201.833 58.5,202.167 58.5,202.5C 56.955,203.23 56.1216,204.563 56,206.5C 54.666,213.843 53.3326,221.177 52,228.5C 51.11,238.921 51.61,249.255 53.5,259.5C 51.1877,261.636 48.6877,263.636 46,265.5C 44.7978,267.677 44.2978,270.011 44.5,272.5C 43.0337,271.653 42.2004,270.32 42,268.5C 39.3002,254.91 38.4668,241.243 39.5,227.5C 40.7846,224.411 41.4512,221.078 41.5,217.5C 46.8823,181.381 65.2156,154.048 96.5,135.5C 99.1878,134.487 101.854,133.487 104.5,132.5C 106.137,131.782 107.803,131.616 109.5,132C 93.6251,143.541 80.1251,157.375 69,173.5C 63.8148,182.225 60.3148,191.558 58.5,201.5 Z"/></g>
<g><path style="opacity:1" fill="#291c13" d="M 160.5,181.5 C 166.231,181.684 171.898,182.35 177.5,183.5C 183.358,183.705 189.025,184.872 194.5,187C 196.282,189.243 196.782,191.743 196,194.5C 193.204,196.886 190.037,198.719 186.5,200C 179.548,201.397 172.548,201.73 165.5,201C 158.501,197.168 155.667,191.335 157,183.5C 157.816,182.177 158.983,181.511 160.5,181.5 Z"/></g>
<g><path style="opacity:1" fill="#5f412b" d="M 160.5,181.5 C 166.376,179.988 172.043,180.655 177.5,183.5C 171.898,182.35 166.231,181.684 160.5,181.5 Z"/></g>
<g><path style="opacity:1" fill="#2a1d13" d="M 58.5,202.5 C 58.5,202.167 58.5,201.833 58.5,201.5C 59.7177,200.269 61.051,199.102 62.5,198C 69.8658,195.1 77.3658,192.6 85,190.5C 87.4845,190.826 89.6512,191.826 91.5,193.5C 93.4412,201.286 90.7745,206.953 83.5,210.5C 77.1928,211.664 70.8595,211.831 64.5,211C 60.1768,209.866 58.1768,207.033 58.5,202.5 Z"/></g>
<g><path style="opacity:1" fill="#9b653d" d="M 269.5,188.5 C 281.108,211.702 283.941,236.035 278,261.5C 274.138,272.35 267.638,281.183 258.5,288C 238.431,300.655 216.431,306.822 192.5,306.5C 200.078,303.386 207.744,300.219 215.5,297C 223.122,293.523 230.455,289.523 237.5,285C 245.421,279.081 251.921,271.914 257,263.5C 269.159,240.039 273.326,215.039 269.5,188.5 Z"/></g>
<g><path style="opacity:1" fill="#060402" d="M 200.5,252.5 C 199.167,254.5 197.5,256.167 195.5,257.5C 192.813,257.664 190.146,257.497 187.5,257C 179.5,253.667 171.5,250.333 163.5,247C 159.055,243.89 157.555,239.723 159,234.5C 169.388,224.78 180.888,216.613 193.5,210C 201.939,208.48 205.439,211.98 204,220.5C 197.45,226.051 190.617,231.217 183.5,236C 189.063,238.556 194.396,241.556 199.5,245C 200.435,247.381 200.768,249.881 200.5,252.5 Z"/></g>
<g><path style="opacity:1" fill="#5b4535" d="M 41.5,217.5 C 41.4512,221.078 40.7846,224.411 39.5,227.5C 39.322,223.878 39.9886,220.544 41.5,217.5 Z"/></g>
<g><path style="opacity:1" fill="#060402" d="M 97.5,251.5 C 90.3408,257.675 82.6742,263.008 74.5,267.5C 68.966,268.298 65.6327,265.965 64.5,260.5C 64.3398,258.801 64.5065,257.134 65,255.5C 68.6334,252.608 72.1334,249.608 75.5,246.5C 70.2936,243.397 64.9603,240.564 59.5,238C 58.7894,236.745 57.956,235.579 57,234.5C 55.1667,225.667 58.6667,222.167 67.5,224C 76.4117,227.929 85.0784,232.262 93.5,237C 95.3333,238.833 97.1667,240.667 99,242.5C 99.7881,245.772 99.2881,248.772 97.5,251.5 Z"/></g>
<g><path style="opacity:1" fill="#f9cca3" d="M 170.5,254.5 C 173.809,275.836 167.809,294.002 152.5,309C 150.377,309.815 148.377,310.815 146.5,312C 141.234,312.089 136.234,312.923 131.5,314.5C 123.555,313.563 115.555,313.23 107.5,313.5C 105.369,312.686 103.036,312.186 100.5,312C 98.4156,311.303 96.7489,310.136 95.5,308.5C 90.04,287.849 92.3733,268.183 102.5,249.5C 102.376,248.893 102.043,248.56 101.5,248.5C 105.077,245.685 109.077,243.518 113.5,242C 117.186,241.441 120.853,240.774 124.5,240C 142.202,237.766 157.535,242.6 170.5,254.5 Z"/></g>
<g><path style="opacity:1" fill="#0b0806" d="M 122.5,244.5 C 139.765,244.987 142.099,251.154 129.5,263C 130.444,264.477 131.777,265.477 133.5,266C 138.013,266.806 142.346,268.139 146.5,270C 147.894,270.956 148.561,272.289 148.5,274C 148.067,275.928 147.4,277.761 146.5,279.5C 149.868,292.965 144.868,301.131 131.5,304C 115.429,306.595 107.263,299.762 107,283.5C 103.071,280.433 102.571,276.933 105.5,273C 108.634,270.848 111.968,269.182 115.5,268C 116.99,267.255 117.99,266.088 118.5,264.5C 116.369,261.837 113.869,259.504 111,257.5C 108.207,252.386 109.374,248.553 114.5,246C 117.365,245.817 120.031,245.317 122.5,244.5 Z"/></g>
<g><path style="opacity:1" fill="#e3806e" d="M 195.5,257.5 C 197.5,256.167 199.167,254.5 200.5,252.5C 201.451,251.081 201.784,249.415 201.5,247.5C 210.575,243.892 218.908,245.058 226.5,251C 231.999,264.361 227.999,274.027 214.5,280C 197.115,283.938 188.949,277.105 190,259.5C 191.948,258.891 193.782,258.224 195.5,257.5 Z"/></g>
<g><path style="opacity:1" fill="#414141" d="M 116.5,247.5 C 124.49,248.278 125.49,251.444 119.5,257C 114,258.167 111.833,256 113,250.5C 114.145,249.364 115.312,248.364 116.5,247.5 Z"/></g>
<g><path style="opacity:1" fill="#fcddc1" d="M 101.5,248.5 C 102.043,248.56 102.376,248.893 102.5,249.5C 92.3733,268.183 90.04,287.849 95.5,308.5C 93.9382,308.267 92.6049,307.6 91.5,306.5C 84.409,298.928 81.909,289.928 84,279.5C 84.4535,274.261 85.7868,269.261 88,264.5C 91.0228,259.99 94.1895,255.656 97.5,251.5C 98.8333,250.5 100.167,249.5 101.5,248.5 Z"/></g>
<g><path style="opacity:1" fill="#f9b87d" d="M 170.5,254.5 C 181.493,264.424 185.326,276.758 182,291.5C 178.738,300.416 172.571,306.583 163.5,310C 169.661,309.559 175.661,309.726 181.5,310.5C 179.84,318.513 183.174,322.179 191.5,321.5C 193.71,321.894 195.043,323.227 195.5,325.5C 195.5,326.167 195.5,326.833 195.5,327.5C 181.661,328.362 167.827,329.362 154,330.5C 141.185,329.466 128.351,328.799 115.5,328.5C 113.901,328.768 112.568,328.434 111.5,327.5C 118.373,328.035 125.04,327.201 131.5,325C 134.12,321.502 134.12,318.002 131.5,314.5C 136.234,312.923 141.234,312.089 146.5,312C 148.377,310.815 150.377,309.815 152.5,309C 167.809,294.002 173.809,275.836 170.5,254.5 Z"/></g>
<g><path style="opacity:1" fill="#be855a" d="M 97.5,251.5 C 94.1895,255.656 91.0228,259.99 88,264.5C 85.7868,269.261 84.4535,274.261 84,279.5C 81.909,289.928 84.409,298.928 91.5,306.5C 90.7494,307.573 89.7494,307.74 88.5,307C 80.5615,303.869 73.8948,299.036 68.5,292.5C 79.4852,287.509 82.3185,279.509 77,268.5C 76.3292,267.748 75.4959,267.414 74.5,267.5C 82.6742,263.008 90.3408,257.675 97.5,251.5 Z"/></g>
<g><path style="opacity:1" fill="#e38270" d="M 53.5,259.5 C 57.2693,259.244 60.9359,259.577 64.5,260.5C 65.6327,265.965 68.966,268.298 74.5,267.5C 75.4959,267.414 76.3292,267.748 77,268.5C 82.3185,279.509 79.4852,287.509 68.5,292.5C 64.1186,292.628 59.7853,292.295 55.5,291.5C 49.7691,286.419 46.1024,280.085 44.5,272.5C 44.2978,270.011 44.7978,267.677 46,265.5C 48.6877,263.636 51.1877,261.636 53.5,259.5 Z"/></g>
<g><path style="opacity:1" fill="#ed5d51" d="M 129.5,276.5 C 128.312,277.364 127.145,278.364 126,279.5C 124.597,284.105 123.097,288.439 121.5,292.5C 120.21,291.942 119.377,290.942 119,289.5C 118.333,286.167 118.333,282.833 119,279.5C 122.02,276.21 125.52,275.21 129.5,276.5 Z"/></g>
<g><path style="opacity:1" fill="#f67a79" d="M 129.5,276.5 C 131.117,277.038 132.784,277.371 134.5,277.5C 139.039,290.292 134.705,295.292 121.5,292.5C 123.097,288.439 124.597,284.105 126,279.5C 127.145,278.364 128.312,277.364 129.5,276.5 Z"/></g>
<g><path style="opacity:1" fill="#c19270" d="M 55.5,291.5 C 59.7853,292.295 64.1186,292.628 68.5,292.5C 73.8948,299.036 80.5615,303.869 88.5,307C 89.7494,307.74 90.7494,307.573 91.5,306.5C 92.6049,307.6 93.9382,308.267 95.5,308.5C 96.7489,310.136 98.4156,311.303 100.5,312C 103.036,312.186 105.369,312.686 107.5,313.5C 87.7601,313.201 70.5935,306.534 56,293.5C 55.5357,292.906 55.369,292.239 55.5,291.5 Z"/></g>
<g><path style="opacity:1" fill="#92603b" d="M 227.5,320.5 C 226.584,320.018 225.584,319.685 224.5,319.5C 215.071,322.682 205.405,324.682 195.5,325.5C 195.043,323.227 193.71,321.894 191.5,321.5C 201.422,320.675 211.422,319.342 221.5,317.5C 224.393,317.069 226.393,318.069 227.5,320.5 Z"/></g>
<g><path style="opacity:1" fill="#bb8156" d="M 227.5,320.5 C 230.094,325.594 234.094,329.094 239.5,331C 247.194,337.513 253.528,345.013 258.5,353.5C 257.934,361.092 257.1,368.759 256,376.5C 252.294,380.747 247.794,383.414 242.5,384.5C 236.571,381.071 231.405,376.738 227,371.5C 224,366.833 221,362.167 218,357.5C 215.052,350.988 212.719,344.321 211,337.5C 207,332.167 203,332.167 199,337.5C 198.506,339.134 198.34,340.801 198.5,342.5C 197.992,337.4 196.992,332.4 195.5,327.5C 195.5,326.833 195.5,326.167 195.5,325.5C 205.405,324.682 215.071,322.682 224.5,319.5C 225.584,319.685 226.584,320.018 227.5,320.5 Z"/></g>
<g><path style="opacity:1" fill="#fccfa5" d="M 195.5,327.5 C 196.992,332.4 197.992,337.4 198.5,342.5C 201.057,357.104 198.557,370.771 191,383.5C 183.585,392.29 174.085,396.957 162.5,397.5C 149.761,398.941 137.095,398.441 124.5,396C 120.965,395.337 117.965,393.837 115.5,391.5C 108.385,378.674 106.552,365.007 110,350.5C 112.48,343.321 114.313,335.988 115.5,328.5C 128.351,328.799 141.185,329.466 154,330.5C 167.827,329.362 181.661,328.362 195.5,327.5 Z"/></g>
<g><path style="opacity:1" fill="#fadcc1" d="M 111.5,327.5 C 112.568,328.434 113.901,328.768 115.5,328.5C 114.313,335.988 112.48,343.321 110,350.5C 106.552,365.007 108.385,378.674 115.5,391.5C 113.716,391.107 112.05,390.441 110.5,389.5C 99.6295,381.728 95.2962,371.061 97.5,357.5C 98.2092,347.82 100.376,338.487 104,329.5C 106.106,327.709 108.606,327.042 111.5,327.5 Z"/></g>
<g><path style="opacity:1" fill="#905f3a" d="M 82.5,367.5 C 82.5,365.167 82.5,362.833 82.5,360.5C 80.3792,360.325 78.3792,360.659 76.5,361.5C 78.5572,356.39 81.3906,351.723 85,347.5C 84.2732,354.262 83.4398,360.929 82.5,367.5 Z"/></g>
<g><path style="opacity:1" fill="#bc8256" d="M 198.5,342.5 C 204.134,364.471 216.134,382.138 234.5,395.5C 235.452,397.045 235.785,398.712 235.5,400.5C 232.072,409.278 228.905,418.278 226,427.5C 221.992,436.683 215.159,442.35 205.5,444.5C 203.629,444.141 202.129,443.141 201,441.5C 195.421,431.431 191.421,420.765 189,409.5C 184.951,404.182 180.951,404.182 177,409.5C 176.231,412.099 176.398,414.599 177.5,417C 165.045,417.979 152.712,417.479 140.5,415.5C 132.818,412.491 125.485,408.658 118.5,404C 113.545,400.012 110.878,395.179 110.5,389.5C 112.05,390.441 113.716,391.107 115.5,391.5C 117.965,393.837 120.965,395.337 124.5,396C 137.095,398.441 149.761,398.941 162.5,397.5C 174.085,396.957 183.585,392.29 191,383.5C 198.557,370.771 201.057,357.104 198.5,342.5 Z"/></g>
<g><path style="opacity:1" fill="#c29370" d="M 258.5,353.5 C 265.416,361.329 267.249,370.329 264,380.5C 257.814,386.839 250.647,388.172 242.5,384.5C 247.794,383.414 252.294,380.747 256,376.5C 257.1,368.759 257.934,361.092 258.5,353.5 Z"/></g>
<g><path style="opacity:1" fill="#b67e54" d="M 82.5,367.5 C 82.3338,373.509 82.5005,379.509 83,385.5C 86.9261,395.704 84.0928,397.371 74.5,390.5C 69.7814,383.514 69.2814,376.18 73,368.5C 74.1799,366.14 75.3466,363.807 76.5,361.5C 78.3792,360.659 80.3792,360.325 82.5,360.5C 82.5,362.833 82.5,365.167 82.5,367.5 Z"/></g>
<g><path style="opacity:1" fill="#c69774" d="M 97.5,357.5 C 95.2962,371.061 99.6295,381.728 110.5,389.5C 110.878,395.179 113.545,400.012 118.5,404C 125.485,408.658 132.818,412.491 140.5,415.5C 124.815,414.226 111.648,407.892 101,396.5C 98.5452,392.469 96.8786,388.136 96,383.5C 95.6105,374.645 96.1105,365.978 97.5,357.5 Z"/></g>
<g><path style="opacity:1" fill="#9c663e" d="M 235.5,400.5 C 235.086,414.571 232.586,428.237 228,441.5C 220.905,446.564 213.405,447.564 205.5,444.5C 215.159,442.35 221.992,436.683 226,427.5C 228.905,418.278 232.072,409.278 235.5,400.5 Z"/></g>
<g><path style="opacity:1" fill="#b98055" d="M 110.5,420.5 C 110.859,422.371 111.859,423.871 113.5,425C 119.755,429.378 125.922,433.878 132,438.5C 133.202,440.677 133.702,443.011 133.5,445.5C 127.233,447.301 121.399,446.301 116,442.5C 111.818,434.828 108.818,426.828 107,418.5C 108.113,419.305 109.279,419.972 110.5,420.5 Z"/></g>
<g><path style="opacity:1" fill="#9b653e" d="M 110.5,420.5 C 121.85,426.004 133.85,429.004 146.5,429.5C 146.392,438.43 142.059,443.763 133.5,445.5C 133.702,443.011 133.202,440.677 132,438.5C 125.922,433.878 119.755,429.378 113.5,425C 111.859,423.871 110.859,422.371 110.5,420.5 Z"/></g>
</svg>
