<?xml version="1.0" encoding="UTF-8"?>
<!DOCTYPE svg PUBLIC "-//W3C//DTD SVG 1.1//EN" "http://www.w3.org/Graphics/SVG/1.1/DTD/svg11.dtd">
<svg xmlns="http://www.w3.org/2000/svg" version="1.1" width="450px" height="523px" style="shape-rendering:geometricPrecision; text-rendering:geometricPrecision; image-rendering:optimizeQuality; fill-rule:evenodd; clip-rule:evenodd" xmlns:xlink="http://www.w3.org/1999/xlink">
<g><path style="opacity:0.943" fill="#030201" d="M 207.5,59.5 C 226.259,59.7942 242.092,66.7942 255,80.5C 265.625,95.6607 266.292,111.327 257,127.5C 254.14,130.36 251.306,133.194 248.5,136C 279.54,166.886 294.873,204.053 294.5,247.5C 290.846,280.085 272.846,301.918 240.5,313C 254.088,320.741 266.088,330.574 276.5,342.5C 282.821,351.117 286.154,360.617 286.5,371C 281.86,387.767 270.693,396.267 253,396.5C 249.09,406.138 246.423,416.138 245,426.5C 243.417,433.742 241.084,440.742 238,447.5C 235.194,451.639 231.694,455.139 227.5,458C 217.01,461.635 206.344,461.635 195.5,458C 191.912,455.623 188.412,453.123 185,450.5C 182.532,444.467 180.365,438.634 178.5,433C 171.508,432.5 164.508,432.334 157.5,432.5C 155.848,440.971 152.181,448.471 146.5,455C 131.557,462.844 116.89,462.178 102.5,453C 100.383,451.269 98.8834,449.102 98,446.5C 92.422,433.469 88.7553,420.136 87,406.5C 76.1638,407.506 66.4971,404.506 58,397.5C 55.136,393.615 52.636,389.448 50.5,385C 49.9031,373.882 52.4031,363.382 58,353.5C 61.4006,350.365 64.0673,346.698 66,342.5C 71.1937,337.306 76.3604,332.14 81.5,327C 54.0022,320.167 35.8355,303.333 27,276.5C 23.3728,263.992 21.5394,251.326 21.5,238.5C 22.7438,235.1 23.0771,231.767 22.5,228.5C 24.0846,218.964 25.9179,209.297 28,199.5C 28.7648,196.804 29.9315,194.304 31.5,192C 31.1667,191.667 30.8333,191.333 30.5,191C 33.459,182.926 36.7924,175.092 40.5,167.5C 38.7988,167.034 37.2988,167.034 36,167.5C 14.9565,152.441 10.2898,133.441 22,110.5C 33.7925,92.9006 50.2925,82.9006 71.5,80.5C 91.9611,83.1167 104.461,94.45 109,114.5C 114.357,112.293 119.857,110.46 125.5,109C 138.891,107.093 152.225,105.926 165.5,105.5C 165.174,77.1572 179.174,61.8239 207.5,59.5 Z"/></g>
<g><path style="opacity:1" fill="#bc8256" d="M 234.5,82.5 C 237.18,95.1068 237.68,107.774 236,120.5C 234.878,122.407 234.045,124.407 233.5,126.5C 230.165,128.224 226.998,130.224 224,132.5C 222.255,141.089 225.755,144.923 234.5,144C 247.663,155.33 257.996,168.83 265.5,184.5C 271.37,213.127 267.537,240.127 254,265.5C 247.456,275.045 239.289,282.878 229.5,289C 216.17,296.261 202.503,302.428 188.5,307.5C 185.547,307.15 183.213,308.15 181.5,310.5C 180.726,309.853 179.726,309.52 178.5,309.5C 172.528,310.664 166.528,311.164 160.5,311C 178.549,304.254 185.382,291.421 181,272.5C 178.899,265.582 175.065,259.915 169.5,255.5C 149.503,238.945 127.503,236.112 103.5,247C 101.76,248.517 100.094,250.017 98.5,251.5C 98.1667,251.5 97.8333,251.5 97.5,251.5C 98.4469,246.777 97.1136,242.944 93.5,240C 85.2388,235.036 76.5722,230.87 67.5,227.5C 67.3893,226.883 67.056,226.383 66.5,226C 63.633,225.199 60.9664,225.366 58.5,226.5C 54.2128,229.622 53.3794,233.622 56,238.5C 61.6265,242.372 67.4598,245.872 73.5,249C 70.4276,251.951 67.2609,254.784 64,257.5C 63.5034,259.81 63.3367,262.143 63.5,264.5C 59.7441,262.224 55.7441,261.891 51.5,263.5C 48.3562,243.512 49.3562,223.846 54.5,204.5C 54.8221,212.436 58.9888,215.436 67,213.5C 75.0958,214.741 81.4291,212.074 86,205.5C 87.4049,201.928 87.7383,198.261 87,194.5C 85.3805,192.274 83.2138,190.94 80.5,190.5C 72.2446,193.628 64.2446,197.295 56.5,201.5C 57.4424,195.507 59.2757,189.841 62,184.5C 65.6327,177.222 69.6327,170.222 74,163.5C 83.4855,153.35 93.6521,143.85 104.5,135C 105.823,134.184 106.489,133.017 106.5,131.5C 114.312,127.459 122.645,124.792 131.5,123.5C 140.721,123.208 149.721,122.208 158.5,120.5C 162.846,120.334 167.179,120.501 171.5,121C 175.038,127.219 179.538,128.052 185,123.5C 186.186,118.621 185.186,114.288 182,110.5C 178.058,83.7751 189.558,72.2751 216.5,76C 219.424,76.9876 222.424,77.6543 225.5,78C 228.553,79.5266 231.553,81.0266 234.5,82.5 Z"/></g>
<g><path style="opacity:1" fill="#9a643d" d="M 234.5,82.5 C 245.166,88.8317 249.666,98.1651 248,110.5C 245.4,117.93 240.567,123.263 233.5,126.5C 234.045,124.407 234.878,122.407 236,120.5C 237.68,107.774 237.18,95.1068 234.5,82.5 Z"/></g>
<g><path style="opacity:1" fill="#fbcea4" d="M 208.5,88.5 C 221.061,86.931 229.061,92.0977 232.5,104C 229.746,115.584 222.413,122.084 210.5,123.5C 204.953,115.039 203.119,105.706 205,95.5C 206.193,93.1136 207.36,90.7802 208.5,88.5 Z"/></g>
<g><path style="opacity:1" fill="#f9b87e" d="M 208.5,88.5 C 207.36,90.7802 206.193,93.1136 205,95.5C 203.119,105.706 204.953,115.039 210.5,123.5C 198.874,122.625 193.541,116.291 194.5,104.5C 195.204,95.7908 199.871,90.4575 208.5,88.5 Z"/></g>
<g><path style="opacity:1" fill="#b98055" d="M 76.5,98.5 C 80.0167,103.89 81.6834,109.89 81.5,116.5C 79.6675,115.752 78.0009,114.752 76.5,113.5C 66.0227,109.373 56.856,111.373 49,119.5C 43.7438,127.703 44.5772,135.203 51.5,142C 54.3527,143.43 57.3527,144.263 60.5,144.5C 57.3355,147.833 54.3355,151.333 51.5,155C 42.3497,154.543 35.8497,150.043 32,141.5C 29.4297,132.018 31.0964,123.351 37,115.5C 45.6869,104.616 56.8535,98.2824 70.5,96.5C 72.7986,96.5992 74.7986,97.2658 76.5,98.5 Z"/></g>
<g><path style="opacity:1" fill="#9a653d" d="M 76.5,98.5 C 81.4679,99.2795 85.6346,101.613 89,105.5C 89.8372,107.844 91.1706,109.844 93,111.5C 94.0429,114.757 94.5429,118.09 94.5,121.5C 90.9673,122.374 87.634,123.707 84.5,125.5C 83.3173,122.619 82.3173,119.619 81.5,116.5C 81.6834,109.89 80.0167,103.89 76.5,98.5 Z"/></g>
<g><path style="opacity:1" fill="#facda3" d="M 76.5,113.5 C 77.7742,119.492 77.7742,125.492 76.5,131.5C 70.7999,135.354 65.4666,139.688 60.5,144.5C 57.3527,144.263 54.3527,143.43 51.5,142C 44.5772,135.203 43.7438,127.703 49,119.5C 56.856,111.373 66.0227,109.373 76.5,113.5 Z"/></g>
<g><path style="opacity:1" fill="#f2b47b" d="M 76.5,113.5 C 78.0009,114.752 79.6675,115.752 81.5,116.5C 82.3173,119.619 83.3173,122.619 84.5,125.5C 81.8717,127.488 79.205,129.488 76.5,131.5C 77.7742,125.492 77.7742,119.492 76.5,113.5 Z"/></g>
<g><path style="opacity:1" fill="#7f583a" d="M 158.5,120.5 C 149.721,122.208 140.721,123.208 131.5,123.5C 140.23,121.305 149.23,120.305 158.5,120.5 Z"/></g>
<g><path style="opacity:1" fill="#c69673" d="M 106.5,131.5 C 106.489,133.017 105.823,134.184 104.5,135C 93.6521,143.85 83.4855,153.35 74,163.5C 69.6327,170.222 65.6327,177.222 62,184.5C 59.2757,189.841 57.4424,195.507 56.5,201.5C 55.8333,202.5 55.1667,203.5 54.5,204.5C 49.3562,223.846 48.3562,243.512 51.5,263.5C 46.0008,265.657 43.3341,269.657 43.5,275.5C 42.4415,274.4 41.6082,273.066 41,271.5C 34.7601,242.76 37.0935,214.76 48,187.5C 60.1919,161.14 79.6919,142.474 106.5,131.5 Z"/></g>
<g><path style="opacity:1" fill="#2a1d13" d="M 160.5,179.5 C 170.84,181.447 181.174,183.614 191.5,186C 197.261,191.338 196.595,195.671 189.5,199C 181.227,201.689 172.894,202.022 164.5,200C 155.861,194.308 154.528,187.475 160.5,179.5 Z"/></g>
<g><path style="opacity:1" fill="#2b1d13" d="M 54.5,204.5 C 55.1667,203.5 55.8333,202.5 56.5,201.5C 64.2446,197.295 72.2446,193.628 80.5,190.5C 83.2138,190.94 85.3805,192.274 87,194.5C 87.7383,198.261 87.4049,201.928 86,205.5C 81.4291,212.074 75.0958,214.741 67,213.5C 58.9888,215.436 54.8221,212.436 54.5,204.5 Z"/></g>
<g><path style="opacity:1" fill="#9b653e" d="M 265.5,184.5 C 278.65,209.059 282.15,235.059 276,262.5C 268.74,278.341 257.073,289.674 241,296.5C 224.007,302.336 206.507,306.002 188.5,307.5C 202.503,302.428 216.17,296.261 229.5,289C 239.289,282.878 247.456,275.045 254,265.5C 267.537,240.127 271.37,213.127 265.5,184.5 Z"/></g>
<g><path style="opacity:1" fill="#070402" d="M 199.5,248.5 C 199.939,252.715 198.273,255.715 194.5,257.5C 189.308,257.727 184.308,256.893 179.5,255C 173.667,251.945 167.667,249.278 161.5,247C 157.538,244.066 156.038,240.233 157,235.5C 166.617,226.218 177.117,218.051 188.5,211C 193.772,208.382 198.272,209.215 202,213.5C 202.667,215.833 202.667,218.167 202,220.5C 195.438,226.196 188.605,231.529 181.5,236.5C 185.372,238.602 189.372,240.436 193.5,242C 196.409,243.406 198.409,245.572 199.5,248.5 Z"/></g>
<g><path style="opacity:1" fill="#5d402b" d="M 58.5,226.5 C 60.9664,225.366 63.633,225.199 66.5,226C 67.056,226.383 67.3893,226.883 67.5,227.5C 64.5701,226.701 61.5701,226.368 58.5,226.5 Z"/></g>
<g><path style="opacity:1" fill="#070402" d="M 58.5,226.5 C 61.5701,226.368 64.5701,226.701 67.5,227.5C 76.5722,230.87 85.2388,235.036 93.5,240C 97.1136,242.944 98.4469,246.777 97.5,251.5C 95.457,252.579 94.1237,254.246 93.5,256.5C 87.2236,260.646 80.8903,264.813 74.5,269C 72.1902,269.497 69.8568,269.663 67.5,269.5C 65.457,268.421 64.1237,266.754 63.5,264.5C 63.3367,262.143 63.5034,259.81 64,257.5C 67.2609,254.784 70.4276,251.951 73.5,249C 67.4598,245.872 61.6265,242.372 56,238.5C 53.3794,233.622 54.2128,229.622 58.5,226.5 Z"/></g>
<g><path style="opacity:1" fill="#f9cca3" d="M 169.5,255.5 C 173.096,277.547 166.763,296.047 150.5,311C 143.816,312.898 137.15,314.398 130.5,315.5C 127.57,314.701 124.57,314.368 121.5,314.5C 114.825,314.666 108.158,314.5 101.5,314C 98.9746,313.576 96.9746,312.41 95.5,310.5C 89.0144,290.04 91.0144,270.373 101.5,251.5C 100.767,250.913 99.7666,250.913 98.5,251.5C 100.094,250.017 101.76,248.517 103.5,247C 127.503,236.112 149.503,238.945 169.5,255.5 Z"/></g>
<g><path style="opacity:1" fill="#e3806e" d="M 194.5,257.5 C 198.273,255.715 199.939,252.715 199.5,248.5C 202.628,246.038 206.294,245.038 210.5,245.5C 223.514,245.854 229.348,252.521 228,265.5C 221.787,277.577 211.954,282.41 198.5,280C 189.844,275.848 186.677,269.015 189,259.5C 190.948,258.891 192.782,258.224 194.5,257.5 Z"/></g>
<g><path style="opacity:1" fill="#090605" d="M 120.5,246.5 C 124.182,246.335 127.848,246.501 131.5,247C 135.292,249.053 136.458,252.219 135,256.5C 133.667,259.167 131.667,261.167 129,262.5C 128.51,263.793 128.343,265.127 128.5,266.5C 134.347,267.362 140.013,268.862 145.5,271C 146.894,271.956 147.561,273.289 147.5,275C 145.491,279.266 145.158,283.766 146.5,288.5C 145.796,297.209 141.129,302.543 132.5,304.5C 128.232,305.373 123.898,305.706 119.5,305.5C 110.14,301.779 105.473,294.779 105.5,284.5C 101.287,280.365 101.621,276.531 106.5,273C 110.079,271.294 113.579,269.461 117,267.5C 117.49,266.207 117.657,264.873 117.5,263.5C 113.859,263.348 111.193,261.682 109.5,258.5C 109.368,255.43 109.701,252.43 110.5,249.5C 110.842,248.662 111.508,248.328 112.5,248.5C 114.934,249.354 114.767,250.354 112,251.5C 111.581,260.316 114.581,261.649 121,255.5C 122.041,252.364 121.207,249.864 118.5,248C 119.416,247.722 120.082,247.222 120.5,246.5 Z"/></g>
<g><path style="opacity:1" fill="#403f3e" d="M 120.5,246.5 C 120.082,247.222 119.416,247.722 118.5,248C 121.207,249.864 122.041,252.364 121,255.5C 114.581,261.649 111.581,260.316 112,251.5C 114.767,250.354 114.934,249.354 112.5,248.5C 114.838,246.96 117.505,246.294 120.5,246.5 Z"/></g>
<g><path style="opacity:1" fill="#fbdbbf" d="M 95.5,310.5 C 93.7162,310.107 92.0495,309.441 90.5,308.5C 81.5256,296.201 80.0256,282.868 86,268.5C 88.2606,264.304 90.7606,260.304 93.5,256.5C 94.1237,254.246 95.457,252.579 97.5,251.5C 97.8333,251.5 98.1667,251.5 98.5,251.5C 99.7666,250.913 100.767,250.913 101.5,251.5C 91.0144,270.373 89.0144,290.04 95.5,310.5 Z"/></g>
<g><path style="opacity:1" fill="#43372c" d="M 110.5,249.5 C 109.701,252.43 109.368,255.43 109.5,258.5C 106.576,255.122 106.91,252.122 110.5,249.5 Z"/></g>
<g><path style="opacity:1" fill="#f9b87d" d="M 169.5,255.5 C 175.065,259.915 178.899,265.582 181,272.5C 185.382,291.421 178.549,304.254 160.5,311C 166.528,311.164 172.528,310.664 178.5,309.5C 179.726,309.52 180.726,309.853 181.5,310.5C 179.962,318.996 183.629,322.663 192.5,321.5C 192.932,322.71 193.599,323.71 194.5,324.5C 194.5,325.5 194.5,326.5 194.5,327.5C 169.9,330.473 145.233,331.139 120.5,329.5C 124.556,329.026 128.39,327.693 132,325.5C 134.317,321.652 133.817,318.319 130.5,315.5C 137.15,314.398 143.816,312.898 150.5,311C 166.763,296.047 173.096,277.547 169.5,255.5 Z"/></g>
<g><path style="opacity:1" fill="#e48371" d="M 63.5,264.5 C 64.1237,266.754 65.457,268.421 67.5,269.5C 70.3583,270.166 73.3583,270.833 76.5,271.5C 81.0049,282.151 78.0049,289.818 67.5,294.5C 63.1817,295.754 58.8484,295.754 54.5,294.5C 49.5402,288.914 45.8736,282.58 43.5,275.5C 43.3341,269.657 46.0008,265.657 51.5,263.5C 55.7441,261.891 59.7441,262.224 63.5,264.5 Z"/></g>
<g><path style="opacity:1" fill="#bc8359" d="M 93.5,256.5 C 90.7606,260.304 88.2606,264.304 86,268.5C 80.0256,282.868 81.5256,296.201 90.5,308.5C 90.2648,309.097 89.7648,309.43 89,309.5C 86.0459,307.607 82.8792,306.107 79.5,305C 74.7144,302.38 70.7144,298.88 67.5,294.5C 78.0049,289.818 81.0049,282.151 76.5,271.5C 73.3583,270.833 70.3583,270.166 67.5,269.5C 69.8568,269.663 72.1902,269.497 74.5,269C 80.8903,264.813 87.2236,260.646 93.5,256.5 Z"/></g>
<g><path style="opacity:1" fill="#ed5d51" d="M 128.5,277.5 C 123.609,282.02 121.609,287.687 122.5,294.5C 120.248,294.084 118.748,292.751 118,290.5C 117.561,286.789 117.894,283.122 119,279.5C 121.945,276.811 125.111,276.145 128.5,277.5 Z"/></g>
<g><path style="opacity:1" fill="#f47978" d="M 128.5,277.5 C 131.952,277.448 134.119,279.115 135,282.5C 135.667,285.5 135.667,288.5 135,291.5C 131.248,294.077 127.081,295.077 122.5,294.5C 121.609,287.687 123.609,282.02 128.5,277.5 Z"/></g>
<g><path style="opacity:1" fill="#bb8e6d" d="M 54.5,294.5 C 58.8484,295.754 63.1817,295.754 67.5,294.5C 70.7144,298.88 74.7144,302.38 79.5,305C 82.8792,306.107 86.0459,307.607 89,309.5C 89.7648,309.43 90.2648,309.097 90.5,308.5C 92.0495,309.441 93.7162,310.107 95.5,310.5C 96.9746,312.41 98.9746,313.576 101.5,314C 108.158,314.5 114.825,314.666 121.5,314.5C 99.6546,317.254 79.3212,312.754 60.5,301C 58.2941,298.963 56.2941,296.797 54.5,294.5 Z"/></g>
<g><path style="opacity:1" fill="#816a55" d="M 132.5,304.5 C 132.389,305.117 132.056,305.617 131.5,306C 127.311,306.812 123.311,306.645 119.5,305.5C 123.898,305.706 128.232,305.373 132.5,304.5 Z"/></g>
<g><path style="opacity:1" fill="#93603b" d="M 226.5,320.5 C 216.241,322.126 206.074,324.126 196,326.5C 195.722,325.584 195.222,324.918 194.5,324.5C 193.599,323.71 192.932,322.71 192.5,321.5C 202.908,320.343 213.242,318.676 223.5,316.5C 225.468,317.1 226.468,318.433 226.5,320.5 Z"/></g>
<g><path style="opacity:1" fill="#fccfa5" d="M 194.5,327.5 C 195.649,327.791 196.316,328.624 196.5,330C 206.804,382.364 185.47,405.031 132.5,398C 126.524,396.719 120.857,394.886 115.5,392.5C 110.652,384.629 108.318,375.963 108.5,366.5C 108.735,360.146 109.235,353.813 110,347.5C 111.837,341.481 113.67,335.481 115.5,329.5C 117.167,329.5 118.833,329.5 120.5,329.5C 145.233,331.139 169.9,330.473 194.5,327.5 Z"/></g>
<g><path style="opacity:1" fill="#fbddc2" d="M 115.5,329.5 C 113.67,335.481 111.837,341.481 110,347.5C 109.235,353.813 108.735,360.146 108.5,366.5C 108.318,375.963 110.652,384.629 115.5,392.5C 113.716,392.107 112.05,391.441 110.5,390.5C 99.7381,382.244 95.4048,371.244 97.5,357.5C 97.5,356.167 97.5,354.833 97.5,353.5C 98.7682,351.095 99.4349,348.428 99.5,345.5C 100.556,340.493 101.723,335.493 103,330.5C 107.066,329.536 111.233,329.203 115.5,329.5 Z"/></g>
<g><path style="opacity:1" fill="#935f3a" d="M 83.5,357.5 C 80.1148,356.372 76.7814,356.372 73.5,357.5C 76.4019,352.095 80.2353,347.429 85,343.5C 85.6478,348.314 85.1478,352.981 83.5,357.5 Z"/></g>
<g><path style="opacity:1" fill="#bb8256" d="M 226.5,320.5 C 227.29,321.794 228.29,322.961 229.5,324C 242.273,328.936 252.939,336.769 261.5,347.5C 260.876,347.917 260.543,348.584 260.5,349.5C 263.318,356.314 263.984,363.314 262.5,370.5C 259.616,375.262 255.616,378.595 250.5,380.5C 242.5,378.079 235.667,373.746 230,367.5C 221.954,358.97 215.787,349.303 211.5,338.5C 208.011,335.912 204.511,335.912 201,338.5C 200.39,342.236 200.723,345.903 202,349.5C 210.356,367.032 222.856,381.032 239.5,391.5C 237.415,394.183 236.082,397.183 235.5,400.5C 230.84,411.599 225.674,422.599 220,433.5C 214.638,439.931 207.805,443.265 199.5,443.5C 198.542,443.047 197.708,442.381 197,441.5C 191.842,430.36 188.509,418.693 187,406.5C 182.564,402.233 178.731,402.566 175.5,407.5C 174.521,410.625 174.187,413.958 174.5,417.5C 163.154,417.514 151.821,417.181 140.5,416.5C 140.5,416.167 140.5,415.833 140.5,415.5C 132.787,412.476 125.454,408.643 118.5,404C 114.642,400.451 111.642,396.285 109.5,391.5C 109.624,390.893 109.957,390.56 110.5,390.5C 112.05,391.441 113.716,392.107 115.5,392.5C 120.857,394.886 126.524,396.719 132.5,398C 185.47,405.031 206.804,382.364 196.5,330C 196.316,328.624 195.649,327.791 194.5,327.5C 194.5,326.5 194.5,325.5 194.5,324.5C 195.222,324.918 195.722,325.584 196,326.5C 206.074,324.126 216.241,322.126 226.5,320.5 Z"/></g>
<g><path style="opacity:1" fill="#c29270" d="M 261.5,347.5 C 269.6,353.827 272.766,362.16 271,372.5C 266.311,380.551 259.478,383.218 250.5,380.5C 255.616,378.595 259.616,375.262 262.5,370.5C 263.984,363.314 263.318,356.314 260.5,349.5C 260.543,348.584 260.876,347.917 261.5,347.5 Z"/></g>
<g><path style="opacity:1" fill="#52483f" d="M 99.5,345.5 C 99.4349,348.428 98.7682,351.095 97.5,353.5C 97.2938,350.505 97.9605,347.838 99.5,345.5 Z"/></g>
<g><path style="opacity:1" fill="#b67e53" d="M 83.5,357.5 C 82.341,368.844 82.341,380.177 83.5,391.5C 75.0258,393.179 68.8592,390.179 65,382.5C 63.8791,372.758 66.7124,364.425 73.5,357.5C 76.7814,356.372 80.1148,356.372 83.5,357.5 Z"/></g>
<g><path style="opacity:1" fill="#c49572" d="M 97.5,357.5 C 95.4048,371.244 99.7381,382.244 110.5,390.5C 109.957,390.56 109.624,390.893 109.5,391.5C 111.642,396.285 114.642,400.451 118.5,404C 125.454,408.643 132.787,412.476 140.5,415.5C 136.193,414.673 131.86,414.007 127.5,413.5C 116.739,410.918 107.906,405.251 101,396.5C 98.7813,392.729 97.1146,388.729 96,384.5C 95.6472,375.314 96.1472,366.314 97.5,357.5 Z"/></g>
<g><path style="opacity:1" fill="#9a653e" d="M 235.5,400.5 C 233.928,414.707 230.428,428.373 225,441.5C 222.705,443.938 219.872,445.438 216.5,446C 212.167,446.667 207.833,446.667 203.5,446C 201.68,445.8 200.347,444.966 199.5,443.5C 207.805,443.265 214.638,439.931 220,433.5C 225.674,422.599 230.84,411.599 235.5,400.5 Z"/></g>
<g><path style="opacity:1" fill="#755943" d="M 127.5,413.5 C 131.86,414.007 136.193,414.673 140.5,415.5C 140.5,415.833 140.5,416.167 140.5,416.5C 135.88,416.26 131.547,415.26 127.5,413.5 Z"/></g>
<g><path style="opacity:1" fill="#7f593c" d="M 175.5,407.5 C 175.249,410.909 175.583,414.242 176.5,417.5C 171.667,417.833 166.833,418.167 162,418.5C 154.604,418.673 147.438,418.007 140.5,416.5C 151.821,417.181 163.154,417.514 174.5,417.5C 174.187,413.958 174.521,410.625 175.5,407.5 Z"/></g>
<g><path style="opacity:1" fill="#b77e53" d="M 108.5,420.5 C 111.25,423.431 113.916,426.598 116.5,430C 120.615,432.448 124.448,435.281 128,438.5C 128.497,440.81 128.663,443.143 128.5,445.5C 124.131,445.533 119.798,445.2 115.5,444.5C 114.115,443.386 112.615,442.386 111,441.5C 108.062,433.982 105.562,426.315 103.5,418.5C 105.578,417.693 107.245,418.359 108.5,420.5 Z"/></g>
<g><path style="opacity:1" fill="#96623c" d="M 108.5,420.5 C 119.683,425.338 131.349,428.338 143.5,429.5C 142.502,440.852 136.336,446.518 125,446.5C 121.523,446.672 118.356,446.006 115.5,444.5C 119.798,445.2 124.131,445.533 128.5,445.5C 128.663,443.143 128.497,440.81 128,438.5C 124.448,435.281 120.615,432.448 116.5,430C 113.916,426.598 111.25,423.431 108.5,420.5 Z"/></g>
</svg>
