<?xml version="1.0" encoding="UTF-8"?>
<!DOCTYPE svg PUBLIC "-//W3C//DTD SVG 1.1//EN" "http://www.w3.org/Graphics/SVG/1.1/DTD/svg11.dtd">
<svg xmlns="http://www.w3.org/2000/svg" version="1.1" width="450px" height="523px" style="shape-rendering:geometricPrecision; text-rendering:geometricPrecision; image-rendering:optimizeQuality; fill-rule:evenodd; clip-rule:evenodd" xmlns:xlink="http://www.w3.org/1999/xlink">
<g><path style="opacity:0.943" fill="#030201" d="M 197.5,59.5 C 200.068,60.4496 202.568,60.4496 205,59.5C 207.455,60.9164 209.955,61.2497 212.5,60.5C 227.393,63.5977 239.893,71.2644 250,83.5C 259.727,102.781 256.893,119.614 241.5,134C 265.139,156.095 280.973,182.928 289,214.5C 292.423,232.357 291.756,250.024 287,267.5C 278.276,287.547 263.443,301.714 242.5,310C 260.092,314.432 275.425,323.265 288.5,336.5C 299.849,355.667 295.515,370.834 275.5,382C 272.57,382.606 269.737,383.44 267,384.5C 263.925,383.675 260.592,383.675 257,384.5C 249.83,402.012 242.664,419.512 235.5,437C 225.8,460.208 209.8,466.874 187.5,457C 177.862,452.165 172.862,444.332 172.5,433.5C 165.523,432.543 158.523,432.377 151.5,433C 147.908,439.638 144.075,446.138 140,452.5C 136.073,456.464 131.406,459.13 126,460.5C 122.88,459.914 119.546,459.914 116,460.5C 104.471,459.243 95.4713,453.909 89,444.5C 86.9073,439.283 85.7406,434.116 85.5,429C 84.5387,422.371 84.5387,416.038 85.5,410C 84.8591,405.548 84.1924,401.048 83.5,396.5C 71.2823,400.61 59.449,397.943 48,388.5C 38.6585,376.502 38.3252,363.835 47,350.5C 54.3918,342.41 62.5584,335.243 71.5,329C 59.372,324.529 48.872,317.695 40,308.5C 24.3509,287.785 17.1842,264.618 18.5,239C 19.7812,221.506 23.2812,204.339 29,187.5C 29.7922,185.413 30.9588,183.579 32.5,182C 32.2616,179.438 33.2616,177.104 35.5,175C 19.7556,169.379 10.7556,158.212 8.5,141.5C 9.37196,139.393 9.37196,137.393 8.5,135.5C 11.1539,119.61 19.1539,106.777 32.5,97C 42.9948,89.2996 54.6614,85.4662 67.5,85.5C 75.741,87.6201 83.4077,91.4534 90.5,97C 95.5787,102.658 98.912,109.158 100.5,116.5C 107.529,115.158 114.529,113.325 121.5,111C 131.22,109.731 140.887,108.231 150.5,106.5C 152.747,107.374 155.08,107.708 157.5,107.5C 155.667,79.3015 169.001,63.3015 197.5,59.5 Z"/></g>
<g><path style="opacity:1" fill="#3e2b1d" d="M 203.5,75.5 C 199.131,75.4672 194.798,75.8005 190.5,76.5C 192.634,74.9666 195.134,74.2999 198,74.5C 200.033,74.5056 201.866,74.8389 203.5,75.5 Z"/></g>
<g><path style="opacity:1" fill="#bc8256" d="M 203.5,75.5 C 210.718,75.1415 217.384,76.8082 223.5,80.5C 226.864,86.2797 228.697,92.613 229,99.5C 230.192,108.421 229.359,117.087 226.5,125.5C 222.595,127.195 219.095,129.529 216,132.5C 214.943,136.886 216.443,140.053 220.5,142C 223.623,142.206 226.623,142.873 229.5,144C 243,154.668 253.333,167.835 260.5,183.5C 268.979,216.649 263.479,246.982 244,274.5C 236.64,281.76 228.473,287.927 219.5,293C 209.337,298.417 199.004,303.251 188.5,307.5C 186.631,308.165 184.631,308.831 182.5,309.5C 181.812,310.855 180.812,311.855 179.5,312.5C 179.209,311.351 178.376,310.684 177,310.5C 171.849,311.541 166.683,312.041 161.5,312C 176.291,305.648 182.457,294.482 180,278.5C 178.168,269.467 173.668,262.134 166.5,256.5C 148.027,242.347 127.694,239.514 105.5,248C 102.401,249.276 99.7339,251.11 97.5,253.5C 96.5,254.167 95.5,254.833 94.5,255.5C 95.4469,250.777 94.1136,246.944 90.5,244C 81.4068,239.12 72.0735,234.786 62.5,231C 52.184,229.654 49.0174,233.821 53,243.5C 53.8333,244.333 54.6667,245.167 55.5,246C 61.0405,247.878 66.3739,250.211 71.5,253C 68.3246,256.508 64.8246,259.675 61,262.5C 60.5065,264.134 60.3398,265.801 60.5,267.5C 56.8333,267.5 53.1667,267.5 49.5,267.5C 45.8626,252.126 45.5292,236.626 48.5,221C 48.5177,218.558 47.851,216.392 46.5,214.5C 47.8118,215.145 48.8118,216.145 49.5,217.5C 59.7562,218.727 68.5895,215.727 76,208.5C 78.6297,202.681 77.7964,197.515 73.5,193C 70.6967,192.245 68.0301,192.578 65.5,194C 61.625,197.381 57.625,200.547 53.5,203.5C 53.3367,201.143 53.5034,198.81 54,196.5C 55.8665,194.192 56.8665,191.525 57,188.5C 60.4825,181.706 64.1492,175.04 68,168.5C 78.0542,157.443 88.5542,146.609 99.5,136C 98.9056,135.536 98.2389,135.369 97.5,135.5C 105.797,130.734 114.797,127.734 124.5,126.5C 132.671,125.483 140.671,124.15 148.5,122.5C 153.844,122.334 159.177,122.501 164.5,123C 168.16,128.402 172.493,128.902 177.5,124.5C 178.647,122.235 178.814,119.902 178,117.5C 172.306,108.872 170.972,99.5388 174,89.5C 177.353,82.3001 182.853,77.9668 190.5,76.5C 194.798,75.8005 199.131,75.4672 203.5,75.5 Z"/></g>
<g><path style="opacity:1" fill="#98633d" d="M 223.5,80.5 C 242.518,90.8853 245.518,104.719 232.5,122C 230.612,123.394 228.612,124.56 226.5,125.5C 229.359,117.087 230.192,108.421 229,99.5C 228.697,92.613 226.864,86.2797 223.5,80.5 Z"/></g>
<g><path style="opacity:1" fill="#fbcea4" d="M 200.5,88.5 C 211.407,86.5905 219.24,90.5905 224,100.5C 225.075,104.858 224.408,108.858 222,112.5C 217.848,117.488 212.681,120.821 206.5,122.5C 204.278,122.822 202.444,122.155 201,120.5C 195.382,109.805 195.215,99.1385 200.5,88.5 Z"/></g>
<g><path style="opacity:1" fill="#f9b87e" d="M 200.5,88.5 C 195.215,99.1385 195.382,109.805 201,120.5C 202.444,122.155 204.278,122.822 206.5,122.5C 196.023,124.334 189.523,120.001 187,109.5C 184.853,98.1585 189.353,91.1585 200.5,88.5 Z"/></g>
<g><path style="opacity:1" fill="#b98055" d="M 74.5,121.5 C 72.7721,119.774 70.7721,118.441 68.5,117.5C 54.9412,113.35 45.1079,117.683 39,130.5C 37.6051,141.746 42.4384,148.08 53.5,149.5C 50.7209,152.88 48.0542,156.38 45.5,160C 35.427,159.95 28.5937,155.117 25,145.5C 23.5427,141.259 23.2093,136.926 24,132.5C 29.7422,117.924 39.9089,107.924 54.5,102.5C 58.9274,101.171 63.2608,101.337 67.5,103C 70.3238,106.462 72.4905,110.295 74,114.5C 74.4966,116.81 74.6633,119.143 74.5,121.5 Z"/></g>
<g><path style="opacity:1" fill="#96623c" d="M 76.5,130.5 C 76.2444,127.402 75.5778,124.402 74.5,121.5C 74.6633,119.143 74.4966,116.81 74,114.5C 72.4905,110.295 70.3238,106.462 67.5,103C 63.2608,101.337 58.9274,101.171 54.5,102.5C 66.7675,99.0438 76.6008,102.71 84,113.5C 86.0556,117.268 87.2223,121.268 87.5,125.5C 83.6401,126.681 79.9734,128.348 76.5,130.5 Z"/></g>
<g><path style="opacity:1" fill="#facda3" d="M 68.5,117.5 C 69.4128,123.441 69.7461,129.441 69.5,135.5C 63.8959,139.765 58.5626,144.432 53.5,149.5C 42.4384,148.08 37.6051,141.746 39,130.5C 45.1079,117.683 54.9412,113.35 68.5,117.5 Z"/></g>
<g><path style="opacity:1" fill="#f4b67d" d="M 68.5,117.5 C 70.7721,118.441 72.7721,119.774 74.5,121.5C 75.5778,124.402 76.2444,127.402 76.5,130.5C 74.4687,132.522 72.1354,134.189 69.5,135.5C 69.7461,129.441 69.4128,123.441 68.5,117.5 Z"/></g>
<g><path style="opacity:1" fill="#875d3e" d="M 148.5,122.5 C 140.671,124.15 132.671,125.483 124.5,126.5C 124.611,125.883 124.944,125.383 125.5,125C 133.08,123.355 140.747,122.521 148.5,122.5 Z"/></g>
<g><path style="opacity:1" fill="#c69673" d="M 97.5,135.5 C 98.2389,135.369 98.9056,135.536 99.5,136C 88.5542,146.609 78.0542,157.443 68,168.5C 64.1492,175.04 60.4825,181.706 57,188.5C 56.8665,191.525 55.8665,194.192 54,196.5C 53.5034,198.81 53.3367,201.143 53.5,203.5C 51.4535,205.279 49.2869,206.946 47,208.5C 46.5045,210.473 46.3379,212.473 46.5,214.5C 47.851,216.392 48.5177,218.558 48.5,221C 45.5292,236.626 45.8626,252.126 49.5,267.5C 45.8169,270.185 42.8169,273.518 40.5,277.5C 37.4005,270.983 35.5671,263.983 35,256.5C 32.5153,227.388 38.1819,200.055 52,174.5C 63.5433,157.164 78.7099,144.164 97.5,135.5 Z"/></g>
<g><path style="opacity:1" fill="#2a1d13" d="M 158.5,178.5 C 161.187,178.336 163.854,178.503 166.5,179C 174.167,181.333 181.833,183.667 189.5,186C 195.756,189.872 196.089,194.205 190.5,199C 181.478,200.932 172.478,200.932 163.5,199C 155.076,193.723 153.41,186.89 158.5,178.5 Z"/></g>
<g><path style="opacity:1" fill="#9b653d" d="M 260.5,183.5 C 275.664,208.498 279.498,235.165 272,263.5C 265.22,276.947 255.053,287.114 241.5,294C 224.794,301.811 207.127,306.311 188.5,307.5C 199.004,303.251 209.337,298.417 219.5,293C 228.473,287.927 236.64,281.76 244,274.5C 263.479,246.982 268.979,216.649 260.5,183.5 Z"/></g>
<g><path style="opacity:1" fill="#291c13" d="M 46.5,214.5 C 46.3379,212.473 46.5045,210.473 47,208.5C 49.2869,206.946 51.4535,205.279 53.5,203.5C 57.625,200.547 61.625,197.381 65.5,194C 68.0301,192.578 70.6967,192.245 73.5,193C 77.7964,197.515 78.6297,202.681 76,208.5C 68.5895,215.727 59.7562,218.727 49.5,217.5C 48.8118,216.145 47.8118,215.145 46.5,214.5 Z"/></g>
<g><path style="opacity:1" fill="#080503" d="M 196.5,248.5 C 196.167,254.833 192.833,258.167 186.5,258.5C 176.667,255.589 167,252.089 157.5,248C 153.482,244.057 152.649,239.557 155,234.5C 165.214,225.951 175.714,217.785 186.5,210C 195.615,207.734 199.448,211.234 198,220.5C 191.5,226 185,231.5 178.5,237C 182.642,239.235 186.975,241.235 191.5,243C 193.766,244.426 195.432,246.26 196.5,248.5 Z"/></g>
<g><path style="opacity:1" fill="#080403" d="M 94.5,255.5 C 92.7376,256.262 91.7376,257.596 91.5,259.5C 84.828,264.507 78.1613,269.507 71.5,274.5C 65.4854,275.814 61.8188,273.481 60.5,267.5C 60.3398,265.801 60.5065,264.134 61,262.5C 64.8246,259.675 68.3246,256.508 71.5,253C 66.3739,250.211 61.0405,247.878 55.5,246C 54.6667,245.167 53.8333,244.333 53,243.5C 49.0174,233.821 52.184,229.654 62.5,231C 72.0735,234.786 81.4068,239.12 90.5,244C 94.1136,246.944 95.4469,250.777 94.5,255.5 Z"/></g>
<g><path style="opacity:1" fill="#f8cca3" d="M 166.5,256.5 C 170.716,278.482 165.05,297.316 149.5,313C 142.977,314.589 136.643,316.422 130.5,318.5C 122.513,317.2 114.513,317.2 106.5,318.5C 104.052,317.527 101.385,317.194 98.5,317.5C 96.5,316.167 94.5,314.833 92.5,313.5C 93.2389,313.631 93.9056,313.464 94.5,313C 86.5968,292.458 88.2635,272.792 99.5,254C 98.9056,253.536 98.2389,253.369 97.5,253.5C 99.7339,251.11 102.401,249.276 105.5,248C 127.694,239.514 148.027,242.347 166.5,256.5 Z"/></g>
<g><path style="opacity:1" fill="#e3806e" d="M 186.5,258.5 C 192.833,258.167 196.167,254.833 196.5,248.5C 206.747,242.085 215.913,243.418 224,252.5C 227.363,266.834 221.863,276.001 207.5,280C 197.193,282.58 190.027,279.08 186,269.5C 185.55,265.812 185.717,262.146 186.5,258.5 Z"/></g>
<g><path style="opacity:1" fill="#0b0706" d="M 109.5,251.5 C 110.376,251.369 111.043,251.702 111.5,252.5C 108.077,255.42 107.744,258.587 110.5,262C 114.938,262.274 117.938,260.274 119.5,256C 118.292,253.654 116.959,251.487 115.5,249.5C 121.275,247.597 126.608,248.264 131.5,251.5C 132.652,254.106 132.818,256.773 132,259.5C 129.447,261.716 127.28,264.216 125.5,267C 125.905,267.945 126.572,268.612 127.5,269C 131.5,269.667 135.5,270.333 139.5,271C 145.687,272.956 147.02,276.622 143.5,282C 147.647,292.773 144.647,300.773 134.5,306C 126.565,309.644 118.898,309.311 111.5,305C 109.044,302.592 107.211,299.759 106,296.5C 105.222,291.143 103.389,286.31 100.5,282C 100.643,279.849 101.643,278.182 103.5,277C 107.084,274.959 110.584,272.792 114,270.5C 114.49,269.207 114.657,267.873 114.5,266.5C 107.802,264.644 104.969,260.311 106,253.5C 106.816,252.177 107.983,251.511 109.5,251.5 Z"/></g>
<g><path style="opacity:1" fill="#3f3e3e" d="M 115.5,249.5 C 116.959,251.487 118.292,253.654 119.5,256C 117.938,260.274 114.938,262.274 110.5,262C 107.744,258.587 108.077,255.42 111.5,252.5C 111.043,251.702 110.376,251.369 109.5,251.5C 111.302,250.542 113.302,249.875 115.5,249.5 Z"/></g>
<g><path style="opacity:1" fill="#fbdbbf" d="M 97.5,253.5 C 98.2389,253.369 98.9056,253.536 99.5,254C 88.2635,272.792 86.5968,292.458 94.5,313C 93.9056,313.464 93.2389,313.631 92.5,313.5C 91.1667,312.5 89.8333,311.5 88.5,310.5C 80.8947,302.007 78.3947,292.007 81,280.5C 82.7906,277.007 84.124,273.341 85,269.5C 86.996,266.014 89.1627,262.681 91.5,259.5C 91.7376,257.596 92.7376,256.262 94.5,255.5C 95.5,254.833 96.5,254.167 97.5,253.5 Z"/></g>
<g><path style="opacity:1" fill="#f9b87e" d="M 166.5,256.5 C 173.668,262.134 178.168,269.467 180,278.5C 182.457,294.482 176.291,305.648 161.5,312C 166.683,312.041 171.849,311.541 177,310.5C 178.376,310.684 179.209,311.351 179.5,312.5C 179.34,314.199 179.506,315.866 180,317.5C 181.376,318.705 182.542,320.038 183.5,321.5C 186.625,322.479 189.958,322.813 193.5,322.5C 193.433,323.959 193.766,325.292 194.5,326.5C 194.5,327.167 194.5,327.833 194.5,328.5C 177.864,330.087 161.197,331.421 144.5,332.5C 138.914,332.682 133.58,332.015 128.5,330.5C 132.973,327.194 133.64,323.194 130.5,318.5C 136.643,316.422 142.977,314.589 149.5,313C 165.05,297.316 170.716,278.482 166.5,256.5 Z"/></g>
<g><path style="opacity:1" fill="#bc8258" d="M 91.5,259.5 C 89.1627,262.681 86.996,266.014 85,269.5C 84.124,273.341 82.7906,277.007 81,280.5C 78.3947,292.007 80.8947,302.007 88.5,310.5C 87.7961,312.344 86.4628,312.844 84.5,312C 80.1667,309.667 75.8333,307.333 71.5,305C 70.248,302.308 68.248,300.475 65.5,299.5C 75.5429,294.907 78.7096,287.24 75,276.5C 74.1841,275.177 73.0174,274.511 71.5,274.5C 78.1613,269.507 84.828,264.507 91.5,259.5 Z"/></g>
<g><path style="opacity:1" fill="#e38271" d="M 49.5,267.5 C 53.1667,267.5 56.8333,267.5 60.5,267.5C 61.8188,273.481 65.4854,275.814 71.5,274.5C 73.0174,274.511 74.1841,275.177 75,276.5C 78.7096,287.24 75.5429,294.907 65.5,299.5C 61.1018,299.706 56.7685,299.373 52.5,298.5C 46.2666,292.825 42.2666,285.825 40.5,277.5C 42.8169,273.518 45.8169,270.185 49.5,267.5 Z"/></g>
<g><path style="opacity:1" fill="#eb5b4f" d="M 126.5,280.5 C 121.837,284.826 119.503,290.159 119.5,296.5C 115.036,292.667 114.202,288 117,282.5C 119.01,281.152 121.01,279.818 123,278.5C 124.459,278.808 125.626,279.475 126.5,280.5 Z"/></g>
<g><path style="opacity:1" fill="#f57a78" d="M 126.5,280.5 C 128.722,280.178 130.556,280.845 132,282.5C 135.675,294.322 131.508,298.988 119.5,296.5C 119.503,290.159 121.837,284.826 126.5,280.5 Z"/></g>
<g><path style="opacity:1" fill="#c59471" d="M 52.5,298.5 C 56.7685,299.373 61.1018,299.706 65.5,299.5C 68.248,300.475 70.248,302.308 71.5,305C 75.8333,307.333 80.1667,309.667 84.5,312C 86.4628,312.844 87.7961,312.344 88.5,310.5C 89.8333,311.5 91.1667,312.5 92.5,313.5C 94.5,314.833 96.5,316.167 98.5,317.5C 94.8019,317.448 91.1352,317.114 87.5,316.5C 73.6245,314.662 61.9579,308.662 52.5,298.5 Z"/></g>
<g><path style="opacity:1" fill="#45372c" d="M 87.5,316.5 C 91.1352,317.114 94.8019,317.448 98.5,317.5C 101.385,317.194 104.052,317.527 106.5,318.5C 100.824,318.666 95.1569,318.499 89.5,318C 88.5842,317.722 87.9175,317.222 87.5,316.5 Z"/></g>
<g><path style="opacity:1" fill="#92603b" d="M 222.5,320.5 C 213.367,323.356 204.034,325.356 194.5,326.5C 193.766,325.292 193.433,323.959 193.5,322.5C 189.958,322.813 186.625,322.479 183.5,321.5C 195.52,321.188 207.354,319.521 219,316.5C 221.327,316.822 222.494,318.156 222.5,320.5 Z"/></g>
<g><path style="opacity:1" fill="#bb8256" d="M 222.5,320.5 C 237.939,322.534 252.272,327.534 265.5,335.5C 264.761,335.369 264.094,335.536 263.5,336C 267.818,341.636 270.485,347.97 271.5,355C 271.117,361.532 268.117,366.365 262.5,369.5C 249.954,368.136 238.62,363.636 228.5,356C 223.14,351.306 218.14,346.306 213.5,341C 206,339.167 203.167,342 205,349.5C 214.31,362.993 226.644,372.659 242,378.5C 242.007,381.479 241.673,384.479 241,387.5C 238.198,393.437 235.698,399.437 233.5,405.5C 227.53,413.654 221.696,421.987 216,430.5C 209.269,438.568 200.769,442.234 190.5,441.5C 188.59,440.025 187.424,438.025 187,435.5C 184.989,424.273 183.989,412.939 184,401.5C 180.531,398.084 176.864,397.75 173,400.5C 171.639,406.407 171.139,412.407 171.5,418.5C 163.826,418.666 156.159,418.5 148.5,418C 142.57,417.461 136.904,416.295 131.5,414.5C 132.873,414.657 134.207,414.49 135.5,414C 123.901,410.563 115.567,403.397 110.5,392.5C 111.391,393.11 112.391,393.443 113.5,393.5C 119.655,396.599 126.322,398.432 133.5,399C 188.135,404.876 208.468,381.376 194.5,328.5C 194.5,327.833 194.5,327.167 194.5,326.5C 204.034,325.356 213.367,323.356 222.5,320.5 Z"/></g>
<g><path style="opacity:1" fill="#fccfa5" d="M 194.5,328.5 C 208.468,381.376 188.135,404.876 133.5,399C 126.322,398.432 119.655,396.599 113.5,393.5C 114.239,393.631 114.906,393.464 115.5,393C 110.209,385.733 107.876,377.566 108.5,368.5C 109.035,356.201 111.035,344.201 114.5,332.5C 119.186,331.906 123.853,331.239 128.5,330.5C 133.58,332.015 138.914,332.682 144.5,332.5C 161.197,331.421 177.864,330.087 194.5,328.5 Z"/></g>
<g><path style="opacity:1" fill="#fbddc1" d="M 114.5,332.5 C 111.035,344.201 109.035,356.201 108.5,368.5C 107.876,377.566 110.209,385.733 115.5,393C 114.906,393.464 114.239,393.631 113.5,393.5C 112.391,393.443 111.391,393.11 110.5,392.5C 99.9475,384.539 95.6142,373.872 97.5,360.5C 97.7882,351.231 99.4549,342.231 102.5,333.5C 106.445,332.509 110.445,332.176 114.5,332.5 Z"/></g>
<g><path style="opacity:1" fill="#c39370" d="M 265.5,335.5 C 270.755,338.584 275.255,342.584 279,347.5C 282.138,361.206 276.638,368.539 262.5,369.5C 268.117,366.365 271.117,361.532 271.5,355C 270.485,347.97 267.818,341.636 263.5,336C 264.094,335.536 264.761,335.369 265.5,335.5 Z"/></g>
<g><path style="opacity:1" fill="#96623c" d="M 83.5,358.5 C 83.607,356.097 82.607,354.264 80.5,353C 77.0395,350.934 73.3728,349.434 69.5,348.5C 74.6078,343.773 80.2745,339.773 86.5,336.5C 86.8333,337.333 87.1667,338.167 87.5,339C 85.4807,345.503 84.1474,352.003 83.5,358.5 Z"/></g>
<g><path style="opacity:1" fill="#b88055" d="M 69.5,348.5 C 73.3728,349.434 77.0395,350.934 80.5,353C 82.607,354.264 83.607,356.097 83.5,358.5C 83.1007,366.406 82.4341,374.24 81.5,382C 70.1779,386.558 61.3446,383.725 55,373.5C 54.9424,362.378 59.7757,354.045 69.5,348.5 Z"/></g>
<g><path style="opacity:1" fill="#c29471" d="M 97.5,360.5 C 95.6142,373.872 99.9475,384.539 110.5,392.5C 115.567,403.397 123.901,410.563 135.5,414C 134.207,414.49 132.873,414.657 131.5,414.5C 114.606,411.482 102.772,402.149 96,386.5C 95.3333,379.167 95.3333,371.833 96,364.5C 96.21,362.942 96.71,361.609 97.5,360.5 Z"/></g>
<g><path style="opacity:1" fill="#98633d" d="M 233.5,405.5 C 228.645,419.553 221.978,432.72 213.5,445C 208.282,446.563 202.949,446.896 197.5,446C 194.761,444.974 192.428,443.474 190.5,441.5C 200.769,442.234 209.269,438.568 216,430.5C 221.696,421.987 227.53,413.654 233.5,405.5 Z"/></g>
<g><path style="opacity:1" fill="#b77f54" d="M 102.5,416.5 C 106.663,423.843 111.829,430.51 118,436.5C 118.498,439.482 118.665,442.482 118.5,445.5C 116.833,445.5 115.167,445.5 113.5,445.5C 109.018,444.337 105.184,442.004 102,438.5C 100.406,430.56 99.739,422.56 100,414.5C 100.995,415.066 101.828,415.733 102.5,416.5 Z"/></g>
<g><path style="opacity:1" fill="#97623c" d="M 102.5,416.5 C 113.174,423.281 124.841,427.281 137.5,428.5C 135.093,433.425 132.426,438.258 129.5,443C 124.417,446.401 119.084,447.235 113.5,445.5C 115.167,445.5 116.833,445.5 118.5,445.5C 118.665,442.482 118.498,439.482 118,436.5C 111.829,430.51 106.663,423.843 102.5,416.5 Z"/></g>
</svg>
