<?xml version="1.0" encoding="UTF-8"?>
<!DOCTYPE svg PUBLIC "-//W3C//DTD SVG 1.1//EN" "http://www.w3.org/Graphics/SVG/1.1/DTD/svg11.dtd">
<svg xmlns="http://www.w3.org/2000/svg" version="1.1" width="500px" height="500px" style="shape-rendering:geometricPrecision; text-rendering:geometricPrecision; image-rendering:optimizeQuality; fill-rule:evenodd; clip-rule:evenodd" xmlns:xlink="http://www.w3.org/1999/xlink">
<g><path style="opacity:0.92" fill="#4c3f44" d="M 263.5,64.5 C 262.033,67.2583 261.367,66.925 261.5,63.5C 259.508,63.6715 257.842,63.0049 256.5,61.5C 255.105,62.8146 254.105,62.4812 253.5,60.5C 249.825,59.3166 246.159,59.3166 242.5,60.5C 242.611,59.8826 242.944,59.3826 243.5,59C 251.329,57.1295 257.996,58.9629 263.5,64.5 Z"/></g>
<g><path style="opacity:1" fill="#240f16" d="M 263.5,64.5 C 266.326,64.9977 268.66,66.3311 270.5,68.5C 271.344,70.7593 273.011,71.7593 275.5,71.5C 282.296,75.6264 287.296,81.2931 290.5,88.5C 290.427,90.0269 291.094,91.0269 292.5,91.5C 295.835,99.0923 297.335,107.092 297,115.5C 301.885,117.559 306.052,120.559 309.5,124.5C 309.427,126.027 310.094,127.027 311.5,127.5C 314.051,129.578 315.884,132.244 317,135.5C 318,140.167 319,144.833 320,149.5C 321.652,150.399 323.152,151.399 324.5,152.5C 325.262,154.262 326.596,155.262 328.5,155.5C 328.738,157.404 329.738,158.738 331.5,159.5C 336.429,165.477 339.095,172.477 339.5,180.5C 338.315,186.239 336.981,191.906 335.5,197.5C 334.71,196.391 334.21,195.058 334,193.5C 332.029,194.938 329.862,196.938 327.5,199.5C 328.563,201.366 327.896,201.866 325.5,201C 324.244,200.583 323.577,199.75 323.5,198.5C 330.714,190.125 332.381,180.792 328.5,170.5C 327.641,166.108 325.307,162.775 321.5,160.5C 319.317,157.418 316.317,155.418 312.5,154.5C 312.216,142.937 307.882,133.271 299.5,125.5C 299.5,124.167 299.5,122.833 299.5,121.5C 298.448,121.649 297.448,121.483 296.5,121C 294.257,118.512 292.257,115.846 290.5,113C 291.604,111.869 291.271,111.035 289.5,110.5C 288.833,104.833 288.167,99.1667 287.5,93.5C 285.081,91.2457 283.248,88.579 282,85.5C 281.184,84.1772 280.017,83.5106 278.5,83.5C 269.763,75.7927 259.763,70.1261 248.5,66.5C 247.366,68.4385 247.7,70.1052 249.5,71.5C 249.817,75.7016 249.483,79.7016 248.5,83.5C 246.833,83.5 245.167,83.5 243.5,83.5C 243.33,82.1779 243.663,81.0113 244.5,80C 243.131,78.2811 242.131,76.4478 241.5,74.5C 239.691,70.6947 239.191,66.6947 240,62.5C 240.417,61.244 241.25,60.5774 242.5,60.5C 246.159,59.3166 249.825,59.3166 253.5,60.5C 254.105,62.4812 255.105,62.8146 256.5,61.5C 257.842,63.0049 259.508,63.6715 261.5,63.5C 261.367,66.925 262.033,67.2583 263.5,64.5 Z"/></g>
<g><path style="opacity:0.914" fill="#655e62" d="M 270.5,68.5 C 272.434,69.1103 274.101,70.1103 275.5,71.5C 273.011,71.7593 271.344,70.7593 270.5,68.5 Z"/></g>
<g><path style="opacity:1" fill="#c9834e" d="M 278.5,83.5 C 279.167,84.5 279.833,85.5 280.5,86.5C 278.564,85.741 276.731,84.741 275,83.5C 273.395,84.1007 272.062,85.1007 271,86.5C 272.349,88.8045 273.182,91.4712 273.5,94.5C 272.5,94.5 271.5,94.5 270.5,94.5C 270.657,95.8734 270.49,97.2068 270,98.5C 266.29,102.212 262.29,105.545 258,108.5C 256.667,107.167 255.333,107.167 254,108.5C 251.648,104.746 249.481,104.746 247.5,108.5C 247.977,109.478 248.643,110.311 249.5,111C 249.167,111.167 248.833,111.333 248.5,111.5C 245.833,108.833 243.167,108.833 240.5,111.5C 239.859,110.007 238.859,109.007 237.5,108.5C 236.027,105.59 233.86,104.923 231,106.5C 230.517,107.448 230.351,108.448 230.5,109.5C 229.5,109.5 228.5,109.5 227.5,109.5C 227.5,111.5 227.5,113.5 227.5,115.5C 226.5,114.167 225.5,114.167 224.5,115.5C 224.773,110.788 226.773,106.955 230.5,104C 238.694,100.989 246.194,96.8221 253,91.5C 256.18,85.4425 256.18,79.4425 253,73.5C 252.184,72.1772 251.017,71.5106 249.5,71.5C 247.7,70.1052 247.366,68.4385 248.5,66.5C 259.763,70.1261 269.763,75.7927 278.5,83.5 Z"/></g>
<g><path style="opacity:0.997" fill="#f7f8f4" d="M 306.5,74.5 C 312.56,75.206 316.894,78.3727 319.5,84C 315.965,93.2364 310.298,95.0697 302.5,89.5C 299.848,87.4083 299.014,84.7417 300,81.5C 302.372,79.2968 304.539,76.9635 306.5,74.5 Z"/></g>
<g><path style="opacity:0.992" fill="#f5f5f3" d="M 200.5,75.5 C 204.349,75.502 207.015,77.3353 208.5,81C 212.295,82.0635 213.461,84.5635 212,88.5C 209.833,90.6667 207.667,92.8333 205.5,95C 203.5,95.6667 201.5,95.6667 199.5,95C 196.449,92.2857 193.782,89.2857 191.5,86C 194.941,82.8997 197.941,79.3997 200.5,75.5 Z"/></g>
<g><path style="opacity:1" fill="#f9f6f3" d="M 249.5,71.5 C 251.017,71.5106 252.184,72.1772 253,73.5C 256.18,79.4425 256.18,85.4425 253,91.5C 246.194,96.8221 238.694,100.989 230.5,104C 226.773,106.955 224.773,110.788 224.5,115.5C 223.833,115.5 223.167,115.5 222.5,115.5C 221.833,115.5 221.167,115.5 220.5,115.5C 219.647,107.385 222.981,101.219 230.5,97C 234.749,94.8065 239.082,92.8065 243.5,91C 245.808,88.8723 247.474,86.3723 248.5,83.5C 249.483,79.7016 249.817,75.7016 249.5,71.5 Z"/></g>
<g><path style="opacity:0.996" fill="#4f4149" d="M 238.5,85.5 C 235.463,89.8394 231.463,91.8394 226.5,91.5C 230.182,88.9922 234.182,86.9922 238.5,85.5 Z"/></g>
<g><path style="opacity:0.102" fill="#bcb5b7" d="M 290.5,88.5 C 291.906,88.9731 292.573,89.9731 292.5,91.5C 291.094,91.0269 290.427,90.0269 290.5,88.5 Z"/></g>
<g><path style="opacity:1" fill="#c87a40" d="M 280.5,86.5 C 280.666,92.1764 280.499,97.8431 280,103.5C 278.221,107.612 275.388,110.778 271.5,113C 258.282,116.49 245.282,116.324 232.5,112.5C 235.588,112.803 237.254,111.47 237.5,108.5C 238.859,109.007 239.859,110.007 240.5,111.5C 243.167,108.833 245.833,108.833 248.5,111.5C 248.833,111.333 249.167,111.167 249.5,111C 248.643,110.311 247.977,109.478 247.5,108.5C 249.481,104.746 251.648,104.746 254,108.5C 255.333,107.167 256.667,107.167 258,108.5C 262.29,105.545 266.29,102.212 270,98.5C 270.49,97.2068 270.657,95.8734 270.5,94.5C 271.5,94.5 272.5,94.5 273.5,94.5C 273.182,91.4712 272.349,88.8045 271,86.5C 272.062,85.1007 273.395,84.1007 275,83.5C 276.731,84.741 278.564,85.741 280.5,86.5 Z"/></g>
<g><path style="opacity:1" fill="#fbf2e3" d="M 241.5,101.5 C 245.976,101.8 247.31,103.967 245.5,108C 239.339,108.878 238.006,106.711 241.5,101.5 Z"/></g>
<g><path style="opacity:1" fill="#fce9d0" d="M 237.5,108.5 C 237.254,111.47 235.588,112.803 232.5,112.5C 231.094,112.027 230.427,111.027 230.5,109.5C 230.351,108.448 230.517,107.448 231,106.5C 233.86,104.923 236.027,105.59 237.5,108.5 Z"/></g>
<g><path style="opacity:1" fill="#976857" d="M 287.5,100.5 C 287.608,105.87 287.275,111.203 286.5,116.5C 282.833,117.167 279.167,117.833 275.5,118.5C 275.5,118.167 275.5,117.833 275.5,117.5C 278.64,116.871 281.14,115.204 283,112.5C 284.813,108.551 286.313,104.551 287.5,100.5 Z"/></g>
<g><path style="opacity:1" fill="#984926" d="M 280.5,86.5 C 283.668,90.691 286.002,95.3577 287.5,100.5C 286.313,104.551 284.813,108.551 283,112.5C 281.14,115.204 278.64,116.871 275.5,117.5C 262.594,119.492 249.594,119.992 236.5,119C 233.324,118.111 230.324,116.945 227.5,115.5C 227.5,113.5 227.5,111.5 227.5,109.5C 228.5,109.5 229.5,109.5 230.5,109.5C 230.427,111.027 231.094,112.027 232.5,112.5C 245.282,116.324 258.282,116.49 271.5,113C 275.388,110.778 278.221,107.612 280,103.5C 280.499,97.8431 280.666,92.1764 280.5,86.5 Z"/></g>
<g><path style="opacity:1" fill="#884432" d="M 227.5,115.5 C 230.324,116.945 233.324,118.111 236.5,119C 249.594,119.992 262.594,119.492 275.5,117.5C 275.5,117.833 275.5,118.167 275.5,118.5C 274.833,118.833 274.167,119.167 273.5,119.5C 255.935,123.288 238.935,121.954 222.5,115.5C 223.167,115.5 223.833,115.5 224.5,115.5C 225.5,114.167 226.5,114.167 227.5,115.5 Z"/></g>
<g><path style="opacity:1" fill="#f9f3ef" d="M 218.5,122.5 C 220.553,122.402 222.22,123.069 223.5,124.5C 217.451,127.527 212.118,131.527 207.5,136.5C 205.526,138.428 204.026,140.761 203,143.5C 202.667,148.167 202.333,152.833 202,157.5C 192.361,160.965 186.527,167.631 184.5,177.5C 184.5,180.833 184.5,184.167 184.5,187.5C 184.446,189.632 183.446,190.965 181.5,191.5C 175.758,174.668 180.758,162.335 196.5,154.5C 195.699,138.006 203.032,127.339 218.5,122.5 Z"/></g>
<g><path style="opacity:1" fill="#2f030f" d="M 220.5,115.5 C 221.167,115.5 221.833,115.5 222.5,115.5C 238.935,121.954 255.935,123.288 273.5,119.5C 271.189,121.068 268.522,121.902 265.5,122C 257.167,122.333 248.833,122.667 240.5,123C 239.655,124.558 240.321,125.558 242.5,126C 250.459,126.849 258.459,127.349 266.5,127.5C 269.532,127.194 272.532,126.694 275.5,126C 270.219,125.796 269.719,124.963 274,123.5C 277.593,125.206 280.759,124.706 283.5,122C 286.972,120.501 290.472,120.334 294,121.5C 295.03,121.836 295.53,122.503 295.5,123.5C 292.927,122.445 290.261,122.278 287.5,123C 284.297,125.003 280.964,126.503 277.5,127.5C 273.534,128.162 269.534,128.495 265.5,128.5C 257.16,128.666 248.827,128.5 240.5,128C 235.666,126.376 230.666,125.209 225.5,124.5C 225.167,124.5 224.833,124.5 224.5,124.5C 224.167,124.5 223.833,124.5 223.5,124.5C 222.22,123.069 220.553,122.402 218.5,122.5C 221.203,121.037 224.203,120.204 227.5,120C 225.541,119.069 223.541,118.236 221.5,117.5C 220.702,117.043 220.369,116.376 220.5,115.5 Z"/></g>
<g><path style="opacity:1" fill="#270211" d="M 278.5,83.5 C 280.017,83.5106 281.184,84.1772 282,85.5C 283.248,88.579 285.081,91.2457 287.5,93.5C 288.167,99.1667 288.833,104.833 289.5,110.5C 291.271,111.035 291.604,111.869 290.5,113C 292.257,115.846 294.257,118.512 296.5,121C 297.448,121.483 298.448,121.649 299.5,121.5C 299.5,122.833 299.5,124.167 299.5,125.5C 298.167,124.833 296.833,124.167 295.5,123.5C 295.53,122.503 295.03,121.836 294,121.5C 290.472,120.334 286.972,120.501 283.5,122C 280.759,124.706 277.593,125.206 274,123.5C 269.719,124.963 270.219,125.796 275.5,126C 272.532,126.694 269.532,127.194 266.5,127.5C 258.459,127.349 250.459,126.849 242.5,126C 240.321,125.558 239.655,124.558 240.5,123C 248.833,122.667 257.167,122.333 265.5,122C 268.522,121.902 271.189,121.068 273.5,119.5C 274.167,119.167 274.833,118.833 275.5,118.5C 279.167,117.833 282.833,117.167 286.5,116.5C 287.275,111.203 287.608,105.87 287.5,100.5C 286.002,95.3577 283.668,90.691 280.5,86.5C 279.833,85.5 279.167,84.5 278.5,83.5 Z"/></g>
<g><path style="opacity:0.384" fill="#8d8888" d="M 309.5,124.5 C 310.906,124.973 311.573,125.973 311.5,127.5C 310.094,127.027 309.427,126.027 309.5,124.5 Z"/></g>
<g><path style="opacity:0.102" fill="#ab9fa5" d="M 198.5,125.5 C 198.573,127.027 197.906,128.027 196.5,128.5C 196.427,126.973 197.094,125.973 198.5,125.5 Z"/></g>
<g><path style="opacity:1" fill="#c88247" d="M 224.5,124.5 C 224.833,124.5 225.167,124.5 225.5,124.5C 229.83,126.664 234.497,128.164 239.5,129C 248.343,129.824 257.01,129.657 265.5,128.5C 269.534,128.495 273.534,128.162 277.5,127.5C 281.677,127.829 285.51,126.829 289,124.5C 292.263,126.382 295.763,127.548 299.5,128C 305.51,133.864 307.843,141.031 306.5,149.5C 305.85,149.196 305.183,148.863 304.5,148.5C 303.686,150.766 303.186,153.1 303,155.5C 302.814,152.964 302.314,150.631 301.5,148.5C 299.178,141.844 294.511,138.177 287.5,137.5C 284.898,137.467 282.898,138.467 281.5,140.5C 280.5,141.167 279.5,141.833 278.5,142.5C 278.972,139.185 280.805,136.851 284,135.5C 284.591,134.517 284.257,133.85 283,133.5C 280,135.833 277,138.167 274,140.5C 267.203,139.721 260.37,139.221 253.5,139C 252.692,138.692 252.025,138.192 251.5,137.5C 252.729,136.719 254.062,136.219 255.5,136C 254.667,135.833 253.833,135.667 253,135.5C 249.826,136.77 246.659,136.77 243.5,135.5C 242.833,135.667 242.167,135.833 241.5,136C 242.5,136.333 243.5,136.667 244.5,137C 243.095,138.269 241.429,138.769 239.5,138.5C 239.5,137.5 239.5,136.5 239.5,135.5C 235.893,133.413 231.893,131.913 227.5,131C 228.833,130.333 230.167,129.667 231.5,129C 228.808,128.57 226.141,128.737 223.5,129.5C 223.629,127.784 223.962,126.117 224.5,124.5 Z"/></g>
<g><path style="opacity:1" fill="#541e13" d="M 225.5,124.5 C 230.666,125.209 235.666,126.376 240.5,128C 248.827,128.5 257.16,128.666 265.5,128.5C 257.01,129.657 248.343,129.824 239.5,129C 234.497,128.164 229.83,126.664 225.5,124.5 Z"/></g>
<g><path style="opacity:0.18" fill="#aba3a8" d="M 196.5,128.5 C 196.008,130.819 195.008,132.819 193.5,134.5C 193.461,131.911 194.461,129.911 196.5,128.5 Z"/></g>
<g><path style="opacity:1" fill="#ae744f" d="M 295.5,123.5 C 296.833,124.167 298.167,124.833 299.5,125.5C 307.882,133.271 312.216,142.937 312.5,154.5C 316.317,155.418 319.317,157.418 321.5,160.5C 317.567,158.575 313.567,156.742 309.5,155C 308.242,153.259 307.242,151.426 306.5,149.5C 307.843,141.031 305.51,133.864 299.5,128C 295.763,127.548 292.263,126.382 289,124.5C 285.51,126.829 281.677,127.829 277.5,127.5C 280.964,126.503 284.297,125.003 287.5,123C 290.261,122.278 292.927,122.445 295.5,123.5 Z"/></g>
<g><path style="opacity:1" fill="#cd8848" d="M 223.5,124.5 C 223.833,124.5 224.167,124.5 224.5,124.5C 223.962,126.117 223.629,127.784 223.5,129.5C 226.141,128.737 228.808,128.57 231.5,129C 230.167,129.667 228.833,130.333 227.5,131C 231.893,131.913 235.893,133.413 239.5,135.5C 239.5,136.5 239.5,137.5 239.5,138.5C 241.429,138.769 243.095,138.269 244.5,137C 243.5,136.667 242.5,136.333 241.5,136C 242.167,135.833 242.833,135.667 243.5,135.5C 246.659,136.77 249.826,136.77 253,135.5C 253.833,135.667 254.667,135.833 255.5,136C 254.062,136.219 252.729,136.719 251.5,137.5C 252.025,138.192 252.692,138.692 253.5,139C 260.37,139.221 267.203,139.721 274,140.5C 277,138.167 280,135.833 283,133.5C 284.257,133.85 284.591,134.517 284,135.5C 280.805,136.851 278.972,139.185 278.5,142.5C 278.5,143.167 278.167,143.5 277.5,143.5C 273.54,146.34 271.873,150.34 272.5,155.5C 269.962,155.493 267.462,155.159 265,154.5C 262.995,154.999 261.495,156.166 260.5,158C 258.667,158.167 256.833,158.333 255,158.5C 251.318,158.438 248.151,157.272 245.5,155C 242.779,154.398 240.113,154.565 237.5,155.5C 235.468,157.851 233.635,160.517 232,163.5C 231.329,164.252 230.496,164.586 229.5,164.5C 234.12,159.743 235.62,154.076 234,147.5C 229.247,139.419 222.747,137.086 214.5,140.5C 213.833,140.5 213.167,140.5 212.5,140.5C 211.167,140.5 209.833,140.5 208.5,140.5C 208.5,141.5 208.5,142.5 208.5,143.5C 207.325,143.719 206.325,143.386 205.5,142.5C 207.086,140.827 207.753,138.827 207.5,136.5C 212.118,131.527 217.451,127.527 223.5,124.5 Z"/></g>
<g><path style="opacity:1" fill="#200f17" d="M 241.5,74.5 C 242.131,76.4478 243.131,78.2811 244.5,80C 243.663,81.0113 243.33,82.1779 243.5,83.5C 245.167,83.5 246.833,83.5 248.5,83.5C 247.474,86.3723 245.808,88.8723 243.5,91C 239.082,92.8065 234.749,94.8065 230.5,97C 222.981,101.219 219.647,107.385 220.5,115.5C 220.369,116.376 220.702,117.043 221.5,117.5C 223.541,118.236 225.541,119.069 227.5,120C 224.203,120.204 221.203,121.037 218.5,122.5C 203.032,127.339 195.699,138.006 196.5,154.5C 180.758,162.335 175.758,174.668 181.5,191.5C 182.752,193.001 183.752,194.668 184.5,196.5C 184.34,199.516 184.007,202.183 183.5,204.5C 182.399,203.2 181.066,202.7 179.5,203C 167.788,212.223 164.122,224.057 168.5,238.5C 168.833,239.167 169.167,239.833 169.5,240.5C 173.861,250.195 180.861,257.195 190.5,261.5C 187.687,261.452 185.021,260.785 182.5,259.5C 182.36,260.569 182.36,261.736 182.5,263C 176.651,263.818 170.985,263.652 165.5,262.5C 169.514,262.666 173.514,262.499 177.5,262C 176.944,261.617 176.611,261.117 176.5,260.5C 176.027,259.094 175.027,258.427 173.5,258.5C 161.362,247.922 156.862,234.588 160,218.5C 160.696,215.562 161.862,212.896 163.5,210.5C 164.906,210.027 165.573,209.027 165.5,207.5C 167.262,206.738 168.262,205.404 168.5,203.5C 170.479,200.854 172.812,198.521 175.5,196.5C 171.704,189.064 170.704,181.397 172.5,173.5C 173.924,171.485 174.59,169.152 174.5,166.5C 174.5,166.167 174.5,165.833 174.5,165.5C 175.906,165.027 176.573,164.027 176.5,162.5C 177.34,160.147 178.674,158.147 180.5,156.5C 182.749,155.92 184.415,154.587 185.5,152.5C 185.973,151.094 186.973,150.427 188.5,150.5C 189.496,150.586 190.329,150.252 191,149.5C 191.497,146.854 191.664,144.187 191.5,141.5C 191.171,138.772 191.837,136.438 193.5,134.5C 195.008,132.819 196.008,130.819 196.5,128.5C 197.906,128.027 198.573,127.027 198.5,125.5C 202.184,120.99 206.851,117.99 212.5,116.5C 212.293,105.23 216.96,96.8967 226.5,91.5C 231.463,91.8394 235.463,89.8394 238.5,85.5C 241.056,82.3323 242.056,78.6656 241.5,74.5 Z"/></g>
<g><path style="opacity:1" fill="#280c07" d="M 301.5,148.5 C 298.483,147.817 296.483,145.984 295.5,143C 293.167,141.833 290.833,140.667 288.5,139.5C 286.253,140.374 283.92,140.708 281.5,140.5C 282.898,138.467 284.898,137.467 287.5,137.5C 294.511,138.177 299.178,141.844 301.5,148.5 Z"/></g>
<g><path style="opacity:0.343" fill="#827b81" d="M 191.5,141.5 C 191.664,144.187 191.497,146.854 191,149.5C 190.329,150.252 189.496,150.586 188.5,150.5C 189.953,147.606 190.953,144.606 191.5,141.5 Z"/></g>
<g><path style="opacity:0.99" fill="#f4f5f2" d="M 347.5,150.5 C 353.444,149.302 357.444,151.469 359.5,157C 358.922,161.746 356.255,164.246 351.5,164.5C 344.897,163.647 342.73,159.98 345,153.5C 346.045,152.627 346.878,151.627 347.5,150.5 Z"/></g>
<g><path style="opacity:0.004" fill="#d8d5d6" d="M 324.5,152.5 C 326.404,152.738 327.738,153.738 328.5,155.5C 326.596,155.262 325.262,154.262 324.5,152.5 Z"/></g>
<g><path style="opacity:0.329" fill="#897c7e" d="M 185.5,152.5 C 184.415,154.587 182.749,155.92 180.5,156.5C 181.585,154.413 183.251,153.08 185.5,152.5 Z"/></g>
<g><path style="opacity:1" fill="#170511" d="M 212.5,140.5 C 213.167,140.5 213.833,140.5 214.5,140.5C 217.733,141.609 221.066,142.442 224.5,143C 225.625,146.677 227.125,150.177 229,153.5C 229.833,152.5 230.667,151.5 231.5,150.5C 233.498,158.998 230.165,163.164 221.5,163C 222.15,161.391 221.65,159.891 220,158.5C 219.086,159.654 218.253,159.487 217.5,158C 217.833,157.667 218.167,157.333 218.5,157C 216.945,155.354 215.279,155.021 213.5,156C 212.333,154.833 211.167,153.667 210,152.5C 209.952,149.122 210.452,145.789 211.5,142.5C 211.833,141.833 212.167,141.167 212.5,140.5 Z"/></g>
<g><path style="opacity:0.408" fill="#857f83" d="M 328.5,155.5 C 330.262,156.262 331.262,157.596 331.5,159.5C 329.738,158.738 328.738,157.404 328.5,155.5 Z"/></g>
<g><path style="opacity:1" fill="#bb8655" d="M 277.5,143.5 C 273.587,149.47 273.587,155.47 277.5,161.5C 275.83,161.249 274.33,160.582 273,159.5C 275.99,172.409 271.823,181.909 260.5,188C 252.994,189.757 246.328,188.257 240.5,183.5C 239.056,181.392 238.39,179.059 238.5,176.5C 237.883,176.389 237.383,176.056 237,175.5C 236.454,168.816 236.62,162.149 237.5,155.5C 240.113,154.565 242.779,154.398 245.5,155C 248.151,157.272 251.318,158.438 255,158.5C 256.833,158.333 258.667,158.167 260.5,158C 261.495,156.166 262.995,154.999 265,154.5C 267.462,155.159 269.962,155.493 272.5,155.5C 271.873,150.34 273.54,146.34 277.5,143.5 Z"/></g>
<g><path style="opacity:1" fill="#210309" d="M 229.5,164.5 C 216.659,169.747 208.992,165.581 206.5,152C 206.744,148.01 208.41,144.843 211.5,142.5C 210.452,145.789 209.952,149.122 210,152.5C 211.167,153.667 212.333,154.833 213.5,156C 215.279,155.021 216.945,155.354 218.5,157C 218.167,157.333 217.833,157.667 217.5,158C 218.253,159.487 219.086,159.654 220,158.5C 221.65,159.891 222.15,161.391 221.5,163C 230.165,163.164 233.498,158.998 231.5,150.5C 230.667,151.5 229.833,152.5 229,153.5C 227.125,150.177 225.625,146.677 224.5,143C 221.066,142.442 217.733,141.609 214.5,140.5C 222.747,137.086 229.247,139.419 234,147.5C 235.62,154.076 234.12,159.743 229.5,164.5 Z"/></g>
<g><path style="opacity:1" fill="#ebeaef" d="M 215.5,144.5 C 222.997,143.804 224.997,146.637 221.5,153C 213.749,154.091 211.749,151.258 215.5,144.5 Z"/></g>
<g><path style="opacity:1" fill="#1b0710" d="M 301.5,148.5 C 302.517,161.651 296.517,167.484 283.5,166C 281.34,164.668 279.34,163.168 277.5,161.5C 273.587,155.47 273.587,149.47 277.5,143.5C 278.167,143.5 278.5,143.167 278.5,142.5C 279.5,141.833 280.5,141.167 281.5,140.5C 283.92,140.708 286.253,140.374 288.5,139.5C 290.833,140.667 293.167,141.833 295.5,143C 296.483,145.984 298.483,147.817 301.5,148.5 Z"/></g>
<g><path style="opacity:1" fill="#f8f7f9" d="M 283.5,144.5 C 290.997,143.804 292.997,146.637 289.5,153C 281.711,154.057 279.711,151.224 283.5,144.5 Z"/></g>
<g><path style="opacity:0.133" fill="#c4b6bc" d="M 176.5,162.5 C 176.573,164.027 175.906,165.027 174.5,165.5C 174.427,163.973 175.094,162.973 176.5,162.5 Z"/></g>
<g><path style="opacity:0.804" fill="#6a6268" d="M 174.5,166.5 C 174.59,169.152 173.924,171.485 172.5,173.5C 172.171,170.772 172.837,168.438 174.5,166.5 Z"/></g>
<g><path style="opacity:1" fill="#ba753d" d="M 207.5,136.5 C 207.753,138.827 207.086,140.827 205.5,142.5C 206.325,143.386 207.325,143.719 208.5,143.5C 208.5,142.5 208.5,141.5 208.5,140.5C 209.833,140.5 211.167,140.5 212.5,140.5C 212.167,141.167 211.833,141.833 211.5,142.5C 208.41,144.843 206.744,148.01 206.5,152C 208.992,165.581 216.659,169.747 229.5,164.5C 230.496,164.586 231.329,164.252 232,163.5C 233.635,160.517 235.468,157.851 237.5,155.5C 236.62,162.149 236.454,168.816 237,175.5C 237.383,176.056 237.883,176.389 238.5,176.5C 238.39,179.059 239.056,181.392 240.5,183.5C 246.328,188.257 252.994,189.757 260.5,188C 271.823,181.909 275.99,172.409 273,159.5C 274.33,160.582 275.83,161.249 277.5,161.5C 279.34,163.168 281.34,164.668 283.5,166C 296.517,167.484 302.517,161.651 301.5,148.5C 302.314,150.631 302.814,152.964 303,155.5C 303.186,153.1 303.686,150.766 304.5,148.5C 305.183,148.863 305.85,149.196 306.5,149.5C 307.242,151.426 308.242,153.259 309.5,155C 313.567,156.742 317.567,158.575 321.5,160.5C 321.833,161.833 322.167,163.167 322.5,164.5C 322.947,170.228 321.947,175.562 319.5,180.5C 319.5,179.5 319.5,178.5 319.5,177.5C 318.448,177.351 317.448,177.517 316.5,178C 314.957,179.714 313.29,181.214 311.5,182.5C 307.86,180.997 304.026,179.997 300,179.5C 298.414,177.956 296.58,176.789 294.5,176C 293.458,174.082 292.292,172.249 291,170.5C 289.486,174.368 286.986,177.535 283.5,180C 278.763,182.07 274.263,184.57 270,187.5C 269.612,186.572 268.945,185.905 268,185.5C 266.225,186.27 264.725,187.437 263.5,189C 260.57,189.606 257.737,190.44 255,191.5C 250.297,190.01 245.464,189.01 240.5,188.5C 239.719,189.737 238.719,190.737 237.5,191.5C 236.304,191.154 236.304,190.654 237.5,190C 232.527,188.763 228.027,186.596 224,183.5C 223.48,180.507 222.814,177.507 222,174.5C 221.689,176.556 221.189,178.556 220.5,180.5C 220.709,181.086 221.043,181.586 221.5,182C 220.23,182.9 219.23,184.066 218.5,185.5C 216.76,184.284 215.76,182.618 215.5,180.5C 215.997,178.182 216.33,175.848 216.5,173.5C 215.5,173.5 214.5,173.5 213.5,173.5C 213.632,169.237 211.632,167.237 207.5,167.5C 204.15,167.335 200.817,167.502 197.5,168C 195.907,168.949 194.574,170.115 193.5,171.5C 191.707,174.947 192.707,177.447 196.5,179C 200.833,179.667 205.167,179.667 209.5,179C 211.35,178.31 212.684,177.144 213.5,175.5C 213.703,177.39 213.037,178.89 211.5,180C 208.167,180.333 204.833,180.667 201.5,181C 198.479,182.95 195.146,184.45 191.5,185.5C 189.759,183.756 187.759,182.423 185.5,181.5C 185.768,179.901 185.434,178.568 184.5,177.5C 186.527,167.631 192.361,160.965 202,157.5C 202.333,152.833 202.667,148.167 203,143.5C 204.026,140.761 205.526,138.428 207.5,136.5 Z"/></g>
<g><path style="opacity:1" fill="#1b0209" d="M 242.5,156.5 C 245.084,156.569 247.084,157.735 248.5,160C 252.5,160.667 256.5,160.667 260.5,160C 263.223,156.119 266.39,155.619 270,158.5C 271.038,165.372 270.538,172.038 268.5,178.5C 266.352,181.111 263.518,182.778 260,183.5C 259.308,182.975 258.808,182.308 258.5,181.5C 259.612,180.735 260.279,179.735 260.5,178.5C 261.6,177.395 262.267,176.062 262.5,174.5C 263.468,172.393 263.802,170.059 263.5,167.5C 256.964,168.471 250.631,168.805 244.5,168.5C 243.532,170.607 243.198,172.941 243.5,175.5C 242.5,175.5 241.5,175.5 240.5,175.5C 240.481,173.94 240.148,172.44 239.5,171C 242.167,168.667 242.167,166.333 239.5,164C 239.978,161.22 240.978,158.72 242.5,156.5 Z"/></g>
<g><path style="opacity:1" fill="#fcf8f0" d="M 207.5,167.5 C 208.315,168.837 209.482,169.837 211,170.5C 212.14,173.528 211.306,175.695 208.5,177C 203.26,179.487 198.427,178.987 194,175.5C 193.51,174.207 193.343,172.873 193.5,171.5C 194.574,170.115 195.907,168.949 197.5,168C 200.817,167.502 204.15,167.335 207.5,167.5 Z"/></g>
<g><path style="opacity:1" fill="#edecf3" d="M 291.5,154.5 C 295.138,153.737 296.638,155.07 296,158.5C 292.331,160.009 290.831,158.676 291.5,154.5 Z"/></g>
<g><path style="opacity:1" fill="#ddd4de" d="M 223.5,153.5 C 227.485,153.629 228.818,155.463 227.5,159C 222.711,159.845 221.377,158.011 223.5,153.5 Z"/></g>
<g><path style="opacity:1" fill="#ba755f" d="M 262.5,174.5 C 262.768,172.901 262.434,171.568 261.5,170.5C 257.554,169.473 253.554,169.306 249.5,170C 247.859,171.129 246.859,172.629 246.5,174.5C 244.926,172.898 244.259,170.898 244.5,168.5C 250.631,168.805 256.964,168.471 263.5,167.5C 263.802,170.059 263.468,172.393 262.5,174.5 Z"/></g>
<g><path style="opacity:1" fill="#fdc39b" d="M 261.5,170.5 C 261.5,171.5 261.5,172.5 261.5,173.5C 258.751,173.274 256.084,173.607 253.5,174.5C 253.511,173.559 253.011,172.892 252,172.5C 250.403,173.885 248.57,174.551 246.5,174.5C 246.859,172.629 247.859,171.129 249.5,170C 253.554,169.306 257.554,169.473 261.5,170.5 Z"/></g>
<g><path style="opacity:1" fill="#faf1e5" d="M 302.5,167.5 C 306.605,167.234 310.605,167.734 314.5,169C 316.619,171.218 316.952,173.718 315.5,176.5C 309.928,179.398 304.594,179.065 299.5,175.5C 298.386,174.277 298.219,172.944 299,171.5C 300.102,170.051 301.269,168.718 302.5,167.5 Z"/></g>
<g><path style="opacity:1" fill="#b66b33" d="M 319.5,180.5 C 314.294,188.518 306.96,193.685 297.5,196C 266.125,200.82 234.792,200.487 203.5,195C 195.465,193.07 189.465,188.57 185.5,181.5C 187.759,182.423 189.759,183.756 191.5,185.5C 195.146,184.45 198.479,182.95 201.5,181C 204.833,180.667 208.167,180.333 211.5,180C 213.037,178.89 213.703,177.39 213.5,175.5C 213.5,174.833 213.5,174.167 213.5,173.5C 214.5,173.5 215.5,173.5 216.5,173.5C 216.33,175.848 215.997,178.182 215.5,180.5C 215.76,182.618 216.76,184.284 218.5,185.5C 219.23,184.066 220.23,182.9 221.5,182C 221.043,181.586 220.709,181.086 220.5,180.5C 221.189,178.556 221.689,176.556 222,174.5C 222.814,177.507 223.48,180.507 224,183.5C 228.027,186.596 232.527,188.763 237.5,190C 236.304,190.654 236.304,191.154 237.5,191.5C 238.719,190.737 239.719,189.737 240.5,188.5C 245.464,189.01 250.297,190.01 255,191.5C 257.737,190.44 260.57,189.606 263.5,189C 264.725,187.437 266.225,186.27 268,185.5C 268.945,185.905 269.612,186.572 270,187.5C 274.263,184.57 278.763,182.07 283.5,180C 286.986,177.535 289.486,174.368 291,170.5C 292.292,172.249 293.458,174.082 294.5,176C 296.58,176.789 298.414,177.956 300,179.5C 304.026,179.997 307.86,180.997 311.5,182.5C 313.29,181.214 314.957,179.714 316.5,178C 317.448,177.517 318.448,177.351 319.5,177.5C 319.5,178.5 319.5,179.5 319.5,180.5 Z"/></g>
<g><path style="opacity:1" fill="#ae7a51" d="M 207.5,167.5 C 211.632,167.237 213.632,169.237 213.5,173.5C 213.5,174.167 213.5,174.833 213.5,175.5C 212.684,177.144 211.35,178.31 209.5,179C 205.167,179.667 200.833,179.667 196.5,179C 192.707,177.447 191.707,174.947 193.5,171.5C 193.343,172.873 193.51,174.207 194,175.5C 198.427,178.987 203.26,179.487 208.5,177C 211.306,175.695 212.14,173.528 211,170.5C 209.482,169.837 208.315,168.837 207.5,167.5 Z"/></g>
<g><path style="opacity:1" fill="#f6cdb4" d="M 261.5,170.5 C 262.434,171.568 262.768,172.901 262.5,174.5C 262.267,176.062 261.6,177.395 260.5,178.5C 257.221,179.492 253.888,179.659 250.5,179C 248.249,178.252 246.916,176.752 246.5,174.5C 248.57,174.551 250.403,173.885 252,172.5C 253.011,172.892 253.511,173.559 253.5,174.5C 256.084,173.607 258.751,173.274 261.5,173.5C 261.5,172.5 261.5,171.5 261.5,170.5 Z"/></g>
<g><path style="opacity:1" fill="#8c5745" d="M 321.5,160.5 C 325.307,162.775 327.641,166.108 328.5,170.5C 327.624,170.369 326.957,170.702 326.5,171.5C 327.799,175.964 327.799,180.298 326.5,184.5C 326.678,179.961 326.345,175.461 325.5,171C 325.456,168.199 324.456,166.032 322.5,164.5C 322.167,163.167 321.833,161.833 321.5,160.5 Z"/></g>
<g><path style="opacity:1" fill="#26070b" d="M 242.5,156.5 C 240.978,158.72 239.978,161.22 239.5,164C 242.167,166.333 242.167,168.667 239.5,171C 240.148,172.44 240.481,173.94 240.5,175.5C 241.5,175.5 242.5,175.5 243.5,175.5C 243.198,172.941 243.532,170.607 244.5,168.5C 244.259,170.898 244.926,172.898 246.5,174.5C 246.916,176.752 248.249,178.252 250.5,179C 253.888,179.659 257.221,179.492 260.5,178.5C 260.279,179.735 259.612,180.735 258.5,181.5C 258.808,182.308 259.308,182.975 260,183.5C 263.518,182.778 266.352,181.111 268.5,178.5C 262.046,188.265 253.712,190.098 243.5,184C 241.548,181.574 239.881,179.074 238.5,176.5C 238.334,170.491 238.501,164.491 239,158.5C 239.816,157.177 240.983,156.511 242.5,156.5 Z"/></g>
<g><path style="opacity:1" fill="#9d7a6b" d="M 184.5,187.5 C 187.808,194.141 192.808,199.141 199.5,202.5C 200.833,203.5 202.167,204.5 203.5,205.5C 196.131,204.603 189.797,201.603 184.5,196.5C 183.752,194.668 182.752,193.001 181.5,191.5C 183.446,190.965 184.446,189.632 184.5,187.5 Z"/></g>
<g><path style="opacity:1" fill="#9d7f74" d="M 328.5,170.5 C 332.381,180.792 330.714,190.125 323.5,198.5C 318.583,202.585 312.916,204.919 306.5,205.5C 305.5,205.5 304.5,205.5 303.5,205.5C 305.54,204.058 307.873,203.058 310.5,202.5C 311.298,202.043 311.631,201.376 311.5,200.5C 319.962,198.372 324.962,193.039 326.5,184.5C 327.799,180.298 327.799,175.964 326.5,171.5C 326.957,170.702 327.624,170.369 328.5,170.5 Z"/></g>
<g><path style="opacity:1" fill="#893a1c" d="M 322.5,164.5 C 324.456,166.032 325.456,168.199 325.5,171C 326.345,175.461 326.678,179.961 326.5,184.5C 324.962,193.039 319.962,198.372 311.5,200.5C 303.808,203.539 295.808,205.373 287.5,206C 265.167,206.667 242.833,206.667 220.5,206C 213.474,204.914 206.474,203.747 199.5,202.5C 192.808,199.141 187.808,194.141 184.5,187.5C 184.5,184.167 184.5,180.833 184.5,177.5C 185.434,178.568 185.768,179.901 185.5,181.5C 189.465,188.57 195.465,193.07 203.5,195C 234.792,200.487 266.125,200.82 297.5,196C 306.96,193.685 314.294,188.518 319.5,180.5C 321.947,175.562 322.947,170.228 322.5,164.5 Z"/></g>
<g><path style="opacity:0.396" fill="#8a8384" d="M 168.5,203.5 C 168.262,205.404 167.262,206.738 165.5,207.5C 165.738,205.596 166.738,204.262 168.5,203.5 Z"/></g>
<g><path style="opacity:1" fill="#8d5140" d="M 311.5,200.5 C 311.631,201.376 311.298,202.043 310.5,202.5C 307.873,203.058 305.54,204.058 303.5,205.5C 296.286,207.078 288.952,207.911 281.5,208C 262.167,208.667 242.833,208.667 223.5,208C 216.575,207.993 209.908,207.16 203.5,205.5C 202.167,204.5 200.833,203.5 199.5,202.5C 206.474,203.747 213.474,204.914 220.5,206C 242.833,206.667 265.167,206.667 287.5,206C 295.808,205.373 303.808,203.539 311.5,200.5 Z"/></g>
<g><path style="opacity:1" fill="#24050a" d="M 184.5,196.5 C 189.797,201.603 196.131,204.603 203.5,205.5C 209.908,207.16 216.575,207.993 223.5,208C 242.833,208.667 262.167,208.667 281.5,208C 288.952,207.911 296.286,207.078 303.5,205.5C 304.5,205.5 305.5,205.5 306.5,205.5C 306.03,206.693 305.03,207.36 303.5,207.5C 299.261,208.819 294.928,209.819 290.5,210.5C 263.834,210.056 237.334,210.056 211,210.5C 210.075,211.047 209.242,211.713 208.5,212.5C 216.473,213.562 224.473,214.395 232.5,215C 250.83,215.5 269.164,215.667 287.5,215.5C 287.5,215.833 287.5,216.167 287.5,216.5C 261.811,216.864 236.145,216.364 210.5,215C 201.845,214.341 193.845,211.841 186.5,207.5C 185.5,206.833 184.5,206.167 183.5,205.5C 183.5,205.167 183.5,204.833 183.5,204.5C 184.007,202.183 184.34,199.516 184.5,196.5 Z"/></g>
<g><path style="opacity:0.353" fill="#968f92" d="M 343.5,206.5 C 345.262,207.262 346.262,208.596 346.5,210.5C 344.738,209.738 343.738,208.404 343.5,206.5 Z"/></g>
<g><path style="opacity:0.157" fill="#ac93aa" d="M 165.5,207.5 C 165.573,209.027 164.906,210.027 163.5,210.5C 163.427,208.973 164.094,207.973 165.5,207.5 Z"/></g>
<g><path style="opacity:1" fill="#1e010d" d="M 335.5,197.5 C 334.907,200.596 335.907,202.929 338.5,204.5C 340.687,208.895 342.187,213.561 343,218.5C 343.333,218.167 343.667,217.833 344,217.5C 344.667,218.833 345.333,220.167 346,221.5C 346.914,220.346 347.747,220.513 348.5,222C 347.346,222.914 347.513,223.747 349,224.5C 349.67,234.869 348.67,234.869 346,224.5C 345.667,224.833 345.333,225.167 345,225.5C 344.722,224.584 344.222,223.918 343.5,223.5C 341.545,214.887 336.878,208.22 329.5,203.5C 328.478,203.855 327.811,204.522 327.5,205.5C 322.612,208.775 317.279,211.275 311.5,213C 303.604,214.807 295.604,215.64 287.5,215.5C 269.164,215.667 250.83,215.5 232.5,215C 224.473,214.395 216.473,213.562 208.5,212.5C 209.242,211.713 210.075,211.047 211,210.5C 237.334,210.056 263.834,210.056 290.5,210.5C 294.928,209.819 299.261,208.819 303.5,207.5C 305.03,207.36 306.03,206.693 306.5,205.5C 312.916,204.919 318.583,202.585 323.5,198.5C 323.577,199.75 324.244,200.583 325.5,201C 327.896,201.866 328.563,201.366 327.5,199.5C 329.862,196.938 332.029,194.938 334,193.5C 334.21,195.058 334.71,196.391 335.5,197.5 Z"/></g>
<g><path style="opacity:1" fill="#844a31" d="M 327.5,205.5 C 328.338,205.842 328.672,206.508 328.5,207.5C 323.879,211.308 318.546,213.808 312.5,215C 304.203,216.123 295.87,216.623 287.5,216.5C 287.5,216.167 287.5,215.833 287.5,215.5C 295.604,215.64 303.604,214.807 311.5,213C 317.279,211.275 322.612,208.775 327.5,205.5 Z"/></g>
<g><path style="opacity:1" fill="#f6f1f4" d="M 183.5,204.5 C 183.5,204.833 183.5,205.167 183.5,205.5C 182.674,207.264 181.341,208.598 179.5,209.5C 175.438,210.392 172.771,212.892 171.5,217C 171.258,224.554 170.258,231.72 168.5,238.5C 164.122,224.057 167.788,212.223 179.5,203C 181.066,202.7 182.399,203.2 183.5,204.5 Z"/></g>
<g><path style="opacity:1" fill="#fcfbf5" d="M 184.5,211.5 C 190.689,216.482 191.022,221.815 185.5,227.5C 180.327,228.65 177.327,226.65 176.5,221.5C 177.105,218.873 177.605,216.207 178,213.5C 179.789,211.771 181.956,211.104 184.5,211.5 Z"/></g>
<g><path style="opacity:1" fill="#905a3e" d="M 186.5,207.5 C 193.845,211.841 201.845,214.341 210.5,215C 236.145,216.364 261.811,216.864 287.5,216.5C 285.039,217.531 282.373,218.198 279.5,218.5C 253.789,218.952 228.122,218.118 202.5,216C 198.101,215.09 193.934,213.59 190,211.5C 189.228,211.645 188.561,211.978 188,212.5C 187.392,210.846 186.892,209.179 186.5,207.5 Z"/></g>
<g><path style="opacity:1" fill="#bb7844" d="M 183.5,205.5 C 184.5,206.167 185.5,206.833 186.5,207.5C 186.892,209.179 187.392,210.846 188,212.5C 188.561,211.978 189.228,211.645 190,211.5C 193.934,213.59 198.101,215.09 202.5,216C 228.122,218.118 253.789,218.952 279.5,218.5C 280.695,220.35 280.029,221.35 277.5,221.5C 275.529,221.004 273.529,220.67 271.5,220.5C 267.88,221.558 264.214,222.392 260.5,223C 261.5,223.333 262.5,223.667 263.5,224C 254.834,224.916 246.167,225.75 237.5,226.5C 235.392,226.14 233.392,225.473 231.5,224.5C 232.167,224.167 232.833,223.833 233.5,223.5C 229.217,222.508 224.884,222.174 220.5,222.5C 220.966,224.201 220.966,225.701 220.5,227C 218.527,227.495 216.527,227.662 214.5,227.5C 214.229,229.38 214.896,230.713 216.5,231.5C 216.975,234.313 215.975,236.313 213.5,237.5C 213.167,237.5 212.833,237.5 212.5,237.5C 215.745,229.996 213.412,227.329 205.5,229.5C 203.876,229.64 202.71,228.973 202,227.5C 201.768,228.737 201.268,229.737 200.5,230.5C 200.62,223.749 197.786,221.749 192,224.5C 191.297,226.929 191.463,229.262 192.5,231.5C 190.964,229.975 189.964,227.975 189.5,225.5C 188.378,226.63 187.044,227.297 185.5,227.5C 191.022,221.815 190.689,216.482 184.5,211.5C 182.833,210.833 181.167,210.167 179.5,209.5C 181.341,208.598 182.674,207.264 183.5,205.5 Z"/></g>
<g><path style="opacity:0.863" fill="#675b5d" d="M 346.5,211.5 C 348.897,214.309 350.23,217.642 350.5,221.5C 348.016,218.734 346.683,215.401 346.5,211.5 Z"/></g>
<g><path style="opacity:1" fill="#f9ecd8" d="M 179.5,209.5 C 181.167,210.167 182.833,210.833 184.5,211.5C 181.956,211.104 179.789,211.771 178,213.5C 177.605,216.207 177.105,218.873 176.5,221.5C 175.839,220.282 175.172,218.949 174.5,217.5C 173.914,217.709 173.414,218.043 173,218.5C 172.501,222.152 172.335,225.818 172.5,229.5C 172.5,231.833 172.5,234.167 172.5,236.5C 172.532,238.619 171.532,239.952 169.5,240.5C 169.167,239.833 168.833,239.167 168.5,238.5C 170.258,231.72 171.258,224.554 171.5,217C 172.771,212.892 175.438,210.392 179.5,209.5 Z"/></g>
<g><path style="opacity:1" fill="#b76d35" d="M 330.5,223.5 C 328.7,229.953 325.033,234.953 319.5,238.5C 319.941,232.607 317.274,230.274 311.5,231.5C 308.231,232.045 305.065,232.045 302,231.5C 300.286,232.076 299.119,233.243 298.5,235C 296.608,235.973 294.608,236.64 292.5,237C 282.589,237.818 272.756,237.651 263,236.5C 249.241,238.096 235.408,238.429 221.5,237.5C 220.399,236.402 219.066,236.235 217.5,237C 216.372,239.065 214.706,239.732 212.5,239C 213.056,238.617 213.389,238.117 213.5,237.5C 215.975,236.313 216.975,234.313 216.5,231.5C 221.659,230.921 226.825,230.254 232,229.5C 241.504,230.73 251.004,230.73 260.5,229.5C 264.47,230.851 268.637,231.518 273,231.5C 279.153,230.862 285.319,230.529 291.5,230.5C 291.5,229.167 291.5,227.833 291.5,226.5C 299.263,225.54 307.263,224.706 315.5,224C 317.906,223.694 320.073,222.861 322,221.5C 324.42,223.131 326.42,222.797 328,220.5C 328.236,222.119 329.069,223.119 330.5,223.5 Z"/></g>
<g><path style="opacity:1" fill="#bb733b" d="M 331.5,207.5 C 331.676,212.88 331.342,218.213 330.5,223.5C 329.069,223.119 328.236,222.119 328,220.5C 326.42,222.797 324.42,223.131 322,221.5C 320.073,222.861 317.906,223.694 315.5,224C 307.263,224.706 299.263,225.54 291.5,226.5C 291.5,227.833 291.5,229.167 291.5,230.5C 285.319,230.529 279.153,230.862 273,231.5C 268.637,231.518 264.47,230.851 260.5,229.5C 251.004,230.73 241.504,230.73 232,229.5C 226.825,230.254 221.659,230.921 216.5,231.5C 214.896,230.713 214.229,229.38 214.5,227.5C 216.527,227.662 218.527,227.495 220.5,227C 220.966,225.701 220.966,224.201 220.5,222.5C 224.884,222.174 229.217,222.508 233.5,223.5C 232.833,223.833 232.167,224.167 231.5,224.5C 233.392,225.473 235.392,226.14 237.5,226.5C 246.167,225.75 254.834,224.916 263.5,224C 262.5,223.667 261.5,223.333 260.5,223C 264.214,222.392 267.88,221.558 271.5,220.5C 273.529,220.67 275.529,221.004 277.5,221.5C 280.029,221.35 280.695,220.35 279.5,218.5C 282.373,218.198 285.039,217.531 287.5,216.5C 295.87,216.623 304.203,216.123 312.5,215C 318.546,213.808 323.879,211.308 328.5,207.5C 329.5,206.167 330.5,206.167 331.5,207.5 Z"/></g>
<g><path style="opacity:1" fill="#fcf4e9" d="M 200.5,230.5 C 198.224,234.07 195.558,234.403 192.5,231.5C 191.463,229.262 191.297,226.929 192,224.5C 197.786,221.749 200.62,223.749 200.5,230.5 Z"/></g>
<g><path style="opacity:1" fill="#fcf4e9" d="M 212.5,237.5 C 205.762,238.438 203.429,235.771 205.5,229.5C 213.412,227.329 215.745,229.996 212.5,237.5 Z"/></g>
<g><path style="opacity:1" fill="#af6534" d="M 176.5,221.5 C 177.327,226.65 180.327,228.65 185.5,227.5C 187.044,227.297 188.378,226.63 189.5,225.5C 189.964,227.975 190.964,229.975 192.5,231.5C 195.558,234.403 198.224,234.07 200.5,230.5C 201.268,229.737 201.768,228.737 202,227.5C 202.71,228.973 203.876,229.64 205.5,229.5C 203.429,235.771 205.762,238.438 212.5,237.5C 212.833,237.5 213.167,237.5 213.5,237.5C 213.389,238.117 213.056,238.617 212.5,239C 214.706,239.732 216.372,239.065 217.5,237C 219.066,236.235 220.399,236.402 221.5,237.5C 221.611,238.117 221.944,238.617 222.5,239C 243.396,239.783 243.562,240.95 223,242.5C 221.578,241.795 220.245,241.461 219,241.5C 218.097,242.701 216.931,243.535 215.5,244C 216.931,244.465 218.097,245.299 219,246.5C 222.986,246.349 227.32,246.015 232,245.5C 234.891,245.26 237.391,246.093 239.5,248C 243.863,248.29 248.196,248.79 252.5,249.5C 257.194,247.994 262.028,246.994 267,246.5C 267.333,246.833 267.667,247.167 268,247.5C 268.615,245.884 269.615,244.551 271,243.5C 271.483,244.448 271.649,245.448 271.5,246.5C 276.75,246 281.917,246 287,246.5C 293.35,245.244 299.516,243.578 305.5,241.5C 307.432,242.52 309.432,242.687 311.5,242C 313.217,240.441 315.217,239.608 317.5,239.5C 314.01,242.415 310.01,244.582 305.5,246C 267.314,253.702 229.314,253.035 191.5,244C 187.619,241.893 183.619,240.059 179.5,238.5C 176.73,235.743 174.396,232.743 172.5,229.5C 172.335,225.818 172.501,222.152 173,218.5C 173.414,218.043 173.914,217.709 174.5,217.5C 175.172,218.949 175.839,220.282 176.5,221.5 Z"/></g>
<g><path style="opacity:1" fill="#813519" d="M 331.5,207.5 C 339.541,215.97 341.707,225.97 338,237.5C 332.394,248.392 323.56,255.059 311.5,257.5C 303.826,257.666 296.159,257.5 288.5,257C 288.167,256.667 287.833,256.333 287.5,256C 288.833,255.333 289.833,254.333 290.5,253C 291.833,252.667 293.167,252.333 294.5,252C 292.667,251.833 290.833,251.667 289,251.5C 285.562,252.125 282.229,252.125 279,251.5C 278,252.167 277,252.833 276,253.5C 257.12,253.004 238.786,253.004 221,253.5C 217.547,252.969 214.213,251.969 211,250.5C 207.502,252.642 203.668,253.808 199.5,254C 202.319,254.983 204.986,255.483 207.5,255.5C 205.892,256.318 204.225,256.985 202.5,257.5C 199.05,255.776 195.383,255.109 191.5,255.5C 182.78,251.447 176.447,245.113 172.5,236.5C 172.5,234.167 172.5,231.833 172.5,229.5C 174.396,232.743 176.73,235.743 179.5,238.5C 183.619,240.059 187.619,241.893 191.5,244C 229.314,253.035 267.314,253.702 305.5,246C 310.01,244.582 314.01,242.415 317.5,239.5C 318.492,239.672 319.158,239.338 319.5,238.5C 325.033,234.953 328.7,229.953 330.5,223.5C 331.342,218.213 331.676,212.88 331.5,207.5 Z"/></g>
<g><path style="opacity:1" fill="#b2662f" d="M 319.5,238.5 C 319.158,239.338 318.492,239.672 317.5,239.5C 315.217,239.608 313.217,240.441 311.5,242C 309.432,242.687 307.432,242.52 305.5,241.5C 299.516,243.578 293.35,245.244 287,246.5C 281.917,246 276.75,246 271.5,246.5C 271.649,245.448 271.483,244.448 271,243.5C 269.615,244.551 268.615,245.884 268,247.5C 267.667,247.167 267.333,246.833 267,246.5C 262.028,246.994 257.194,247.994 252.5,249.5C 248.196,248.79 243.863,248.29 239.5,248C 237.391,246.093 234.891,245.26 232,245.5C 227.32,246.015 222.986,246.349 219,246.5C 218.097,245.299 216.931,244.465 215.5,244C 216.931,243.535 218.097,242.701 219,241.5C 220.245,241.461 221.578,241.795 223,242.5C 243.562,240.95 243.396,239.783 222.5,239C 221.944,238.617 221.611,238.117 221.5,237.5C 235.408,238.429 249.241,238.096 263,236.5C 272.756,237.651 282.589,237.818 292.5,237C 294.608,236.64 296.608,235.973 298.5,235C 299.119,233.243 300.286,232.076 302,231.5C 305.065,232.045 308.231,232.045 311.5,231.5C 317.274,230.274 319.941,232.607 319.5,238.5 Z"/></g>
<g><path style="opacity:1" fill="#94776b" d="M 343.5,223.5 C 344.577,238.007 339.243,249.34 327.5,257.5C 324.91,258.128 322.577,259.295 320.5,261C 314.843,261.499 309.176,261.666 303.5,261.5C 303.5,260.833 303.5,260.167 303.5,259.5C 306.373,259.198 309.039,258.531 311.5,257.5C 323.56,255.059 332.394,248.392 338,237.5C 341.707,225.97 339.541,215.97 331.5,207.5C 330.5,206.167 329.5,206.167 328.5,207.5C 328.672,206.508 328.338,205.842 327.5,205.5C 327.811,204.522 328.478,203.855 329.5,203.5C 336.878,208.22 341.545,214.887 343.5,223.5 Z"/></g>
<g><path style="opacity:1" fill="#7f341c" d="M 311.5,257.5 C 309.039,258.531 306.373,259.198 303.5,259.5C 271.505,260.759 239.505,260.759 207.5,259.5C 202.022,258.804 196.689,257.47 191.5,255.5C 195.383,255.109 199.05,255.776 202.5,257.5C 204.225,256.985 205.892,256.318 207.5,255.5C 204.986,255.483 202.319,254.983 199.5,254C 203.668,253.808 207.502,252.642 211,250.5C 214.213,251.969 217.547,252.969 221,253.5C 238.786,253.004 257.12,253.004 276,253.5C 277,252.833 278,252.167 279,251.5C 282.229,252.125 285.562,252.125 289,251.5C 290.833,251.667 292.667,251.833 294.5,252C 293.167,252.333 291.833,252.667 290.5,253C 289.833,254.333 288.833,255.333 287.5,256C 287.833,256.333 288.167,256.667 288.5,257C 296.159,257.5 303.826,257.666 311.5,257.5 Z"/></g>
<g><path style="opacity:0.993" fill="#211117" d="M 335.5,197.5 C 338.903,199.9 341.57,202.9 343.5,206.5C 343.738,208.404 344.738,209.738 346.5,210.5C 346.5,210.833 346.5,211.167 346.5,211.5C 346.683,215.401 348.016,218.734 350.5,221.5C 352.003,231.182 350.337,240.182 345.5,248.5C 344.094,248.973 343.427,249.973 343.5,251.5C 340.871,255.797 337.537,259.463 333.5,262.5C 331.78,261.249 331.447,259.749 332.5,258C 330.866,257.506 329.199,257.34 327.5,257.5C 339.243,249.34 344.577,238.007 343.5,223.5C 344.222,223.918 344.722,224.584 345,225.5C 345.333,225.167 345.667,224.833 346,224.5C 348.67,234.869 349.67,234.869 349,224.5C 347.513,223.747 347.346,222.914 348.5,222C 347.747,220.513 346.914,220.346 346,221.5C 345.333,220.167 344.667,218.833 344,217.5C 343.667,217.833 343.333,218.167 343,218.5C 342.187,213.561 340.687,208.895 338.5,204.5C 335.907,202.929 334.907,200.596 335.5,197.5 Z"/></g>
<g><path style="opacity:0.086" fill="#c9c0c1" d="M 345.5,248.5 C 345.573,250.027 344.906,251.027 343.5,251.5C 343.427,249.973 344.094,248.973 345.5,248.5 Z"/></g>
<g><path style="opacity:1" fill="#917265" d="M 172.5,236.5 C 176.447,245.113 182.78,251.447 191.5,255.5C 196.689,257.47 202.022,258.804 207.5,259.5C 207.5,260.167 207.5,260.833 207.5,261.5C 201.833,261.5 196.167,261.5 190.5,261.5C 180.861,257.195 173.861,250.195 169.5,240.5C 171.532,239.952 172.532,238.619 172.5,236.5 Z"/></g>
<g><path style="opacity:0.188" fill="#999298" d="M 173.5,258.5 C 175.027,258.427 176.027,259.094 176.5,260.5C 174.973,260.573 173.973,259.906 173.5,258.5 Z"/></g>
<g><path style="opacity:1" fill="#230811" d="M 327.5,257.5 C 329.199,257.34 330.866,257.506 332.5,258C 331.447,259.749 331.78,261.249 333.5,262.5C 343.506,262.334 353.506,262.5 363.5,263C 367.11,263.472 370.11,264.972 372.5,267.5C 372.833,268.5 373.5,269.167 374.5,269.5C 377.537,272.06 379.371,275.393 380,279.5C 380.667,287.167 380.667,294.833 380,302.5C 377.925,307.41 374.425,310.743 369.5,312.5C 368.5,312.5 367.5,312.5 366.5,312.5C 366.423,311.25 365.756,310.417 364.5,310C 366.402,309.801 367.902,308.967 369,307.5C 369.451,309.929 370.285,310.096 371.5,308C 370.667,307.167 369.833,306.333 369,305.5C 365.453,307.617 361.62,309.117 357.5,310C 358.654,310.914 358.487,311.747 357,312.5C 352.102,311.703 347.269,310.536 342.5,309C 346.185,308.086 345.852,307.419 341.5,307C 342.056,306.617 342.389,306.117 342.5,305.5C 349.538,305.239 356.538,305.572 363.5,306.5C 367.001,305.507 369.834,303.507 372,300.5C 372.667,293.5 372.667,286.5 372,279.5C 370.18,274.512 366.68,271.512 361.5,270.5C 359.032,268.223 356.032,266.889 352.5,266.5C 348.252,267.779 344.086,269.113 340,270.5C 339.008,268.335 337.842,268.501 336.5,271C 337.515,272.373 337.515,273.54 336.5,274.5C 335.109,272.11 333.109,270.443 330.5,269.5C 295.336,268.667 260.002,268.167 224.5,268C 218.216,266.243 211.883,266.076 205.5,267.5C 203.5,267.167 201.5,266.833 199.5,266.5C 198.054,264.275 196.054,263.442 193.5,264C 194.328,264.915 195.328,265.581 196.5,266C 194.722,266.704 192.888,267.204 191,267.5C 179.288,268.704 167.455,268.704 155.5,267.5C 155.5,266.167 155.5,264.833 155.5,263.5C 157.099,263.768 158.432,263.434 159.5,262.5C 161.5,262.5 163.5,262.5 165.5,262.5C 170.985,263.652 176.651,263.818 182.5,263C 182.36,261.736 182.36,260.569 182.5,259.5C 185.021,260.785 187.687,261.452 190.5,261.5C 196.167,261.5 201.833,261.5 207.5,261.5C 239.5,261.5 271.5,261.5 303.5,261.5C 309.176,261.666 314.843,261.499 320.5,261C 322.577,259.295 324.91,258.128 327.5,257.5 Z"/></g>
<g><path style="opacity:1" fill="#884c3e" d="M 207.5,259.5 C 239.505,260.759 271.505,260.759 303.5,259.5C 303.5,260.167 303.5,260.833 303.5,261.5C 271.5,261.5 239.5,261.5 207.5,261.5C 207.5,260.833 207.5,260.167 207.5,259.5 Z"/></g>
<g><path style="opacity:1" fill="#29151d" d="M 159.5,262.5 C 158.432,263.434 157.099,263.768 155.5,263.5C 155.5,264.833 155.5,266.167 155.5,267.5C 167.455,268.704 179.288,268.704 191,267.5C 192.888,267.204 194.722,266.704 196.5,266C 195.328,265.581 194.328,264.915 193.5,264C 196.054,263.442 198.054,264.275 199.5,266.5C 201.5,266.833 203.5,267.167 205.5,267.5C 211.883,266.076 218.216,266.243 224.5,268C 260.002,268.167 295.336,268.667 330.5,269.5C 270.832,269.333 211.166,269.5 151.5,270C 147.857,271.805 145.524,274.638 144.5,278.5C 143.596,279.209 143.263,280.209 143.5,281.5C 142.768,280.192 141.934,278.858 141,277.5C 139.513,278.253 139.346,279.086 140.5,280C 139.151,280.772 138.318,281.939 138,283.5C 138.202,286.228 138.036,288.895 137.5,291.5C 138.411,295.078 139.911,298.744 142,302.5C 142.333,302.167 142.667,301.833 143,301.5C 144.315,303.316 145.815,304.983 147.5,306.5C 146.295,307.995 146.295,309.328 147.5,310.5C 147.5,310.833 147.5,311.167 147.5,311.5C 141.567,308.676 137.734,304.01 136,297.5C 134.849,289.151 135.683,281.151 138.5,273.5C 139.906,273.027 140.573,272.027 140.5,270.5C 142.5,269.167 144.167,267.5 145.5,265.5C 149.693,262.91 154.36,261.91 159.5,262.5 Z"/></g>
<g><path style="opacity:0.29" fill="#978b8d" d="M 145.5,265.5 C 144.167,267.5 142.5,269.167 140.5,270.5C 141.167,267.833 142.833,266.167 145.5,265.5 Z"/></g>
<g><path style="opacity:0.004" fill="#cdcaca" d="M 372.5,267.5 C 373.833,267.5 374.5,268.167 374.5,269.5C 373.5,269.167 372.833,268.5 372.5,267.5 Z"/></g>
<g><path style="opacity:1" fill="#fcfafb" d="M 330.5,269.5 C 333.109,270.443 335.109,272.11 336.5,274.5C 336.5,274.833 336.5,275.167 336.5,275.5C 336.91,281.621 336.41,287.621 335,293.5C 333.717,288.343 333.05,283.01 333,277.5C 332.228,276.151 331.061,275.318 329.5,275C 270.148,274.631 210.815,274.298 151.5,274C 149.772,276.582 147.439,278.082 144.5,278.5C 145.524,274.638 147.857,271.805 151.5,270C 211.166,269.5 270.832,269.333 330.5,269.5 Z"/></g>
<g><path style="opacity:0.09" fill="#9b8f91" d="M 140.5,270.5 C 140.573,272.027 139.906,273.027 138.5,273.5C 138.427,271.973 139.094,270.973 140.5,270.5 Z"/></g>
<g><path style="opacity:1" fill="#f8eee1" d="M 336.5,275.5 C 337.833,282.5 337.833,289.5 336.5,296.5C 335.167,296.833 333.833,297.167 332.5,297.5C 332.666,291.491 332.499,285.491 332,279.5C 331.167,278.667 330.333,277.833 329.5,277C 278.168,276.5 226.834,276.333 175.5,276.5C 167.826,276.334 160.159,276.5 152.5,277C 151.944,277.383 151.611,277.883 151.5,278.5C 150.542,278.953 149.708,279.619 149,280.5C 148.628,286.407 148.462,292.074 148.5,297.5C 146.716,297.107 145.05,296.441 143.5,295.5C 143.5,290.833 143.5,286.167 143.5,281.5C 143.263,280.209 143.596,279.209 144.5,278.5C 147.439,278.082 149.772,276.582 151.5,274C 210.815,274.298 270.148,274.631 329.5,275C 331.061,275.318 332.228,276.151 333,277.5C 333.05,283.01 333.717,288.343 335,293.5C 336.41,287.621 336.91,281.621 336.5,275.5 Z"/></g>
<g><path style="opacity:1" fill="#c9a27c" d="M 175.5,276.5 C 226.834,276.333 278.168,276.5 329.5,277C 330.333,277.833 331.167,278.667 332,279.5C 332.499,285.491 332.666,291.491 332.5,297.5C 331.4,298.558 330.066,299.392 328.5,300C 305.836,300.5 283.169,300.667 260.5,300.5C 260.815,296.629 260.482,292.962 259.5,289.5C 259.061,285.894 257.061,283.728 253.5,283C 245.173,282.5 236.84,282.334 228.5,282.5C 226.833,282.5 225.167,282.5 223.5,282.5C 223.657,283.873 223.49,285.207 223,286.5C 219.261,289.548 217.594,293.548 218,298.5C 215.646,298.892 213.146,298.892 210.5,298.5C 209.127,298.657 207.793,298.49 206.5,298C 206.5,296.667 206.5,295.333 206.5,294C 201.771,293.54 197.271,293.707 193,294.5C 189.068,292.729 185.068,292.396 181,293.5C 180.383,292.551 180.549,291.718 181.5,291C 187.831,290.178 188.998,287.345 185,282.5C 181.752,281.558 181.252,280.225 183.5,278.5C 180.694,277.832 178.028,277.166 175.5,276.5 Z"/></g>
<g><path style="opacity:1" fill="#caa07b" d="M 264.5,282.5 C 271.158,281.834 277.992,281.5 285,281.5C 292.334,281.536 299.501,282.203 306.5,283.5C 310.469,280.997 314.302,281.331 318,284.5C 318.667,286.5 318.667,288.5 318,290.5C 314.787,292.286 311.287,293.452 307.5,294C 305.939,294.941 304.605,296.108 303.5,297.5C 289.509,299.106 275.509,299.439 261.5,298.5C 261.766,294.429 261.433,290.429 260.5,286.5C 261.736,285.643 263.069,284.977 264.5,284.5C 265.773,283.743 265.773,283.077 264.5,282.5 Z"/></g>
<g><path style="opacity:1" fill="#cca481" d="M 175.5,276.5 C 178.028,277.166 180.694,277.832 183.5,278.5C 181.252,280.225 181.752,281.558 185,282.5C 188.998,287.345 187.831,290.178 181.5,291C 180.549,291.718 180.383,292.551 181,293.5C 185.068,292.396 189.068,292.729 193,294.5C 197.271,293.707 201.771,293.54 206.5,294C 206.5,295.333 206.5,296.667 206.5,298C 207.793,298.49 209.127,298.657 210.5,298.5C 191.191,299.709 171.858,299.709 152.5,298.5C 151.914,298.291 151.414,297.957 151,297.5C 150.249,291.116 150.416,284.783 151.5,278.5C 151.611,277.883 151.944,277.383 152.5,277C 160.159,276.5 167.826,276.334 175.5,276.5 Z"/></g>
<g><path style="opacity:1" fill="#4d1b1f" d="M 308.5,283.5 C 310.591,283.318 312.591,283.652 314.5,284.5C 315.71,289.453 313.71,291.286 308.5,290C 305.939,287.844 305.939,285.677 308.5,283.5 Z"/></g>
<g><path style="opacity:1" fill="#896860" d="M 361.5,270.5 C 366.68,271.512 370.18,274.512 372,279.5C 372.667,286.5 372.667,293.5 372,300.5C 369.834,303.507 367.001,305.507 363.5,306.5C 356.538,305.572 349.538,305.239 342.5,305.5C 342.167,305.5 341.833,305.5 341.5,305.5C 342.045,303.407 342.878,301.407 344,299.5C 344.495,289.445 343.995,279.445 342.5,269.5C 348.851,269.557 355.185,269.89 361.5,270.5 Z"/></g>
<g><path style="opacity:1" fill="#2f0818" d="M 361.5,270.5 C 355.185,269.89 348.851,269.557 342.5,269.5C 343.995,279.445 344.495,289.445 344,299.5C 342.878,301.407 342.045,303.407 341.5,305.5C 337.833,305.5 334.167,305.5 330.5,305.5C 334.666,304.073 336.666,301.073 336.5,296.5C 337.833,289.5 337.833,282.5 336.5,275.5C 336.5,275.167 336.5,274.833 336.5,274.5C 337.515,273.54 337.515,272.373 336.5,271C 337.842,268.501 339.008,268.335 340,270.5C 344.086,269.113 348.252,267.779 352.5,266.5C 356.032,266.889 359.032,268.223 361.5,270.5 Z"/></g>
<g><path style="opacity:1" fill="#c6a68d" d="M 151.5,278.5 C 150.416,284.783 150.249,291.116 151,297.5C 151.414,297.957 151.914,298.291 152.5,298.5C 171.858,299.709 191.191,299.709 210.5,298.5C 213.146,298.892 215.646,298.892 218,298.5C 217.594,293.548 219.261,289.548 223,286.5C 223.49,285.207 223.657,283.873 223.5,282.5C 225.167,282.5 226.833,282.5 228.5,282.5C 224.345,285.82 222.678,290.154 223.5,295.5C 223.5,297.167 223.5,298.833 223.5,300.5C 222.167,300.5 220.833,300.5 219.5,300.5C 196.141,300.793 172.807,300.459 149.5,299.5C 149.167,298.833 148.833,298.167 148.5,297.5C 148.462,292.074 148.628,286.407 149,280.5C 149.708,279.619 150.542,278.953 151.5,278.5 Z"/></g>
<g><path style="opacity:1" fill="#501f1d" d="M 156.5,283.5 C 158.167,283.5 159.833,283.5 161.5,283.5C 161.5,284.833 161.5,286.167 161.5,287.5C 158.05,288.244 156.384,286.91 156.5,283.5 Z"/></g>
<g><path style="opacity:1" fill="#45161a" d="M 171.5,282.5 C 177.488,282.664 178.821,285.164 175.5,290C 171.945,291.123 169.945,289.789 169.5,286C 169.978,284.697 170.645,283.531 171.5,282.5 Z"/></g>
<g><path style="opacity:1" fill="#9ca29c" d="M 251.5,295.5 C 251.665,299.182 251.499,302.848 251,306.5C 247.869,307.206 244.702,307.873 241.5,308.5C 238.799,306.841 237.132,307.508 236.5,310.5C 234.738,310.357 233.071,310.691 231.5,311.5C 230.506,306.544 230.173,301.544 230.5,296.5C 237.443,295.573 244.443,295.24 251.5,295.5 Z"/></g>
<g><path style="opacity:1" fill="#8b6e6c" d="M 259.5,289.5 C 260.482,292.962 260.815,296.629 260.5,300.5C 283.169,300.667 305.836,300.5 328.5,300C 330.066,299.392 331.4,298.558 332.5,297.5C 333.833,297.167 335.167,296.833 336.5,296.5C 336.666,301.073 334.666,304.073 330.5,305.5C 329.5,305.5 328.5,305.5 327.5,305.5C 304.833,305.5 282.167,305.5 259.5,305.5C 259.5,300.167 259.5,294.833 259.5,289.5 Z"/></g>
<g><path style="opacity:1" fill="#1b020e" d="M 228.5,282.5 C 236.84,282.334 245.173,282.5 253.5,283C 257.061,283.728 259.061,285.894 259.5,289.5C 259.5,294.833 259.5,300.167 259.5,305.5C 258.047,305.929 256.381,306.096 254.5,306C 253.167,306.667 253.167,307.333 254.5,308C 253.906,308.464 253.239,308.631 252.5,308.5C 252.5,303.833 252.5,299.167 252.5,294.5C 252.739,292.533 252.406,290.699 251.5,289C 244.833,288.333 238.167,288.333 231.5,289C 230.565,291.381 230.232,293.881 230.5,296.5C 230.173,301.544 230.506,306.544 231.5,311.5C 233.071,310.691 234.738,310.357 236.5,310.5C 241.595,310.221 246.595,310.555 251.5,311.5C 247.365,311.681 243.032,311.848 238.5,312C 236.114,314.793 236.781,315.626 240.5,314.5C 249.945,316.786 249.778,317.786 240,317.5C 237.5,317.333 235,317.167 232.5,317C 232.833,316.667 233.167,316.333 233.5,316C 231.899,315.727 230.399,315.227 229,314.5C 228.418,317.668 227.418,318.001 226,315.5C 225.667,315.833 225.333,316.167 225,316.5C 224.506,314.866 224.34,313.199 224.5,311.5C 202.807,311.149 181.141,310.316 159.5,309C 162.225,307.893 165.059,307.059 168,306.5C 178.783,306.664 189.45,306.664 200,306.5C 201.676,307.061 203.009,308.061 204,309.5C 209.718,309.667 215.885,309.167 222.5,308C 224.059,306.004 224.726,303.671 224.5,301C 224.494,298.967 224.161,297.134 223.5,295.5C 222.678,290.154 224.345,285.82 228.5,282.5 Z"/></g>
<g><path style="opacity:1" fill="#eeecef" d="M 252.5,294.5 C 251.833,294.5 251.5,294.833 251.5,295.5C 244.443,295.24 237.443,295.573 230.5,296.5C 230.232,293.881 230.565,291.381 231.5,289C 238.167,288.333 244.833,288.333 251.5,289C 252.406,290.699 252.739,292.533 252.5,294.5 Z"/></g>
<g><path style="opacity:1" fill="#21030f" d="M 143.5,281.5 C 143.5,286.167 143.5,290.833 143.5,295.5C 144.252,299.84 146.586,303.007 150.5,305C 174.831,305.5 199.164,305.667 223.5,305.5C 223.5,303.833 223.5,302.167 223.5,300.5C 223.5,298.833 223.5,297.167 223.5,295.5C 224.161,297.134 224.494,298.967 224.5,301C 224.726,303.671 224.059,306.004 222.5,308C 215.885,309.167 209.718,309.667 204,309.5C 203.009,308.061 201.676,307.061 200,306.5C 189.45,306.664 178.783,306.664 168,306.5C 165.059,307.059 162.225,307.893 159.5,309C 181.141,310.316 202.807,311.149 224.5,311.5C 224.34,313.199 224.506,314.866 225,316.5C 225.333,316.167 225.667,315.833 226,315.5C 227.418,318.001 228.418,317.668 229,314.5C 230.399,315.227 231.899,315.727 233.5,316C 233.167,316.333 232.833,316.667 232.5,317C 235,317.167 237.5,317.333 240,317.5C 249.778,317.786 249.945,316.786 240.5,314.5C 236.781,315.626 236.114,314.793 238.5,312C 243.032,311.848 247.365,311.681 251.5,311.5C 252.404,310.791 252.737,309.791 252.5,308.5C 253.239,308.631 253.906,308.464 254.5,308C 253.167,307.333 253.167,306.667 254.5,306C 256.381,306.096 258.047,305.929 259.5,305.5C 282.167,305.5 304.833,305.5 327.5,305.5C 327.918,306.222 328.584,306.722 329.5,307C 328.833,307.333 328.167,307.667 327.5,308C 334.103,307.422 334.103,308.089 327.5,310C 330.954,310.293 331.288,311.626 328.5,314C 330.541,315.242 331.707,317.075 332,319.5C 332.667,323.833 332.667,328.167 332,332.5C 331.71,334.044 331.044,335.377 330,336.5C 329.762,332.778 329.262,329.111 328.5,325.5C 328.709,324.914 329.043,324.414 329.5,324C 328.01,323.255 327.01,322.088 326.5,320.5C 327.744,317.144 327.744,313.811 326.5,310.5C 324.579,309.359 322.579,309.192 320.5,310C 321.5,310.333 322.5,310.667 323.5,311C 302.329,311.168 281.329,311.668 260.5,312.5C 259.549,313.919 259.216,315.585 259.5,317.5C 258.434,318.692 257.601,318.359 257,316.5C 256.015,317.814 254.848,318.814 253.5,319.5C 241.576,317.009 230.243,318.509 219.5,324C 218.295,325.376 216.962,326.542 215.5,327.5C 215.213,325.879 214.213,324.879 212.5,324.5C 211.614,325.325 211.281,326.325 211.5,327.5C 209.516,327.383 207.85,328.05 206.5,329.5C 204.839,333.83 203.339,338.163 202,342.5C 201.667,342.167 201.333,341.833 201,341.5C 199.868,343.339 199.035,345.339 198.5,347.5C 191.359,351.086 189.359,356.42 192.5,363.5C 191.189,364.258 190.689,365.258 191,366.5C 193.298,369.058 196.132,370.891 199.5,372C 199.539,373.245 199.205,374.578 198.5,376C 200.094,380.225 201.761,384.391 203.5,388.5C 199.501,383.839 196.834,378.505 195.5,372.5C 191.743,371.233 189.576,368.566 189,364.5C 188.055,359.939 188.555,355.606 190.5,351.5C 190.833,350.833 191.167,350.167 191.5,349.5C 192.82,348.058 194.486,347.392 196.5,347.5C 198.343,339.478 202.01,332.478 207.5,326.5C 212.856,322.139 218.189,317.806 223.5,313.5C 202.006,312.503 180.34,312.169 158.5,312.5C 155.305,313.039 152.805,312.039 151,309.5C 149.855,309.619 148.688,309.952 147.5,310.5C 146.295,309.328 146.295,307.995 147.5,306.5C 145.815,304.983 144.315,303.316 143,301.5C 142.667,301.833 142.333,302.167 142,302.5C 139.911,298.744 138.411,295.078 137.5,291.5C 138.036,288.895 138.202,286.228 138,283.5C 138.318,281.939 139.151,280.772 140.5,280C 139.346,279.086 139.513,278.253 141,277.5C 141.934,278.858 142.768,280.192 143.5,281.5 Z"/></g>
<g><path style="opacity:1" fill="#8c6f6f" d="M 143.5,295.5 C 145.05,296.441 146.716,297.107 148.5,297.5C 148.833,298.167 149.167,298.833 149.5,299.5C 149.484,301.484 150.484,302.484 152.5,302.5C 174.852,301.1 197.185,301.434 219.5,303.5C 219.5,302.5 219.5,301.5 219.5,300.5C 220.833,300.5 222.167,300.5 223.5,300.5C 223.5,302.167 223.5,303.833 223.5,305.5C 199.164,305.667 174.831,305.5 150.5,305C 146.586,303.007 144.252,299.84 143.5,295.5 Z"/></g>
<g><path style="opacity:1" fill="#9c7b6b" d="M 149.5,299.5 C 172.807,300.459 196.141,300.793 219.5,300.5C 219.5,301.5 219.5,302.5 219.5,303.5C 197.185,301.434 174.852,301.1 152.5,302.5C 150.484,302.484 149.484,301.484 149.5,299.5 Z"/></g>
<g><path style="opacity:1" fill="#88828b" d="M 252.5,294.5 C 252.5,299.167 252.5,303.833 252.5,308.5C 252.737,309.791 252.404,310.791 251.5,311.5C 246.595,310.555 241.595,310.221 236.5,310.5C 237.132,307.508 238.799,306.841 241.5,308.5C 244.702,307.873 247.869,307.206 251,306.5C 251.499,302.848 251.665,299.182 251.5,295.5C 251.5,294.833 251.833,294.5 252.5,294.5 Z"/></g>
<g><path style="opacity:1" fill="#401315" d="M 158.5,312.5 C 180.34,312.169 202.006,312.503 223.5,313.5C 202.167,313.5 180.833,313.5 159.5,313.5C 159.806,316.385 159.473,319.052 158.5,321.5C 158.5,318.5 158.5,315.5 158.5,312.5 Z"/></g>
<g><path style="opacity:1" fill="#6b2c24" d="M 223.5,313.5 C 218.189,317.806 212.856,322.139 207.5,326.5C 207.953,325.542 208.619,324.708 209.5,324C 208.833,323.667 208.167,323.333 207.5,323C 192.837,322.5 178.17,322.333 163.5,322.5C 161.833,322.5 160.167,322.5 158.5,322.5C 158.5,322.167 158.5,321.833 158.5,321.5C 159.473,319.052 159.806,316.385 159.5,313.5C 180.833,313.5 202.167,313.5 223.5,313.5 Z"/></g>
<g><path style="opacity:1" fill="#692c28" d="M 260.5,312.5 C 282.167,312.5 303.833,312.5 325.5,312.5C 325.5,316.167 325.5,319.833 325.5,323.5C 308.666,321.396 291.666,320.896 274.5,322C 275.056,322.383 275.389,322.883 275.5,323.5C 274.833,323.5 274.5,323.833 274.5,324.5C 270.684,320.758 266.351,317.758 261.5,315.5C 260.614,314.675 260.281,313.675 260.5,312.5 Z"/></g>
<g><path style="opacity:1" fill="#f3eff2" d="M 253.5,319.5 C 265.582,323.741 274.416,331.741 280,343.5C 280.49,344.793 280.657,346.127 280.5,347.5C 278.5,347.5 276.5,347.5 274.5,347.5C 266.336,327.584 251.67,320.084 230.5,325C 223.159,328.007 217.326,332.84 213,339.5C 211.128,342.596 209.295,345.596 207.5,348.5C 206.178,348.67 205.011,348.337 204,347.5C 204.606,339.042 208.439,332.376 215.5,327.5C 216.962,326.542 218.295,325.376 219.5,324C 230.243,318.509 241.576,317.009 253.5,319.5 Z"/></g>
<g><path style="opacity:1" fill="#7b3a23" d="M 325.5,323.5 C 325.5,324.167 325.5,324.833 325.5,325.5C 324.391,325.443 323.391,325.11 322.5,324.5C 307.009,323.504 291.342,323.17 275.5,323.5C 275.389,322.883 275.056,322.383 274.5,322C 291.666,320.896 308.666,321.396 325.5,323.5 Z"/></g>
<g><path style="opacity:1" fill="#a8643c" d="M 163.5,323.5 C 163.5,323.167 163.5,322.833 163.5,322.5C 178.17,322.333 192.837,322.5 207.5,323C 208.167,323.333 208.833,323.667 209.5,324C 208.619,324.708 207.953,325.542 207.5,326.5C 202.01,332.478 198.343,339.478 196.5,347.5C 194.486,347.392 192.82,348.058 191.5,349.5C 191.694,347.088 193.027,346.088 195.5,346.5C 197.423,338.981 200.757,331.981 205.5,325.5C 200.732,322.501 196.399,322.834 192.5,326.5C 186.854,325.576 181.188,325.742 175.5,327C 176.576,328.726 176.743,330.559 176,332.5C 174.286,333.925 172.953,333.592 172,331.5C 171.505,329.527 171.338,327.527 171.5,325.5C 169.05,325.298 166.717,325.631 164.5,326.5C 164.737,325.209 164.404,324.209 163.5,323.5 Z"/></g>
<g><path style="opacity:0.043" fill="#e6e0df" d="M 366.5,312.5 C 367.5,312.5 368.5,312.5 369.5,312.5C 367.522,340.274 366.855,368.274 367.5,396.5C 369.553,396.402 371.22,397.069 372.5,398.5C 370.5,398.167 368.5,397.833 366.5,397.5C 366.5,370.833 366.5,344.167 366.5,317.5C 366.5,315.833 366.5,314.167 366.5,312.5 Z"/></g>
<g><path style="opacity:1" fill="#f6f5f7" d="M 263.5,341.5 C 265.5,343.671 267.334,346.004 269,348.5C 267.846,354.61 268.346,360.61 270.5,366.5C 263.977,388.179 249.977,395.345 228.5,388C 219.554,382.278 214.554,374.111 213.5,363.5C 213.756,359.731 213.423,356.064 212.5,352.5C 213.11,351.609 213.443,350.609 213.5,349.5C 222.218,334.147 235.218,328.647 252.5,333C 256.558,335.358 260.225,338.192 263.5,341.5 Z"/></g>
<g><path style="opacity:1" fill="#b06b36" d="M 274.5,324.5 C 274.5,323.833 274.833,323.5 275.5,323.5C 291.342,323.17 307.009,323.504 322.5,324.5C 321.897,347.957 322.563,371.29 324.5,394.5C 323.5,394.5 322.5,394.5 321.5,394.5C 321.666,385.827 321.5,377.16 321,368.5C 320.257,370.645 319.424,370.811 318.5,369C 320.278,366.775 320.778,364.275 320,361.5C 319.026,363.878 318.359,363.544 318,360.5C 317.667,361.167 317.333,361.833 317,362.5C 316.561,359.701 315.228,358.701 313,359.5C 310.453,357.027 308.953,354.027 308.5,350.5C 308.876,347.381 307.709,345.047 305,343.5C 299.174,342.896 293.34,342.229 287.5,341.5C 285.904,338.544 284.404,335.544 283,332.5C 282.329,331.748 281.496,331.414 280.5,331.5C 279.2,328.568 277.2,326.234 274.5,324.5 Z"/></g>
<g><path style="opacity:0.519" fill="#6e5e68" d="M 148.5,312.5 C 149.833,312.5 151.167,312.5 152.5,312.5C 152.831,340.672 152.498,368.672 151.5,396.5C 151.5,396.167 151.5,395.833 151.5,395.5C 150.343,368.313 150.343,340.979 151.5,313.5C 150.209,313.737 149.209,313.404 148.5,312.5 Z"/></g>
<g><path style="opacity:1" fill="#26050d" d="M 327.5,305.5 C 328.5,305.5 329.5,305.5 330.5,305.5C 334.167,305.5 337.833,305.5 341.5,305.5C 341.833,305.5 342.167,305.5 342.5,305.5C 342.389,306.117 342.056,306.617 341.5,307C 345.852,307.419 346.185,308.086 342.5,309C 347.269,310.536 352.102,311.703 357,312.5C 358.487,311.747 358.654,310.914 357.5,310C 361.62,309.117 365.453,307.617 369,305.5C 369.833,306.333 370.667,307.167 371.5,308C 370.285,310.096 369.451,309.929 369,307.5C 367.902,308.967 366.402,309.801 364.5,310C 365.756,310.417 366.423,311.25 366.5,312.5C 366.5,314.167 366.5,315.833 366.5,317.5C 365.336,344.664 365.17,371.997 366,399.5C 366.333,400.167 366.667,400.833 367,401.5C 368.292,400.209 369.458,400.209 370.5,401.5C 368.368,401.554 367.035,402.554 366.5,404.5C 358.5,404.5 350.5,404.5 342.5,404.5C 349.321,403.671 356.321,403.171 363.5,403C 362.167,402.667 360.833,402.333 359.5,402C 361.981,400.196 361.981,398.696 359.5,397.5C 359.831,369.328 359.498,341.328 358.5,313.5C 350.174,313.024 341.84,312.691 333.5,312.5C 333.5,340.5 333.5,368.5 333.5,396.5C 332.676,392.688 332.176,388.688 332,384.5C 331,385.833 330,385.833 329,384.5C 327.238,387.576 327.071,390.742 328.5,394C 328.195,396.627 326.861,398.46 324.5,399.5C 317.167,398.833 309.833,398.167 302.5,397.5C 300.999,398.752 299.332,399.752 297.5,400.5C 297.005,403.47 295.505,405.804 293,407.5C 292.617,406.944 292.117,406.611 291.5,406.5C 293.082,401.916 296.082,398.583 300.5,396.5C 308.833,396.5 317.167,396.5 325.5,396.5C 325.5,372.833 325.5,349.167 325.5,325.5C 325.5,324.833 325.5,324.167 325.5,323.5C 325.5,319.833 325.5,316.167 325.5,312.5C 303.833,312.5 282.167,312.5 260.5,312.5C 281.329,311.668 302.329,311.168 323.5,311C 322.5,310.667 321.5,310.333 320.5,310C 322.579,309.192 324.579,309.359 326.5,310.5C 327.744,313.811 327.744,317.144 326.5,320.5C 327.01,322.088 328.01,323.255 329.5,324C 329.043,324.414 328.709,324.914 328.5,325.5C 329.262,329.111 329.762,332.778 330,336.5C 331.044,335.377 331.71,334.044 332,332.5C 332.667,328.167 332.667,323.833 332,319.5C 331.707,317.075 330.541,315.242 328.5,314C 331.288,311.626 330.954,310.293 327.5,310C 334.103,308.089 334.103,307.422 327.5,308C 328.167,307.667 328.833,307.333 329.5,307C 328.584,306.722 327.918,306.222 327.5,305.5 Z"/></g>
<g><path style="opacity:1" fill="#af7351" d="M 280.5,331.5 C 281.496,331.414 282.329,331.748 283,332.5C 284.404,335.544 285.904,338.544 287.5,341.5C 293.34,342.229 299.174,342.896 305,343.5C 307.709,345.047 308.876,347.381 308.5,350.5C 307.527,352.948 307.194,355.615 307.5,358.5C 307.167,358.5 306.833,358.5 306.5,358.5C 307.429,353.235 306.096,348.735 302.5,345C 296.956,343.596 291.29,343.096 285.5,343.5C 284.389,339.277 282.722,335.277 280.5,331.5 Z"/></g>
<g><path style="opacity:1" fill="#190811" d="M 245.5,337.5 C 245.5,339.167 245.5,340.833 245.5,342.5C 246.833,342.5 248.167,342.5 249.5,342.5C 255.863,342.972 257.529,345.805 254.5,351C 250.058,351.58 245.724,351.08 241.5,349.5C 236.502,350.016 235.502,352.182 238.5,356C 242.833,357 247.167,358 251.5,359C 254,360.167 255.833,362 257,364.5C 259.678,374.725 255.845,380.058 245.5,380.5C 245.686,386.704 243.186,388.037 238,384.5C 237.51,383.207 237.343,381.873 237.5,380.5C 231.781,381.641 227.781,379.641 225.5,374.5C 225.59,372.575 226.59,371.408 228.5,371C 232.679,371.051 236.846,371.551 241,372.5C 242.5,372.333 244,372.167 245.5,372C 248.15,369.918 247.816,368.251 244.5,367C 237.512,366.974 231.679,364.474 227,359.5C 224.204,353.384 225.37,348.218 230.5,344C 232.677,342.798 235.011,342.298 237.5,342.5C 236.178,337.007 238.178,334.507 243.5,335C 244.381,335.708 245.047,336.542 245.5,337.5 Z"/></g>
<g><path style="opacity:1" fill="#1b0916" d="M 259.5,317.5 C 261.75,317.181 263.75,317.681 265.5,319C 262.007,320.088 261.841,321.255 265,322.5C 265.333,322.167 265.667,321.833 266,321.5C 268.702,324.701 271.869,327.368 275.5,329.5C 277.086,331.173 277.753,333.173 277.5,335.5C 278.822,335.33 279.989,335.663 281,336.5C 282.663,339.477 283.83,342.643 284.5,346C 289.782,345.495 295.116,345.495 300.5,346C 302.105,347.36 303.605,348.86 305,350.5C 305.667,355.833 305.667,361.167 305,366.5C 303.333,368.167 301.667,369.833 300,371.5C 298.271,371.026 297.105,370.026 296.5,368.5C 297.833,368.5 298.5,367.833 298.5,366.5C 299.615,361.25 299.781,355.917 299,350.5C 295.256,349.374 291.423,349.207 287.5,350C 289.79,351.777 291.457,353.944 292.5,356.5C 292.664,359.187 292.497,361.854 292,364.5C 291.292,365.381 290.458,366.047 289.5,366.5C 287.901,366.232 286.568,366.566 285.5,367.5C 282.111,367.876 278.778,368.042 275.5,368C 272.876,366.031 272.876,364.198 275.5,362.5C 277.795,364.385 280.462,364.885 283.5,364C 286.343,360.381 286.01,357.048 282.5,354C 279.519,353.162 277.186,353.995 275.5,356.5C 273.497,355.247 273.497,353.581 275.5,351.5C 274.754,350.264 274.421,348.93 274.5,347.5C 276.5,347.5 278.5,347.5 280.5,347.5C 280.657,346.127 280.49,344.793 280,343.5C 274.416,331.741 265.582,323.741 253.5,319.5C 254.848,318.814 256.015,317.814 257,316.5C 257.601,318.359 258.434,318.692 259.5,317.5 Z"/></g>
<g><path style="opacity:1" fill="#efecf1" d="M 298.5,366.5 C 294.966,364.101 292.966,360.768 292.5,356.5C 291.457,353.944 289.79,351.777 287.5,350C 291.423,349.207 295.256,349.374 299,350.5C 299.781,355.917 299.615,361.25 298.5,366.5 Z"/></g>
<g><path style="opacity:1" fill="#ae6532" d="M 191.5,349.5 C 191.167,350.167 190.833,350.833 190.5,351.5C 189.5,351.5 188.5,351.5 187.5,351.5C 187.037,354.482 186.704,357.482 186.5,360.5C 185.842,361.398 185.176,362.398 184.5,363.5C 183.742,362.189 182.742,361.689 181.5,362C 181.833,362.333 182.167,362.667 182.5,363C 181.643,363.689 180.977,364.522 180.5,365.5C 181.645,366.891 181.645,368.224 180.5,369.5C 178.808,367.641 177.308,365.641 176,363.5C 174.66,364.868 173.326,366.201 172,367.5C 170.765,368.615 169.598,368.615 168.5,367.5C 167.692,369.423 167.192,371.423 167,373.5C 166.998,370.949 166.164,368.949 164.5,367.5C 164.5,353.833 164.5,340.167 164.5,326.5C 166.717,325.631 169.05,325.298 171.5,325.5C 171.338,327.527 171.505,329.527 172,331.5C 172.953,333.592 174.286,333.925 176,332.5C 176.743,330.559 176.576,328.726 175.5,327C 181.188,325.742 186.854,325.576 192.5,326.5C 196.399,322.834 200.732,322.501 205.5,325.5C 200.757,331.981 197.423,338.981 195.5,346.5C 193.027,346.088 191.694,347.088 191.5,349.5 Z"/></g>
<g><path style="opacity:1" fill="#a39294" d="M 158.5,322.5 C 160.167,322.5 161.833,322.5 163.5,322.5C 163.5,322.833 163.5,323.167 163.5,323.5C 162.167,323.5 160.833,323.5 159.5,323.5C 159.5,347.833 159.5,372.167 159.5,396.5C 160.833,396.5 162.167,396.5 163.5,396.5C 163.5,396.833 163.5,397.167 163.5,397.5C 161.833,397.5 160.167,397.5 158.5,397.5C 158.5,372.5 158.5,347.5 158.5,322.5 Z"/></g>
<g><path style="opacity:1" fill="#ba7c5a" d="M 322.5,324.5 C 323.391,325.11 324.391,325.443 325.5,325.5C 325.5,349.167 325.5,372.833 325.5,396.5C 317.167,396.5 308.833,396.5 300.5,396.5C 307.5,395.833 314.5,395.167 321.5,394.5C 322.5,394.5 323.5,394.5 324.5,394.5C 322.563,371.29 321.897,347.957 322.5,324.5 Z"/></g>
<g><path style="opacity:1" fill="#deddd9" d="M 275.5,362.5 C 274.167,360.5 274.167,358.5 275.5,356.5C 277.186,353.995 279.519,353.162 282.5,354C 286.01,357.048 286.343,360.381 283.5,364C 280.462,364.885 277.795,364.385 275.5,362.5 Z"/></g>
<g><path style="opacity:1" fill="#fefbf6" d="M 163.5,323.5 C 163.5,347.833 163.5,372.167 163.5,396.5C 162.167,396.5 160.833,396.5 159.5,396.5C 159.5,372.167 159.5,347.833 159.5,323.5C 160.833,323.5 162.167,323.5 163.5,323.5 Z"/></g>
<g><path style="opacity:1" fill="#ada5a8" d="M 292.5,356.5 C 292.966,360.768 294.966,364.101 298.5,366.5C 298.5,367.833 297.833,368.5 296.5,368.5C 293.482,368.665 290.482,368.498 287.5,368C 288.416,367.722 289.082,367.222 289.5,366.5C 290.458,366.047 291.292,365.381 292,364.5C 292.497,361.854 292.664,359.187 292.5,356.5 Z"/></g>
<g><path style="opacity:1" fill="#230d1a" d="M 274.5,347.5 C 274.421,348.93 274.754,350.264 275.5,351.5C 273.497,353.581 273.497,355.247 275.5,356.5C 274.167,358.5 274.167,360.5 275.5,362.5C 272.876,364.198 272.876,366.031 275.5,368C 278.778,368.042 282.111,367.876 285.5,367.5C 285.665,370.518 285.498,373.518 285,376.5C 283.283,375.612 282.116,376.279 281.5,378.5C 281.737,381.063 282.237,381.063 283,378.5C 283.118,382.463 281.284,383.463 277.5,381.5C 278.901,378.296 279.901,374.963 280.5,371.5C 278.508,371.672 276.842,371.005 275.5,369.5C 272.575,377.69 267.908,384.69 261.5,390.5C 248.668,398.278 235.668,398.445 222.5,391C 215.964,385.424 211.298,378.591 208.5,370.5C 207.583,371.127 206.583,371.461 205.5,371.5C 208.167,368.833 210.833,366.167 213.5,363.5C 214.554,374.111 219.554,382.278 228.5,388C 249.977,395.345 263.977,388.179 270.5,366.5C 268.346,360.61 267.846,354.61 269,348.5C 267.334,346.004 265.5,343.671 263.5,341.5C 260.107,334.449 254.44,330.283 246.5,329C 233.599,327.368 223.432,331.868 216,342.5C 214.589,344.65 213.755,346.984 213.5,349.5C 213.443,350.609 213.11,351.609 212.5,352.5C 210.246,351.876 208.579,350.543 207.5,348.5C 209.295,345.596 211.128,342.596 213,339.5C 217.326,332.84 223.159,328.007 230.5,325C 251.67,320.084 266.336,327.584 274.5,347.5 Z"/></g>
<g><path style="opacity:1" fill="#7f787e" d="M 245.5,337.5 C 246.434,338.568 246.768,339.901 246.5,341.5C 247.791,341.263 248.791,341.596 249.5,342.5C 248.167,342.5 246.833,342.5 245.5,342.5C 245.5,340.833 245.5,339.167 245.5,337.5 Z"/></g>
<g><path style="opacity:1" fill="#918392" d="M 263.5,341.5 C 260.225,338.192 256.558,335.358 252.5,333C 235.218,328.647 222.218,334.147 213.5,349.5C 213.755,346.984 214.589,344.65 216,342.5C 223.432,331.868 233.599,327.368 246.5,329C 254.44,330.283 260.107,334.449 263.5,341.5 Z"/></g>
<g><path style="opacity:1" fill="#1c0511" d="M 215.5,327.5 C 208.439,332.376 204.606,339.042 204,347.5C 205.011,348.337 206.178,348.67 207.5,348.5C 208.579,350.543 210.246,351.876 212.5,352.5C 213.423,356.064 213.756,359.731 213.5,363.5C 210.833,366.167 208.167,368.833 205.5,371.5C 204.5,371.5 203.5,371.5 202.5,371.5C 208.841,390.166 221.841,400.832 241.5,403.5C 253.712,402.727 263.712,397.727 271.5,388.5C 273.5,386.167 275.5,383.833 277.5,381.5C 278.143,386.662 275.81,390.162 270.5,392C 269.075,393.362 268.242,394.862 268,396.5C 266.636,395.742 265.469,396.242 264.5,398C 265.925,399.714 265.592,401.047 263.5,402C 259.981,402.377 256.481,402.877 253,403.5C 249.696,406.009 245.863,407.343 241.5,407.5C 235.866,407.846 230.199,407.179 224.5,405.5C 219.395,403.445 214.728,400.611 210.5,397C 207.79,394.372 205.456,391.539 203.5,388.5C 201.761,384.391 200.094,380.225 198.5,376C 199.205,374.578 199.539,373.245 199.5,372C 196.132,370.891 193.298,369.058 191,366.5C 190.689,365.258 191.189,364.258 192.5,363.5C 189.359,356.42 191.359,351.086 198.5,347.5C 199.035,345.339 199.868,343.339 201,341.5C 201.333,341.833 201.667,342.167 202,342.5C 203.339,338.163 204.839,333.83 206.5,329.5C 207.85,328.05 209.516,327.383 211.5,327.5C 211.281,326.325 211.614,325.325 212.5,324.5C 214.213,324.879 215.213,325.879 215.5,327.5 Z"/></g>
<g><path style="opacity:1" fill="#b4aeab" d="M 206.5,356.5 C 208.296,363.849 205.296,366.349 197.5,364C 195.447,362.322 195.113,360.489 196.5,358.5C 197.058,359.79 198.058,360.623 199.5,361C 201.81,361.497 204.143,361.663 206.5,361.5C 206.5,359.833 206.5,358.167 206.5,356.5 Z"/></g>
<g><path style="opacity:1" fill="#f3f3f2" d="M 206.5,356.5 C 206.5,358.167 206.5,359.833 206.5,361.5C 204.143,361.663 201.81,361.497 199.5,361C 198.058,360.623 197.058,359.79 196.5,358.5C 196.511,356.983 197.177,355.816 198.5,355C 200.833,354.333 203.167,354.333 205.5,355C 206.056,355.383 206.389,355.883 206.5,356.5 Z"/></g>
<g><path style="opacity:1" fill="#27040c" d="M 260.5,312.5 C 260.281,313.675 260.614,314.675 261.5,315.5C 266.351,317.758 270.684,320.758 274.5,324.5C 277.2,326.234 279.2,328.568 280.5,331.5C 282.722,335.277 284.389,339.277 285.5,343.5C 291.29,343.096 296.956,343.596 302.5,345C 306.096,348.735 307.429,353.235 306.5,358.5C 306.5,361.833 306.5,365.167 306.5,368.5C 305.442,371.397 303.442,373.564 300.5,375C 295.798,375.172 291.132,375.672 286.5,376.5C 278.599,397.055 263.599,408.055 241.5,409.5C 235.35,409.674 229.683,408.341 224.5,405.5C 230.199,407.179 235.866,407.846 241.5,407.5C 245.863,407.343 249.696,406.009 253,403.5C 256.481,402.877 259.981,402.377 263.5,402C 265.592,401.047 265.925,399.714 264.5,398C 265.469,396.242 266.636,395.742 268,396.5C 268.242,394.862 269.075,393.362 270.5,392C 275.81,390.162 278.143,386.662 277.5,381.5C 281.284,383.463 283.118,382.463 283,378.5C 282.237,381.063 281.737,381.063 281.5,378.5C 282.116,376.279 283.283,375.612 285,376.5C 285.498,373.518 285.665,370.518 285.5,367.5C 286.568,366.566 287.901,366.232 289.5,366.5C 289.082,367.222 288.416,367.722 287.5,368C 290.482,368.498 293.482,368.665 296.5,368.5C 297.105,370.026 298.271,371.026 300,371.5C 301.667,369.833 303.333,368.167 305,366.5C 305.667,361.167 305.667,355.833 305,350.5C 303.605,348.86 302.105,347.36 300.5,346C 295.116,345.495 289.782,345.495 284.5,346C 283.83,342.643 282.663,339.477 281,336.5C 279.989,335.663 278.822,335.33 277.5,335.5C 277.753,333.173 277.086,331.173 275.5,329.5C 271.869,327.368 268.702,324.701 266,321.5C 265.667,321.833 265.333,322.167 265,322.5C 261.841,321.255 262.007,320.088 265.5,319C 263.75,317.681 261.75,317.181 259.5,317.5C 259.216,315.585 259.549,313.919 260.5,312.5 Z"/></g>
<g><path style="opacity:1" fill="#43161b" d="M 358.5,313.5 C 359.498,341.328 359.831,369.328 359.5,397.5C 350.651,397.826 341.984,397.493 333.5,396.5C 341.833,396.5 350.167,396.5 358.5,396.5C 358.5,368.833 358.5,341.167 358.5,313.5 Z"/></g>
<g><path style="opacity:1" fill="#a55c2f" d="M 308.5,350.5 C 308.953,354.027 310.453,357.027 313,359.5C 315.228,358.701 316.561,359.701 317,362.5C 317.333,361.833 317.667,361.167 318,360.5C 318.359,363.544 319.026,363.878 320,361.5C 320.778,364.275 320.278,366.775 318.5,369C 319.424,370.811 320.257,370.645 321,368.5C 321.5,377.16 321.666,385.827 321.5,394.5C 314.5,395.167 307.5,395.833 300.5,396.5C 296.082,398.583 293.082,401.916 291.5,406.5C 290.596,407.209 290.263,408.209 290.5,409.5C 289.518,412.962 289.185,416.629 289.5,420.5C 283.5,420.5 277.5,420.5 271.5,420.5C 266.156,420.666 260.823,420.499 255.5,420C 258.947,419.731 261.614,418.231 263.5,415.5C 273.524,409.307 281.357,400.973 287,390.5C 287.813,388.564 288.313,386.564 288.5,384.5C 293.511,384.666 298.511,384.499 303.5,384C 307.57,382.099 309.903,378.932 310.5,374.5C 309.49,369.146 308.49,363.813 307.5,358.5C 307.194,355.615 307.527,352.948 308.5,350.5 Z"/></g>
<g><path style="opacity:1" fill="#a45b2e" d="M 186.5,360.5 C 186.177,364.226 186.511,367.893 187.5,371.5C 189.323,372.747 191.323,373.414 193.5,373.5C 193.335,376.518 193.502,379.518 194,382.5C 195.219,386.334 196.386,389.834 197.5,393C 197.167,393.167 196.833,393.333 196.5,393.5C 195.772,391.807 194.772,390.307 193.5,389C 194.634,387.984 194.301,387.317 192.5,387C 189.741,386.023 187.741,386.856 186.5,389.5C 187.668,391.217 189.335,391.884 191.5,391.5C 191.5,392.833 191.5,394.167 191.5,395.5C 189.833,395.5 188.167,395.5 186.5,395.5C 179.167,395.5 171.833,395.5 164.5,395.5C 164.5,386.167 164.5,376.833 164.5,367.5C 166.164,368.949 166.998,370.949 167,373.5C 167.192,371.423 167.692,369.423 168.5,367.5C 169.598,368.615 170.765,368.615 172,367.5C 173.326,366.201 174.66,364.868 176,363.5C 177.308,365.641 178.808,367.641 180.5,369.5C 181.645,368.224 181.645,366.891 180.5,365.5C 180.977,364.522 181.643,363.689 182.5,363C 182.167,362.667 181.833,362.333 181.5,362C 182.742,361.689 183.742,362.189 184.5,363.5C 185.176,362.398 185.842,361.398 186.5,360.5 Z"/></g>
<g><path style="opacity:1" fill="#b3aaa9" d="M 277.5,381.5 C 275.5,383.833 273.5,386.167 271.5,388.5C 270.167,388.5 268.833,388.5 267.5,388.5C 267.5,389.5 267.5,390.5 267.5,391.5C 266.127,391.343 264.793,391.51 263.5,392C 263.833,392.333 264.167,392.667 264.5,393C 260.504,396.561 259.504,395.728 261.5,390.5C 267.908,384.69 272.575,377.69 275.5,369.5C 276.842,371.005 278.508,371.672 280.5,371.5C 279.901,374.963 278.901,378.296 277.5,381.5 Z"/></g>
<g><path style="opacity:1" fill="#9f582f" d="M 190.5,351.5 C 188.555,355.606 188.055,359.939 189,364.5C 189.576,368.566 191.743,371.233 195.5,372.5C 197.432,393.503 208.099,408.336 227.5,417C 230.432,417.953 233.432,418.453 236.5,418.5C 223.542,420.481 210.209,421.148 196.5,420.5C 197.099,413.609 196.265,406.942 194,400.5C 192.087,397.72 189.587,396.053 186.5,395.5C 188.167,395.5 189.833,395.5 191.5,395.5C 191.5,394.167 191.5,392.833 191.5,391.5C 189.335,391.884 187.668,391.217 186.5,389.5C 187.741,386.856 189.741,386.023 192.5,387C 194.301,387.317 194.634,387.984 193.5,389C 194.772,390.307 195.772,391.807 196.5,393.5C 196.833,393.333 197.167,393.167 197.5,393C 196.386,389.834 195.219,386.334 194,382.5C 193.502,379.518 193.335,376.518 193.5,373.5C 191.323,373.414 189.323,372.747 187.5,371.5C 186.511,367.893 186.177,364.226 186.5,360.5C 186.704,357.482 187.037,354.482 187.5,351.5C 188.5,351.5 189.5,351.5 190.5,351.5 Z"/></g>
<g><path style="opacity:1" fill="#642f33" d="M 358.5,313.5 C 358.5,341.167 358.5,368.833 358.5,396.5C 350.167,396.5 341.833,396.5 333.5,396.5C 333.5,368.5 333.5,340.5 333.5,312.5C 341.84,312.691 350.174,313.024 358.5,313.5 Z"/></g>
<g><path style="opacity:1" fill="#662b27" d="M 335.5,313.5 C 342.233,313.507 348.899,314.173 355.5,315.5C 356.098,316.795 356.598,318.128 357,319.5C 357.5,344.831 357.667,370.164 357.5,395.5C 349.913,395.814 342.413,395.481 335,394.5C 334.176,367.428 334.343,340.428 335.5,313.5 Z"/></g>
<g><path style="opacity:1" fill="#a29da2" d="M 261.5,390.5 C 259.504,395.728 260.504,396.561 264.5,393C 264.167,392.667 263.833,392.333 263.5,392C 264.793,391.51 266.127,391.343 267.5,391.5C 267.5,390.5 267.5,389.5 267.5,388.5C 268.833,388.5 270.167,388.5 271.5,388.5C 263.712,397.727 253.712,402.727 241.5,403.5C 221.841,400.832 208.841,390.166 202.5,371.5C 203.5,371.5 204.5,371.5 205.5,371.5C 206.583,371.461 207.583,371.127 208.5,370.5C 211.298,378.591 215.964,385.424 222.5,391C 235.668,398.445 248.668,398.278 261.5,390.5 Z"/></g>
<g><path style="opacity:0.31" fill="#b7adae" d="M 151.5,395.5 C 151.5,395.833 151.5,396.167 151.5,396.5C 149.698,397.458 147.698,398.125 145.5,398.5C 147.113,396.912 149.113,395.912 151.5,395.5 Z"/></g>
<g><path style="opacity:0.004" fill="#dad5d6" d="M 372.5,398.5 C 373.833,398.5 374.5,399.167 374.5,400.5C 373.5,400.167 372.833,399.5 372.5,398.5 Z"/></g>
<g><path style="opacity:1" fill="#260605" d="M 163.5,396.5 C 170.841,396.334 178.174,396.5 185.5,397C 190,398.833 193.167,402 195,406.5C 195.499,411.489 195.666,416.489 195.5,421.5C 195.5,422.833 195.5,424.167 195.5,425.5C 194.078,425.25 193.078,424.417 192.5,423C 193.639,417.584 193.806,412.084 193,406.5C 191.855,405.316 190.688,405.316 189.5,406.5C 189.531,405.37 189.198,404.037 188.5,402.5C 187.009,401.756 185.509,401.09 184,400.5C 178.399,401.726 178.232,401.226 183.5,399C 177.468,398.252 171.468,398.419 165.5,399.5C 164.287,399.253 163.62,398.586 163.5,397.5C 163.5,397.167 163.5,396.833 163.5,396.5 Z"/></g>
<g><path style="opacity:1" fill="#1f030e" d="M 333.5,396.5 C 341.984,397.493 350.651,397.826 359.5,397.5C 361.981,398.696 361.981,400.196 359.5,402C 360.833,402.333 362.167,402.667 363.5,403C 356.321,403.171 349.321,403.671 342.5,404.5C 343.11,405.391 343.443,406.391 343.5,407.5C 342.88,413.926 343.547,419.926 345.5,425.5C 345.423,426.75 344.756,427.583 343.5,428C 345.955,429.864 348.122,429.698 350,427.5C 352.133,429.138 354.633,429.971 357.5,430C 355.236,430.236 353.069,430.736 351,431.5C 348.816,432.108 346.816,431.441 345,429.5C 343.164,431.604 340.998,431.938 338.5,430.5C 338.075,426.924 338.075,423.424 338.5,420C 338.164,418.97 337.497,418.47 336.5,418.5C 336.5,416.833 336.5,415.167 336.5,413.5C 336.663,411.143 336.497,408.81 336,406.5C 335.329,405.748 334.496,405.414 333.5,405.5C 333.389,404.883 333.056,404.383 332.5,404C 322.325,403.175 312.325,403.342 302.5,404.5C 300.629,404.859 299.129,405.859 298,407.5C 297.501,412.823 297.334,418.156 297.5,423.5C 303.463,424.83 309.796,425.496 316.5,425.5C 323.405,425.461 330.071,424.794 336.5,423.5C 336.5,424.5 336.5,425.5 336.5,426.5C 335.127,426.343 333.793,426.51 332.5,427C 336.585,427.634 337.085,428.801 334,430.5C 332.486,430.23 330.986,429.897 329.5,429.5C 308.206,431.238 286.873,431.738 265.5,431C 263.122,430.026 263.456,429.359 266.5,429C 266.167,428.667 265.833,428.333 265.5,428C 266.899,427.405 268.232,427.572 269.5,428.5C 270.308,428.192 270.975,427.692 271.5,427C 245.997,426.832 220.663,426.332 195.5,425.5C 227.167,425.5 258.833,425.5 290.5,425.5C 290.5,420.167 290.5,414.833 290.5,409.5C 290.263,408.209 290.596,407.209 291.5,406.5C 292.117,406.611 292.617,406.944 293,407.5C 295.505,405.804 297.005,403.47 297.5,400.5C 299.332,399.752 300.999,398.752 302.5,397.5C 309.833,398.167 317.167,398.833 324.5,399.5C 326.861,398.46 328.195,396.627 328.5,394C 327.071,390.742 327.238,387.576 329,384.5C 330,385.833 331,385.833 332,384.5C 332.176,388.688 332.676,392.688 333.5,396.5 Z"/></g>
<g><path style="opacity:1" fill="#261a1f" d="M 366.5,317.5 C 366.5,344.167 366.5,370.833 366.5,397.5C 368.5,397.833 370.5,398.167 372.5,398.5C 372.833,399.5 373.5,400.167 374.5,400.5C 374.833,401.5 375.5,402.167 376.5,402.5C 377.222,402.918 377.722,403.584 378,404.5C 378.5,411.492 378.666,418.492 378.5,425.5C 377.672,419.681 377.172,413.681 377,407.5C 375.707,404.53 373.54,402.53 370.5,401.5C 369.458,400.209 368.292,400.209 367,401.5C 366.667,400.833 366.333,400.167 366,399.5C 365.17,371.997 365.336,344.664 366.5,317.5 Z"/></g>
<g><path style="opacity:0.008" fill="#cdcbcc" d="M 374.5,400.5 C 375.833,400.5 376.5,401.167 376.5,402.5C 375.5,402.167 374.833,401.5 374.5,400.5 Z"/></g>
<g><path style="opacity:1" fill="#9a6347" d="M 163.5,323.5 C 164.404,324.209 164.737,325.209 164.5,326.5C 164.5,340.167 164.5,353.833 164.5,367.5C 164.5,376.833 164.5,386.167 164.5,395.5C 171.833,395.5 179.167,395.5 186.5,395.5C 189.587,396.053 192.087,397.72 194,400.5C 196.265,406.942 197.099,413.609 196.5,420.5C 196.5,420.833 196.5,421.167 196.5,421.5C 196.167,421.5 195.833,421.5 195.5,421.5C 195.666,416.489 195.499,411.489 195,406.5C 193.167,402 190,398.833 185.5,397C 178.174,396.5 170.841,396.334 163.5,396.5C 163.5,372.167 163.5,347.833 163.5,323.5 Z"/></g>
<g><path style="opacity:0.188" fill="#a89090" d="M 141.5,401.5 C 141.573,403.027 140.906,404.027 139.5,404.5C 139.427,402.973 140.094,401.973 141.5,401.5 Z"/></g>
<g><path style="opacity:1" fill="#d2c7d5" d="M 302.5,404.5 C 312.325,403.342 322.325,403.175 332.5,404C 333.056,404.383 333.389,404.883 333.5,405.5C 323.218,404.548 312.885,404.214 302.5,404.5 Z"/></g>
<g><path style="opacity:1" fill="#fbf8f6" d="M 302.5,404.5 C 312.885,404.214 323.218,404.548 333.5,405.5C 334.496,405.414 335.329,405.748 336,406.5C 336.497,408.81 336.663,411.143 336.5,413.5C 336.11,416.797 335.11,419.797 333.5,422.5C 333.979,418.089 333.312,413.922 331.5,410C 326.415,408.915 321.248,408.415 316,408.5C 311.653,408.501 307.486,408.834 303.5,409.5C 302.542,409.953 301.708,410.619 301,411.5C 300.501,415.152 300.335,418.818 300.5,422.5C 299.391,422.557 298.391,422.89 297.5,423.5C 297.334,418.156 297.501,412.823 298,407.5C 299.129,405.859 300.629,404.859 302.5,404.5 Z"/></g>
<g><path style="opacity:1" fill="#9b7a7b" d="M 342.5,404.5 C 350.5,404.5 358.5,404.5 366.5,404.5C 367.71,404.932 368.71,405.599 369.5,406.5C 369.53,407.497 369.03,408.164 368,408.5C 359.876,407.545 351.71,407.212 343.5,407.5C 343.443,406.391 343.11,405.391 342.5,404.5 Z"/></g>
<g><path style="opacity:1" fill="#1c0711" d="M 158.5,312.5 C 158.5,315.5 158.5,318.5 158.5,321.5C 158.5,321.833 158.5,322.167 158.5,322.5C 158.5,347.5 158.5,372.5 158.5,397.5C 160.167,397.5 161.833,397.5 163.5,397.5C 163.62,398.586 164.287,399.253 165.5,399.5C 171.468,398.419 177.468,398.252 183.5,399C 178.232,401.226 178.399,401.726 184,400.5C 185.509,401.09 187.009,401.756 188.5,402.5C 189.198,404.037 189.531,405.37 189.5,406.5C 190.796,410.544 190.796,414.378 189.5,418C 190.167,418.333 190.833,418.667 191.5,419C 190.809,420.067 190.309,421.234 190,422.5C 189.667,422.167 189.333,421.833 189,421.5C 188.722,422.416 188.222,423.082 187.5,423.5C 187.37,419.132 187.703,414.798 188.5,410.5C 188.594,408.088 187.594,406.255 185.5,405C 179.437,403.874 173.271,403.374 167,403.5C 161.5,403.667 156,403.833 150.5,404C 148.91,405.046 147.41,406.213 146,407.5C 145.501,413.157 145.334,418.824 145.5,424.5C 145.5,424.833 145.5,425.167 145.5,425.5C 145.918,426.222 146.584,426.722 147.5,427C 145.702,428.505 143.868,428.672 142,427.5C 141.612,428.428 140.945,429.095 140,429.5C 136.513,428.787 133.013,428.121 129.5,427.5C 127.604,429.106 126.271,428.773 125.5,426.5C 130.294,427.097 134.627,426.43 138.5,424.5C 136.946,417.617 137.28,410.951 139.5,404.5C 140.906,404.027 141.573,403.027 141.5,401.5C 142.262,399.738 143.596,398.738 145.5,398.5C 147.698,398.125 149.698,397.458 151.5,396.5C 152.498,368.672 152.831,340.672 152.5,312.5C 151.167,312.5 149.833,312.5 148.5,312.5C 147.833,312.5 147.5,312.167 147.5,311.5C 147.5,311.167 147.5,310.833 147.5,310.5C 148.688,309.952 149.855,309.619 151,309.5C 152.805,312.039 155.305,313.039 158.5,312.5 Z"/></g>
<g><path style="opacity:1" fill="#f3ede8" d="M 187.5,423.5 C 186.508,423.672 185.842,423.338 185.5,422.5C 185.666,418.486 185.499,414.486 185,410.5C 184.5,410 184,409.5 183.5,409C 178.5,408.833 173.5,408.667 168.5,408.5C 162.727,408.379 157.061,408.879 151.5,410C 151,410.5 150.5,411 150,411.5C 149.501,415.486 149.334,419.486 149.5,423.5C 148.167,423.833 146.833,424.167 145.5,424.5C 145.334,418.824 145.501,413.157 146,407.5C 147.41,406.213 148.91,405.046 150.5,404C 156,403.833 161.5,403.667 167,403.5C 173.271,403.374 179.437,403.874 185.5,405C 187.594,406.255 188.594,408.088 188.5,410.5C 187.703,414.798 187.37,419.132 187.5,423.5 Z"/></g>
<g><path style="opacity:1" fill="#78311d" d="M 306.5,358.5 C 306.833,358.5 307.167,358.5 307.5,358.5C 308.49,363.813 309.49,369.146 310.5,374.5C 309.903,378.932 307.57,382.099 303.5,384C 298.511,384.499 293.511,384.666 288.5,384.5C 288.313,386.564 287.813,388.564 287,390.5C 281.357,400.973 273.524,409.307 263.5,415.5C 260.833,416.5 258.167,417.5 255.5,418.5C 260.816,413.461 266.816,409.128 273.5,405.5C 274.429,404.311 274.762,402.978 274.5,401.5C 269.408,401.503 269.408,400.67 274.5,399C 275.167,398 275.833,397 276.5,396C 278.764,395.764 280.931,395.264 283,394.5C 283.353,393.328 283.187,392.162 282.5,391C 282.92,387.465 284.087,386.965 286,389.5C 286.495,387.527 286.662,385.527 286.5,383.5C 293.371,383.516 300.038,382.516 306.5,380.5C 306.896,377.956 306.229,375.789 304.5,374C 306.155,372.556 306.822,370.722 306.5,368.5C 306.5,365.167 306.5,361.833 306.5,358.5 Z"/></g>
<g><path style="opacity:1" fill="#682c25" d="M 306.5,368.5 C 306.822,370.722 306.155,372.556 304.5,374C 306.229,375.789 306.896,377.956 306.5,380.5C 300.038,382.516 293.371,383.516 286.5,383.5C 286.662,385.527 286.495,387.527 286,389.5C 284.087,386.965 282.92,387.465 282.5,391C 283.187,392.162 283.353,393.328 283,394.5C 280.931,395.264 278.764,395.764 276.5,396C 275.833,397 275.167,398 274.5,399C 269.408,400.67 269.408,401.503 274.5,401.5C 274.762,402.978 274.429,404.311 273.5,405.5C 266.816,409.128 260.816,413.461 255.5,418.5C 249.146,419.734 242.812,419.734 236.5,418.5C 233.432,418.453 230.432,417.953 227.5,417C 208.099,408.336 197.432,393.503 195.5,372.5C 196.834,378.505 199.501,383.839 203.5,388.5C 205.456,391.539 207.79,394.372 210.5,397C 214.728,400.611 219.395,403.445 224.5,405.5C 229.683,408.341 235.35,409.674 241.5,409.5C 263.599,408.055 278.599,397.055 286.5,376.5C 291.132,375.672 295.798,375.172 300.5,375C 303.442,373.564 305.442,371.397 306.5,368.5 Z"/></g>
<g><path style="opacity:1" fill="#c59f7c" d="M 185.5,422.5 C 173.482,422.358 161.482,422.691 149.5,423.5C 149.334,419.486 149.501,415.486 150,411.5C 150.5,411 151,410.5 151.5,410C 157.061,408.879 162.727,408.379 168.5,408.5C 173.5,408.667 178.5,408.833 183.5,409C 184,409.5 184.5,410 185,410.5C 185.499,414.486 185.666,418.486 185.5,422.5 Z"/></g>
<g><path style="opacity:1" fill="#a2847d" d="M 185.5,422.5 C 185.842,423.338 186.508,423.672 187.5,423.5C 173.873,425.482 159.873,426.149 145.5,425.5C 145.5,425.167 145.5,424.833 145.5,424.5C 146.833,424.167 148.167,423.833 149.5,423.5C 161.482,422.691 173.482,422.358 185.5,422.5 Z"/></g>
<g><path style="opacity:1" fill="#26131a" d="M 370.5,401.5 C 373.54,402.53 375.707,404.53 377,407.5C 377.172,413.681 377.672,419.681 378.5,425.5C 383.511,425.334 388.511,425.501 393.5,426C 395.602,427.733 395.935,429.733 394.5,432C 391.485,433.379 388.319,434.212 385,434.5C 298.186,433.24 211.353,433.24 124.5,434.5C 118.683,433.467 117.35,430.8 120.5,426.5C 122.167,426.5 123.833,426.5 125.5,426.5C 126.271,428.773 127.604,429.106 129.5,427.5C 133.013,428.121 136.513,428.787 140,429.5C 140.945,429.095 141.612,428.428 142,427.5C 143.868,428.672 145.702,428.505 147.5,427C 146.584,426.722 145.918,426.222 145.5,425.5C 159.873,426.149 173.873,425.482 187.5,423.5C 188.222,423.082 188.722,422.416 189,421.5C 189.333,421.833 189.667,422.167 190,422.5C 190.309,421.234 190.809,420.067 191.5,419C 190.833,418.667 190.167,418.333 189.5,418C 190.796,414.378 190.796,410.544 189.5,406.5C 190.688,405.316 191.855,405.316 193,406.5C 193.806,412.084 193.639,417.584 192.5,423C 193.078,424.417 194.078,425.25 195.5,425.5C 220.663,426.332 245.997,426.832 271.5,427C 270.975,427.692 270.308,428.192 269.5,428.5C 268.232,427.572 266.899,427.405 265.5,428C 265.833,428.333 266.167,428.667 266.5,429C 263.456,429.359 263.122,430.026 265.5,431C 286.873,431.738 308.206,431.238 329.5,429.5C 330.986,429.897 332.486,430.23 334,430.5C 337.085,428.801 336.585,427.634 332.5,427C 333.793,426.51 335.127,426.343 336.5,426.5C 336.5,425.5 336.5,424.5 336.5,423.5C 336.5,421.833 336.5,420.167 336.5,418.5C 337.497,418.47 338.164,418.97 338.5,420C 338.075,423.424 338.075,426.924 338.5,430.5C 340.998,431.938 343.164,431.604 345,429.5C 346.816,431.441 348.816,432.108 351,431.5C 353.069,430.736 355.236,430.236 357.5,430C 354.633,429.971 352.133,429.138 350,427.5C 348.122,429.698 345.955,429.864 343.5,428C 344.756,427.583 345.423,426.75 345.5,425.5C 353.833,425.5 362.167,425.5 370.5,425.5C 370.823,418.978 370.49,412.645 369.5,406.5C 368.71,405.599 367.71,404.932 366.5,404.5C 367.035,402.554 368.368,401.554 370.5,401.5 Z"/></g>
<g><path style="opacity:1" fill="#a68a83" d="M 336.5,413.5 C 336.5,415.167 336.5,416.833 336.5,418.5C 336.5,420.167 336.5,421.833 336.5,423.5C 330.071,424.794 323.405,425.461 316.5,425.5C 309.796,425.496 303.463,424.83 297.5,423.5C 298.391,422.89 299.391,422.557 300.5,422.5C 311.5,422.5 322.5,422.5 333.5,422.5C 335.11,419.797 336.11,416.797 336.5,413.5 Z"/></g>
<g><path style="opacity:1" fill="#8f4327" d="M 263.5,415.5 C 261.614,418.231 258.947,419.731 255.5,420C 260.823,420.499 266.156,420.666 271.5,420.5C 267.16,421.046 262.827,422.046 258.5,423.5C 253.667,423.833 248.833,424.167 244,424.5C 229.558,423.042 213.724,422.042 196.5,421.5C 196.5,421.167 196.5,420.833 196.5,420.5C 210.209,421.148 223.542,420.481 236.5,418.5C 242.812,419.734 249.146,419.734 255.5,418.5C 258.167,417.5 260.833,416.5 263.5,415.5 Z"/></g>
<g><path style="opacity:1" fill="#7e3c2d" d="M 290.5,409.5 C 290.5,414.833 290.5,420.167 290.5,425.5C 258.833,425.5 227.167,425.5 195.5,425.5C 195.5,424.167 195.5,422.833 195.5,421.5C 195.833,421.5 196.167,421.5 196.5,421.5C 213.724,422.042 229.558,423.042 244,424.5C 248.833,424.167 253.667,423.833 258.5,423.5C 262.827,422.046 267.16,421.046 271.5,420.5C 277.5,420.5 283.5,420.5 289.5,420.5C 289.185,416.629 289.518,412.962 290.5,409.5 Z"/></g>
<g><path style="opacity:1" fill="#c6a787" d="M 333.5,422.5 C 322.5,422.5 311.5,422.5 300.5,422.5C 300.335,418.818 300.501,415.152 301,411.5C 301.708,410.619 302.542,409.953 303.5,409.5C 307.486,408.834 311.653,408.501 316,408.5C 321.248,408.415 326.415,408.915 331.5,410C 333.312,413.922 333.979,418.089 333.5,422.5 Z"/></g>
<g><path style="opacity:1" fill="#c69d78" d="M 303.5,409.5 C 312.263,409.244 320.929,409.91 329.5,411.5C 329.5,412.833 329.5,414.167 329.5,415.5C 326.833,414.833 324.167,414.167 321.5,413.5C 321.854,415.541 321.854,417.374 321.5,419C 315.183,419.765 308.849,420.265 302.5,420.5C 302.323,416.766 302.656,413.099 303.5,409.5 Z"/></g>
<g><path style="opacity:1" fill="#7e5b56" d="M 369.5,406.5 C 370.49,412.645 370.823,418.978 370.5,425.5C 362.167,425.5 353.833,425.5 345.5,425.5C 343.547,419.926 342.88,413.926 343.5,407.5C 351.71,407.212 359.876,407.545 368,408.5C 369.03,408.164 369.53,407.497 369.5,406.5 Z"/></g>
<g><path style="opacity:0.476" fill="#8b7f7f" d="M 138.5,424.5 C 134.627,426.43 130.294,427.097 125.5,426.5C 123.833,426.5 122.167,426.5 120.5,426.5C 121.777,425.102 123.443,424.436 125.5,424.5C 129.893,425.698 134.227,425.698 138.5,424.5 Z"/></g>
</svg>
