<?xml version="1.0" encoding="UTF-8"?>
<!DOCTYPE svg PUBLIC "-//W3C//DTD SVG 1.1//EN" "http://www.w3.org/Graphics/SVG/1.1/DTD/svg11.dtd">
<svg xmlns="http://www.w3.org/2000/svg" version="1.1" width="500px" height="500px" style="shape-rendering:geometricPrecision; text-rendering:geometricPrecision; image-rendering:optimizeQuality; fill-rule:evenodd; clip-rule:evenodd" xmlns:xlink="http://www.w3.org/1999/xlink">
<g><path style="opacity:0.369" fill="#1b0a0a" d="M 242.5,47.5 C 238.436,42.988 233.769,42.3213 228.5,45.5C 232.053,42.3 236.053,41.8 240.5,44C 241.823,44.8159 242.489,45.9826 242.5,47.5 Z"/></g>
<g><path style="opacity:1" fill="#1b0a0a" d="M 243.5,49.5 C 245.153,52.1305 246.819,54.7972 248.5,57.5C 246.821,57.1077 245.154,56.6077 243.5,56C 244.333,53.9189 244.333,51.7522 243.5,49.5 Z"/></g>
<g><path style="opacity:0.745" fill="#1b0a0a" d="M 266.5,68.5 C 270.889,69.4025 274.889,71.0692 278.5,73.5C 277.504,73.4142 276.671,73.7476 276,74.5C 275.5,73.3333 274.667,72.5 273.5,72C 270.399,72.0418 268.066,70.8751 266.5,68.5 Z"/></g>
<g><path style="opacity:0.1" fill="#949091" d="M 301.5,88.5 C 303.833,88.8333 305.167,90.1667 305.5,92.5C 303.833,91.5 302.5,90.1667 301.5,88.5 Z"/></g>
<g><path style="opacity:1" fill="#1b0a0a" d="M 197.5,90.5 C 198.917,94.8961 198.25,98.8961 195.5,102.5C 195.296,99.4547 195.296,96.6213 195.5,94C 194.874,93.2496 194.374,92.4162 194,91.5C 191.598,91.439 189.098,90.7724 186.5,89.5C 186.167,89.5 185.833,89.5 185.5,89.5C 185.101,86.0292 183.601,85.6958 181,88.5C 179.542,86.476 177.709,86.3093 175.5,88C 171.978,92.2165 171.811,96.3832 175,100.5C 176.316,97.972 177.483,97.972 178.5,100.5C 176.056,101.955 175.556,103.621 177,105.5C 178.998,104.729 180.665,105.395 182,107.5C 182.414,107.043 182.914,106.709 183.5,106.5C 185.075,107.456 186.742,108.123 188.5,108.5C 175.949,110.114 170.449,104.447 172,91.5C 176.828,82.1144 183.994,79.9477 193.5,85C 195.464,86.451 196.797,88.2843 197.5,90.5 Z"/></g>
<g><path style="opacity:0.98" fill="#1b0a0a" d="M 197.5,90.5 C 198.117,90.6107 198.617,90.944 199,91.5C 200.547,97.2497 199.047,101.916 194.5,105.5C 194.263,104.209 194.596,103.209 195.5,102.5C 198.25,98.8961 198.917,94.8961 197.5,90.5 Z"/></g>
<g><path style="opacity:0.999" fill="#1b0a0a" d="M 185.5,89.5 C 180.272,90.6228 178.772,93.6228 181,98.5C 185.653,101.602 189.153,100.602 191.5,95.5C 190.535,92.8724 188.868,90.8724 186.5,89.5C 189.098,90.7724 191.598,91.439 194,91.5C 194.374,92.4162 194.874,93.2496 195.5,94C 195.296,96.6213 195.296,99.4547 195.5,102.5C 194.596,103.209 194.263,104.209 194.5,105.5C 193.313,107.975 191.313,108.975 188.5,108.5C 186.742,108.123 185.075,107.456 183.5,106.5C 182.914,106.709 182.414,107.043 182,107.5C 180.665,105.395 178.998,104.729 177,105.5C 175.556,103.621 176.056,101.955 178.5,100.5C 177.483,97.972 176.316,97.972 175,100.5C 171.811,96.3832 171.978,92.2165 175.5,88C 177.709,86.3093 179.542,86.476 181,88.5C 183.601,85.6958 185.101,86.0292 185.5,89.5 Z"/></g>
<g><path style="opacity:1" fill="#844d48" d="M 185.5,89.5 C 185.833,89.5 186.167,89.5 186.5,89.5C 188.868,90.8724 190.535,92.8724 191.5,95.5C 189.153,100.602 185.653,101.602 181,98.5C 178.772,93.6228 180.272,90.6228 185.5,89.5 Z"/></g>
<g><path style="opacity:1" fill="#1b0a0a" d="M 242.5,47.5 C 243.338,47.8417 243.672,48.5084 243.5,49.5C 244.333,51.7522 244.333,53.9189 243.5,56C 245.154,56.6077 246.821,57.1077 248.5,57.5C 254.543,61.2329 260.543,64.8996 266.5,68.5C 268.066,70.8751 270.399,72.0418 273.5,72C 274.667,72.5 275.5,73.3333 276,74.5C 276.671,73.7476 277.504,73.4142 278.5,73.5C 287.029,77.2588 294.695,82.2588 301.5,88.5C 302.5,90.1667 303.833,91.5 305.5,92.5C 310.457,95.4573 314.457,99.4573 317.5,104.5C 319.453,108.069 321.119,111.736 322.5,115.5C 325.069,125.716 325.736,136.05 324.5,146.5C 324.326,148.861 323.993,151.194 323.5,153.5C 328.869,154.546 333.203,157.213 336.5,161.5C 337.942,162.82 338.608,164.486 338.5,166.5C 340.38,166.229 341.713,166.896 342.5,168.5C 341.778,168.918 341.278,169.584 341,170.5C 340.667,169.833 340.333,169.167 340,168.5C 339.333,169.833 338.333,170.833 337,171.5C 334.174,169.171 331.008,167.504 327.5,166.5C 326.833,166.167 326.167,165.833 325.5,165.5C 323.41,163.61 321.077,161.943 318.5,160.5C 317.818,161.243 317.151,161.909 316.5,162.5C 315.883,162.389 315.383,162.056 315,161.5C 312.617,163.438 310.617,165.772 309,168.5C 307.513,167.845 306.347,166.845 305.5,165.5C 307.504,162.458 309.504,159.458 311.5,156.5C 312.429,155.311 312.762,153.978 312.5,152.5C 315.513,143.212 316.18,133.879 314.5,124.5C 311.579,113.723 305.913,104.556 297.5,97C 284.814,87.1555 270.814,79.6555 255.5,74.5C 245.092,70.5889 238.259,63.2556 235,52.5C 232.564,56.4826 231.898,60.816 233,65.5C 236.082,72.5784 238.249,79.9118 239.5,87.5C 240.505,104.682 232.505,115.182 215.5,119C 197.393,119.802 182.893,127.302 172,141.5C 168.306,146.945 166.473,152.945 166.5,159.5C 166.167,159.5 165.833,159.5 165.5,159.5C 164.009,162.23 162.675,162.063 161.5,159C 163.271,158.465 163.604,157.631 162.5,156.5C 161.252,157.04 160.085,157.707 159,158.5C 158.667,158.167 158.333,157.833 158,157.5C 157.501,162.489 157.334,167.489 157.5,172.5C 154.197,157.033 157.864,143.367 168.5,131.5C 171.167,129.5 173.5,127.167 175.5,124.5C 179.581,120.614 184.248,117.448 189.5,115C 197.985,112.236 206.652,110.236 215.5,109C 224.289,106.981 228.956,101.481 229.5,92.5C 227.942,85.5904 225.776,78.9237 223,72.5C 222.116,65.4183 222.449,58.4183 224,51.5C 224.792,48.8936 226.292,46.8936 228.5,45.5C 233.769,42.3213 238.436,42.988 242.5,47.5 Z"/></g>
<g><path style="opacity:1" fill="#fcf6e5" d="M 289.5,111.5 C 286.763,111.599 284.096,111.265 281.5,110.5C 281.08,108.906 280.414,107.406 279.5,106C 279.989,104.862 280.322,103.695 280.5,102.5C 285.902,99.5301 289.569,101.03 291.5,107C 291.481,108.833 290.815,110.333 289.5,111.5 Z"/></g>
<g><path style="opacity:1" fill="#b7765a" d="M 255.5,74.5 C 255.5,75.5 255.5,76.5 255.5,77.5C 257.199,77.3398 258.866,77.5065 260.5,78C 267.396,81.2299 274.063,84.7299 280.5,88.5C 279.167,89.5 277.833,90.5 276.5,91.5C 276.667,91.8333 276.833,92.1667 277,92.5C 280.959,93.3922 284.792,94.7256 288.5,96.5C 286.527,97.3311 284.527,97.4978 282.5,97C 280.845,98.4443 280.178,100.278 280.5,102.5C 280.322,103.695 279.989,104.862 279.5,106C 280.414,107.406 281.08,108.906 281.5,110.5C 278.315,112.029 275.648,111.363 273.5,108.5C 269.457,109.286 265.457,110.286 261.5,111.5C 259.481,110.52 257.647,109.186 256,107.5C 255.338,111.353 254.504,111.353 253.5,107.5C 253.68,106.446 254.013,105.446 254.5,104.5C 251.716,102.886 249.882,100.552 249,97.5C 247.415,98.3757 246.415,99.7091 246,101.5C 245.283,100.956 244.783,100.289 244.5,99.5C 245.127,94.3402 243.46,90.3402 239.5,87.5C 238.249,79.9118 236.082,72.5784 233,65.5C 231.898,60.816 232.564,56.4826 235,52.5C 238.259,63.2556 245.092,70.5889 255.5,74.5 Z"/></g>
<g><path style="opacity:1" fill="#a86955" d="M 255.5,74.5 C 270.814,79.6555 284.814,87.1555 297.5,97C 305.913,104.556 311.579,113.723 314.5,124.5C 314.666,129.844 314.499,135.177 314,140.5C 313.768,141.737 313.268,142.737 312.5,143.5C 311.833,143.833 311.167,144.167 310.5,144.5C 309.761,141.505 310.428,138.672 312.5,136C 307.986,132.877 307.653,129.544 311.5,126C 310.906,123.21 309.739,120.71 308,118.5C 307.355,119.646 306.522,120.646 305.5,121.5C 306.428,122.768 306.595,124.101 306,125.5C 305.667,125.167 305.333,124.833 305,124.5C 304.727,126.101 304.227,127.601 303.5,129C 303.833,129.333 304.167,129.667 304.5,130C 300.306,132.093 296.306,131.927 292.5,129.5C 292.5,128.167 292.5,126.833 292.5,125.5C 301.131,131.044 304.631,128.71 303,118.5C 302.487,117.473 301.987,116.473 301.5,115.5C 298.299,113.74 294.633,112.906 290.5,113C 289.944,112.617 289.611,112.117 289.5,111.5C 290.815,110.333 291.481,108.833 291.5,107C 289.569,101.03 285.902,99.5301 280.5,102.5C 280.178,100.278 280.845,98.4443 282.5,97C 284.527,97.4978 286.527,97.3311 288.5,96.5C 284.792,94.7256 280.959,93.3922 277,92.5C 276.833,92.1667 276.667,91.8333 276.5,91.5C 277.833,90.5 279.167,89.5 280.5,88.5C 274.063,84.7299 267.396,81.2299 260.5,78C 258.866,77.5065 257.199,77.3398 255.5,77.5C 255.5,76.5 255.5,75.5 255.5,74.5 Z"/></g>
<g><path style="opacity:1" fill="#fbf6e7" d="M 301.5,115.5 C 301.987,116.473 302.487,117.473 303,118.5C 304.631,128.71 301.131,131.044 292.5,125.5C 290.068,116.972 293.068,113.638 301.5,115.5 Z"/></g>
<g><path style="opacity:0.863" fill="#625a5c" d="M 322.5,115.5 C 325.107,121.783 326.44,128.45 326.5,135.5C 326.637,139.447 325.97,143.114 324.5,146.5C 325.736,136.05 325.069,125.716 322.5,115.5 Z"/></g>
<g><path style="opacity:1" fill="#ae6e52" d="M 281.5,110.5 C 284.096,111.265 286.763,111.599 289.5,111.5C 289.611,112.117 289.944,112.617 290.5,113C 294.633,112.906 298.299,113.74 301.5,115.5C 293.068,113.638 290.068,116.972 292.5,125.5C 292.5,126.833 292.5,128.167 292.5,129.5C 290.085,131.064 287.752,132.898 285.5,135C 281.864,135.15 279.197,136.816 277.5,140C 275.527,140.495 273.527,140.662 271.5,140.5C 270.955,144.172 270.622,143.838 270.5,139.5C 269.5,139.5 268.5,139.5 267.5,139.5C 267.36,141.124 268.027,142.29 269.5,143C 263.986,148.319 258.486,148.486 253,143.5C 249.324,147.218 244.824,149.051 239.5,149C 237.746,151.827 235.912,151.994 234,149.5C 233.333,150.167 232.667,150.833 232,151.5C 229.26,150.718 226.426,150.218 223.5,150C 221.875,149.147 221.542,148.147 222.5,147C 221.421,146.044 220.255,145.211 219,144.5C 216.599,145.602 214.099,145.769 211.5,145C 209.194,142.861 206.527,141.361 203.5,140.5C 205.353,139.24 207.186,139.24 209,140.5C 211.023,138.987 210.856,137.654 208.5,136.5C 211.564,133.751 215.23,132.251 219.5,132C 221.833,130.333 224.167,128.667 226.5,127C 225.127,126.125 223.627,125.625 222,125.5C 217.376,127.485 212.543,128.651 207.5,129C 207.034,130.299 207.034,131.799 207.5,133.5C 205.8,133.374 204.3,132.707 203,131.5C 198.89,132.816 194.724,133.816 190.5,134.5C 192.769,133.024 195.102,131.524 197.5,130C 210.104,127.748 222.104,123.748 233.5,118C 239.539,113.153 243.206,106.987 244.5,99.5C 244.783,100.289 245.283,100.956 246,101.5C 246.415,99.7091 247.415,98.3757 249,97.5C 249.882,100.552 251.716,102.886 254.5,104.5C 254.013,105.446 253.68,106.446 253.5,107.5C 254.504,111.353 255.338,111.353 256,107.5C 257.647,109.186 259.481,110.52 261.5,111.5C 265.457,110.286 269.457,109.286 273.5,108.5C 275.648,111.363 278.315,112.029 281.5,110.5 Z"/></g>
<g><path style="opacity:0.384" fill="#8f8484" d="M 175.5,124.5 C 173.5,127.167 171.167,129.5 168.5,131.5C 169.833,128.167 172.167,125.833 175.5,124.5 Z"/></g>
<g><path style="opacity:1" fill="#a8644b" d="M 310.5,144.5 C 307.785,146.979 305.785,149.979 304.5,153.5C 302.611,151.568 300.611,149.735 298.5,148C 295.339,147.56 292.506,148.393 290,150.5C 289.586,150.043 289.086,149.709 288.5,149.5C 287.797,152.684 285.797,154.184 282.5,154C 279.753,158.349 275.92,160.182 271,159.5C 268.96,161.353 266.627,162.686 264,163.5C 258.38,163.07 253.38,163.07 249,163.5C 246.141,161.248 243.475,161.248 241,163.5C 240.667,163.167 240.333,162.833 240,162.5C 236.076,163.35 232.41,164.016 229,164.5C 228.326,163.422 227.326,162.755 226,162.5C 224.244,163.805 222.577,164.472 221,164.5C 219.676,163.12 218.343,162.786 217,163.5C 215.676,162.12 214.343,161.786 213,162.5C 210.134,162.041 207.801,160.708 206,158.5C 201.915,157.633 198.082,156.133 194.5,154C 192.395,150.437 190.061,147.104 187.5,144C 188.769,141.916 189.769,139.749 190.5,137.5C 188.833,137.5 187.167,137.5 185.5,137.5C 186.899,136.11 188.566,135.11 190.5,134.5C 194.724,133.816 198.89,132.816 203,131.5C 204.3,132.707 205.8,133.374 207.5,133.5C 207.034,131.799 207.034,130.299 207.5,129C 212.543,128.651 217.376,127.485 222,125.5C 223.627,125.625 225.127,126.125 226.5,127C 224.167,128.667 221.833,130.333 219.5,132C 215.23,132.251 211.564,133.751 208.5,136.5C 210.856,137.654 211.023,138.987 209,140.5C 207.186,139.24 205.353,139.24 203.5,140.5C 206.527,141.361 209.194,142.861 211.5,145C 214.099,145.769 216.599,145.602 219,144.5C 220.255,145.211 221.421,146.044 222.5,147C 221.542,148.147 221.875,149.147 223.5,150C 226.426,150.218 229.26,150.718 232,151.5C 232.667,150.833 233.333,150.167 234,149.5C 235.912,151.994 237.746,151.827 239.5,149C 244.824,149.051 249.324,147.218 253,143.5C 258.486,148.486 263.986,148.319 269.5,143C 268.027,142.29 267.36,141.124 267.5,139.5C 268.5,139.5 269.5,139.5 270.5,139.5C 270.622,143.838 270.955,144.172 271.5,140.5C 273.527,140.662 275.527,140.495 277.5,140C 279.197,136.816 281.864,135.15 285.5,135C 287.752,132.898 290.085,131.064 292.5,129.5C 296.306,131.927 300.306,132.093 304.5,130C 304.167,129.667 303.833,129.333 303.5,129C 304.227,127.601 304.727,126.101 305,124.5C 305.333,124.833 305.667,125.167 306,125.5C 306.595,124.101 306.428,122.768 305.5,121.5C 306.522,120.646 307.355,119.646 308,118.5C 309.739,120.71 310.906,123.21 311.5,126C 307.653,129.544 307.986,132.877 312.5,136C 310.428,138.672 309.761,141.505 310.5,144.5 Z"/></g>
<g><path style="opacity:1" fill="#f9f2e0" d="M 239.5,87.5 C 243.46,90.3402 245.127,94.3402 244.5,99.5C 243.206,106.987 239.539,113.153 233.5,118C 222.104,123.748 210.104,127.748 197.5,130C 195.102,131.524 192.769,133.024 190.5,134.5C 188.566,135.11 186.899,136.11 185.5,137.5C 178.701,143.762 173.368,151.095 169.5,159.5C 168.21,160.058 167.377,161.058 167,162.5C 166.517,161.552 166.351,160.552 166.5,159.5C 166.473,152.945 168.306,146.945 172,141.5C 182.893,127.302 197.393,119.802 215.5,119C 232.505,115.182 240.505,104.682 239.5,87.5 Z"/></g>
<g><path style="opacity:1" fill="#9f5946" d="M 185.5,137.5 C 187.167,137.5 188.833,137.5 190.5,137.5C 189.769,139.749 188.769,141.916 187.5,144C 190.061,147.104 192.395,150.437 194.5,154C 198.082,156.133 201.915,157.633 206,158.5C 207.801,160.708 210.134,162.041 213,162.5C 214.343,161.786 215.676,162.12 217,163.5C 218.343,162.786 219.676,163.12 221,164.5C 222.577,164.472 224.244,163.805 226,162.5C 227.326,162.755 228.326,163.422 229,164.5C 232.41,164.016 236.076,163.35 240,162.5C 240.333,162.833 240.667,163.167 241,163.5C 243.475,161.248 246.141,161.248 249,163.5C 253.38,163.07 258.38,163.07 264,163.5C 266.627,162.686 268.96,161.353 271,159.5C 275.92,160.182 279.753,158.349 282.5,154C 285.797,154.184 287.797,152.684 288.5,149.5C 289.086,149.709 289.586,150.043 290,150.5C 292.506,148.393 295.339,147.56 298.5,148C 300.611,149.735 302.611,151.568 304.5,153.5C 305.785,149.979 307.785,146.979 310.5,144.5C 311.167,144.167 311.833,143.833 312.5,143.5C 310.04,150.962 305.373,156.629 298.5,160.5C 283.125,170.594 266.125,174.928 247.5,173.5C 224.134,173.106 201.467,168.939 179.5,161C 176.924,160.218 174.924,158.718 173.5,156.5C 172.358,157.826 171.024,158.826 169.5,159.5C 173.368,151.095 178.701,143.762 185.5,137.5 Z"/></g>
<g><path style="opacity:0.529" fill="#574749" d="M 336.5,161.5 C 340.436,163.766 343.769,166.766 346.5,170.5C 344.938,170.267 343.605,169.6 342.5,168.5C 341.713,166.896 340.38,166.229 338.5,166.5C 338.608,164.486 337.942,162.82 336.5,161.5 Z"/></g>
<g><path style="opacity:1" fill="#733335" d="M 314.5,124.5 C 316.18,133.879 315.513,143.212 312.5,152.5C 301.055,167.733 285.721,176.567 266.5,179C 242.022,180.607 218.022,177.94 194.5,171C 184.756,170.188 175.089,170.688 165.5,172.5C 165.5,168.167 165.5,163.833 165.5,159.5C 165.833,159.5 166.167,159.5 166.5,159.5C 166.351,160.552 166.517,161.552 167,162.5C 167.377,161.058 168.21,160.058 169.5,159.5C 168.213,162.698 167.547,166.031 167.5,169.5C 170.247,169.813 172.914,169.48 175.5,168.5C 176.641,167.575 176.641,166.741 175.5,166C 180.707,166.031 185.874,166.531 191,167.5C 191.333,167.167 191.667,166.833 192,166.5C 205.489,172.412 219.656,175.579 234.5,176C 246.167,176.667 257.833,176.667 269.5,176C 276.346,174.461 283.013,172.461 289.5,170C 292.427,167.618 295.261,165.118 298,162.5C 298.464,161.906 298.631,161.239 298.5,160.5C 305.373,156.629 310.04,150.962 312.5,143.5C 313.268,142.737 313.768,141.737 314,140.5C 314.499,135.177 314.666,129.844 314.5,124.5 Z"/></g>
<g><path style="opacity:1" fill="#1b0a0a" d="M 312.5,152.5 C 312.762,153.978 312.429,155.311 311.5,156.5C 309.504,159.458 307.504,162.458 305.5,165.5C 306.347,166.845 307.513,167.845 309,168.5C 310.617,165.772 312.617,163.438 315,161.5C 315.383,162.056 315.883,162.389 316.5,162.5C 312.461,167.54 307.794,171.873 302.5,175.5C 283.166,187.323 262.166,191.823 239.5,189C 229.331,187.865 219.331,186.032 209.5,183.5C 207.435,183.483 205.435,183.15 203.5,182.5C 189.644,179.624 175.978,180.291 162.5,184.5C 160.829,182.992 158.996,182.659 157,183.5C 156.667,182.833 156.333,182.167 156,181.5C 155.081,186.045 152.914,187.378 149.5,185.5C 152.416,183.462 155.083,181.128 157.5,178.5C 158.788,176.701 158.788,175.035 157.5,173.5C 157.5,173.167 157.5,172.833 157.5,172.5C 157.334,167.489 157.501,162.489 158,157.5C 158.333,157.833 158.667,158.167 159,158.5C 160.085,157.707 161.252,157.04 162.5,156.5C 163.604,157.631 163.271,158.465 161.5,159C 162.675,162.063 164.009,162.23 165.5,159.5C 165.5,163.833 165.5,168.167 165.5,172.5C 175.089,170.688 184.756,170.188 194.5,171C 218.022,177.94 242.022,180.607 266.5,179C 285.721,176.567 301.055,167.733 312.5,152.5 Z"/></g>
<g><path style="opacity:1" fill="#7c322e" d="M 298.5,160.5 C 298.631,161.239 298.464,161.906 298,162.5C 295.261,165.118 292.427,167.618 289.5,170C 283.013,172.461 276.346,174.461 269.5,176C 257.833,176.667 246.167,176.667 234.5,176C 219.656,175.579 205.489,172.412 192,166.5C 191.667,166.833 191.333,167.167 191,167.5C 185.874,166.531 180.707,166.031 175.5,166C 176.641,166.741 176.641,167.575 175.5,168.5C 172.914,169.48 170.247,169.813 167.5,169.5C 167.547,166.031 168.213,162.698 169.5,159.5C 171.024,158.826 172.358,157.826 173.5,156.5C 174.924,158.718 176.924,160.218 179.5,161C 201.467,168.939 224.134,173.106 247.5,173.5C 266.125,174.928 283.125,170.594 298.5,160.5 Z"/></g>
<g><path style="opacity:1" fill="#92493d" d="M 325.5,165.5 C 322.836,167.484 321.169,170.151 320.5,173.5C 310.646,183.271 298.979,190.271 285.5,194.5C 270.322,197.371 254.989,198.205 239.5,197C 229.132,195.692 218.799,193.859 208.5,191.5C 210.826,190.855 212.493,189.522 213.5,187.5C 217.37,190.183 221.536,190.849 226,189.5C 236.394,190.849 246.727,192.516 257,194.5C 260.85,193.869 264.683,193.202 268.5,192.5C 269.854,194.184 271.521,194.684 273.5,194C 272.833,193.667 272.167,193.333 271.5,193C 276.074,192.278 279.74,190.111 282.5,186.5C 289.219,183.802 295.885,181.135 302.5,178.5C 302.5,177.5 302.5,176.5 302.5,175.5C 307.794,171.873 312.461,167.54 316.5,162.5C 317.151,161.909 317.818,161.243 318.5,160.5C 321.077,161.943 323.41,163.61 325.5,165.5 Z"/></g>
<g><path style="opacity:1" fill="#854b44" d="M 302.5,175.5 C 302.5,176.5 302.5,177.5 302.5,178.5C 295.885,181.135 289.219,183.802 282.5,186.5C 279.74,190.111 276.074,192.278 271.5,193C 272.167,193.333 272.833,193.667 273.5,194C 271.521,194.684 269.854,194.184 268.5,192.5C 264.683,193.202 260.85,193.869 257,194.5C 246.727,192.516 236.394,190.849 226,189.5C 221.536,190.849 217.37,190.183 213.5,187.5C 210.821,187.475 209.488,186.142 209.5,183.5C 219.331,186.032 229.331,187.865 239.5,189C 262.166,191.823 283.166,187.323 302.5,175.5 Z"/></g>
<g><path style="opacity:1" fill="#a9654e" d="M 325.5,165.5 C 326.167,165.833 326.833,166.167 327.5,166.5C 339.321,175.461 349.821,185.795 359,197.5C 360.705,199.577 361.872,201.91 362.5,204.5C 362.181,209.646 362.847,214.646 364.5,219.5C 363.335,220.584 362.002,221.417 360.5,222C 362.882,223.467 364.715,222.633 366,219.5C 366.667,225.167 366.667,230.833 366,236.5C 365.802,234.089 364.636,232.423 362.5,231.5C 358.62,233.046 355.286,235.38 352.5,238.5C 351.833,237.5 351.167,236.5 350.5,235.5C 345.864,238.572 341.864,237.906 338.5,233.5C 337.817,233.863 337.15,234.196 336.5,234.5C 336.666,229.821 336.499,225.155 336,220.5C 334.906,218.922 334.072,217.255 333.5,215.5C 336.654,217.86 339.987,218.026 343.5,216C 344.817,214.341 346.483,213.174 348.5,212.5C 349.641,205.819 349.474,199.153 348,192.5C 344.595,191.532 344.095,190.032 346.5,188C 345.307,183.473 342.473,180.64 338,179.5C 337.751,180.624 337.251,181.624 336.5,182.5C 335.246,180.741 335.579,179.241 337.5,178C 336.579,176.244 335.412,176.077 334,177.5C 331.632,176.283 329.132,175.449 326.5,175C 325,174.167 323.833,173 323,171.5C 322.583,172.756 321.75,173.423 320.5,173.5C 321.169,170.151 322.836,167.484 325.5,165.5 Z"/></g>
<g><path style="opacity:1" fill="#a7664e" d="M 203.5,182.5 C 205.435,183.15 207.435,183.483 209.5,183.5C 209.488,186.142 210.821,187.475 213.5,187.5C 212.493,189.522 210.826,190.855 208.5,191.5C 218.799,193.859 229.132,195.692 239.5,197C 254.989,198.205 270.322,197.371 285.5,194.5C 282.578,196.709 279.245,198.209 275.5,199C 277.301,199.317 277.634,199.984 276.5,201C 271.185,201.363 266.352,202.863 262,205.5C 256.644,205.116 251.144,204.616 245.5,204C 243.699,203.683 243.366,203.016 244.5,202C 243.007,200.632 241.507,200.465 240,201.5C 238.2,199.683 236.034,198.516 233.5,198C 229.113,197.774 224.779,197.274 220.5,196.5C 219.167,197.5 217.833,198.5 216.5,199.5C 217.274,200.711 218.107,200.711 219,199.5C 219.432,200.6 218.932,201.267 217.5,201.5C 214.741,200.192 211.907,199.192 209,198.5C 208.667,199.167 208.333,199.833 208,200.5C 207.047,198.408 205.714,198.075 204,199.5C 203.25,198.874 202.416,198.374 201.5,198C 196.518,197.269 191.685,196.769 187,196.5C 186.505,198.473 186.338,200.473 186.5,202.5C 182.433,202.39 178.933,203.723 176,206.5C 175.517,207.448 175.351,208.448 175.5,209.5C 170.949,213.932 167.949,219.265 166.5,225.5C 165.35,230.316 165.184,235.316 166,240.5C 167.147,243.135 168.647,245.468 170.5,247.5C 160.708,245.095 153.375,248.095 148.5,256.5C 147.728,257.694 146.728,258.694 145.5,259.5C 141.448,254.789 137.448,250.122 133.5,245.5C 133.5,245.167 133.5,244.833 133.5,244.5C 134.968,226.391 142.301,210.891 155.5,198C 162.722,192.724 170.722,189.057 179.5,187C 187.75,186.087 195.75,184.587 203.5,182.5 Z"/></g>
<g><path style="opacity:0.29" fill="#b0a8a8" d="M 135.5,194.5 C 135.573,196.027 134.906,197.027 133.5,197.5C 133.427,195.973 134.094,194.973 135.5,194.5 Z"/></g>
<g><path style="opacity:1" fill="#b07156" d="M 333.5,215.5 C 329.693,211.192 325.693,207.025 321.5,203C 312.804,201.169 304.138,201.336 295.5,203.5C 295.5,204.5 295.5,205.5 295.5,206.5C 292.454,206.183 290.787,207.516 290.5,210.5C 281.566,220.574 280.233,231.574 286.5,243.5C 285.115,242.386 283.615,241.386 282,240.5C 281.122,243.257 280.122,245.924 279,248.5C 278.692,247.692 278.192,247.025 277.5,246.5C 276.5,247.833 275.5,247.833 274.5,246.5C 273.16,247.867 271.827,249.2 270.5,250.5C 272.696,246.417 273.529,242.084 273,237.5C 270.582,235.32 267.916,234.987 265,236.5C 263.144,248.359 256.311,252.526 244.5,249C 239.34,246.492 236.507,242.326 236,236.5C 232.844,233.601 230.178,233.935 228,237.5C 227.398,240.221 227.565,242.887 228.5,245.5C 228.631,246.239 228.464,246.906 228,247.5C 226.886,245.517 225.386,243.85 223.5,242.5C 222.702,240.922 222.202,239.256 222,237.5C 221.29,238.973 220.124,239.64 218.5,239.5C 218.817,235.298 218.483,231.298 217.5,227.5C 214.068,209.91 203.402,202.077 185.5,204C 181.836,205.375 178.503,207.208 175.5,209.5C 175.351,208.448 175.517,207.448 176,206.5C 178.933,203.723 182.433,202.39 186.5,202.5C 186.338,200.473 186.505,198.473 187,196.5C 191.685,196.769 196.518,197.269 201.5,198C 202.416,198.374 203.25,198.874 204,199.5C 205.714,198.075 207.047,198.408 208,200.5C 208.333,199.833 208.667,199.167 209,198.5C 211.907,199.192 214.741,200.192 217.5,201.5C 218.932,201.267 219.432,200.6 219,199.5C 218.107,200.711 217.274,200.711 216.5,199.5C 217.833,198.5 219.167,197.5 220.5,196.5C 224.779,197.274 229.113,197.774 233.5,198C 236.034,198.516 238.2,199.683 240,201.5C 241.507,200.465 243.007,200.632 244.5,202C 243.366,203.016 243.699,203.683 245.5,204C 251.144,204.616 256.644,205.116 262,205.5C 266.352,202.863 271.185,201.363 276.5,201C 277.634,199.984 277.301,199.317 275.5,199C 279.245,198.209 282.578,196.709 285.5,194.5C 298.979,190.271 310.646,183.271 320.5,173.5C 321.75,173.423 322.583,172.756 323,171.5C 323.833,173 325,174.167 326.5,175C 329.132,175.449 331.632,176.283 334,177.5C 335.412,176.077 336.579,176.244 337.5,178C 335.579,179.241 335.246,180.741 336.5,182.5C 337.251,181.624 337.751,180.624 338,179.5C 342.473,180.64 345.307,183.473 346.5,188C 344.095,190.032 344.595,191.532 348,192.5C 349.474,199.153 349.641,205.819 348.5,212.5C 346.483,213.174 344.817,214.341 343.5,216C 339.987,218.026 336.654,217.86 333.5,215.5 Z"/></g>
<g><path style="opacity:1" fill="#060303" d="M 333.5,239.5 C 331.244,243.097 328.577,246.431 325.5,249.5C 310.922,257.738 297.922,255.738 286.5,243.5C 280.233,231.574 281.566,220.574 290.5,210.5C 307.798,198.69 321.964,201.69 333,219.5C 334.788,226.112 334.954,232.778 333.5,239.5 Z"/></g>
<g><path style="opacity:1" fill="#060302" d="M 217.5,227.5 C 217.206,246.458 207.539,255.458 188.5,254.5C 184.938,254.035 181.605,252.868 178.5,251C 175.964,248.295 173.297,245.795 170.5,243.5C 167.079,238.04 165.746,232.04 166.5,225.5C 167.949,219.265 170.949,213.932 175.5,209.5C 178.503,207.208 181.836,205.375 185.5,204C 203.402,202.077 214.068,209.91 217.5,227.5 Z"/></g>
<g><path style="opacity:1" fill="#f8f2e3" d="M 203.5,182.5 C 195.75,184.587 187.75,186.087 179.5,187C 170.722,189.057 162.722,192.724 155.5,198C 142.301,210.891 134.968,226.391 133.5,244.5C 127.763,219.928 135.43,200.761 156.5,187C 158.641,186.427 160.641,185.594 162.5,184.5C 175.978,180.291 189.644,179.624 203.5,182.5 Z"/></g>
<g><path style="opacity:1" fill="#f8f8f8" d="M 185.5,210.5 C 192.852,208.759 198.352,211.092 202,217.5C 203.424,224.759 200.59,229.592 193.5,232C 183.415,231.906 178.915,226.74 180,216.5C 181.36,213.977 183.193,211.977 185.5,210.5 Z"/></g>
<g><path style="opacity:1" fill="#f8f9f9" d="M 302.5,210.5 C 314.895,208.394 320.395,213.394 319,225.5C 314.201,232.924 308.201,234.258 301,229.5C 296.019,222.725 296.519,216.392 302.5,210.5 Z"/></g>
<g><path style="opacity:1" fill="#9d695b" d="M 333.5,215.5 C 334.072,217.255 334.906,218.922 336,220.5C 336.499,225.155 336.666,229.821 336.5,234.5C 336.741,237.034 335.741,238.7 333.5,239.5C 334.954,232.778 334.788,226.112 333,219.5C 321.964,201.69 307.798,198.69 290.5,210.5C 290.787,207.516 292.454,206.183 295.5,206.5C 295.5,205.5 295.5,204.5 295.5,203.5C 304.138,201.336 312.804,201.169 321.5,203C 325.693,207.025 329.693,211.192 333.5,215.5 Z"/></g>
<g><path style="opacity:0.161" fill="#8c8080" d="M 376.5,213.5 C 378.074,215.102 378.741,217.102 378.5,219.5C 376.926,217.898 376.259,215.898 376.5,213.5 Z"/></g>
<g><path style="opacity:1" fill="#945041" d="M 362.5,204.5 C 368.606,215.373 370.606,227.04 368.5,239.5C 360.969,258.862 347.302,272.028 327.5,279C 272.963,297.98 218.963,296.647 165.5,275C 158.222,270.539 151.555,265.372 145.5,259.5C 146.728,258.694 147.728,257.694 148.5,256.5C 148.901,260.07 150.901,262.236 154.5,263C 161.582,263.884 168.582,263.551 175.5,262C 177.444,259.847 177.944,257.347 177,254.5C 175.334,251.669 173.168,249.336 170.5,247.5C 168.647,245.468 167.147,243.135 166,240.5C 165.184,235.316 165.35,230.316 166.5,225.5C 165.746,232.04 167.079,238.04 170.5,243.5C 175.839,253.503 184.173,257.67 195.5,256C 192.964,255.814 190.631,255.314 188.5,254.5C 207.539,255.458 217.206,246.458 217.5,227.5C 218.483,231.298 218.817,235.298 218.5,239.5C 214.894,246.407 209.727,251.74 203,255.5C 202.105,259.188 201.105,262.521 200,265.5C 197.773,262.423 194.94,261.59 191.5,263C 192.167,262.667 192.833,262.333 193.5,262C 189.755,262.035 189.088,261.035 191.5,259C 188.232,257.787 184.899,257.454 181.5,258C 184.317,260.563 183.817,262.396 180,263.5C 179.517,264.448 179.351,265.448 179.5,266.5C 178.448,266.351 177.448,266.517 176.5,267C 178.167,267.333 179.833,267.667 181.5,268C 180.552,268.483 179.552,268.649 178.5,268.5C 178.343,269.873 178.51,271.207 179,272.5C 179.718,271.549 180.551,271.383 181.5,272C 180.726,274.44 179.06,275.773 176.5,276C 177.646,276.645 178.646,277.478 179.5,278.5C 184.237,279.596 188.737,280.596 193,281.5C 196.174,280.272 199.341,280.439 202.5,282C 201.833,282.333 201.167,282.667 200.5,283C 203.656,282.947 206.156,284.114 208,286.5C 210.42,285.512 212.753,285.845 215,287.5C 219.416,287.126 224.583,286.959 230.5,287C 228.789,285.867 228.289,284.367 229,282.5C 230.583,280.945 232.416,279.778 234.5,279C 233.5,278.167 232.5,277.333 231.5,276.5C 235.5,275.5 239.5,274.5 243.5,273.5C 247.201,274.523 250.867,274.69 254.5,274C 255.423,276.041 255.756,278.208 255.5,280.5C 260.833,280.167 266.167,279.833 271.5,279.5C 271.337,277.143 271.503,274.81 272,272.5C 272.414,272.043 272.914,271.709 273.5,271.5C 274.54,273.375 276.04,274.708 278,275.5C 281.949,274.039 285.782,272.372 289.5,270.5C 295.288,272.13 301.288,272.297 307.5,271C 307.167,270.667 306.833,270.333 306.5,270C 307.24,268.215 307.907,266.382 308.5,264.5C 305.859,263.05 306.192,262.383 309.5,262.5C 313.269,262.558 316.435,263.892 319,266.5C 319.5,266 320,265.5 320.5,265C 317.135,263.167 314.469,260.667 312.5,257.5C 315.041,256.063 317.708,254.897 320.5,254C 322.618,252.951 324.284,251.451 325.5,249.5C 328.577,246.431 331.244,243.097 333.5,239.5C 335.741,238.7 336.741,237.034 336.5,234.5C 337.15,234.196 337.817,233.863 338.5,233.5C 341.864,237.906 345.864,238.572 350.5,235.5C 351.167,236.5 351.833,237.5 352.5,238.5C 355.286,235.38 358.62,233.046 362.5,231.5C 364.636,232.423 365.802,234.089 366,236.5C 366.667,230.833 366.667,225.167 366,219.5C 364.715,222.633 362.882,223.467 360.5,222C 362.002,221.417 363.335,220.584 364.5,219.5C 362.847,214.646 362.181,209.646 362.5,204.5 Z"/></g>
<g><path style="opacity:1" fill="#975542" d="M 228.5,245.5 C 235.08,258.317 245.413,262.483 259.5,258C 263.508,255.996 267.175,253.496 270.5,250.5C 271.827,249.2 273.16,247.867 274.5,246.5C 275.5,247.833 276.5,247.833 277.5,246.5C 278.192,247.025 278.692,247.692 279,248.5C 280.122,245.924 281.122,243.257 282,240.5C 283.615,241.386 285.115,242.386 286.5,243.5C 297.922,255.738 310.922,257.738 325.5,249.5C 324.284,251.451 322.618,252.951 320.5,254C 317.708,254.897 315.041,256.063 312.5,257.5C 314.469,260.667 317.135,263.167 320.5,265C 320,265.5 319.5,266 319,266.5C 316.435,263.892 313.269,262.558 309.5,262.5C 306.192,262.383 305.859,263.05 308.5,264.5C 307.907,266.382 307.24,268.215 306.5,270C 306.833,270.333 307.167,270.667 307.5,271C 301.288,272.297 295.288,272.13 289.5,270.5C 285.782,272.372 281.949,274.039 278,275.5C 276.04,274.708 274.54,273.375 273.5,271.5C 272.914,271.709 272.414,272.043 272,272.5C 271.503,274.81 271.337,277.143 271.5,279.5C 266.167,279.833 260.833,280.167 255.5,280.5C 255.756,278.208 255.423,276.041 254.5,274C 250.867,274.69 247.201,274.523 243.5,273.5C 239.5,274.5 235.5,275.5 231.5,276.5C 232.5,277.333 233.5,278.167 234.5,279C 232.416,279.778 230.583,280.945 229,282.5C 228.289,284.367 228.789,285.867 230.5,287C 224.583,286.959 219.416,287.126 215,287.5C 212.753,285.845 210.42,285.512 208,286.5C 206.156,284.114 203.656,282.947 200.5,283C 201.167,282.667 201.833,282.333 202.5,282C 199.341,280.439 196.174,280.272 193,281.5C 188.737,280.596 184.237,279.596 179.5,278.5C 178.646,277.478 177.646,276.645 176.5,276C 179.06,275.773 180.726,274.44 181.5,272C 180.551,271.383 179.718,271.549 179,272.5C 178.51,271.207 178.343,269.873 178.5,268.5C 179.552,268.649 180.552,268.483 181.5,268C 179.833,267.667 178.167,267.333 176.5,267C 177.448,266.517 178.448,266.351 179.5,266.5C 179.351,265.448 179.517,264.448 180,263.5C 183.817,262.396 184.317,260.563 181.5,258C 184.899,257.454 188.232,257.787 191.5,259C 189.088,261.035 189.755,262.035 193.5,262C 192.833,262.333 192.167,262.667 191.5,263C 194.94,261.59 197.773,262.423 200,265.5C 201.105,262.521 202.105,259.188 203,255.5C 209.727,251.74 214.894,246.407 218.5,239.5C 220.124,239.64 221.29,238.973 222,237.5C 222.202,239.256 222.702,240.922 223.5,242.5C 225.386,243.85 226.886,245.517 228,247.5C 228.464,246.906 228.631,246.239 228.5,245.5 Z"/></g>
<g><path style="opacity:1" fill="#a37b74" d="M 170.5,243.5 C 173.297,245.795 175.964,248.295 178.5,251C 181.605,252.868 184.938,254.035 188.5,254.5C 190.631,255.314 192.964,255.814 195.5,256C 184.173,257.67 175.839,253.503 170.5,243.5 Z"/></g>
<g><path style="opacity:1" fill="#0f0403" d="M 270.5,250.5 C 267.175,253.496 263.508,255.996 259.5,258C 245.413,262.483 235.08,258.317 228.5,245.5C 227.565,242.887 227.398,240.221 228,237.5C 230.178,233.935 232.844,233.601 236,236.5C 236.507,242.326 239.34,246.492 244.5,249C 256.311,252.526 263.144,248.359 265,236.5C 267.916,234.987 270.582,235.32 273,237.5C 273.529,242.084 272.696,246.417 270.5,250.5 Z"/></g>
<g><path style="opacity:1" fill="#77312f" d="M 368.5,239.5 C 368.054,249.393 364.554,258.059 358,265.5C 353.425,270.746 348.258,275.246 342.5,279C 320.228,290.439 296.561,297.106 271.5,299C 239.836,301.284 208.836,297.951 178.5,289C 170.998,286.054 163.665,282.721 156.5,279C 153.274,275.108 149.441,271.942 145,269.5C 143.021,265.7 140.521,262.366 137.5,259.5C 135.56,255.013 134.227,250.346 133.5,245.5C 137.448,250.122 141.448,254.789 145.5,259.5C 151.555,265.372 158.222,270.539 165.5,275C 218.963,296.647 272.963,297.98 327.5,279C 347.302,272.028 360.969,258.862 368.5,239.5 Z"/></g>
<g><path style="opacity:1" fill="#fbb4a4" d="M 331.5,247.5 C 338.676,246.794 345.343,248.294 351.5,252C 356.088,258.83 354.088,262.83 345.5,264C 339.276,265.061 333.276,264.394 327.5,262C 324.793,260.136 323.959,257.636 325,254.5C 327.372,252.297 329.539,249.963 331.5,247.5 Z"/></g>
<g><path style="opacity:1" fill="#fcb6a3" d="M 170.5,247.5 C 173.168,249.336 175.334,251.669 177,254.5C 177.944,257.347 177.444,259.847 175.5,262C 168.582,263.551 161.582,263.884 154.5,263C 150.901,262.236 148.901,260.07 148.5,256.5C 153.375,248.095 160.708,245.095 170.5,247.5 Z"/></g>
<g><path style="opacity:1" fill="#f7efe2" d="M 132.5,266.5 C 132.649,267.552 132.483,268.552 132,269.5C 128.397,274.381 124.564,279.048 120.5,283.5C 116.335,289.158 112.668,295.158 109.5,301.5C 108.073,303.148 107.24,305.148 107,307.5C 106.435,314.881 105.269,321.881 103.5,328.5C 99.1003,302.143 107.767,281.31 129.5,266C 130.749,265.26 131.749,265.427 132.5,266.5 Z"/></g>
<g><path style="opacity:0.999" fill="#1c0b0b" d="M 374.5,255.5 C 374.281,256.675 374.614,257.675 375.5,258.5C 392.705,269.693 403.039,285.359 406.5,305.5C 407.783,316.206 407.45,326.872 405.5,337.5C 403.13,349.772 397.63,360.438 389,369.5C 377.382,381.96 363.549,390.96 347.5,396.5C 347.5,395.5 347.5,394.5 347.5,393.5C 349.103,393.688 350.437,393.188 351.5,392C 350.898,390.096 351.398,388.263 353,386.5C 354.049,387.517 355.216,387.684 356.5,387C 355.833,386.667 355.167,386.333 354.5,386C 356.141,384.871 357.141,383.371 357.5,381.5C 375.766,372.065 388.6,357.732 396,338.5C 398.201,329.614 398.868,320.614 398,311.5C 397.802,309.618 397.302,307.952 396.5,306.5C 394.173,295.325 389.34,285.325 382,276.5C 380.242,274.235 378.075,272.568 375.5,271.5C 374.027,269.605 372.36,267.939 370.5,266.5C 369.909,265.849 369.243,265.182 368.5,264.5C 369.641,263.575 369.641,262.741 368.5,262C 373.001,262.933 373.334,262.266 369.5,260C 370.167,259.667 370.833,259.333 371.5,259C 364.492,259.333 363.659,256.833 369,251.5C 369.923,252.759 370.757,254.092 371.5,255.5C 372.527,254.209 373.527,254.209 374.5,255.5 Z"/></g>
<g><path style="opacity:1" fill="#914a3e" d="M 370.5,266.5 C 372.36,267.939 374.027,269.605 375.5,271.5C 374.254,277.383 371.254,282.217 366.5,286C 358.214,290.635 350.214,295.635 342.5,301C 309.157,312.337 274.824,317.504 239.5,316.5C 221.445,315.93 203.445,313.764 185.5,310C 182.842,308.522 180.175,307.355 177.5,306.5C 182.581,306.583 187.747,306.583 193,306.5C 197.691,308.573 202.524,309.24 207.5,308.5C 220.719,312.587 234.219,313.587 248,311.5C 251.167,311.667 254.333,311.833 257.5,312C 258.931,312.465 260.097,313.299 261,314.5C 264.84,313.668 268.507,313.668 272,314.5C 277.155,309.954 282.821,308.954 289,311.5C 291.025,311.172 293.191,311.006 295.5,311C 296.641,310.259 296.641,309.425 295.5,308.5C 299.592,305.472 304.259,303.972 309.5,304C 312.91,302.494 316.244,300.994 319.5,299.5C 326.733,296.342 334.066,293.176 341.5,290C 345.833,287 350.167,284 354.5,281C 360.074,276.25 365.408,271.417 370.5,266.5 Z"/></g>
<g><path style="opacity:1" fill="#1b0304" d="M 327.5,166.5 C 331.008,167.504 334.174,169.171 337,171.5C 338.333,170.833 339.333,169.833 340,168.5C 340.333,169.167 340.667,169.833 341,170.5C 341.278,169.584 341.778,168.918 342.5,168.5C 343.605,169.6 344.938,170.267 346.5,170.5C 356.743,177.962 364.909,187.296 371,198.5C 373.735,203.207 375.568,208.207 376.5,213.5C 376.259,215.898 376.926,217.898 378.5,219.5C 380.448,231.913 379.114,243.913 374.5,255.5C 373.527,254.209 372.527,254.209 371.5,255.5C 370.757,254.092 369.923,252.759 369,251.5C 363.659,256.833 364.492,259.333 371.5,259C 370.833,259.333 370.167,259.667 369.5,260C 373.334,262.266 373.001,262.933 368.5,262C 369.641,262.741 369.641,263.575 368.5,264.5C 369.243,265.182 369.909,265.849 370.5,266.5C 365.408,271.417 360.074,276.25 354.5,281C 350.167,284 345.833,287 341.5,290C 334.066,293.176 326.733,296.342 319.5,299.5C 274.996,310.962 230.33,311.462 185.5,301C 168.455,296.813 153.455,288.98 140.5,277.5C 137.674,274.516 135.341,271.183 133.5,267.5C 135.124,267.64 136.29,266.973 137,265.5C 137.419,266.672 138.085,267.672 139,268.5C 138.838,265.512 138.338,262.512 137.5,259.5C 140.521,262.366 143.021,265.7 145,269.5C 149.441,271.942 153.274,275.108 156.5,279C 163.665,282.721 170.998,286.054 178.5,289C 208.836,297.951 239.836,301.284 271.5,299C 296.561,297.106 320.228,290.439 342.5,279C 348.258,275.246 353.425,270.746 358,265.5C 364.554,258.059 368.054,249.393 368.5,239.5C 370.606,227.04 368.606,215.373 362.5,204.5C 361.872,201.91 360.705,199.577 359,197.5C 349.821,185.795 339.321,175.461 327.5,166.5 Z"/></g>
<g><path style="opacity:1" fill="#a45e47" d="M 396.5,307.5 C 396.666,311.514 396.499,315.514 396,319.5C 395.667,318.5 395.333,317.5 395,316.5C 392.825,320.531 391.492,324.864 391,329.5C 387.314,336.886 383.147,343.886 378.5,350.5C 377.292,351.234 375.959,351.567 374.5,351.5C 374.5,349.833 374.5,348.167 374.5,346.5C 374.582,340.333 372.249,335.333 367.5,331.5C 367.756,329.088 366.756,327.421 364.5,326.5C 365.364,324.803 366.697,323.637 368.5,323C 367.449,321.615 366.116,320.615 364.5,320C 365.448,319.517 366.448,319.351 367.5,319.5C 366.812,314.623 367.979,310.29 371,306.5C 371.333,306.833 371.667,307.167 372,307.5C 373.441,306.13 375.108,305.13 377,304.5C 378.217,302.48 378.383,300.48 377.5,298.5C 380.086,297.52 382.753,297.187 385.5,297.5C 385.238,296.022 385.571,294.689 386.5,293.5C 388.201,293.19 389.868,293.69 391.5,295C 393.106,299.218 394.772,303.385 396.5,307.5 Z"/></g>
<g><path style="opacity:1" fill="#89483c" d="M 132.5,266.5 C 133.167,266.5 133.5,266.833 133.5,267.5C 135.341,271.183 137.674,274.516 140.5,277.5C 140.618,280.25 141.951,282.25 144.5,283.5C 148.54,285.038 151.874,287.538 154.5,291C 158.263,292.187 161.93,293.52 165.5,295C 167.371,297.37 169.038,299.87 170.5,302.5C 173.523,302.815 175.856,304.148 177.5,306.5C 167.282,304.406 157.615,300.906 148.5,296C 144.21,292.515 139.543,289.515 134.5,287C 133.809,285.933 133.309,284.766 133,283.5C 130.842,282.174 129.008,280.507 127.5,278.5C 125.183,280.316 123.016,282.316 121,284.5C 120.601,284.272 120.435,283.938 120.5,283.5C 124.564,279.048 128.397,274.381 132,269.5C 132.483,268.552 132.649,267.552 132.5,266.5 Z"/></g>
<g><path style="opacity:1" fill="#a7664e" d="M 177.5,306.5 C 180.175,307.355 182.842,308.522 185.5,310C 203.445,313.764 221.445,315.93 239.5,316.5C 231.58,316.815 223.747,316.482 216,315.5C 214.151,316.561 212.151,317.227 210,317.5C 206.519,316.877 203.019,316.377 199.5,316C 197.623,315.26 196.123,314.427 195,313.5C 188.513,314.429 182.179,314.429 176,313.5C 175.764,316.208 174.931,318.708 173.5,321C 174.167,322.333 174.833,323.667 175.5,325C 172.708,327.725 171.541,330.891 172,334.5C 171.25,335.126 170.416,335.626 169.5,336C 170.227,338.124 170.894,340.291 171.5,342.5C 171.291,343.086 170.957,343.586 170.5,344C 173.172,345.201 175.172,347.035 176.5,349.5C 176.574,351.411 177.574,352.578 179.5,353C 178.944,353.383 178.611,353.883 178.5,354.5C 177.25,354.423 176.417,353.756 176,352.5C 175.586,352.957 175.086,353.291 174.5,353.5C 172.395,352.101 170.562,350.434 169,348.5C 168.229,345.141 167.395,341.808 166.5,338.5C 167.833,337.38 168.333,336.047 168,334.5C 164.517,336.504 161.017,336.837 157.5,335.5C 153.875,334.34 150.875,332.174 148.5,329C 147.552,328.517 146.552,328.351 145.5,328.5C 145.661,316.479 139.994,311.646 128.5,314C 126.45,315.965 124.783,318.132 123.5,320.5C 123.645,317.948 124.145,315.615 125,313.5C 124.311,312.643 123.478,311.977 122.5,311.5C 119.024,311.822 115.858,312.822 113,314.5C 111.354,313.059 111.187,311.392 112.5,309.5C 111.861,306.525 111.361,303.525 111,300.5C 110.617,301.056 110.117,301.389 109.5,301.5C 112.668,295.158 116.335,289.158 120.5,283.5C 120.435,283.938 120.601,284.272 121,284.5C 123.016,282.316 125.183,280.316 127.5,278.5C 129.008,280.507 130.842,282.174 133,283.5C 133.309,284.766 133.809,285.933 134.5,287C 139.543,289.515 144.21,292.515 148.5,296C 157.615,300.906 167.282,304.406 177.5,306.5 Z"/></g>
<g><path style="opacity:1" fill="#7f443d" d="M 140.5,277.5 C 153.455,288.98 168.455,296.813 185.5,301C 230.33,311.462 274.996,310.962 319.5,299.5C 316.244,300.994 312.91,302.494 309.5,304C 304.259,303.972 299.592,305.472 295.5,308.5C 296.641,309.425 296.641,310.259 295.5,311C 293.191,311.006 291.025,311.172 289,311.5C 282.821,308.954 277.155,309.954 272,314.5C 268.507,313.668 264.84,313.668 261,314.5C 260.097,313.299 258.931,312.465 257.5,312C 254.333,311.833 251.167,311.667 248,311.5C 234.219,313.587 220.719,312.587 207.5,308.5C 202.524,309.24 197.691,308.573 193,306.5C 187.747,306.583 182.581,306.583 177.5,306.5C 175.856,304.148 173.523,302.815 170.5,302.5C 169.038,299.87 167.371,297.37 165.5,295C 161.93,293.52 158.263,292.187 154.5,291C 151.874,287.538 148.54,285.038 144.5,283.5C 141.951,282.25 140.618,280.25 140.5,277.5 Z"/></g>
<g><path style="opacity:0.997" fill="#1d0f0f" d="M 157.5,173.5 C 158.788,175.035 158.788,176.701 157.5,178.5C 155.083,181.128 152.416,183.462 149.5,185.5C 152.914,187.378 155.081,186.045 156,181.5C 156.333,182.167 156.667,182.833 157,183.5C 158.996,182.659 160.829,182.992 162.5,184.5C 160.641,185.594 158.641,186.427 156.5,187C 135.43,200.761 127.763,219.928 133.5,244.5C 133.5,244.833 133.5,245.167 133.5,245.5C 134.227,250.346 135.56,255.013 137.5,259.5C 138.338,262.512 138.838,265.512 139,268.5C 138.085,267.672 137.419,266.672 137,265.5C 136.29,266.973 135.124,267.64 133.5,267.5C 133.5,266.833 133.167,266.5 132.5,266.5C 131.749,265.427 130.749,265.26 129.5,266C 107.767,281.31 99.1003,302.143 103.5,328.5C 103.5,328.833 103.5,329.167 103.5,329.5C 107.361,346 115.695,359.666 128.5,370.5C 130.035,374.959 133.035,378.125 137.5,380C 137.236,384.777 138.736,385.277 142,381.5C 144.033,383.35 144.033,384.016 142,383.5C 140.471,384.729 139.304,386.229 138.5,388C 140.32,388.2 141.653,389.034 142.5,390.5C 132.738,387.632 124.738,382.299 118.5,374.5C 117.089,372.086 115.089,370.419 112.5,369.5C 92.1566,345.451 87.3233,318.451 98,288.5C 104.497,275.183 113.997,264.516 126.5,256.5C 120.092,240.903 119.926,225.236 126,209.5C 127.968,205.061 130.468,201.061 133.5,197.5C 134.906,197.027 135.573,196.027 135.5,194.5C 140.442,186.727 147.108,180.894 155.5,177C 156.823,176.184 157.489,175.017 157.5,173.5 Z"/></g>
<g><path style="opacity:1" fill="#fcf7e7" d="M 117.5,296.5 C 124.088,296.657 126.588,299.99 125,306.5C 122.839,310.124 119.672,311.291 115.5,310C 111.188,304.731 111.855,300.231 117.5,296.5 Z"/></g>
<g><path style="opacity:1" fill="#ab6a50" d="M 375.5,271.5 C 378.075,272.568 380.242,274.235 382,276.5C 389.34,285.325 394.173,295.325 396.5,306.5C 396.5,306.833 396.5,307.167 396.5,307.5C 394.772,303.385 393.106,299.218 391.5,295C 389.868,293.69 388.201,293.19 386.5,293.5C 385.571,294.689 385.238,296.022 385.5,297.5C 382.753,297.187 380.086,297.52 377.5,298.5C 378.383,300.48 378.217,302.48 377,304.5C 375.108,305.13 373.441,306.13 372,307.5C 371.667,307.167 371.333,306.833 371,306.5C 367.979,310.29 366.812,314.623 367.5,319.5C 366.448,319.351 365.448,319.517 364.5,320C 366.116,320.615 367.449,321.615 368.5,323C 366.697,323.637 365.364,324.803 364.5,326.5C 366.756,327.421 367.756,329.088 367.5,331.5C 358.31,327.187 351.476,329.52 347,338.5C 344.304,347.775 347.471,354.108 356.5,357.5C 360.397,358.816 360.064,359.816 355.5,360.5C 352.857,360.149 350.191,359.816 347.5,359.5C 348.376,358.749 349.376,358.249 350.5,358C 348.671,357.727 347.171,356.893 346,355.5C 345.33,351.989 344.163,348.656 342.5,345.5C 339.959,342.9 337.459,342.9 335,345.5C 330.726,345.52 326.392,345.187 322,344.5C 319.975,346.422 317.475,347.422 314.5,347.5C 308.832,348.55 303.165,348.717 297.5,348C 295.481,349.866 293.148,351.033 290.5,351.5C 280.377,348.797 270.043,348.13 259.5,349.5C 257.392,349.14 255.392,348.473 253.5,347.5C 251.789,348.581 250.289,349.915 249,351.5C 244.883,351.133 240.883,351.133 237,351.5C 226.974,354.432 216.974,357.099 207,359.5C 206.667,358.167 206.333,356.833 206,355.5C 205.667,356.167 205.333,356.833 205,357.5C 204.292,356.619 203.458,355.953 202.5,355.5C 205.556,354.562 208.556,352.895 211.5,350.5C 211.52,348.857 210.853,347.524 209.5,346.5C 210.093,344.618 210.76,342.785 211.5,341C 209.013,324.874 199.68,318.541 183.5,322C 180.354,324.1 177.521,326.6 175,329.5C 174.333,334.5 174.333,339.5 175,344.5C 175.236,346.119 176.069,347.119 177.5,347.5C 177.5,347.833 177.5,348.167 177.5,348.5C 176.833,348.5 176.5,348.833 176.5,349.5C 175.172,347.035 173.172,345.201 170.5,344C 170.957,343.586 171.291,343.086 171.5,342.5C 170.894,340.291 170.227,338.124 169.5,336C 170.416,335.626 171.25,335.126 172,334.5C 171.541,330.891 172.708,327.725 175.5,325C 174.833,323.667 174.167,322.333 173.5,321C 174.931,318.708 175.764,316.208 176,313.5C 182.179,314.429 188.513,314.429 195,313.5C 196.123,314.427 197.623,315.26 199.5,316C 203.019,316.377 206.519,316.877 210,317.5C 212.151,317.227 214.151,316.561 216,315.5C 223.747,316.482 231.58,316.815 239.5,316.5C 274.824,317.504 309.157,312.337 342.5,301C 350.214,295.635 358.214,290.635 366.5,286C 371.254,282.217 374.254,277.383 375.5,271.5 Z"/></g>
<g><path style="opacity:1" fill="#fbf8e7" d="M 145.5,328.5 C 142.418,334.597 137.418,336.764 130.5,335C 124.564,331.961 122.231,327.128 123.5,320.5C 124.783,318.132 126.45,315.965 128.5,314C 139.994,311.646 145.661,316.479 145.5,328.5 Z"/></g>
<g><path style="opacity:1" fill="#a26b5a" d="M 202.5,355.5 C 199.99,355.998 197.49,356.664 195,357.5C 189.515,356.847 184.015,356.347 178.5,356C 179.738,355.31 179.738,354.81 178.5,354.5C 178.611,353.883 178.944,353.383 179.5,353C 177.574,352.578 176.574,351.411 176.5,349.5C 176.5,348.833 176.833,348.5 177.5,348.5C 186.635,357.793 195.802,357.793 205,348.5C 210.821,331.319 204.654,322.819 186.5,323C 175.786,328.271 172.786,336.438 177.5,347.5C 176.069,347.119 175.236,346.119 175,344.5C 174.333,339.5 174.333,334.5 175,329.5C 177.521,326.6 180.354,324.1 183.5,322C 199.68,318.541 209.013,324.874 211.5,341C 210.76,342.785 210.093,344.618 209.5,346.5C 210.853,347.524 211.52,348.857 211.5,350.5C 208.556,352.895 205.556,354.562 202.5,355.5 Z"/></g>
<g><path style="opacity:0.106" fill="#675e5e" d="M 406.5,305.5 C 408.007,309.391 408.674,313.558 408.5,318C 408.554,324.799 407.554,331.299 405.5,337.5C 407.45,326.872 407.783,316.206 406.5,305.5 Z"/></g>
<g><path style="opacity:1" fill="#260404" d="M 325.5,307.5 C 339.823,307.321 346.323,314.321 345,328.5C 341.329,339.919 333.829,343.752 322.5,340C 310.569,331.424 309.569,321.758 319.5,311C 321.432,309.541 323.432,308.375 325.5,307.5 Z"/></g>
<g><path style="opacity:1" fill="#8a4f42" d="M 325.5,316.5 C 336.598,316.088 339.931,320.921 335.5,331C 327.835,335.193 322.835,333.026 320.5,324.5C 320.71,320.805 322.377,318.138 325.5,316.5 Z"/></g>
<g><path style="opacity:1" fill="#fbf4e5" d="M 157.5,335.5 C 153.281,327.995 155.281,324.495 163.5,325C 166.807,331.555 164.807,335.055 157.5,335.5 Z"/></g>
<g><path style="opacity:1" fill="#240302" d="M 367.5,331.5 C 372.249,335.333 374.582,340.333 374.5,346.5C 371.586,355.061 365.586,358.728 356.5,357.5C 347.471,354.108 344.304,347.775 347,338.5C 351.476,329.52 358.31,327.187 367.5,331.5 Z"/></g>
<g><path style="opacity:1" fill="#7c3533" d="M 396.5,306.5 C 397.302,307.952 397.802,309.618 398,311.5C 398.868,320.614 398.201,329.614 396,338.5C 388.6,357.732 375.766,372.065 357.5,381.5C 353.991,383.226 350.325,384.559 346.5,385.5C 347.474,383.915 348.974,382.915 351,382.5C 352.009,380.975 352.509,379.308 352.5,377.5C 356.137,376.225 359.804,374.892 363.5,373.5C 363.33,372.178 363.663,371.011 364.5,370C 368.18,369.476 371.847,368.142 375.5,366C 376.453,362.047 378.953,359.881 383,359.5C 384,357.5 385,355.5 386,353.5C 386.208,351.141 386.374,348.974 386.5,347C 385.5,346.333 384.5,346.333 383.5,347C 382.154,348.669 380.487,349.836 378.5,350.5C 383.147,343.886 387.314,336.886 391,329.5C 391.492,324.864 392.825,320.531 395,316.5C 395.333,317.5 395.667,318.5 396,319.5C 396.499,315.514 396.666,311.514 396.5,307.5C 396.5,307.167 396.5,306.833 396.5,306.5 Z"/></g>
<g><path style="opacity:1" fill="#240403" d="M 177.5,348.5 C 177.5,348.167 177.5,347.833 177.5,347.5C 172.786,336.438 175.786,328.271 186.5,323C 204.654,322.819 210.821,331.319 205,348.5C 195.802,357.793 186.635,357.793 177.5,348.5 Z"/></g>
<g><path style="opacity:1" fill="#84483e" d="M 188.5,330.5 C 196.861,330.213 200.361,334.213 199,342.5C 194.046,347.824 189.046,347.824 184,342.5C 182.309,337.131 183.809,333.131 188.5,330.5 Z"/></g>
<g><path style="opacity:1" fill="#7f4741" d="M 358.5,337.5 C 366.561,338.698 368.228,342.532 363.5,349C 356.718,350.875 353.552,348.375 354,341.5C 355.397,339.93 356.897,338.596 358.5,337.5 Z"/></g>
<g><path style="opacity:1" fill="#9f5b46" d="M 123.5,320.5 C 122.231,327.128 124.564,331.961 130.5,335C 137.418,336.764 142.418,334.597 145.5,328.5C 146.552,328.351 147.552,328.517 148.5,329C 150.875,332.174 153.875,334.34 157.5,335.5C 161.017,336.837 164.517,336.504 168,334.5C 168.333,336.047 167.833,337.38 166.5,338.5C 167.395,341.808 168.229,345.141 169,348.5C 170.562,350.434 172.395,352.101 174.5,353.5C 175.086,353.291 175.586,352.957 176,352.5C 176.417,353.756 177.25,354.423 178.5,354.5C 179.738,354.81 179.738,355.31 178.5,356C 184.015,356.347 189.515,356.847 195,357.5C 197.49,356.664 199.99,355.998 202.5,355.5C 203.458,355.953 204.292,356.619 205,357.5C 205.333,356.833 205.667,356.167 206,355.5C 206.333,356.833 206.667,358.167 207,359.5C 216.974,357.099 226.974,354.432 237,351.5C 240.883,351.133 244.883,351.133 249,351.5C 250.289,349.915 251.789,348.581 253.5,347.5C 255.392,348.473 257.392,349.14 259.5,349.5C 270.043,348.13 280.377,348.797 290.5,351.5C 293.148,351.033 295.481,349.866 297.5,348C 303.165,348.717 308.832,348.55 314.5,347.5C 317.475,347.422 319.975,346.422 322,344.5C 326.392,345.187 330.726,345.52 335,345.5C 337.459,342.9 339.959,342.9 342.5,345.5C 344.163,348.656 345.33,351.989 346,355.5C 347.171,356.893 348.671,357.727 350.5,358C 349.376,358.249 348.376,358.749 347.5,359.5C 350.191,359.816 352.857,360.149 355.5,360.5C 348.277,363.32 340.943,366.153 333.5,369C 324.953,370.106 316.62,372.106 308.5,375C 280.338,379.319 252.004,380.653 223.5,379C 198.984,375.704 174.984,370.204 151.5,362.5C 139.219,356.359 127.219,349.692 115.5,342.5C 112.415,338 109.582,333.333 107,328.5C 105.989,329.337 104.822,329.67 103.5,329.5C 103.5,329.167 103.5,328.833 103.5,328.5C 105.269,321.881 106.435,314.881 107,307.5C 107.24,305.148 108.073,303.148 109.5,301.5C 110.117,301.389 110.617,301.056 111,300.5C 111.361,303.525 111.861,306.525 112.5,309.5C 111.187,311.392 111.354,313.059 113,314.5C 115.858,312.822 119.024,311.822 122.5,311.5C 123.478,311.977 124.311,312.643 125,313.5C 124.145,315.615 123.645,317.948 123.5,320.5 Z"/></g>
<g><path style="opacity:1" fill="#7b2f2d" d="M 355.5,360.5 C 360.064,359.816 360.397,358.816 356.5,357.5C 365.586,358.728 371.586,355.061 374.5,346.5C 374.5,348.167 374.5,349.833 374.5,351.5C 375.959,351.567 377.292,351.234 378.5,350.5C 380.487,349.836 382.154,348.669 383.5,347C 384.5,346.333 385.5,346.333 386.5,347C 386.374,348.974 386.208,351.141 386,353.5C 385,355.5 384,357.5 383,359.5C 378.953,359.881 376.453,362.047 375.5,366C 371.847,368.142 368.18,369.476 364.5,370C 363.663,371.011 363.33,372.178 363.5,373.5C 359.804,374.892 356.137,376.225 352.5,377.5C 352.509,379.308 352.009,380.975 351,382.5C 348.974,382.915 347.474,383.915 346.5,385.5C 334.455,391.187 321.789,394.854 308.5,396.5C 306.833,396.5 305.167,396.5 303.5,396.5C 303.285,392.679 301.618,389.679 298.5,387.5C 294.398,392.109 289.398,393.443 283.5,391.5C 280.833,392.167 278.167,392.833 275.5,393.5C 264.168,391.087 252.835,390.587 241.5,392C 238.957,394.964 236.124,395.13 233,392.5C 224.432,394.369 216.265,393.369 208.5,389.5C 206.707,390.823 204.207,392.156 201,393.5C 196.491,391.104 191.658,389.604 186.5,389C 186.043,388.586 185.709,388.086 185.5,387.5C 187.078,386.702 188.744,386.202 190.5,386C 189.333,385.833 188.167,385.667 187,385.5C 182.281,387.055 177.447,388.055 172.5,388.5C 168.234,387.349 163.9,386.683 159.5,386.5C 147.918,383.542 137.584,378.209 128.5,370.5C 115.695,359.666 107.361,346 103.5,329.5C 104.822,329.67 105.989,329.337 107,328.5C 109.582,333.333 112.415,338 115.5,342.5C 127.219,349.692 139.219,356.359 151.5,362.5C 174.984,370.204 198.984,375.704 223.5,379C 252.004,380.653 280.338,379.319 308.5,375C 316.62,372.106 324.953,370.106 333.5,369C 340.943,366.153 348.277,363.32 355.5,360.5 Z"/></g>
<g><path style="opacity:0.255" fill="#8d8585" d="M 112.5,369.5 C 115.089,370.419 117.089,372.086 118.5,374.5C 115.911,373.581 113.911,371.914 112.5,369.5 Z"/></g>
<g><path style="opacity:0.999" fill="#1a0707" d="M 128.5,370.5 C 137.584,378.209 147.918,383.542 159.5,386.5C 177.681,393.895 196.681,398.395 216.5,400C 237.489,401.228 258.489,401.561 279.5,401C 289.393,400.037 299.06,398.537 308.5,396.5C 321.789,394.854 334.455,391.187 346.5,385.5C 350.325,384.559 353.991,383.226 357.5,381.5C 357.141,383.371 356.141,384.871 354.5,386C 355.167,386.333 355.833,386.667 356.5,387C 355.216,387.684 354.049,387.517 353,386.5C 351.398,388.263 350.898,390.096 351.5,392C 350.437,393.188 349.103,393.688 347.5,393.5C 347.5,394.5 347.5,395.5 347.5,396.5C 325.947,404.377 303.614,409.377 280.5,411.5C 276.514,410.834 272.347,410.501 268,410.5C 261.269,410.353 254.769,411.02 248.5,412.5C 218.917,412.009 189.917,407.509 161.5,399C 154.704,396.906 148.371,394.073 142.5,390.5C 141.653,389.034 140.32,388.2 138.5,388C 139.304,386.229 140.471,384.729 142,383.5C 144.033,384.016 144.033,383.35 142,381.5C 138.736,385.277 137.236,384.777 137.5,380C 133.035,378.125 130.035,374.959 128.5,370.5 Z"/></g>
<g><path style="opacity:1" fill="#742b2c" d="M 308.5,396.5 C 299.06,398.537 289.393,400.037 279.5,401C 258.489,401.561 237.489,401.228 216.5,400C 196.681,398.395 177.681,393.895 159.5,386.5C 163.9,386.683 168.234,387.349 172.5,388.5C 177.447,388.055 182.281,387.055 187,385.5C 188.167,385.667 189.333,385.833 190.5,386C 188.744,386.202 187.078,386.702 185.5,387.5C 185.709,388.086 186.043,388.586 186.5,389C 191.658,389.604 196.491,391.104 201,393.5C 204.207,392.156 206.707,390.823 208.5,389.5C 216.265,393.369 224.432,394.369 233,392.5C 236.124,395.13 238.957,394.964 241.5,392C 252.835,390.587 264.168,391.087 275.5,393.5C 278.167,392.833 280.833,392.167 283.5,391.5C 289.398,393.443 294.398,392.109 298.5,387.5C 301.618,389.679 303.285,392.679 303.5,396.5C 305.167,396.5 306.833,396.5 308.5,396.5 Z"/></g>
<g><path style="opacity:0.426" fill="#453b3b" d="M 280.5,411.5 C 269.825,411.623 259.159,411.957 248.5,412.5C 254.769,411.02 261.269,410.353 268,410.5C 272.347,410.501 276.514,410.834 280.5,411.5 Z"/></g>
</svg>
