<?xml version="1.0" encoding="UTF-8"?>
<!DOCTYPE svg PUBLIC "-//W3C//DTD SVG 1.1//EN" "http://www.w3.org/Graphics/SVG/1.1/DTD/svg11.dtd">
<svg xmlns="http://www.w3.org/2000/svg" version="1.1" width="500px" height="500px" style="shape-rendering:geometricPrecision; text-rendering:geometricPrecision; image-rendering:optimizeQuality; fill-rule:evenodd; clip-rule:evenodd" xmlns:xlink="http://www.w3.org/1999/xlink">
<g><path style="opacity:0.993" fill="#181212" d="M 264.5,51.5 C 262.738,51.6427 261.071,51.3094 259.5,50.5C 258.5,53.1667 257.5,53.1667 256.5,50.5C 257.246,49.2638 257.579,47.9305 257.5,46.5C 255.058,46.3537 254.391,47.187 255.5,49C 255,49.5 254.5,50 254,50.5C 252.786,48.9512 251.286,47.7845 249.5,47C 249.833,46.6667 250.167,46.3333 250.5,46C 248.855,42.6777 246.188,41.1777 242.5,41.5C 242.64,43.1238 241.973,44.2904 240.5,45C 241.784,45.6838 242.951,45.5171 244,44.5C 244.195,45.8193 244.028,47.1526 243.5,48.5C 224.889,43.7212 209.056,48.3878 196,62.5C 190.577,69.6007 187.411,77.6007 186.5,86.5C 188.5,86.8333 190.5,87.1667 192.5,87.5C 194.385,89.0532 195.385,91.0532 195.5,93.5C 189.824,93.3339 184.157,93.5006 178.5,94C 173.61,95.5617 169.943,98.5617 167.5,103C 169.241,105.051 171.241,106.884 173.5,108.5C 173.768,110.099 173.434,111.432 172.5,112.5C 153.973,104.4 139.139,108.733 128,125.5C 123.526,134.406 122.359,143.739 124.5,153.5C 125.706,158.029 127.373,162.363 129.5,166.5C 129.877,168.258 130.544,169.925 131.5,171.5C 130.5,172.167 129.5,172.833 128.5,173.5C 129.857,175.186 131.19,176.852 132.5,178.5C 124.387,172.977 119.221,165.31 117,155.5C 112.536,130.222 122.036,112.388 145.5,102C 150.5,101.667 155.5,101.333 160.5,101C 164.835,93.1632 171.168,87.6632 179.5,84.5C 186.455,53.0073 206.121,37.8406 238.5,39C 248.751,40.2951 257.418,44.4618 264.5,51.5 Z"/></g>
<g><path style="opacity:1" fill="#f9f7f3" d="M 243.5,48.5 C 256.544,52.7054 266.044,61.0387 272,73.5C 272.765,75.0657 272.598,76.3991 271.5,77.5C 269.983,77.4894 268.816,76.8228 268,75.5C 257.299,56.9142 241.799,51.4142 221.5,59C 219.382,60.0491 217.716,61.5491 216.5,63.5C 209.899,67.0488 203.399,70.7155 197,74.5C 195.164,78.8456 193.664,83.179 192.5,87.5C 190.5,87.1667 188.5,86.8333 186.5,86.5C 187.411,77.6007 190.577,69.6007 196,62.5C 209.056,48.3878 224.889,43.7212 243.5,48.5 Z"/></g>
<g><path style="opacity:0.988" fill="#1a1212" d="M 264.5,51.5 C 271.692,56.3802 276.692,63.0469 279.5,71.5C 296.196,70.5132 307.862,77.6798 314.5,93C 343.139,87.5713 361.973,98.738 371,126.5C 375.038,142.673 371.705,157.006 361,169.5C 359.549,171.464 357.716,172.797 355.5,173.5C 356.159,171.862 356.826,170.195 357.5,168.5C 356.471,168.704 355.471,168.204 354.5,167C 355.252,166.329 355.586,165.496 355.5,164.5C 364.114,154.393 366.947,142.726 364,129.5C 362.704,126.429 361.538,123.429 360.5,120.5C 360.068,119.29 359.401,118.29 358.5,117.5C 347.689,100.175 332.689,95.3417 313.5,103C 311.63,105.04 309.63,106.873 307.5,108.5C 306.307,108.03 305.64,107.03 305.5,105.5C 307.305,101.724 307.805,97.724 307,93.5C 306.148,92.4293 305.315,91.4293 304.5,90.5C 298.994,81.707 290.994,78.207 280.5,80C 276.979,81.5918 273.646,83.4251 270.5,85.5C 269.5,85.5 268.5,85.5 267.5,85.5C 267.278,81.9441 268.611,79.2774 271.5,77.5C 272.598,76.3991 272.765,75.0657 272,73.5C 266.044,61.0387 256.544,52.7054 243.5,48.5C 244.028,47.1526 244.195,45.8193 244,44.5C 242.951,45.5171 241.784,45.6838 240.5,45C 241.973,44.2904 242.64,43.1238 242.5,41.5C 246.188,41.1777 248.855,42.6777 250.5,46C 250.167,46.3333 249.833,46.6667 249.5,47C 251.286,47.7845 252.786,48.9512 254,50.5C 254.5,50 255,49.5 255.5,49C 254.391,47.187 255.058,46.3537 257.5,46.5C 257.579,47.9305 257.246,49.2638 256.5,50.5C 257.5,53.1667 258.5,53.1667 259.5,50.5C 261.071,51.3094 262.738,51.6427 264.5,51.5 Z"/></g>
<g><path style="opacity:1" fill="#fdfaf2" d="M 229.5,71.5 C 228.89,70.609 228.557,69.609 228.5,68.5C 228.945,61.1934 232.445,59.1934 239,62.5C 239.777,65.4294 239.61,68.2628 238.5,71C 235.518,71.498 232.518,71.6646 229.5,71.5 Z"/></g>
<g><path style="opacity:1" fill="#c07d42" d="M 228.5,68.5 C 228.557,69.609 228.89,70.609 229.5,71.5C 230.492,73.0265 231.992,73.6932 234,73.5C 236.931,73.2255 239.765,72.5588 242.5,71.5C 243.833,73.8333 245.167,76.1667 246.5,78.5C 247.854,76.8164 249.521,76.3164 251.5,77C 250.007,78.1562 250.174,78.9896 252,79.5C 253.3,78.2927 254.8,77.6261 256.5,77.5C 256.5,78.8333 256.5,80.1667 256.5,81.5C 258.638,81.297 260.305,80.297 261.5,78.5C 262.931,78.9766 264.264,79.6433 265.5,80.5C 264.939,82.4259 264.773,84.4259 265,86.5C 263.365,85.1514 261.865,85.3181 260.5,87C 261.227,88.3988 261.727,89.8988 262,91.5C 263.918,92.5418 265.751,93.7085 267.5,95C 263.854,96.7008 260.354,96.2008 257,93.5C 255.2,94.3784 253.367,95.045 251.5,95.5C 251.479,98.5348 250.146,100.868 247.5,102.5C 253.003,103.281 258.003,105.114 262.5,108C 259.733,108.869 257.066,110.036 254.5,111.5C 253.534,109.604 253.201,107.604 253.5,105.5C 250.833,105.5 248.167,105.5 245.5,105.5C 244.712,108.963 243.045,111.963 240.5,114.5C 238.504,112.768 236.338,111.434 234,110.5C 231.815,112.108 229.315,113.108 226.5,113.5C 221.602,111.044 216.602,108.711 211.5,106.5C 215.577,105.683 219.577,104.683 223.5,103.5C 223.688,101.897 223.188,100.563 222,99.5C 217.715,103.341 213.549,103.341 209.5,99.5C 199.906,102.541 200.24,104.207 210.5,104.5C 206.122,106.189 202.288,105.522 199,102.5C 194.92,103.3 190.753,103.8 186.5,104C 183.921,105.612 183.921,107.112 186.5,108.5C 188.059,107.926 189.559,107.26 191,106.5C 191.483,107.448 191.649,108.448 191.5,109.5C 185.879,109.009 183.046,111.675 183,117.5C 182.683,115.699 182.016,115.366 181,116.5C 176.792,114.372 175.625,111.039 177.5,106.5C 182.367,102.378 188.033,100.545 194.5,101C 195.056,100.617 195.389,100.117 195.5,99.5C 196.833,97.5 196.833,95.5 195.5,93.5C 195.385,91.0532 194.385,89.0532 192.5,87.5C 193.664,83.179 195.164,78.8456 197,74.5C 203.399,70.7155 209.899,67.0488 216.5,63.5C 218.78,62.3599 221.114,61.1932 223.5,60C 228.413,58.9743 229.413,60.3076 226.5,64C 226.899,65.7275 227.566,67.2275 228.5,68.5 Z"/></g>
<g><path style="opacity:1" fill="#f8e6d0" d="M 217.5,66.5 C 222.22,66.206 223.886,68.206 222.5,72.5C 220.958,73.7468 219.458,73.7468 218,72.5C 217.505,70.5273 217.338,68.5273 217.5,66.5 Z"/></g>
<g><path style="opacity:1" fill="#feebc8" d="M 202.5,75.5 C 205.596,74.9066 207.929,75.9066 209.5,78.5C 207.929,81.0934 205.596,82.0934 202.5,81.5C 202.5,79.5 202.5,77.5 202.5,75.5 Z"/></g>
<g><path style="opacity:1" fill="#f8f2e8" d="M 304.5,90.5 C 304.649,91.552 304.483,92.552 304,93.5C 297.512,87.1351 290.012,84.8018 281.5,86.5C 277.323,88.1133 272.989,89.1133 268.5,89.5C 268.527,87.8007 269.194,86.4674 270.5,85.5C 273.646,83.4251 276.979,81.5918 280.5,80C 290.994,78.207 298.994,81.707 304.5,90.5 Z"/></g>
<g><path style="opacity:1" fill="#faf8f3" d="M 195.5,93.5 C 196.833,95.5 196.833,97.5 195.5,99.5C 188.558,98.6544 182.224,100.154 176.5,104C 175.601,105.652 174.601,107.152 173.5,108.5C 171.241,106.884 169.241,105.051 167.5,103C 169.943,98.5617 173.61,95.5617 178.5,94C 184.157,93.5006 189.824,93.3339 195.5,93.5 Z"/></g>
<g><path style="opacity:1" fill="#c17f45" d="M 271.5,77.5 C 268.611,79.2774 267.278,81.9441 267.5,85.5C 268.5,85.5 269.5,85.5 270.5,85.5C 269.194,86.4674 268.527,87.8007 268.5,89.5C 272.989,89.1133 277.323,88.1133 281.5,86.5C 287.121,85.6741 292.121,87.0074 296.5,90.5C 297.386,91.325 297.719,92.325 297.5,93.5C 295.712,93.2148 294.045,93.5481 292.5,94.5C 294.632,95.5984 296.798,96.5984 299,97.5C 299.483,96.552 299.649,95.552 299.5,94.5C 304.016,94.4807 306.016,96.814 305.5,101.5C 303.571,101.231 301.905,101.731 300.5,103C 300.347,105.669 300.68,108.503 301.5,111.5C 300.5,111.5 299.5,111.5 298.5,111.5C 298.254,108.53 296.588,107.197 293.5,107.5C 283.937,107.853 274.937,110.353 266.5,115C 263.278,116.99 262.778,119.49 265,122.5C 267.614,124.556 270.447,126.223 273.5,127.5C 272.322,128.999 270.655,129.999 268.5,130.5C 269.804,132.016 269.304,132.682 267,132.5C 255.671,130.966 244.504,131.3 233.5,133.5C 231.08,133.292 228.747,133.626 226.5,134.5C 225.513,137.768 225.18,141.102 225.5,144.5C 220.011,142.678 215.677,139.345 212.5,134.5C 210.591,135.348 208.591,135.682 206.5,135.5C 211.314,134.064 215.981,132.064 220.5,129.5C 221.298,129.043 221.631,128.376 221.5,127.5C 226.83,126.024 229.663,122.69 230,117.5C 228.961,116.29 227.794,115.29 226.5,114.5C 226.5,114.167 226.5,113.833 226.5,113.5C 229.315,113.108 231.815,112.108 234,110.5C 236.338,111.434 238.504,112.768 240.5,114.5C 243.045,111.963 244.712,108.963 245.5,105.5C 248.167,105.5 250.833,105.5 253.5,105.5C 253.201,107.604 253.534,109.604 254.5,111.5C 257.066,110.036 259.733,108.869 262.5,108C 258.003,105.114 253.003,103.281 247.5,102.5C 250.146,100.868 251.479,98.5348 251.5,95.5C 253.367,95.045 255.2,94.3784 257,93.5C 260.354,96.2008 263.854,96.7008 267.5,95C 265.751,93.7085 263.918,92.5418 262,91.5C 261.727,89.8988 261.227,88.3988 260.5,87C 261.865,85.3181 263.365,85.1514 265,86.5C 264.773,84.4259 264.939,82.4259 265.5,80.5C 264.264,79.6433 262.931,78.9766 261.5,78.5C 260.305,80.297 258.638,81.297 256.5,81.5C 256.5,80.1667 256.5,78.8333 256.5,77.5C 254.8,77.6261 253.3,78.2927 252,79.5C 250.174,78.9896 250.007,78.1562 251.5,77C 249.521,76.3164 247.854,76.8164 246.5,78.5C 245.167,76.1667 243.833,73.8333 242.5,71.5C 239.765,72.5588 236.931,73.2255 234,73.5C 231.992,73.6932 230.492,73.0265 229.5,71.5C 232.518,71.6646 235.518,71.498 238.5,71C 239.61,68.2628 239.777,65.4294 239,62.5C 232.445,59.1934 228.945,61.1934 228.5,68.5C 227.566,67.2275 226.899,65.7275 226.5,64C 229.413,60.3076 228.413,58.9743 223.5,60C 221.114,61.1932 218.78,62.3599 216.5,63.5C 217.716,61.5491 219.382,60.0491 221.5,59C 241.799,51.4142 257.299,56.9142 268,75.5C 268.816,76.8228 269.983,77.4894 271.5,77.5 Z"/></g>
<g><path style="opacity:1" fill="#fcf8f0" d="M 247.5,64.5 C 253.803,64.9239 255.469,67.7572 252.5,73C 248.126,75.3184 245.46,73.9851 244.5,69C 244.557,66.7911 245.557,65.2911 247.5,64.5 Z"/></g>
<g><path style="opacity:1" fill="#c08049" d="M 195.5,99.5 C 195.389,100.117 195.056,100.617 194.5,101C 188.033,100.545 182.367,102.378 177.5,106.5C 175.625,111.039 176.792,114.372 181,116.5C 182.016,115.366 182.683,115.699 183,117.5C 183.046,111.675 185.879,109.009 191.5,109.5C 191.649,108.448 191.483,107.448 191,106.5C 189.559,107.26 188.059,107.926 186.5,108.5C 183.921,107.112 183.921,105.612 186.5,104C 190.753,103.8 194.92,103.3 199,102.5C 202.288,105.522 206.122,106.189 210.5,104.5C 200.24,104.207 199.906,102.541 209.5,99.5C 213.549,103.341 217.715,103.341 222,99.5C 223.188,100.563 223.688,101.897 223.5,103.5C 219.577,104.683 215.577,105.683 211.5,106.5C 216.602,108.711 221.602,111.044 226.5,113.5C 226.5,113.833 226.5,114.167 226.5,114.5C 220.227,112.242 213.894,110.076 207.5,108C 201.723,106.55 199.723,108.55 201.5,114C 207.022,115.617 212.355,117.617 217.5,120C 212.221,121.973 207.221,124.473 202.5,127.5C 201.534,129.396 201.201,131.396 201.5,133.5C 208.505,132.666 215.171,130.666 221.5,127.5C 221.631,128.376 221.298,129.043 220.5,129.5C 215.981,132.064 211.314,134.064 206.5,135.5C 203.472,135.661 200.639,134.994 198,133.5C 196.606,134.613 195.439,135.947 194.5,137.5C 193.304,137.154 193.304,136.654 194.5,136C 192.7,133.615 190.366,130.948 187.5,128C 188.188,125.782 187.188,124.282 184.5,123.5C 183.253,125.006 183.253,126.506 184.5,128C 181.381,128.977 178.881,130.811 177,133.5C 176.667,132.167 176.333,130.833 176,129.5C 174.887,130.711 173.72,130.711 172.5,129.5C 171.808,130.025 171.308,130.692 171,131.5C 170.035,129.74 168.868,129.406 167.5,130.5C 168.167,131.167 168.833,131.833 169.5,132.5C 168.478,133.354 167.645,134.354 167,135.5C 166.632,134.09 165.799,133.09 164.5,132.5C 160.113,135.831 157.78,134.831 157.5,129.5C 155.774,129.185 154.107,129.019 152.5,129C 154.593,132.303 156.259,135.803 157.5,139.5C 152.208,140.495 146.875,140.828 141.5,140.5C 141.198,137.941 141.532,135.607 142.5,133.5C 143.585,139.569 146.751,140.902 152,137.5C 154.393,131.315 152.227,128.648 145.5,129.5C 146.588,128 147.921,126.667 149.5,125.5C 147.905,124.566 146.239,124.566 144.5,125.5C 147.948,122.922 151.281,120.089 154.5,117C 160.631,115.734 166.298,116.734 171.5,120C 175.667,121.167 177.167,119.667 176,115.5C 175.015,114.186 173.848,113.186 172.5,112.5C 173.434,111.432 173.768,110.099 173.5,108.5C 174.601,107.152 175.601,105.652 176.5,104C 182.224,100.154 188.558,98.6544 195.5,99.5 Z"/></g>
<g><path style="opacity:1" fill="#f5f1ec" d="M 172.5,112.5 C 173.848,113.186 175.015,114.186 176,115.5C 177.167,119.667 175.667,121.167 171.5,120C 166.298,116.734 160.631,115.734 154.5,117C 151.281,120.089 147.948,122.922 144.5,125.5C 141.546,126.428 138.546,127.261 135.5,128C 133.09,132.557 130.756,137.057 128.5,141.5C 126.534,145.398 125.201,149.398 124.5,153.5C 122.359,143.739 123.526,134.406 128,125.5C 139.139,108.733 153.973,104.4 172.5,112.5 Z"/></g>
<g><path style="opacity:1" fill="#100302" d="M 293.5,107.5 C 294.605,109.713 294.605,111.88 293.5,114C 288.12,115.738 282.787,117.571 277.5,119.5C 283.263,122.129 288.763,125.129 294,128.5C 294.667,129.833 294.667,131.167 294,132.5C 286.755,133.04 279.922,131.373 273.5,127.5C 270.447,126.223 267.614,124.556 265,122.5C 262.778,119.49 263.278,116.99 266.5,115C 274.937,110.353 283.937,107.853 293.5,107.5 Z"/></g>
<g><path style="opacity:1" fill="#f9f3eb" d="M 358.5,117.5 C 358.157,119.225 357.157,119.725 355.5,119C 351.551,115.204 347.217,112.037 342.5,109.5C 332.17,102.739 321.837,102.906 311.5,110C 309.833,110.667 308.167,110.667 306.5,110C 307.056,109.617 307.389,109.117 307.5,108.5C 309.63,106.873 311.63,105.04 313.5,103C 332.689,95.3417 347.689,100.175 358.5,117.5 Z"/></g>
<g><path style="opacity:1" fill="#0d0302" d="M 226.5,114.5 C 227.794,115.29 228.961,116.29 230,117.5C 229.663,122.69 226.83,126.024 221.5,127.5C 215.171,130.666 208.505,132.666 201.5,133.5C 201.201,131.396 201.534,129.396 202.5,127.5C 207.221,124.473 212.221,121.973 217.5,120C 212.355,117.617 207.022,115.617 201.5,114C 199.723,108.55 201.723,106.55 207.5,108C 213.894,110.076 220.227,112.242 226.5,114.5 Z"/></g>
<g><path style="opacity:1" fill="#bf7a41" d="M 339.5,112.5 C 339.5,112.167 339.5,111.833 339.5,111.5C 338.163,108.313 339.163,107.646 342.5,109.5C 347.217,112.037 351.551,115.204 355.5,119C 357.157,119.725 358.157,119.225 358.5,117.5C 359.401,118.29 360.068,119.29 360.5,120.5C 360.96,130.292 358.46,139.292 353,147.5C 351.871,149.141 350.371,150.141 348.5,150.5C 347.167,150.5 345.833,150.5 344.5,150.5C 344.966,148.799 344.966,147.299 344.5,146C 345.308,145.692 345.975,145.192 346.5,144.5C 345.044,143.492 343.377,143.659 341.5,145C 343.795,145.984 343.461,146.817 340.5,147.5C 338.902,146.515 337.235,146.349 335.5,147C 333.183,148.971 330.516,150.471 327.5,151.5C 326.353,151.182 325.519,150.516 325,149.5C 323.315,151.017 321.815,152.684 320.5,154.5C 317.601,153.358 314.601,152.692 311.5,152.5C 311.5,153.5 311.5,154.5 311.5,155.5C 306.565,156.758 301.565,157.258 296.5,157C 295.284,155.26 293.618,154.26 291.5,154C 291.014,150.847 289.18,149.014 286,148.5C 284.831,149.009 283.998,149.842 283.5,151C 284.444,153.719 284.777,156.552 284.5,159.5C 282.801,159.34 281.134,159.506 279.5,160C 279.833,160.333 280.167,160.667 280.5,161C 278.603,162.11 276.77,162.276 275,161.5C 272.495,163.196 270.995,165.53 270.5,168.5C 270.193,167.113 270.193,165.446 270.5,163.5C 268.723,163.214 267.056,162.547 265.5,161.5C 264.353,161.818 263.519,162.484 263,163.5C 261.103,161.984 258.936,161.317 256.5,161.5C 256.33,160.178 256.663,159.011 257.5,158C 256.833,157.667 256.167,157.333 255.5,157C 257.674,154.648 260.341,153.481 263.5,153.5C 263.335,150.15 263.502,146.817 264,143.5C 264.333,143.833 264.667,144.167 265,144.5C 265.698,143.309 266.531,142.309 267.5,141.5C 268.966,139.314 270.632,137.147 272.5,135C 272.167,134.667 271.833,134.333 271.5,134C 273.044,133.71 274.377,133.044 275.5,132C 281.962,133.914 288.628,134.58 295.5,134C 296.602,131.599 296.769,129.099 296,126.5C 291.762,124.527 287.595,122.361 283.5,120C 287.206,118.015 291.206,117.182 295.5,117.5C 295.316,114.679 296.649,113.012 299.5,112.5C 300.719,113.263 301.719,114.263 302.5,115.5C 303.584,114.335 304.417,113.002 305,111.5C 307.064,112.591 309.231,112.758 311.5,112C 314.838,109.6 318.505,107.933 322.5,107C 326.167,106.333 329.833,106.333 333.5,107C 327.758,110.12 327.091,114.12 331.5,119C 334.167,119.667 336.833,119.667 339.5,119C 340.811,116.726 340.811,114.56 339.5,112.5 Z"/></g>
<g><path style="opacity:1" fill="#fdf5e8" d="M 339.5,111.5 C 339.5,111.833 339.5,112.167 339.5,112.5C 340.247,118.067 337.913,119.9 332.5,118C 327.796,111.679 329.462,109.012 337.5,110C 338.044,110.717 338.711,111.217 339.5,111.5 Z"/></g>
<g><path style="opacity:1" fill="#b57e4f" d="M 281.5,86.5 C 290.012,84.8018 297.512,87.1351 304,93.5C 304.483,92.552 304.649,91.552 304.5,90.5C 305.315,91.4293 306.148,92.4293 307,93.5C 307.805,97.724 307.305,101.724 305.5,105.5C 305.64,107.03 306.307,108.03 307.5,108.5C 307.389,109.117 307.056,109.617 306.5,110C 308.167,110.667 309.833,110.667 311.5,110C 321.837,102.906 332.17,102.739 342.5,109.5C 339.163,107.646 338.163,108.313 339.5,111.5C 338.711,111.217 338.044,110.717 337.5,110C 329.462,109.012 327.796,111.679 332.5,118C 337.913,119.9 340.247,118.067 339.5,112.5C 340.811,114.56 340.811,116.726 339.5,119C 336.833,119.667 334.167,119.667 331.5,119C 327.091,114.12 327.758,110.12 333.5,107C 329.833,106.333 326.167,106.333 322.5,107C 318.505,107.933 314.838,109.6 311.5,112C 309.231,112.758 307.064,112.591 305,111.5C 304.417,113.002 303.584,114.335 302.5,115.5C 301.719,114.263 300.719,113.263 299.5,112.5C 296.649,113.012 295.316,114.679 295.5,117.5C 291.206,117.182 287.206,118.015 283.5,120C 287.595,122.361 291.762,124.527 296,126.5C 296.769,129.099 296.602,131.599 295.5,134C 288.628,134.58 281.962,133.914 275.5,132C 274.377,133.044 273.044,133.71 271.5,134C 271.833,134.333 272.167,134.667 272.5,135C 270.632,137.147 268.966,139.314 267.5,141.5C 267.167,141.5 266.833,141.5 266.5,141.5C 267.369,139.283 267.702,136.95 267.5,134.5C 256.167,134.5 244.833,134.5 233.5,134.5C 233.5,134.167 233.5,133.833 233.5,133.5C 244.504,131.3 255.671,130.966 267,132.5C 269.304,132.682 269.804,132.016 268.5,130.5C 270.655,129.999 272.322,128.999 273.5,127.5C 279.922,131.373 286.755,133.04 294,132.5C 294.667,131.167 294.667,129.833 294,128.5C 288.763,125.129 283.263,122.129 277.5,119.5C 282.787,117.571 288.12,115.738 293.5,114C 294.605,111.88 294.605,109.713 293.5,107.5C 296.588,107.197 298.254,108.53 298.5,111.5C 299.5,111.5 300.5,111.5 301.5,111.5C 300.68,108.503 300.347,105.669 300.5,103C 301.905,101.731 303.571,101.231 305.5,101.5C 306.016,96.814 304.016,94.4807 299.5,94.5C 299.649,95.552 299.483,96.552 299,97.5C 296.798,96.5984 294.632,95.5984 292.5,94.5C 294.045,93.5481 295.712,93.2148 297.5,93.5C 297.719,92.325 297.386,91.325 296.5,90.5C 292.121,87.0074 287.121,85.6741 281.5,86.5 Z"/></g>
<g><path style="opacity:1" fill="#fdf5e6" d="M 159.5,119.5 C 165.704,119.314 167.037,121.814 163.5,127C 157.403,127.147 156.07,124.647 159.5,119.5 Z"/></g>
<g><path style="opacity:1" fill="#bd7840" d="M 206.5,135.5 C 208.591,135.682 210.591,135.348 212.5,134.5C 215.677,139.345 220.011,142.678 225.5,144.5C 230.933,143.636 236.266,143.636 241.5,144.5C 241.827,149.214 241.493,153.88 240.5,158.5C 239.526,156.257 239.192,153.924 239.5,151.5C 238.022,151.238 236.689,151.571 235.5,152.5C 234.019,156.321 231.353,158.655 227.5,159.5C 227.64,161.124 226.973,162.29 225.5,163C 223.512,163.18 221.512,163.014 219.5,162.5C 219.5,161.5 219.5,160.5 219.5,159.5C 217.076,159.192 214.743,159.526 212.5,160.5C 214.387,167.079 211.887,170.746 205,171.5C 197.409,171.497 189.242,171.163 180.5,170.5C 179.078,170.291 177.745,169.791 176.5,169C 173.984,166.317 171.317,163.817 168.5,161.5C 156.463,166.782 145.63,164.782 136,155.5C 133.202,150.899 130.702,146.232 128.5,141.5C 130.756,137.057 133.09,132.557 135.5,128C 138.546,127.261 141.546,126.428 144.5,125.5C 146.239,124.566 147.905,124.566 149.5,125.5C 147.921,126.667 146.588,128 145.5,129.5C 144.026,130.436 143.026,131.77 142.5,133.5C 141.532,135.607 141.198,137.941 141.5,140.5C 146.875,140.828 152.208,140.495 157.5,139.5C 156.259,135.803 154.593,132.303 152.5,129C 154.107,129.019 155.774,129.185 157.5,129.5C 157.78,134.831 160.113,135.831 164.5,132.5C 165.799,133.09 166.632,134.09 167,135.5C 167.645,134.354 168.478,133.354 169.5,132.5C 168.833,131.833 168.167,131.167 167.5,130.5C 168.868,129.406 170.035,129.74 171,131.5C 171.308,130.692 171.808,130.025 172.5,129.5C 173.72,130.711 174.887,130.711 176,129.5C 176.333,130.833 176.667,132.167 177,133.5C 178.881,130.811 181.381,128.977 184.5,128C 183.253,126.506 183.253,125.006 184.5,123.5C 187.188,124.282 188.188,125.782 187.5,128C 190.366,130.948 192.7,133.615 194.5,136C 193.304,136.654 193.304,137.154 194.5,137.5C 195.439,135.947 196.606,134.613 198,133.5C 200.639,134.994 203.472,135.661 206.5,135.5 Z"/></g>
<g><path style="opacity:1" fill="#fcf2e1" d="M 346.5,121.5 C 352.158,120.679 353.825,122.846 351.5,128C 345.741,129.139 344.074,126.972 346.5,121.5 Z"/></g>
<g><path style="opacity:1" fill="#100101" d="M 233.5,134.5 C 244.833,134.5 256.167,134.5 267.5,134.5C 267.702,136.95 267.369,139.283 266.5,141.5C 253.833,141.5 241.167,141.5 228.5,141.5C 228.338,139.473 228.505,137.473 229,135.5C 230.356,134.62 231.856,134.286 233.5,134.5 Z"/></g>
<g><path style="opacity:1" fill="#fcf8ee" d="M 145.5,129.5 C 152.227,128.648 154.393,131.315 152,137.5C 146.751,140.902 143.585,139.569 142.5,133.5C 143.026,131.77 144.026,130.436 145.5,129.5 Z"/></g>
<g><path style="opacity:1" fill="#ba7640" d="M 233.5,133.5 C 233.5,133.833 233.5,134.167 233.5,134.5C 231.856,134.286 230.356,134.62 229,135.5C 228.505,137.473 228.338,139.473 228.5,141.5C 241.167,141.5 253.833,141.5 266.5,141.5C 266.833,141.5 267.167,141.5 267.5,141.5C 266.531,142.309 265.698,143.309 265,144.5C 264.667,144.167 264.333,143.833 264,143.5C 263.502,146.817 263.335,150.15 263.5,153.5C 260.341,153.481 257.674,154.648 255.5,157C 256.167,157.333 256.833,157.667 257.5,158C 256.663,159.011 256.33,160.178 256.5,161.5C 258.936,161.317 261.103,161.984 263,163.5C 263.519,162.484 264.353,161.818 265.5,161.5C 267.056,162.547 268.723,163.214 270.5,163.5C 270.193,165.446 270.193,167.113 270.5,168.5C 270.995,165.53 272.495,163.196 275,161.5C 276.77,162.276 278.603,162.11 280.5,161C 280.167,160.667 279.833,160.333 279.5,160C 281.134,159.506 282.801,159.34 284.5,159.5C 284.777,156.552 284.444,153.719 283.5,151C 283.998,149.842 284.831,149.009 286,148.5C 289.18,149.014 291.014,150.847 291.5,154C 293.618,154.26 295.284,155.26 296.5,157C 301.565,157.258 306.565,156.758 311.5,155.5C 311.5,154.5 311.5,153.5 311.5,152.5C 314.601,152.692 317.601,153.358 320.5,154.5C 321.815,152.684 323.315,151.017 325,149.5C 325.519,150.516 326.353,151.182 327.5,151.5C 330.516,150.471 333.183,148.971 335.5,147C 337.235,146.349 338.902,146.515 340.5,147.5C 343.461,146.817 343.795,145.984 341.5,145C 343.377,143.659 345.044,143.492 346.5,144.5C 345.975,145.192 345.308,145.692 344.5,146C 344.966,147.299 344.966,148.799 344.5,150.5C 345.833,150.5 347.167,150.5 348.5,150.5C 347.284,152.451 345.618,153.951 343.5,155C 338.051,157.408 332.384,159.075 326.5,160C 325.619,160.708 324.953,161.542 324.5,162.5C 313.242,169.558 300.909,172.058 287.5,170C 283.809,167.319 279.809,165.485 275.5,164.5C 274.424,168.745 271.758,171.578 267.5,173C 258.312,175.227 248.979,176.06 239.5,175.5C 235.999,174.2 232.333,173.034 228.5,172C 223.709,168.617 219.376,164.784 215.5,160.5C 213.745,164.278 213.078,168.278 213.5,172.5C 204.241,174.994 194.908,175.161 185.5,173C 183.509,172.626 181.842,171.793 180.5,170.5C 189.242,171.163 197.409,171.497 205,171.5C 211.887,170.746 214.387,167.079 212.5,160.5C 214.743,159.526 217.076,159.192 219.5,159.5C 219.5,160.5 219.5,161.5 219.5,162.5C 221.512,163.014 223.512,163.18 225.5,163C 226.973,162.29 227.64,161.124 227.5,159.5C 231.353,158.655 234.019,156.321 235.5,152.5C 236.689,151.571 238.022,151.238 239.5,151.5C 239.192,153.924 239.526,156.257 240.5,158.5C 241.493,153.88 241.827,149.214 241.5,144.5C 236.266,143.636 230.933,143.636 225.5,144.5C 225.18,141.102 225.513,137.768 226.5,134.5C 228.747,133.626 231.08,133.292 233.5,133.5 Z"/></g>
<g><path style="opacity:1" fill="#933b20" d="M 360.5,120.5 C 361.538,123.429 362.704,126.429 364,129.5C 366.947,142.726 364.114,154.393 355.5,164.5C 347.677,172.241 338.344,175.075 327.5,173C 324.316,175.752 320.982,178.252 317.5,180.5C 317.44,179.957 317.107,179.624 316.5,179.5C 310.128,182.362 303.461,183.195 296.5,182C 291.862,178.314 292.528,176.647 298.5,177C 296.376,175.418 294.21,175.251 292,176.5C 290.795,175.929 289.628,175.262 288.5,174.5C 293.226,172.994 298.059,171.994 303,171.5C 303.333,171.833 303.667,172.167 304,172.5C 309.292,170.272 314.792,168.772 320.5,168C 322.814,166.913 324.148,165.079 324.5,162.5C 324.953,161.542 325.619,160.708 326.5,160C 332.384,159.075 338.051,157.408 343.5,155C 345.618,153.951 347.284,152.451 348.5,150.5C 350.371,150.141 351.871,149.141 353,147.5C 358.46,139.292 360.96,130.292 360.5,120.5 Z"/></g>
<g><path style="opacity:1" fill="#903c20" d="M 128.5,141.5 C 130.702,146.232 133.202,150.899 136,155.5C 145.63,164.782 156.463,166.782 168.5,161.5C 171.317,163.817 173.984,166.317 176.5,169C 177.745,169.791 179.078,170.291 180.5,170.5C 181.842,171.793 183.509,172.626 185.5,173C 194.908,175.161 204.241,174.994 213.5,172.5C 213.078,168.278 213.745,164.278 215.5,160.5C 219.376,164.784 223.709,168.617 228.5,172C 232.333,173.034 235.999,174.2 239.5,175.5C 234.467,175.982 229.634,175.315 225,173.5C 222.969,174.435 221.136,173.935 219.5,172C 219.833,171.667 220.167,171.333 220.5,171C 218.925,171.379 217.425,171.212 216,170.5C 214.887,171.76 214.72,172.927 215.5,174C 212.879,174.939 210.212,175.772 207.5,176.5C 208.262,176.911 209.262,177.077 210.5,177C 211.224,179.67 212.891,181.17 215.5,181.5C 216.8,182.601 217.3,183.934 217,185.5C 202.757,193.636 188.591,193.47 174.5,185C 171.952,182.115 169.118,179.615 166,177.5C 155.728,180.541 145.895,179.374 136.5,174C 134.667,171.002 132.334,168.502 129.5,166.5C 127.373,162.363 125.706,158.029 124.5,153.5C 125.201,149.398 126.534,145.398 128.5,141.5 Z"/></g>
<g><path style="opacity:1" fill="#923f22" d="M 324.5,162.5 C 324.148,165.079 322.814,166.913 320.5,168C 314.792,168.772 309.292,170.272 304,172.5C 303.667,172.167 303.333,171.833 303,171.5C 298.059,171.994 293.226,172.994 288.5,174.5C 289.628,175.262 290.795,175.929 292,176.5C 294.21,175.251 296.376,175.418 298.5,177C 292.528,176.647 291.862,178.314 296.5,182C 303.461,183.195 310.128,182.362 316.5,179.5C 317.107,179.624 317.44,179.957 317.5,180.5C 303.984,188.074 291.317,186.908 279.5,177C 278.207,176.51 276.873,176.343 275.5,176.5C 275.953,179.652 274.953,182.152 272.5,184C 252.375,195.786 234.042,193.62 217.5,177.5C 215.889,178.32 215.222,179.654 215.5,181.5C 212.891,181.17 211.224,179.67 210.5,177C 209.262,177.077 208.262,176.911 207.5,176.5C 210.212,175.772 212.879,174.939 215.5,174C 214.72,172.927 214.887,171.76 216,170.5C 217.425,171.212 218.925,171.379 220.5,171C 220.167,171.333 219.833,171.667 219.5,172C 221.136,173.935 222.969,174.435 225,173.5C 229.634,175.315 234.467,175.982 239.5,175.5C 248.979,176.06 258.312,175.227 267.5,173C 271.758,171.578 274.424,168.745 275.5,164.5C 279.809,165.485 283.809,167.319 287.5,170C 300.909,172.058 313.242,169.558 324.5,162.5 Z"/></g>
<g><path style="opacity:0.995" fill="#3b3331" d="M 355.5,173.5 C 348.074,179.691 339.408,182.191 329.5,181C 328.756,182.039 327.756,182.539 326.5,182.5C 326.953,181.542 327.619,180.708 328.5,180C 333.202,179.828 337.868,179.328 342.5,178.5C 339.743,175.684 340.243,175.018 344,176.5C 346,175.833 347.333,174.5 348,172.5C 348.483,173.448 348.649,174.448 348.5,175.5C 350.737,174.551 353.071,173.884 355.5,173.5 Z"/></g>
<g><path style="opacity:0.992" fill="#190a0a" d="M 355.5,164.5 C 355.586,165.496 355.252,166.329 354.5,167C 355.471,168.204 356.471,168.704 357.5,168.5C 356.826,170.195 356.159,171.862 355.5,173.5C 353.071,173.884 350.737,174.551 348.5,175.5C 348.649,174.448 348.483,173.448 348,172.5C 347.333,174.5 346,175.833 344,176.5C 340.243,175.018 339.743,175.684 342.5,178.5C 337.868,179.328 333.202,179.828 328.5,180C 327.619,180.708 326.953,181.542 326.5,182.5C 322.258,187.223 316.925,190.389 310.5,192C 299.627,193.779 289.293,192.279 279.5,187.5C 271.993,193.892 263.326,197.558 253.5,198.5C 247.716,198.792 242.05,198.126 236.5,196.5C 235.584,196.543 234.917,196.876 234.5,197.5C 229.953,196.319 225.786,194.319 222,191.5C 201.682,202.954 182.515,201.287 164.5,186.5C 160.998,188.262 157.332,188.762 153.5,188C 145.455,186.767 138.455,183.6 132.5,178.5C 131.19,176.852 129.857,175.186 128.5,173.5C 129.5,172.833 130.5,172.167 131.5,171.5C 130.544,169.925 129.877,168.258 129.5,166.5C 132.334,168.502 134.667,171.002 136.5,174C 145.895,179.374 155.728,180.541 166,177.5C 169.118,179.615 171.952,182.115 174.5,185C 188.591,193.47 202.757,193.636 217,185.5C 217.3,183.934 216.8,182.601 215.5,181.5C 215.222,179.654 215.889,178.32 217.5,177.5C 234.042,193.62 252.375,195.786 272.5,184C 274.953,182.152 275.953,179.652 275.5,176.5C 276.873,176.343 278.207,176.51 279.5,177C 291.317,186.908 303.984,188.074 317.5,180.5C 320.982,178.252 324.316,175.752 327.5,173C 338.344,175.075 347.677,172.241 355.5,164.5 Z"/></g>
<g><path style="opacity:0.151" fill="#5f5e5d" d="M 346.5,197.5 C 345.733,194.973 344.233,192.973 342,191.5C 341.228,191.645 340.561,191.978 340,192.5C 339.203,195.22 338.037,197.72 336.5,200C 335.207,200.49 333.873,200.657 332.5,200.5C 334.091,199.781 335.591,198.781 337,197.5C 337.165,193.825 338.832,191.158 342,189.5C 345.305,191.106 346.805,193.773 346.5,197.5 Z"/></g>
<g><path style="opacity:0.989" fill="#eaebe9" d="M 346.5,197.5 C 346.5,197.833 346.5,198.167 346.5,198.5C 347.635,200.213 349.302,200.88 351.5,200.5C 352.791,200.263 353.791,200.596 354.5,201.5C 354.833,202.833 355.167,204.167 355.5,205.5C 354.656,207.759 352.989,208.759 350.5,208.5C 348.62,208.229 347.287,208.896 346.5,210.5C 347.132,215.351 345.132,217.851 340.5,218C 339.619,217.292 338.953,216.458 338.5,215.5C 338.662,213.473 338.495,211.473 338,209.5C 337.329,208.748 336.496,208.414 335.5,208.5C 331.807,209.056 329.14,207.722 327.5,204.5C 328.012,201.649 329.679,200.316 332.5,200.5C 333.873,200.657 335.207,200.49 336.5,200C 338.037,197.72 339.203,195.22 340,192.5C 340.561,191.978 341.228,191.645 342,191.5C 344.233,192.973 345.733,194.973 346.5,197.5 Z"/></g>
<g><path style="opacity:0.024" fill="#716e6c" d="M 234.5,197.5 C 234.917,196.876 235.584,196.543 236.5,196.5C 242.05,198.126 247.716,198.792 253.5,198.5C 247.233,199.788 240.9,199.455 234.5,197.5 Z"/></g>
<g><path style="opacity:0.059" fill="#3b3b3a" d="M 346.5,198.5 C 348.403,198.796 350.07,199.463 351.5,200.5C 349.302,200.88 347.635,200.213 346.5,198.5 Z"/></g>
<g><path style="opacity:0.974" fill="#181212" d="M 190.5,212.5 C 190.259,214.898 190.926,216.898 192.5,218.5C 196.852,229.755 193.185,237.088 181.5,240.5C 168.28,238.07 163.78,230.404 168,217.5C 169.349,211.443 171.849,205.943 175.5,201C 185.115,198.423 190.115,202.256 190.5,212.5 Z"/></g>
<g><path style="opacity:0.02" fill="#3d3d3c" d="M 354.5,201.5 C 356.519,202.538 356.853,203.872 355.5,205.5C 355.167,204.167 354.833,202.833 354.5,201.5 Z"/></g>
<g><path style="opacity:0.004" fill="#2c2c2b" d="M 350.5,208.5 C 349.486,209.674 348.153,210.34 346.5,210.5C 347.287,208.896 348.62,208.229 350.5,208.5 Z"/></g>
<g><path style="opacity:1" fill="#191110" d="M 240.5,200.5 C 243.448,200.223 246.281,200.556 249,201.5C 254.578,210.403 257.245,220.069 257,230.5C 250.075,241.376 241.742,242.709 232,234.5C 230.559,231.845 229.726,229.012 229.5,226C 230.25,216.067 233.916,207.567 240.5,200.5 Z"/></g>
<g><path style="opacity:0.059" fill="#5f5f5f" d="M 335.5,208.5 C 336.496,208.414 337.329,208.748 338,209.5C 338.495,211.473 338.662,213.473 338.5,215.5C 337.659,213.188 336.659,210.855 335.5,208.5 Z"/></g>
<g><path style="opacity:0.18" fill="#787371" d="M 190.5,212.5 C 192.074,214.102 192.741,216.102 192.5,218.5C 190.926,216.898 190.259,214.898 190.5,212.5 Z"/></g>
<g><path style="opacity:1" fill="#8dd0de" d="M 186.5,223.5 C 183.479,222.995 180.479,222.328 177.5,221.5C 176.287,221.253 175.62,220.586 175.5,219.5C 176.014,214.943 177.68,210.943 180.5,207.5C 183.105,212.573 185.105,217.906 186.5,223.5 Z"/></g>
<g><path style="opacity:1" fill="#c19e73" d="M 175.5,219.5 C 175.62,220.586 176.287,221.253 177.5,221.5C 180.479,222.328 183.479,222.995 186.5,223.5C 187.224,230.276 184.224,233.11 177.5,232C 173.032,228.324 172.365,224.157 175.5,219.5 Z"/></g>
<g><path style="opacity:1" fill="#c78f56" d="M 242.5,208.5 C 247.469,214.485 249.636,221.485 249,229.5C 242.2,234.641 238.367,232.974 237.5,224.5C 237.969,218.76 239.636,213.427 242.5,208.5 Z"/></g>
<g><path style="opacity:1" fill="#1a1516" d="M 305.5,198.5 C 309.562,199.126 312.728,201.126 315,204.5C 317.244,211.23 319.077,218.063 320.5,225C 318.249,236.266 311.582,240.6 300.5,238C 295.041,235.428 292.041,231.095 291.5,225C 293.663,218.511 295.83,212.011 298,205.5C 299.742,202.254 302.242,199.921 305.5,198.5 Z"/></g>
<g><path style="opacity:1" fill="#73d8e8" d="M 305.5,207.5 C 307.335,208.122 308.502,209.456 309,211.5C 311.694,216.901 312.694,222.568 312,228.5C 309.441,231.349 306.274,232.183 302.5,231C 301.26,229.27 300.26,227.437 299.5,225.5C 301.197,219.368 303.197,213.368 305.5,207.5 Z"/></g>
<g><path style="opacity:0.298" fill="#666e67" d="M 277.5,239.5 C 275.5,239.5 273.5,239.5 271.5,239.5C 273.225,235.789 275.225,235.789 277.5,239.5 Z"/></g>
<g><path style="opacity:0.991" fill="#e6e6e6" d="M 271.5,239.5 C 273.5,239.5 275.5,239.5 277.5,239.5C 277.213,245.048 279.88,247.881 285.5,248C 288.167,250.333 288.167,252.667 285.5,255C 281.38,255.539 278.713,257.706 277.5,261.5C 275.874,263.243 273.874,263.743 271.5,263C 271.141,260.37 270.141,258.203 268.5,256.5C 266.518,256.005 264.518,255.505 262.5,255C 259.833,252.667 259.833,250.333 262.5,248C 264.888,247.697 267.055,246.863 269,245.5C 269.566,243.277 270.4,241.277 271.5,239.5 Z"/></g>
<g><path style="opacity:0.069" fill="#868686" d="M 304.5,252.5 C 308.748,250.787 311.748,252.12 313.5,256.5C 311.129,253.816 308.129,252.482 304.5,252.5 Z"/></g>
<g><path style="opacity:0.96" fill="#f1f1ef" d="M 204.5,260.5 C 203.167,260.5 202.5,259.833 202.5,258.5C 205.232,255.101 208.566,254.601 212.5,257C 213.993,258.156 213.826,258.99 212,259.5C 209.566,260.322 207.066,260.656 204.5,260.5 Z"/></g>
<g><path style="opacity:0.22" fill="#979795" d="M 204.5,260.5 C 207.066,260.656 209.566,260.322 212,259.5C 213.826,258.99 213.993,258.156 212.5,257C 208.566,254.601 205.232,255.101 202.5,258.5C 201.355,257.207 201.689,256.041 203.5,255C 206.964,254.183 210.298,254.517 213.5,256C 214.747,257.494 214.747,258.994 213.5,260.5C 210.365,261.783 207.365,261.783 204.5,260.5 Z"/></g>
<g><path style="opacity:0.043" fill="#686969" d="M 268.5,256.5 C 270.141,258.203 271.141,260.37 271.5,263C 273.874,263.743 275.874,263.243 277.5,261.5C 276.478,265.565 274.145,266.399 270.5,264C 269.78,261.509 269.113,259.009 268.5,256.5 Z"/></g>
<g><path style="opacity:1" fill="#170e0e" d="M 304.5,252.5 C 308.129,252.482 311.129,253.816 313.5,256.5C 316.329,262.145 318.496,268.145 320,274.5C 321.381,284.949 316.881,290.949 306.5,292.5C 299.85,292.686 295.517,289.686 293.5,283.5C 293.312,277.712 293.978,272.045 295.5,266.5C 295.588,259.829 298.588,255.162 304.5,252.5 Z"/></g>
<g><path style="opacity:1" fill="#e9dac4" d="M 306.5,260.5 C 305.573,266.449 303.739,272.115 301,277.5C 300.536,276.906 300.369,276.239 300.5,275.5C 300.957,269.778 302.957,264.778 306.5,260.5 Z"/></g>
<g><path style="opacity:0.443" fill="#666365" d="M 295.5,266.5 C 293.978,272.045 293.312,277.712 293.5,283.5C 291.261,277.638 291.928,271.971 295.5,266.5 Z"/></g>
<g><path style="opacity:1" fill="#daa46b" d="M 306.5,260.5 C 309.316,265.418 311.482,270.752 313,276.5C 313.27,283.871 309.77,286.371 302.5,284C 299.701,281.489 299.035,278.655 300.5,275.5C 300.369,276.239 300.536,276.906 301,277.5C 303.739,272.115 305.573,266.449 306.5,260.5 Z"/></g>
<g><path style="opacity:0.996" fill="#1b1312" d="M 179.5,251.5 C 183.025,251.346 185.859,252.679 188,255.5C 191.577,262.805 194.077,270.471 195.5,278.5C 192.385,291.391 184.718,295.224 172.5,290C 168.79,287.081 166.79,283.248 166.5,278.5C 167.585,270.242 170.252,262.576 174.5,255.5C 176.21,254.113 177.877,252.779 179.5,251.5 Z"/></g>
<g><path style="opacity:1" fill="#a36e54" d="M 174.5,279.5 C 176.823,280.778 179.323,281.778 182,282.5C 184.085,281.876 185.918,280.876 187.5,279.5C 185.79,284.183 182.457,285.683 177.5,284C 175.859,282.871 174.859,281.371 174.5,279.5 Z"/></g>
<g><path style="opacity:1" fill="#d0a772" d="M 176.5,270.5 C 180.428,269.976 183.761,270.976 186.5,273.5C 187.15,275.435 187.483,277.435 187.5,279.5C 185.918,280.876 184.085,281.876 182,282.5C 179.323,281.778 176.823,280.778 174.5,279.5C 174.42,276.219 175.087,273.219 176.5,270.5 Z"/></g>
<g><path style="opacity:1" fill="#abb2b0" d="M 186.5,273.5 C 183.761,270.976 180.428,269.976 176.5,270.5C 176.646,266.393 177.98,262.727 180.5,259.5C 181.478,259.977 182.311,260.643 183,261.5C 184.072,265.547 185.239,269.547 186.5,273.5 Z"/></g>
<g><path style="opacity:0.999" fill="#170f0e" d="M 307.5,373.5 C 306.5,373.5 305.5,373.5 304.5,373.5C 304.541,377.243 303.874,377.41 302.5,374C 302.833,373.667 303.167,373.333 303.5,373C 300.268,371.645 299.602,369.978 301.5,368C 300.552,367.517 299.552,367.351 298.5,367.5C 298.666,362.156 298.499,356.823 298,351.5C 297.667,351.833 297.333,352.167 297,352.5C 293.645,346.316 288.478,342.649 281.5,341.5C 282.571,337.011 282.571,332.678 281.5,328.5C 281.975,325.687 280.975,323.687 278.5,322.5C 277.287,319.775 275.454,317.441 273,315.5C 271.722,308.945 268.889,303.278 264.5,298.5C 260.804,292.472 255.804,287.805 249.5,284.5C 243.277,280.924 236.61,279.09 229.5,279C 231.093,279.949 232.426,281.115 233.5,282.5C 238.325,288.646 240.325,295.646 239.5,303.5C 239.356,307.603 237.689,310.936 234.5,313.5C 229.715,315.785 224.715,317.618 219.5,319C 212.244,324.445 210.578,331.278 214.5,339.5C 214.833,340.167 215.167,340.833 215.5,341.5C 215.534,345.309 217.534,347.143 221.5,347C 219.939,347.318 218.772,348.151 218,349.5C 216.67,348.418 215.17,347.751 213.5,347.5C 210.283,345.158 206.95,344.991 203.5,347C 199.699,349.614 197.366,353.114 196.5,357.5C 195.778,357.918 195.278,358.584 195,359.5C 194.667,359.167 194.333,358.833 194,358.5C 193.313,360.568 193.48,362.568 194.5,364.5C 194.167,364.833 193.833,365.167 193.5,365.5C 192.667,364.5 191.833,363.5 191,362.5C 189.88,365.999 190.713,368.833 193.5,371C 192.833,372.333 191.833,373.333 190.5,374C 192.502,375.019 194.502,375.852 196.5,376.5C 189.478,377.19 184.812,380.857 182.5,387.5C 179.774,397.981 183.107,405.981 192.5,411.5C 193.984,413.074 195.651,414.407 197.5,415.5C 194.279,414.889 191.279,413.722 188.5,412C 187.778,409.259 186.112,408.259 183.5,409C 184.554,412.009 185.887,414.842 187.5,417.5C 175.857,409.865 171.691,399.198 175,385.5C 177.821,378.505 182.488,373.172 189,369.5C 186.779,355.421 191.779,345.087 204,338.5C 203.282,321.217 211.448,311.05 228.5,308C 232.203,304.604 233.369,300.437 232,295.5C 228.762,289.257 225.095,283.257 221,277.5C 220.082,274.937 220.582,272.77 222.5,271C 241.519,270.451 257.352,277.284 270,291.5C 273.894,297.345 276.727,303.678 278.5,310.5C 285.427,315.517 289.094,322.35 289.5,331C 287.364,336.264 289.03,339.598 294.5,341C 303.507,348.348 306.507,357.681 303.5,369C 304.344,371.007 305.677,372.507 307.5,373.5 Z"/></g>
<g><path style="opacity:1" fill="#dcbea4" d="M 249.5,284.5 C 249.265,285.097 248.765,285.43 248,285.5C 244.124,284.264 240.29,282.93 236.5,281.5C 235.416,281.685 234.416,282.018 233.5,282.5C 232.426,281.115 231.093,279.949 229.5,279C 236.61,279.09 243.277,280.924 249.5,284.5 Z"/></g>
<g><path style="opacity:0.995" fill="#1b1312" d="M 315.5,296.5 C 319.516,295.9 323.016,296.9 326,299.5C 331.643,308.416 333.976,318.083 333,328.5C 328.112,336.395 321.279,338.561 312.5,335C 309.244,333.413 307.077,330.913 306,327.5C 305.618,316.014 308.785,305.681 315.5,296.5 Z"/></g>
<g><path style="opacity:0.914" fill="#eceeec" d="M 186.5,308.5 C 191.322,307.836 193.822,309.836 194,314.5C 191.159,316.504 187.993,317.004 184.5,316C 183.446,314.612 183.28,313.112 184,311.5C 185.045,310.627 185.878,309.627 186.5,308.5 Z"/></g>
<g><path style="opacity:0.999" fill="#f6f6f5" d="M 166.5,337.5 C 165.833,337.5 165.5,337.167 165.5,336.5C 165.591,330.425 162.591,327.592 156.5,328C 155.891,326.052 155.224,324.218 154.5,322.5C 154.842,321.662 155.508,321.328 156.5,321.5C 163.833,322.833 166.833,319.833 165.5,312.5C 167.527,312.338 169.527,312.505 171.5,313C 171.524,319.064 174.524,322.398 180.5,323C 181.935,325.267 181.602,327.267 179.5,329C 177.423,329.192 175.423,329.692 173.5,330.5C 172.833,332.5 172.167,334.5 171.5,336.5C 169.955,337.452 168.288,337.785 166.5,337.5 Z"/></g>
<g><path style="opacity:1" fill="#cd965e" d="M 318.5,303.5 C 320.335,304.122 321.502,305.456 322,307.5C 323.583,312.245 324.749,317.078 325.5,322C 325.93,326.407 323.93,328.907 319.5,329.5C 315.27,328.77 312.937,326.27 312.5,322C 314.208,315.709 316.208,309.542 318.5,303.5 Z"/></g>
<g><path style="opacity:1" fill="#b7733d" d="M 249.5,284.5 C 255.804,287.805 260.804,292.472 264.5,298.5C 265.698,303.121 267.031,307.787 268.5,312.5C 268.438,315.547 267.438,318.214 265.5,320.5C 265.608,321.442 265.941,322.275 266.5,323C 263.476,324.513 260.809,326.513 258.5,329C 257.552,329.483 256.552,329.649 255.5,329.5C 255.5,330.5 255.5,331.5 255.5,332.5C 251.409,334.237 247.242,335.904 243,337.5C 239.649,337.087 235.816,337.087 231.5,337.5C 231.5,338.5 231.5,339.5 231.5,340.5C 236.844,340.334 242.177,340.501 247.5,341C 247.833,341.333 248.167,341.667 248.5,342C 244.27,343.29 239.936,343.79 235.5,343.5C 227.683,343.588 221.016,340.921 215.5,335.5C 215.547,332.072 216.713,329.072 219,326.5C 219.58,330.426 221.747,331.926 225.5,331C 227.729,328.447 228.062,325.614 226.5,322.5C 229.673,320.717 233.006,319.217 236.5,318C 242.226,312.607 243.893,306.107 241.5,298.5C 240.83,300.291 240.163,301.958 239.5,303.5C 240.325,295.646 238.325,288.646 233.5,282.5C 234.416,282.018 235.416,281.685 236.5,281.5C 240.29,282.93 244.124,284.264 248,285.5C 248.765,285.43 249.265,285.097 249.5,284.5 Z"/></g>
<g><path style="opacity:1" fill="#f7efe4" d="M 215.5,335.5 C 215.768,337.099 215.434,338.432 214.5,339.5C 210.578,331.278 212.244,324.445 219.5,319C 224.715,317.618 229.715,315.785 234.5,313.5C 237.689,310.936 239.356,307.603 239.5,303.5C 240.163,301.958 240.83,300.291 241.5,298.5C 243.893,306.107 242.226,312.607 236.5,318C 233.006,319.217 229.673,320.717 226.5,322.5C 228.062,325.614 227.729,328.447 225.5,331C 221.747,331.926 219.58,330.426 219,326.5C 216.713,329.072 215.547,332.072 215.5,335.5 Z"/></g>
<g><path style="opacity:0.953" fill="#615e5b" d="M 166.5,337.5 C 168.288,337.785 169.955,337.452 171.5,336.5C 172.167,334.5 172.833,332.5 173.5,330.5C 175.423,329.692 177.423,329.192 179.5,329C 181.602,327.267 181.935,325.267 180.5,323C 174.524,322.398 171.524,319.064 171.5,313C 169.527,312.505 167.527,312.338 165.5,312.5C 166.833,319.833 163.833,322.833 156.5,321.5C 158.667,320.731 160.834,319.731 163,318.5C 162.468,313.552 164.468,310.219 169,308.5C 170.473,308.903 171.806,309.57 173,310.5C 173.667,313.167 174.333,315.833 175,318.5C 177.667,319.833 180.333,321.167 183,322.5C 184.852,325.347 184.352,327.847 181.5,330C 179.608,330.973 177.608,331.64 175.5,332C 174.35,334.462 173.017,336.796 171.5,339C 169.326,339.877 167.659,339.377 166.5,337.5 Z"/></g>
<g><path style="opacity:0.812" fill="#545353" d="M 154.5,322.5 C 155.224,324.218 155.891,326.052 156.5,328C 162.591,327.592 165.591,330.425 165.5,336.5C 164.229,334.891 163.229,333.058 162.5,331C 159.304,330.604 156.47,329.438 154,327.5C 153.22,325.613 153.387,323.946 154.5,322.5 Z"/></g>
<g><path style="opacity:1" fill="#fdf4e2" d="M 230.5,323.5 C 235.501,322.671 237.668,324.671 237,329.5C 231.322,331.662 229.156,329.662 230.5,323.5 Z"/></g>
<g><path style="opacity:1" fill="#b16736" d="M 264.5,298.5 C 268.889,303.278 271.722,308.945 273,315.5C 275.454,317.441 277.287,319.775 278.5,322.5C 277.577,331.519 272.91,337.686 264.5,341C 254.893,344.285 245.226,345.118 235.5,343.5C 239.936,343.79 244.27,343.29 248.5,342C 248.167,341.667 247.833,341.333 247.5,341C 242.177,340.501 236.844,340.334 231.5,340.5C 231.5,339.5 231.5,338.5 231.5,337.5C 235.816,337.087 239.649,337.087 243,337.5C 247.242,335.904 251.409,334.237 255.5,332.5C 255.5,331.5 255.5,330.5 255.5,329.5C 256.552,329.649 257.552,329.483 258.5,329C 260.809,326.513 263.476,324.513 266.5,323C 265.941,322.275 265.608,321.442 265.5,320.5C 267.438,318.214 268.438,315.547 268.5,312.5C 267.031,307.787 265.698,303.121 264.5,298.5 Z"/></g>
<g><path style="opacity:1" fill="#863b21" d="M 278.5,322.5 C 280.975,323.687 281.975,325.687 281.5,328.5C 282.216,333.351 280.883,337.518 277.5,341C 263.705,348.137 249.038,350.47 233.5,348C 226.782,347.659 220.782,345.493 215.5,341.5C 215.167,340.833 214.833,340.167 214.5,339.5C 215.434,338.432 215.768,337.099 215.5,335.5C 221.016,340.921 227.683,343.588 235.5,343.5C 245.226,345.118 254.893,344.285 264.5,341C 272.91,337.686 277.577,331.519 278.5,322.5 Z"/></g>
<g><path style="opacity:1" fill="#f6f1ea" d="M 213.5,347.5 C 213.5,347.833 213.5,348.167 213.5,348.5C 205.58,350.419 200.58,355.419 198.5,363.5C 197.833,363.5 197.167,363.5 196.5,363.5C 196.5,361.5 196.5,359.5 196.5,357.5C 197.366,353.114 199.699,349.614 203.5,347C 206.95,344.991 210.283,345.158 213.5,347.5 Z"/></g>
<g><path style="opacity:1" fill="#e0b78d" d="M 213.5,348.5 C 215.23,349.026 216.564,350.026 217.5,351.5C 214.824,350.992 212.157,350.825 209.5,351C 208.402,351.77 208.402,352.603 209.5,353.5C 205.092,353.062 203.425,355.062 204.5,359.5C 203.5,359.5 202.5,359.5 201.5,359.5C 201.5,361.167 201.5,362.833 201.5,364.5C 200.609,363.89 199.609,363.557 198.5,363.5C 200.58,355.419 205.58,350.419 213.5,348.5 Z"/></g>
<g><path style="opacity:1" fill="#fdf7ef" d="M 209.5,353.5 C 212.955,354.128 214.122,356.128 213,359.5C 210.17,362.101 207.337,362.101 204.5,359.5C 203.425,355.062 205.092,353.062 209.5,353.5 Z"/></g>
<g><path style="opacity:1" fill="#b56e3d" d="M 294.5,352.5 C 294.325,359.678 290.992,364.845 284.5,368C 280.312,370.062 275.979,371.729 271.5,373C 264.144,373.836 256.81,374.836 249.5,376C 235.675,377.872 222.342,376.206 209.5,371C 206.58,369.054 203.913,366.887 201.5,364.5C 201.5,362.833 201.5,361.167 201.5,359.5C 202.5,359.5 203.5,359.5 204.5,359.5C 207.337,362.101 210.17,362.101 213,359.5C 214.122,356.128 212.955,354.128 209.5,353.5C 208.402,352.603 208.402,351.77 209.5,351C 212.157,350.825 214.824,350.992 217.5,351.5C 221.222,353.523 225.222,354.689 229.5,355C 243.699,356.327 257.699,355.327 271.5,352C 276.198,349.989 280.531,347.489 284.5,344.5C 288.716,346.048 292.05,348.715 294.5,352.5 Z"/></g>
<g><path style="opacity:1" fill="#88361e" d="M 294.5,352.5 C 298.964,360.687 297.631,368.02 290.5,374.5C 263.174,385.536 235.507,386.369 207.5,377C 201.404,374.411 197.737,369.911 196.5,363.5C 197.167,363.5 197.833,363.5 198.5,363.5C 199.609,363.557 200.609,363.89 201.5,364.5C 203.913,366.887 206.58,369.054 209.5,371C 222.342,376.206 235.675,377.872 249.5,376C 256.81,374.836 264.144,373.836 271.5,373C 275.979,371.729 280.312,370.062 284.5,368C 290.992,364.845 294.325,359.678 294.5,352.5 Z"/></g>
<g><path style="opacity:1" fill="#fbf5ec" d="M 196.5,376.5 C 196.557,377.609 196.89,378.609 197.5,379.5C 193.637,380.694 190.637,383.027 188.5,386.5C 187.312,388.946 185.979,391.28 184.5,393.5C 182.692,392.082 182.025,390.082 182.5,387.5C 184.812,380.857 189.478,377.19 196.5,376.5 Z"/></g>
<g><path style="opacity:1" fill="#ae6636" d="M 307.5,384.5 C 307.5,386.167 307.5,387.833 307.5,389.5C 304.185,396.674 298.851,401.841 291.5,405C 260.915,413.124 230.248,413.457 199.5,406C 196.761,404.974 194.428,403.474 192.5,401.5C 196.484,402.743 200.484,402.743 204.5,401.5C 204.312,399.897 204.812,398.563 206,397.5C 206.324,399.569 207.158,399.902 208.5,398.5C 215.117,399.296 221.783,399.796 228.5,400C 231.463,401.497 234.63,402.331 238,402.5C 243.509,402.099 249.009,401.599 254.5,401C 253.294,399.982 253.627,399.482 255.5,399.5C 259.524,400.469 263.191,399.636 266.5,397C 274.82,397.318 282.82,395.984 290.5,393C 294.033,390.347 295.199,386.847 294,382.5C 292.301,383.406 290.467,383.739 288.5,383.5C 292.185,381.565 295.685,379.232 299,376.5C 302.978,377.978 305.811,380.645 307.5,384.5 Z"/></g>
<g><path style="opacity:1" fill="#180201" d="M 281.5,328.5 C 282.571,332.678 282.571,337.011 281.5,341.5C 288.478,342.649 293.645,346.316 297,352.5C 297.333,352.167 297.667,351.833 298,351.5C 298.499,356.823 298.666,362.156 298.5,367.5C 299.552,367.351 300.552,367.517 301.5,368C 299.602,369.978 300.268,371.645 303.5,373C 303.167,373.333 302.833,373.667 302.5,374C 303.874,377.41 304.541,377.243 304.5,373.5C 305.5,373.5 306.5,373.5 307.5,373.5C 308.039,375.505 308.705,377.505 309.5,379.5C 309.911,378.738 310.077,377.738 310,376.5C 312.152,378.277 311.985,379.777 309.5,381C 309.959,383.126 309.959,385.292 309.5,387.5C 309.573,385.973 308.906,384.973 307.5,384.5C 305.811,380.645 302.978,377.978 299,376.5C 295.685,379.232 292.185,381.565 288.5,383.5C 283.522,384.994 278.522,386.327 273.5,387.5C 253.8,390.292 234.133,390.125 214.5,387C 208.327,385.547 202.66,383.047 197.5,379.5C 196.89,378.609 196.557,377.609 196.5,376.5C 194.502,375.852 192.502,375.019 190.5,374C 191.833,373.333 192.833,372.333 193.5,371C 190.713,368.833 189.88,365.999 191,362.5C 191.833,363.5 192.667,364.5 193.5,365.5C 193.833,365.167 194.167,364.833 194.5,364.5C 193.48,362.568 193.313,360.568 194,358.5C 194.333,358.833 194.667,359.167 195,359.5C 195.278,358.584 195.778,357.918 196.5,357.5C 196.5,359.5 196.5,361.5 196.5,363.5C 197.737,369.911 201.404,374.411 207.5,377C 235.507,386.369 263.174,385.536 290.5,374.5C 297.631,368.02 298.964,360.687 294.5,352.5C 292.05,348.715 288.716,346.048 284.5,344.5C 280.531,347.489 276.198,349.989 271.5,352C 257.699,355.327 243.699,356.327 229.5,355C 225.222,354.689 221.222,353.523 217.5,351.5C 216.564,350.026 215.23,349.026 213.5,348.5C 213.5,348.167 213.5,347.833 213.5,347.5C 215.17,347.751 216.67,348.418 218,349.5C 218.772,348.151 219.939,347.318 221.5,347C 217.534,347.143 215.534,345.309 215.5,341.5C 220.782,345.493 226.782,347.659 233.5,348C 249.038,350.47 263.705,348.137 277.5,341C 280.883,337.518 282.216,333.351 281.5,328.5 Z"/></g>
<g><path style="opacity:1" fill="#fcf5e9" d="M 218.5,357.5 C 221.32,357.248 223.986,357.748 226.5,359C 227.554,360.388 227.72,361.888 227,363.5C 220.895,366.035 218.061,364.035 218.5,357.5 Z"/></g>
<g><path style="opacity:1" fill="#f4cc9f" d="M 230.5,358.5 C 235.159,358.015 236.492,359.848 234.5,364C 229.728,364.81 228.395,362.977 230.5,358.5 Z"/></g>
<g><path style="opacity:1" fill="#af7a50" d="M 197.5,379.5 C 202.66,383.047 208.327,385.547 214.5,387C 234.133,390.125 253.8,390.292 273.5,387.5C 273.082,388.222 272.416,388.722 271.5,389C 252.441,392.31 233.441,392.31 214.5,389C 216.806,390.793 217.139,392.96 215.5,395.5C 212.291,396.787 209.125,396.787 206,395.5C 205.45,392.737 204.617,390.07 203.5,387.5C 205.279,385.065 204.613,384.065 201.5,384.5C 201.598,386.553 200.931,388.22 199.5,389.5C 199.364,383.625 196.697,382.125 191.5,385C 190.111,392.432 192.778,394.265 199.5,390.5C 198.154,394.992 195.487,395.825 191.5,393C 190.074,390.955 189.074,388.788 188.5,386.5C 190.637,383.027 193.637,380.694 197.5,379.5 Z"/></g>
<g><path style="opacity:1" fill="#fef7ea" d="M 199.5,389.5 C 199.5,389.833 199.5,390.167 199.5,390.5C 192.778,394.265 190.111,392.432 191.5,385C 196.697,382.125 199.364,383.625 199.5,389.5 Z"/></g>
<g><path style="opacity:1" fill="#b6703b" d="M 192.5,401.5 C 189.167,399.5 186.5,396.833 184.5,393.5C 185.979,391.28 187.312,388.946 188.5,386.5C 189.074,388.788 190.074,390.955 191.5,393C 195.487,395.825 198.154,394.992 199.5,390.5C 199.5,390.167 199.5,389.833 199.5,389.5C 200.931,388.22 201.598,386.553 201.5,384.5C 204.613,384.065 205.279,385.065 203.5,387.5C 204.617,390.07 205.45,392.737 206,395.5C 209.125,396.787 212.291,396.787 215.5,395.5C 217.139,392.96 216.806,390.793 214.5,389C 233.441,392.31 252.441,392.31 271.5,389C 272.416,388.722 273.082,388.222 273.5,387.5C 278.522,386.327 283.522,384.994 288.5,383.5C 290.467,383.739 292.301,383.406 294,382.5C 295.199,386.847 294.033,390.347 290.5,393C 282.82,395.984 274.82,397.318 266.5,397C 263.191,399.636 259.524,400.469 255.5,399.5C 253.627,399.482 253.294,399.982 254.5,401C 249.009,401.599 243.509,402.099 238,402.5C 234.63,402.331 231.463,401.497 228.5,400C 221.783,399.796 215.117,399.296 208.5,398.5C 207.158,399.902 206.324,399.569 206,397.5C 204.812,398.563 204.312,399.897 204.5,401.5C 200.484,402.743 196.484,402.743 192.5,401.5 Z"/></g>
<g><path style="opacity:1" fill="#fdf3e2" d="M 207.5,388.5 C 211.939,388.415 214.105,390.415 214,394.5C 207.423,397.088 205.256,395.088 207.5,388.5 Z"/></g>
<g><path style="opacity:1" fill="#842e16" d="M 182.5,387.5 C 182.025,390.082 182.692,392.082 184.5,393.5C 186.5,396.833 189.167,399.5 192.5,401.5C 194.428,403.474 196.761,404.974 199.5,406C 230.248,413.457 260.915,413.124 291.5,405C 298.851,401.841 304.185,396.674 307.5,389.5C 308.647,393.646 308.814,397.98 308,402.5C 307,403.833 306,405.167 305,406.5C 304.71,404.956 304.044,403.623 303,402.5C 300.635,403.289 298.468,404.456 296.5,406C 298.473,406.495 300.473,406.662 302.5,406.5C 302.5,407.5 302.5,408.5 302.5,409.5C 297.723,410.2 293.39,411.867 289.5,414.5C 285.396,415.568 281.23,416.234 277,416.5C 274.083,416.665 271.417,415.998 269,414.5C 265.599,414.465 262.099,414.632 258.5,415C 260.384,414.784 262.051,414.117 263.5,413C 262.833,412.833 262.167,412.667 261.5,412.5C 251.959,411.947 242.459,412.614 233,414.5C 227.667,413.833 222.333,413.167 217,412.5C 214.019,413.959 210.852,414.626 207.5,414.5C 202.61,413.238 197.61,412.238 192.5,411.5C 183.107,405.981 179.774,397.981 182.5,387.5 Z"/></g>
<g><path style="opacity:1" fill="#7a2d1c" d="M 307.5,384.5 C 308.906,384.973 309.573,385.973 309.5,387.5C 312.59,397.667 309.923,405.834 301.5,412C 292.065,416.466 282.065,418.799 271.5,419C 250.813,419.805 230.147,419.472 209.5,418C 205.527,416.972 201.527,416.139 197.5,415.5C 195.651,414.407 193.984,413.074 192.5,411.5C 197.61,412.238 202.61,413.238 207.5,414.5C 210.852,414.626 214.019,413.959 217,412.5C 222.333,413.167 227.667,413.833 233,414.5C 242.459,412.614 251.959,411.947 261.5,412.5C 262.167,412.667 262.833,412.833 263.5,413C 262.051,414.117 260.384,414.784 258.5,415C 262.099,414.632 265.599,414.465 269,414.5C 271.417,415.998 274.083,416.665 277,416.5C 281.23,416.234 285.396,415.568 289.5,414.5C 293.39,411.867 297.723,410.2 302.5,409.5C 302.5,408.5 302.5,407.5 302.5,406.5C 300.473,406.662 298.473,406.495 296.5,406C 298.468,404.456 300.635,403.289 303,402.5C 304.044,403.623 304.71,404.956 305,406.5C 306,405.167 307,403.833 308,402.5C 308.814,397.98 308.647,393.646 307.5,389.5C 307.5,387.833 307.5,386.167 307.5,384.5 Z"/></g>
<g><path style="opacity:0.966" fill="#160c0b" d="M 307.5,373.5 C 312.037,375.861 315.204,379.527 317,384.5C 321.689,403.414 314.856,416.247 296.5,423C 287.658,425.279 278.658,426.613 269.5,427C 252.833,427.667 236.167,427.667 219.5,427C 212.022,426.408 204.689,425.075 197.5,423C 193.654,421.914 190.32,420.081 187.5,417.5C 185.887,414.842 184.554,412.009 183.5,409C 186.112,408.259 187.778,409.259 188.5,412C 191.279,413.722 194.279,414.889 197.5,415.5C 201.527,416.139 205.527,416.972 209.5,418C 230.147,419.472 250.813,419.805 271.5,419C 282.065,418.799 292.065,416.466 301.5,412C 309.923,405.834 312.59,397.667 309.5,387.5C 309.959,385.292 309.959,383.126 309.5,381C 311.985,379.777 312.152,378.277 310,376.5C 310.077,377.738 309.911,378.738 309.5,379.5C 308.705,377.505 308.039,375.505 307.5,373.5 Z"/></g>
<g><path style="opacity:0.982" fill="#21201f" d="M 158.5,417.5 C 165.312,417.431 167.312,420.265 164.5,426C 159.794,427.863 155.294,427.363 151,424.5C 150.289,422.633 150.789,421.133 152.5,420C 154.611,419.155 156.611,418.322 158.5,417.5 Z"/></g>
<g><path style="opacity:0.975" fill="#1b1919" d="M 330.5,418.5 C 333.518,418.335 336.518,418.502 339.5,419C 345.366,421.315 345.7,423.981 340.5,427C 337.167,427.667 333.833,427.667 330.5,427C 326.893,424.303 326.893,421.47 330.5,418.5 Z"/></g>
</svg>
